<svg xmlns="http://www.w3.org/2000/svg" version="1.1" xmlns:xlink="http://www.w3.org/1999/xlink" xmlns:svgjs="http://svgjs.dev/svgjs" width="2000" height="616" viewBox="0 0 2000 616"><g transform="matrix(1,0,0,1,-1.2121212121212466,-1.5725929419393196)"><svg viewBox="0 0 396 122" data-background-color="#121212" preserveAspectRatio="xMidYMid meet" height="616" width="2000" xmlns="http://www.w3.org/2000/svg" xmlns:xlink="http://www.w3.org/1999/xlink"><g id="tight-bounds" transform="matrix(1,0,0,1,0.2400000000000091,0.31145509564382223)"><svg viewBox="0 0 395.52 121.37708980871238" height="121.37708980871238" width="395.52"><g><svg viewBox="0 0 397.4975999999999 121.98397525775593" height="121.37708980871238" width="395.52"><g transform="matrix(1,0,0,1,0,93.36441219042656)"><svg viewBox="0 0 397.4975999999999 28.61956306732937" height="28.61956306732937" width="397.4975999999999"><g id="textblocktransform"><svg viewBox="0 0 397.4975999999999 28.61956306732937" height="28.61956306732937" width="397.4975999999999" id="textblock"><g><rect width="397.4975999999999" height="1.0329022902547438" x="0" y="14.916237591652173" fill="#ffffff" opacity="1" stroke-width="0" stroke="transparent" fill-opacity="1" class="rect-yte-0" data-fill-palette-color="primary" rx="1%" id="yte-0" data-palette-color="#ffffff"></rect></g><g transform="matrix(1,0,0,1,0.9887999999999693,0)"><svg viewBox="0 0 395.52 13.699467878001297" height="13.699467878001297" width="395.52"><g transform="matrix(1,0,0,1,0,0)"><svg width="395.52" viewBox="-1.2000000000000002 -39.35 1233.7 43.7" height="13.699467878001297" data-palette-color="#ffffff"><path d="M17.35-9.15L17.35-35 21.35-35 21.35-9.15Q21.35-6.4 20.15-4.25 18.95-2.1 16.82-0.88 14.7 0.35 11.85 0.35L11.85 0.35Q8.25 0.35 5.95-1.48 3.65-3.3 2.8-6.5L2.8-6.5 6.25-7.75Q6.6-6.45 7.28-5.4 7.95-4.35 9.08-3.75 10.2-3.15 11.85-3.15L11.85-3.15Q13.8-3.15 15-4.05 16.2-4.95 16.78-6.33 17.35-7.7 17.35-9.15L17.35-9.15ZM45 0.35L45 0.35Q41.3 0.35 38.12-0.95 34.95-2.25 32.57-4.63 30.2-7 28.87-10.28 27.55-13.55 27.55-17.5L27.55-17.5Q27.55-21.45 28.87-24.73 30.2-28 32.57-30.38 34.95-32.75 38.12-34.05 41.3-35.35 45-35.35L45-35.35Q48.65-35.35 51.82-34.05 55-32.75 57.35-30.38 59.7-28 61.02-24.73 62.35-21.45 62.35-17.5L62.35-17.5Q62.35-13.55 61.02-10.28 59.7-7 57.35-4.63 55-2.25 51.82-0.95 48.65 0.35 45 0.35ZM45-3.15L45-3.15Q48.75-3.15 51.75-4.9 54.75-6.65 56.5-9.88 58.25-13.1 58.25-17.5L58.25-17.5Q58.25-21.95 56.5-25.18 54.75-28.4 51.75-30.13 48.75-31.85 45-31.85L45-31.85Q41.2-31.85 38.17-30.13 35.15-28.4 33.4-25.18 31.65-21.95 31.65-17.5L31.65-17.5Q31.65-13.1 33.4-9.88 35.15-6.65 38.17-4.9 41.2-3.15 45-3.15ZM91.65-35L91.65-31.5 72.7-31.5 72.7-19.55 86.95-19.55 86.95-16.05 72.7-16.05 72.7-3.5 91.65-3.5 91.65 0 68.7 0 68.7-35 91.65-35ZM117.14-27.1L117.14 0 113.14 0 113.14-35 117.54-35 130.54-5.5 143.49-35 147.84-35 147.84 0 143.84 0 143.84-27.1 131.94 0 129.09 0 117.14-27.1ZM179.29-35L179.29-31.5 160.34-31.5 160.34-19.55 174.59-19.55 174.59-16.05 160.34-16.05 160.34-3.5 179.29-3.5 179.29 0 156.34 0 156.34-35 179.29-35ZM209.54-35L213.54-35 213.54 0 209.49 0 190.79-28.6 190.79 0 186.79 0 186.79-35 190.84-35 209.54-6.45 209.54-35ZM222.03-35L233.58-35Q239.38-35 243.51-32.88 247.63-30.75 249.86-26.8 252.08-22.85 252.08-17.4L252.08-17.4Q252.08-12 249.86-8.1 247.63-4.2 243.51-2.1 239.38 0 233.58 0L233.58 0 222.03 0 222.03-35ZM226.03-3.5L233.58-3.5Q240.73-3.5 244.38-7.15 248.03-10.8 248.03-17.4L248.03-17.4Q248.03-24.05 244.38-27.78 240.73-31.5 233.58-31.5L233.58-31.5 226.03-31.5 226.03-3.5ZM281.43-35L281.43-31.5 262.48-31.5 262.48-19.55 276.73-19.55 276.73-16.05 262.48-16.05 262.48-3.5 281.43-3.5 281.43 0 258.48 0 258.48-35 281.43-35ZM311.48-35L311.48-31.85 292.18-3.5 311.68-3.5 311.68 0 287.53 0 287.53-3.15 306.78-31.5 287.73-31.5 287.73-35 311.48-35ZM317.68-12.2L317.68-15.6 337.38-15.6 337.38-12.2 317.68-12.2ZM344.77 0L344.77-35 348.77-35 348.77-19.55 367.52-19.55 367.52-35 371.52-35 371.52 0 367.52 0 367.52-16.05 348.77-16.05 348.77 0 344.77 0ZM379.82-12.95L379.82-35 383.82-35 383.82-12.9Q383.82-9.45 385.07-7.3 386.32-5.15 388.45-4.15 390.57-3.15 393.27-3.15L393.27-3.15Q395.92-3.15 398.02-4.15 400.12-5.15 401.37-7.3 402.62-9.45 402.62-12.9L402.62-12.9 402.62-35 406.62-35 406.62-12.95Q406.62-9.5 405.55-7 404.47-4.5 402.57-2.88 400.67-1.25 398.27-0.45 395.87 0.35 393.22 0.35L393.22 0.35Q389.62 0.35 386.57-1.07 383.52-2.5 381.67-5.45 379.82-8.4 379.82-12.95L379.82-12.95ZM445.77-25.8L442.27-24.5Q440.37-28.25 437.22-30.03 434.07-31.8 430.22-31.8L430.22-31.8Q426.42-31.8 423.37-30.05 420.32-28.3 418.57-25.1 416.82-21.9 416.82-17.5L416.82-17.5Q416.82-13.15 418.57-9.95 420.32-6.75 423.37-5 426.42-3.25 430.22-3.25L430.22-3.25Q433.07-3.25 435.52-4.23 437.97-5.2 439.77-7.03 441.57-8.85 442.52-11.4L442.52-11.4 442.52-15.45 430.52-15.45 430.52-18.7 446.57-18.7 446.57-11.2Q445.42-7.85 443.07-5.25 440.72-2.65 437.42-1.15 434.12 0.35 430.22 0.35L430.22 0.35Q426.52 0.35 423.34-0.95 420.17-2.25 417.79-4.63 415.42-7 414.09-10.28 412.77-13.55 412.77-17.5L412.77-17.5Q412.77-21.45 414.09-24.73 415.42-28 417.79-30.38 420.17-32.75 423.34-34.05 426.52-35.35 430.22-35.35L430.22-35.35Q433.67-35.35 436.69-34.23 439.72-33.1 442.07-30.98 444.42-28.85 445.77-25.8L445.77-25.8ZM453.37 0L453.37-35 457.37-35 457.37-19.55 476.12-19.55 476.12-35 480.12-35 480.12 0 476.12 0 476.12-16.05 457.37-16.05 457.37 0 453.37 0ZM511.56-35L511.56-31.5 492.61-31.5 492.61-19.55 506.86-19.55 506.86-16.05 492.61-16.05 492.61-3.5 511.56-3.5 511.56 0 488.61 0 488.61-35 511.56-35ZM517.36-7.45L521.01-8.9Q521.31-7.55 522.29-6.23 523.26-4.9 524.99-4.03 526.71-3.15 529.41-3.15L529.41-3.15Q533.26-3.15 535.11-4.95 536.96-6.75 536.96-9.2L536.96-9.2Q536.96-11.15 535.91-12.4 534.86-13.65 533.06-14.48 531.26-15.3 529.01-15.95L529.01-15.95Q527.01-16.5 525.04-17.18 523.06-17.85 521.46-18.88 519.86-19.9 518.91-21.55 517.96-23.2 517.96-25.65L517.96-25.65Q517.96-28.6 519.36-30.78 520.76-32.95 523.31-34.15 525.86-35.35 529.26-35.35L529.26-35.35Q532.21-35.35 534.41-34.5 536.61-33.65 538.09-32.13 539.56-30.6 540.26-28.6L540.26-28.6 536.71-27.25Q536.36-28.4 535.36-29.48 534.36-30.55 532.76-31.25 531.16-31.95 529.11-31.95L529.11-31.95Q527.11-31.95 525.49-31.25 523.86-30.55 522.91-29.25 521.96-27.95 521.96-26.1L521.96-26.1Q521.96-24.1 523.09-22.93 524.21-21.75 526.09-21.03 527.96-20.3 530.21-19.65L530.21-19.65Q532.26-19 534.19-18.25 536.11-17.5 537.64-16.4 539.16-15.3 540.06-13.65 540.96-12 540.96-9.6L540.96-9.6Q540.96-6.95 539.71-4.67 538.46-2.4 535.94-1.03 533.41 0.35 529.46 0.35L529.46 0.35Q526.16 0.35 523.66-0.68 521.16-1.7 519.56-3.45 517.96-5.2 517.36-7.45L517.36-7.45ZM549.61 0.25L549.61 0.25Q548.46 0.25 547.68-0.55 546.91-1.35 546.91-2.5L546.91-2.5Q546.91-3.65 547.68-4.45 548.46-5.25 549.61-5.25L549.61-5.25Q550.71-5.25 551.51-4.45 552.31-3.65 552.31-2.5L552.31-2.5Q552.31-1.35 551.51-0.55 550.71 0.25 549.61 0.25ZM549.61-21.35L549.61-21.35Q548.46-21.35 547.68-22.15 546.91-22.95 546.91-24.1L546.91-24.1Q546.91-25.25 547.68-26.05 548.46-26.85 549.61-26.85L549.61-26.85Q550.71-26.85 551.51-26.05 552.31-25.25 552.31-24.1L552.31-24.1Q552.31-22.95 551.51-22.15 550.71-21.35 549.61-21.35ZM571.85-17.5L571.85-17.5Q571.85-21.45 573.15-24.73 574.45-28 576.83-30.38 579.2-32.75 582.33-34.05 585.45-35.35 589.15-35.35L589.15-35.35Q594.55-35.35 598.63-32.85 602.7-30.35 604.8-25.75L604.8-25.75 601.55-24.55Q600.4-27 598.5-28.58 596.6-30.15 594.2-30.95 591.8-31.75 589.15-31.75L589.15-31.75Q585.4-31.75 582.4-30.05 579.4-28.35 577.68-25.15 575.95-21.95 575.95-17.5L575.95-17.5Q575.95-13.1 577.68-9.9 579.4-6.7 582.4-4.98 585.4-3.25 589.15-3.25L589.15-3.25Q591.85-3.25 594.3-4.1 596.75-4.95 598.73-6.75 600.7-8.55 601.9-11.25L601.9-11.25 605.15-10.05Q603-4.9 598.85-2.27 594.7 0.35 589.15 0.35L589.15 0.35Q585.45 0.35 582.33-0.95 579.2-2.25 576.83-4.65 574.45-7.05 573.15-10.33 571.85-13.6 571.85-17.5ZM622.65-17.25L633-35 637.45-35 624.65-13.45 624.65 0 620.65 0 620.65-13.4 607.85-35 612.3-35 622.65-17.25ZM664.3-25.5L664.3-25.5Q664.3-28.25 662.47-29.88 660.65-31.5 657.05-31.5L657.05-31.5 647.15-31.5 647.15-19.55 657.2-19.55Q660.6-19.55 662.45-21.15 664.3-22.75 664.3-25.5ZM657.8 0L643.15 0 643.15-35 657.4-35Q661.1-35 663.5-33.75 665.9-32.5 667.07-30.48 668.25-28.45 668.25-26L668.25-26Q668.25-23.6 667.37-21.98 666.5-20.35 665.02-19.4 663.55-18.45 661.8-18.1L661.8-18.1 661.8-17.75Q663.9-17.45 665.55-16.43 667.2-15.4 668.15-13.65 669.1-11.9 669.1-9.4L669.1-9.4Q669.1-6.8 667.8-4.65 666.5-2.5 663.97-1.25 661.45 0 657.8 0L657.8 0ZM647.15-16.05L647.15-3.5 657.5-3.5Q661.1-3.5 663.12-5.13 665.15-6.75 665.15-9.8L665.15-9.8Q665.15-12.85 663.02-14.45 660.9-16.05 657.35-16.05L657.35-16.05 647.15-16.05ZM699.09-35L699.09-31.5 680.14-31.5 680.14-19.55 694.39-19.55 694.39-16.05 680.14-16.05 680.14-3.5 699.09-3.5 699.09 0 676.14 0 676.14-35 699.09-35ZM726.79-24.65L726.79-24.65Q726.79-27.8 724.94-29.65 723.09-31.5 718.89-31.5L718.89-31.5 710.59-31.5 710.59-17.8 718.94-17.8Q721.69-17.8 723.42-18.65 725.14-19.5 725.97-21.05 726.79-22.6 726.79-24.65ZM706.59-35L718.89-35Q722.99-35 725.62-33.6 728.24-32.2 729.54-29.88 730.84-27.55 730.84-24.65L730.84-24.65Q730.84-22.6 730.17-20.75 729.49-18.9 728.04-17.45 726.59-16 724.34-15.15 722.09-14.3 718.94-14.3L718.94-14.3 710.59-14.3 710.59 0 706.59 0 706.59-35ZM717.49-15.8L721.79-15.8 731.49 0 726.94 0 717.49-15.8ZM736.14-7.45L739.79-8.9Q740.09-7.55 741.06-6.23 742.04-4.9 743.76-4.03 745.49-3.15 748.19-3.15L748.19-3.15Q752.04-3.15 753.89-4.95 755.74-6.75 755.74-9.2L755.74-9.2Q755.74-11.15 754.69-12.4 753.64-13.65 751.84-14.48 750.04-15.3 747.79-15.95L747.79-15.95Q745.79-16.5 743.81-17.18 741.84-17.85 740.24-18.88 738.64-19.9 737.69-21.55 736.74-23.2 736.74-25.65L736.74-25.65Q736.74-28.6 738.14-30.78 739.54-32.95 742.09-34.15 744.64-35.35 748.04-35.35L748.04-35.35Q750.99-35.35 753.19-34.5 755.39-33.65 756.86-32.13 758.34-30.6 759.04-28.6L759.04-28.6 755.49-27.25Q755.14-28.4 754.14-29.48 753.14-30.55 751.54-31.25 749.94-31.95 747.89-31.95L747.89-31.95Q745.89-31.95 744.26-31.25 742.64-30.55 741.69-29.25 740.74-27.95 740.74-26.1L740.74-26.1Q740.74-24.1 741.86-22.93 742.99-21.75 744.86-21.03 746.74-20.3 748.99-19.65L748.99-19.65Q751.04-19 752.96-18.25 754.89-17.5 756.41-16.4 757.94-15.3 758.84-13.65 759.74-12 759.74-9.6L759.74-9.6Q759.74-6.95 758.49-4.67 757.24-2.4 754.71-1.03 752.19 0.35 748.24 0.35L748.24 0.35Q744.94 0.35 742.44-0.68 739.94-1.7 738.34-3.45 736.74-5.2 736.14-7.45L736.14-7.45ZM789.49-35L789.49-31.5 770.54-31.5 770.54-19.55 784.79-19.55 784.79-16.05 770.54-16.05 770.54-3.5 789.49-3.5 789.49 0 766.54 0 766.54-35 789.49-35ZM794.88-17.5L794.88-17.5Q794.88-21.45 796.18-24.73 797.48-28 799.86-30.38 802.23-32.75 805.36-34.05 808.48-35.35 812.18-35.35L812.18-35.35Q817.58-35.35 821.66-32.85 825.73-30.35 827.83-25.75L827.83-25.75 824.58-24.55Q823.43-27 821.53-28.58 819.63-30.15 817.23-30.95 814.83-31.75 812.18-31.75L812.18-31.75Q808.43-31.75 805.43-30.05 802.43-28.35 800.71-25.15 798.98-21.95 798.98-17.5L798.98-17.5Q798.98-13.1 800.71-9.9 802.43-6.7 805.43-4.98 808.43-3.25 812.18-3.25L812.18-3.25Q814.88-3.25 817.33-4.1 819.78-4.95 821.76-6.75 823.73-8.55 824.93-11.25L824.93-11.25 828.18-10.05Q826.03-4.9 821.88-2.27 817.73 0.35 812.18 0.35L812.18 0.35Q808.48 0.35 805.36-0.95 802.23-2.25 799.86-4.65 797.48-7.05 796.18-10.33 794.88-13.6 794.88-17.5ZM835.03-12.95L835.03-35 839.03-35 839.03-12.9Q839.03-9.45 840.28-7.3 841.53-5.15 843.66-4.15 845.78-3.15 848.48-3.15L848.48-3.15Q851.13-3.15 853.23-4.15 855.33-5.15 856.58-7.3 857.83-9.45 857.83-12.9L857.83-12.9 857.83-35 861.83-35 861.83-12.95Q861.83-9.5 860.76-7 859.68-4.5 857.78-2.88 855.88-1.25 853.48-0.45 851.08 0.35 848.43 0.35L848.43 0.35Q844.83 0.35 841.78-1.07 838.73-2.5 836.88-5.45 835.03-8.4 835.03-12.95L835.03-12.95ZM890.28-24.65L890.28-24.65Q890.28-27.8 888.43-29.65 886.58-31.5 882.38-31.5L882.38-31.5 874.08-31.5 874.08-17.8 882.43-17.8Q885.18-17.8 886.9-18.65 888.63-19.5 889.45-21.05 890.28-22.6 890.28-24.65ZM870.08-35L882.38-35Q886.48-35 889.1-33.6 891.73-32.2 893.03-29.88 894.33-27.55 894.33-24.65L894.33-24.65Q894.33-22.6 893.65-20.75 892.98-18.9 891.53-17.45 890.08-16 887.83-15.15 885.58-14.3 882.43-14.3L882.43-14.3 874.08-14.3 874.08 0 870.08 0 870.08-35ZM880.98-15.8L885.28-15.8 894.98 0 890.43 0 880.98-15.8ZM901.33 0L901.33-35 905.33-35 905.33 0 901.33 0ZM911.72-31.5L911.72-35 937.97-35 937.97-31.5 926.87-31.5 926.87 0 922.87 0 922.87-31.5 911.72-31.5ZM956.27-17.25L966.62-35 971.07-35 958.27-13.45 958.27 0 954.27 0 954.27-13.4 941.47-35 945.92-35 956.27-17.25ZM1013.72-35L1013.72-31.5 994.77-31.5 994.77-19.55 1009.02-19.55 1009.02-16.05 994.77-16.05 994.77-3.5 1013.72-3.5 1013.72 0 990.77 0 990.77-35 1013.72-35ZM1043.96-35L1047.96-35 1047.96 0 1043.91 0 1025.21-28.6 1025.21 0 1021.21 0 1021.21-35 1025.26-35 1043.96-6.45 1043.96-35ZM1087.36-25.8L1083.86-24.5Q1081.96-28.25 1078.81-30.03 1075.66-31.8 1071.81-31.8L1071.81-31.8Q1068.01-31.8 1064.96-30.05 1061.91-28.3 1060.16-25.1 1058.41-21.9 1058.41-17.5L1058.41-17.5Q1058.41-13.15 1060.16-9.95 1061.91-6.75 1064.96-5 1068.01-3.25 1071.81-3.25L1071.81-3.25Q1074.66-3.25 1077.11-4.23 1079.56-5.2 1081.36-7.03 1083.16-8.85 1084.11-11.4L1084.11-11.4 1084.11-15.45 1072.11-15.45 1072.11-18.7 1088.16-18.7 1088.16-11.2Q1087.01-7.85 1084.66-5.25 1082.31-2.65 1079.01-1.15 1075.71 0.35 1071.81 0.35L1071.81 0.35Q1068.11 0.35 1064.94-0.95 1061.76-2.25 1059.39-4.63 1057.01-7 1055.69-10.28 1054.36-13.55 1054.36-17.5L1054.36-17.5Q1054.36-21.45 1055.69-24.73 1057.01-28 1059.39-30.38 1061.76-32.75 1064.94-34.05 1068.11-35.35 1071.81-35.35L1071.81-35.35Q1075.26-35.35 1078.29-34.23 1081.31-33.1 1083.66-30.98 1086.01-28.85 1087.36-25.8L1087.36-25.8ZM1094.96 0L1094.96-35 1098.96-35 1098.96 0 1094.96 0ZM1130.21-35L1134.21-35 1134.21 0 1130.16 0 1111.46-28.6 1111.46 0 1107.46 0 1107.46-35 1111.51-35 1130.21-6.45 1130.21-35ZM1165.65-35L1165.65-31.5 1146.7-31.5 1146.7-19.55 1160.95-19.55 1160.95-16.05 1146.7-16.05 1146.7-3.5 1165.65-3.5 1165.65 0 1142.7 0 1142.7-35 1165.65-35ZM1196.1-35L1196.1-31.5 1177.15-31.5 1177.15-19.55 1191.4-19.55 1191.4-16.05 1177.15-16.05 1177.15-3.5 1196.1-3.5 1196.1 0 1173.15 0 1173.15-35 1196.1-35ZM1223.8-24.65L1223.8-24.65Q1223.8-27.8 1221.95-29.65 1220.1-31.5 1215.9-31.5L1215.9-31.5 1207.6-31.5 1207.6-17.8 1215.95-17.8Q1218.7-17.8 1220.42-18.65 1222.15-19.5 1222.97-21.05 1223.8-22.6 1223.8-24.65ZM1203.6-35L1215.9-35Q1220-35 1222.62-33.6 1225.25-32.2 1226.55-29.88 1227.85-27.55 1227.85-24.65L1227.85-24.65Q1227.85-22.6 1227.17-20.75 1226.5-18.9 1225.05-17.45 1223.6-16 1221.35-15.15 1219.1-14.3 1215.95-14.3L1215.95-14.3 1207.6-14.3 1207.6 0 1203.6 0 1203.6-35ZM1214.5-15.8L1218.8-15.8 1228.5 0 1223.95 0 1214.5-15.8Z" opacity="1" transform="matrix(1,0,0,1,0,0)" fill="#ffffff" class="wordmark-text-0" data-fill-palette-color="primary" id="text-0"></path></svg></g></svg></g><g transform="matrix(1,0,0,1,3.5,17.165909595557792)"><svg viewBox="0 0 388.52 11.453653471771577" height="11.453653471771577" width="388.52"><g transform="matrix(1,0,0,1,0,0)"><svg width="388.52" viewBox="-0.4500000000000002 -40.25 1866.04 55.85" height="11.453653471771577" data-palette-color="#00cc66"><path d="M14.85 0L3.55 0 3.55-35 14.85-35Q20.95-35 24.93-32.85 28.9-30.7 30.83-26.78 32.75-22.85 32.75-17.45L32.75-17.45Q32.75-12.15 30.83-8.22 28.9-4.3 24.93-2.15 20.95 0 14.85 0L14.85 0ZM9.55-29.95L9.55-5.1 14.55-5.1Q19.1-5.1 21.73-6.58 24.35-8.05 25.48-10.83 26.6-13.6 26.6-17.45L26.6-17.45Q26.6-21.35 25.48-24.13 24.35-26.9 21.73-28.43 19.1-29.95 14.55-29.95L14.55-29.95 9.55-29.95ZM82.15 0.6L82.15 0.6Q78.4 0.6 75.55-1.03 72.7-2.65 71.1-5.6 69.5-8.55 69.5-12.4L69.5-12.4Q69.5-16.4 71.08-19.4 72.65-22.4 75.53-24.1 78.4-25.8 82.2-25.8L82.2-25.8Q85.9-25.8 88.65-24.15 91.4-22.5 92.9-19.73 94.4-16.95 94.4-13.5L94.4-13.5Q94.4-13 94.4-12.4 94.4-11.8 94.3-11.15L94.3-11.15 73.8-11.15 73.8-15 88.35-15Q88.25-17.75 86.5-19.33 84.75-20.9 82.15-20.9L82.15-20.9Q80.3-20.9 78.75-20.05 77.2-19.2 76.3-17.53 75.4-15.85 75.4-13.3L75.4-13.3 75.4-11.85Q75.4-9.5 76.28-7.8 77.15-6.1 78.68-5.23 80.2-4.35 82.1-4.35L82.1-4.35Q84.2-4.35 85.58-5.25 86.95-6.15 87.6-7.65L87.6-7.65 93.7-7.65Q93-5.3 91.4-3.43 89.8-1.55 87.45-0.48 85.1 0.6 82.15 0.6ZM139.15 0L133.15 0 133.15-27.95Q133.15-30.85 134.13-32.63 135.1-34.4 136.95-35.2 138.8-36 141.35-36L141.35-36 144.35-36 144.35-30.9 142.25-30.9Q140.6-30.9 139.88-30.23 139.15-29.55 139.15-27.9L139.15-27.9 139.15 0ZM144.85-20.15L129.55-20.15 129.55-25.2 144.85-25.2 144.85-20.15ZM192.75 0.6L192.75 0.6Q189 0.6 186.15-1.03 183.3-2.65 181.7-5.6 180.1-8.55 180.1-12.4L180.1-12.4Q180.1-16.4 181.68-19.4 183.25-22.4 186.13-24.1 189-25.8 192.8-25.8L192.8-25.8Q196.5-25.8 199.25-24.15 202-22.5 203.5-19.73 205-16.95 205-13.5L205-13.5Q205-13 205-12.4 205-11.8 204.9-11.15L204.9-11.15 184.4-11.15 184.4-15 198.95-15Q198.85-17.75 197.1-19.33 195.35-20.9 192.75-20.9L192.75-20.9Q190.9-20.9 189.35-20.05 187.8-19.2 186.9-17.53 186-15.85 186-13.3L186-13.3 186-11.85Q186-9.5 186.88-7.8 187.75-6.1 189.28-5.23 190.8-4.35 192.7-4.35L192.7-4.35Q194.8-4.35 196.18-5.25 197.55-6.15 198.2-7.65L198.2-7.65 204.3-7.65Q203.6-5.3 202-3.43 200.4-1.55 198.05-0.48 195.7 0.6 192.75 0.6ZM248.51 0L242.51 0 242.51-25.2 247.81-25.2 248.26-21 248.26-21Q249.41-23.2 251.56-24.5 253.71-25.8 256.66-25.8L256.66-25.8Q259.71-25.8 261.86-24.53 264.01-23.25 265.18-20.8 266.36-18.35 266.36-14.7L266.36-14.7 266.36 0 260.36 0 260.36-14.15Q260.36-17.3 258.96-19 257.56-20.7 254.81-20.7L254.81-20.7Q253.01-20.7 251.58-19.85 250.16-19 249.33-17.38 248.51-15.75 248.51-13.45L248.51-13.45 248.51 0ZM315.86 0.6L315.86 0.6Q312.36 0.6 309.61-1.1 306.86-2.8 305.33-5.8 303.81-8.8 303.81-12.6L303.81-12.6Q303.81-16.4 305.36-19.38 306.91-22.35 309.68-24.08 312.46-25.8 315.96-25.8L315.96-25.8Q318.81-25.8 320.93-24.73 323.06-23.65 324.31-21.7L324.31-21.7 324.31-36 330.31-36 330.31 0 324.91 0 324.31-3.65 324.31-3.65Q323.51-2.55 322.36-1.58 321.21-0.6 319.61 0 318.01 0.6 315.86 0.6ZM317.11-4.6L317.11-4.6Q319.26-4.6 320.91-5.63 322.56-6.65 323.46-8.45 324.36-10.25 324.36-12.6L324.36-12.6Q324.36-14.95 323.46-16.75 322.56-18.55 320.91-19.55 319.26-20.55 317.11-20.55L317.11-20.55Q315.06-20.55 313.41-19.55 311.76-18.55 310.83-16.75 309.91-14.95 309.91-12.6L309.91-12.6Q309.91-10.25 310.83-8.45 311.76-6.65 313.41-5.63 315.06-4.6 317.11-4.6ZM375.16 0L369.16 0 369.16-25.2 375.16-25.2 375.16 0ZM372.16-29.2L372.16-29.2Q370.51-29.2 369.43-30.23 368.36-31.25 368.36-32.75L368.36-32.75Q368.36-34.3 369.43-35.27 370.51-36.25 372.16-36.25L372.16-36.25Q373.81-36.25 374.88-35.27 375.96-34.3 375.96-32.75L375.96-32.75Q375.96-31.25 374.88-30.23 373.81-29.2 372.16-29.2ZM420.06 0L414.06 0 414.06-25.2 419.36-25.2 419.81-21 419.81-21Q420.96-23.2 423.11-24.5 425.26-25.8 428.21-25.8L428.21-25.8Q431.26-25.8 433.41-24.53 435.56-23.25 436.73-20.8 437.91-18.35 437.91-14.7L437.91-14.7 437.91 0 431.91 0 431.91-14.15Q431.91-17.3 430.51-19 429.11-20.7 426.36-20.7L426.36-20.7Q424.56-20.7 423.13-19.85 421.71-19 420.88-17.38 420.06-15.75 420.06-13.45L420.06-13.45 420.06 0ZM486.81 11.6L486.81 11.6Q483.26 11.6 480.59 10.73 477.91 9.85 476.44 8.08 474.96 6.3 474.96 3.65L474.96 3.65Q474.96 2.1 475.74 0.63 476.51-0.85 478.09-2.13 479.66-3.4 482.11-4.35L482.11-4.35 484.76-1.45Q482.36-0.6 481.41 0.6 480.46 1.8 480.46 3.05L480.46 3.05Q480.46 4.35 481.29 5.23 482.11 6.1 483.54 6.55 484.96 7 486.76 7L486.76 7Q488.51 7 489.81 6.53 491.11 6.05 491.84 5.2 492.56 4.35 492.56 3.15L492.56 3.15Q492.56 1.65 491.51 0.73 490.46-0.2 487.36-0.4L487.36-0.4Q484.71-0.6 482.71-0.98 480.71-1.35 479.29-1.85 477.86-2.35 476.86-2.98 475.86-3.6 475.21-4.25L475.21-4.25 475.21-5.4 480.46-10.9 484.91-9.45 479.01-3.7 480.56-6.6Q481.06-6.25 481.59-5.95 482.11-5.65 482.94-5.43 483.76-5.2 485.11-5 486.46-4.8 488.61-4.6L488.61-4.6Q491.96-4.35 494.06-3.4 496.16-2.45 497.16-0.85 498.16 0.75 498.16 3L498.16 3Q498.16 5.2 496.94 7.15 495.71 9.1 493.21 10.35 490.71 11.6 486.81 11.6ZM486.81-7.55L486.81-7.55Q483.66-7.55 481.39-8.78 479.11-10 477.91-12.08 476.71-14.15 476.71-16.65L476.71-16.65Q476.71-19.2 477.91-21.25 479.11-23.3 481.39-24.55 483.66-25.8 486.81-25.8L486.81-25.8Q489.96-25.8 492.21-24.55 494.46-23.3 495.66-21.25 496.86-19.2 496.86-16.65L496.86-16.65Q496.86-14.15 495.66-12.08 494.46-10 492.21-8.78 489.96-7.55 486.81-7.55ZM486.81-12.2L486.81-12.2Q488.96-12.2 490.26-13.35 491.56-14.5 491.56-16.65L491.56-16.65Q491.56-18.8 490.26-19.93 488.96-21.05 486.81-21.05L486.81-21.05Q484.66-21.05 483.31-19.93 481.96-18.8 481.96-16.65L481.96-16.65Q481.96-14.5 483.31-13.35 484.66-12.2 486.81-12.2ZM500.16-21.4L490.96-20.8 489.81-25.2 500.16-25.2 500.16-21.4ZM593.06 0L581.76 0 581.76-35 593.06-35Q599.16-35 603.14-32.85 607.11-30.7 609.04-26.78 610.96-22.85 610.96-17.45L610.96-17.45Q610.96-12.15 609.04-8.22 607.11-4.3 603.14-2.15 599.16 0 593.06 0L593.06 0ZM587.76-29.95L587.76-5.1 592.76-5.1Q597.31-5.1 599.94-6.58 602.56-8.05 603.69-10.83 604.81-13.6 604.81-17.45L604.81-17.45Q604.81-21.35 603.69-24.13 602.56-26.9 599.94-28.43 597.31-29.95 592.76-29.95L592.76-29.95 587.76-29.95ZM656.96 0.6L656.96 0.6Q653.86 0.6 651.81-0.45 649.76-1.5 648.76-3.25 647.76-5 647.76-7.05L647.76-7.05Q647.76-9.45 648.99-11.2 650.21-12.95 652.61-13.93 655.01-14.9 658.51-14.9L658.51-14.9 664.86-14.9Q664.86-16.9 664.31-18.23 663.76-19.55 662.61-20.2 661.46-20.85 659.66-20.85L659.66-20.85Q657.61-20.85 656.16-19.93 654.71-19 654.36-17.1L654.36-17.1 648.46-17.1Q648.76-19.8 650.26-21.73 651.76-23.65 654.24-24.73 656.71-25.8 659.66-25.8L659.66-25.8Q663.21-25.8 665.71-24.58 668.21-23.35 669.54-21.08 670.86-18.8 670.86-15.6L670.86-15.6 670.86 0 665.76 0 665.16-4.05 665.16-4.05Q664.66-3.05 663.89-2.2 663.11-1.35 662.11-0.73 661.11-0.1 659.84 0.25 658.56 0.6 656.96 0.6ZM658.31-4.15L658.31-4.15Q659.76-4.15 660.89-4.67 662.01-5.2 662.84-6.18 663.66-7.15 664.11-8.35 664.56-9.55 664.71-10.9L664.71-10.9 664.71-11 659.16-11Q657.41-11 656.26-10.55 655.11-10.1 654.61-9.33 654.11-8.55 654.11-7.5L654.11-7.5Q654.11-6.45 654.61-5.7 655.11-4.95 656.06-4.55 657.01-4.15 658.31-4.15ZM724.07 0L719.77 0Q717.22 0 715.34-0.8 713.47-1.6 712.42-3.45 711.37-5.3 711.37-8.45L711.37-8.45 711.37-20.15 707.07-20.15 707.07-25.2 711.37-25.2 712.07-31.85 717.37-31.85 717.37-25.2 724.22-25.2 724.22-20.15 717.37-20.15 717.37-8.45Q717.37-6.55 718.19-5.83 719.02-5.1 720.97-5.1L720.97-5.1 724.07-5.1 724.07 0ZM770.22 0.6L770.22 0.6Q767.12 0.6 765.07-0.45 763.02-1.5 762.02-3.25 761.02-5 761.02-7.05L761.02-7.05Q761.02-9.45 762.24-11.2 763.47-12.95 765.87-13.93 768.27-14.9 771.77-14.9L771.77-14.9 778.12-14.9Q778.12-16.9 777.57-18.23 777.02-19.55 775.87-20.2 774.72-20.85 772.92-20.85L772.92-20.85Q770.87-20.85 769.42-19.93 767.97-19 767.62-17.1L767.62-17.1 761.72-17.1Q762.02-19.8 763.52-21.73 765.02-23.65 767.49-24.73 769.97-25.8 772.92-25.8L772.92-25.8Q776.47-25.8 778.97-24.58 781.47-23.35 782.79-21.08 784.12-18.8 784.12-15.6L784.12-15.6 784.12 0 779.02 0 778.42-4.05 778.42-4.05Q777.92-3.05 777.14-2.2 776.37-1.35 775.37-0.73 774.37-0.1 773.09 0.25 771.82 0.6 770.22 0.6ZM771.57-4.15L771.57-4.15Q773.02-4.15 774.14-4.67 775.27-5.2 776.09-6.18 776.92-7.15 777.37-8.35 777.82-9.55 777.97-10.9L777.97-10.9 777.97-11 772.42-11Q770.67-11 769.52-10.55 768.37-10.1 767.87-9.33 767.37-8.55 767.37-7.5L767.37-7.5Q767.37-6.45 767.87-5.7 768.37-4.95 769.32-4.55 770.27-4.15 771.57-4.15ZM825.07 0.25L825.07 0.25Q823.37 0.25 822.32-0.8 821.27-1.85 821.27-3.3L821.27-3.3Q821.27-4.85 822.32-5.9 823.37-6.95 825.07-6.95L825.07-6.95Q826.72-6.95 827.77-5.9 828.82-4.85 828.82-3.3L828.82-3.3Q828.82-1.85 827.77-0.8 826.72 0.25 825.07 0.25ZM933.17 0L910.57 0 910.57-35 933.17-35 933.17-30.15 916.57-30.15 916.57-20.1 931.67-20.1 931.67-15.35 916.57-15.35 916.57-4.85 933.17-4.85 933.17 0ZM977.22 0L971.22 0 971.22-25.2 976.52-25.2 977.02-21.75 977.02-21.75Q978.22-23.65 980.2-24.73 982.17-25.8 984.72-25.8L984.72-25.8Q986.62-25.8 988.15-25.3 989.67-24.8 990.85-23.8 992.02-22.8 992.77-21.3L992.77-21.3 992.77-21.3Q994.17-23.4 996.42-24.6 998.67-25.8 1001.32-25.8L1001.32-25.8Q1004.47-25.8 1006.67-24.53 1008.87-23.25 1010.02-20.78 1011.17-18.3 1011.17-14.7L1011.17-14.7 1011.17 0 1005.22 0 1005.22-14.1Q1005.22-17.3 1003.92-19 1002.62-20.7 1000.07-20.7L1000.07-20.7Q998.32-20.7 997-19.85 995.67-19 994.92-17.38 994.17-15.75 994.17-13.4L994.17-13.4 994.17 0 988.22 0 988.22-14.1Q988.22-17.3 986.92-19 985.62-20.7 983.02-20.7L983.02-20.7Q981.37-20.7 980.05-19.85 978.72-19 977.97-17.38 977.22-15.75 977.22-13.4L977.22-13.4 977.22 0ZM1055.47 11L1049.47 11 1049.47-25.2 1054.82-25.2 1055.47-21.55 1055.47-21.55Q1056.27-22.65 1057.4-23.63 1058.52-24.6 1060.15-25.2 1061.77-25.8 1063.87-25.8L1063.87-25.8Q1067.42-25.8 1070.15-24.05 1072.87-22.3 1074.42-19.33 1075.97-16.35 1075.97-12.55L1075.97-12.55Q1075.97-8.75 1074.4-5.78 1072.82-2.8 1070.1-1.1 1067.37 0.6 1063.87 0.6L1063.87 0.6Q1061.02 0.6 1058.9-0.48 1056.77-1.55 1055.47-3.55L1055.47-3.55 1055.47 11ZM1062.62-4.6L1062.62-4.6Q1064.72-4.6 1066.37-5.6 1068.02-6.6 1068.95-8.4 1069.87-10.2 1069.87-12.55L1069.87-12.55Q1069.87-14.95 1068.95-16.75 1068.02-18.55 1066.37-19.55 1064.72-20.55 1062.62-20.55L1062.62-20.55Q1060.47-20.55 1058.85-19.55 1057.22-18.55 1056.3-16.75 1055.37-14.95 1055.37-12.6L1055.37-12.6Q1055.37-10.2 1056.3-8.43 1057.22-6.65 1058.85-5.63 1060.47-4.6 1062.62-4.6ZM1125.48 0.6L1125.48 0.6Q1121.88 0.6 1119-1.07 1116.13-2.75 1114.5-5.73 1112.88-8.7 1112.88-12.55L1112.88-12.55Q1112.88-16.5 1114.53-19.48 1116.18-22.45 1119.05-24.13 1121.93-25.8 1125.53-25.8L1125.53-25.8Q1129.13-25.8 1132-24.13 1134.88-22.45 1136.5-19.5 1138.13-16.55 1138.13-12.6L1138.13-12.6Q1138.13-8.65 1136.48-5.7 1134.83-2.75 1131.95-1.07 1129.08 0.6 1125.48 0.6ZM1125.48-4.55L1125.48-4.55Q1127.28-4.55 1128.75-5.45 1130.23-6.35 1131.13-8.15 1132.03-9.95 1132.03-12.6L1132.03-12.6Q1132.03-15.25 1131.15-17.03 1130.28-18.8 1128.8-19.7 1127.33-20.6 1125.53-20.6L1125.53-20.6Q1123.78-20.6 1122.28-19.7 1120.78-18.8 1119.88-17.03 1118.98-15.25 1118.98-12.6L1118.98-12.6Q1118.98-9.95 1119.88-8.15 1120.78-6.35 1122.25-5.45 1123.73-4.55 1125.48-4.55ZM1186.23 0L1180.03 0 1172.63-25.2 1178.58-25.2 1183.73-4.5 1182.63-4.55 1188.38-25.2 1195.08-25.2 1200.88-4.55 1199.78-4.55 1204.93-25.2 1210.88-25.2 1203.48 0 1197.28 0 1191.13-21.35 1192.38-21.35 1186.23 0ZM1258.03 0.6L1258.03 0.6Q1254.28 0.6 1251.43-1.03 1248.58-2.65 1246.98-5.6 1245.38-8.55 1245.38-12.4L1245.38-12.4Q1245.38-16.4 1246.95-19.4 1248.53-22.4 1251.4-24.1 1254.28-25.8 1258.08-25.8L1258.08-25.8Q1261.78-25.8 1264.53-24.15 1267.28-22.5 1268.78-19.73 1270.28-16.95 1270.28-13.5L1270.28-13.5Q1270.28-13 1270.28-12.4 1270.28-11.8 1270.18-11.15L1270.18-11.15 1249.68-11.15 1249.68-15 1264.23-15Q1264.13-17.75 1262.38-19.33 1260.63-20.9 1258.03-20.9L1258.03-20.9Q1256.18-20.9 1254.63-20.05 1253.08-19.2 1252.18-17.53 1251.28-15.85 1251.28-13.3L1251.28-13.3 1251.28-11.85Q1251.28-9.5 1252.15-7.8 1253.03-6.1 1254.55-5.23 1256.08-4.35 1257.98-4.35L1257.98-4.35Q1260.08-4.35 1261.45-5.25 1262.83-6.15 1263.48-7.65L1263.48-7.65 1269.58-7.65Q1268.88-5.3 1267.28-3.43 1265.68-1.55 1263.33-0.48 1260.98 0.6 1258.03 0.6ZM1313.78 0L1307.78 0 1307.78-25.2 1313.13-25.2 1313.68-20.5 1313.68-20.5Q1314.58-22.15 1315.93-23.33 1317.28-24.5 1319.1-25.15 1320.93-25.8 1323.13-25.8L1323.13-25.8 1323.13-19.45 1321.03-19.45Q1319.53-19.45 1318.18-19.07 1316.83-18.7 1315.85-17.88 1314.88-17.05 1314.33-15.63 1313.78-14.2 1313.78-12.05L1313.78-12.05 1313.78 0ZM1365.83 0L1359.83 0 1359.83-25.2 1365.83-25.2 1365.83 0ZM1362.83-29.2L1362.83-29.2Q1361.18-29.2 1360.11-30.23 1359.03-31.25 1359.03-32.75L1359.03-32.75Q1359.03-34.3 1360.11-35.27 1361.18-36.25 1362.83-36.25L1362.83-36.25Q1364.48-36.25 1365.56-35.27 1366.63-34.3 1366.63-32.75L1366.63-32.75Q1366.63-31.25 1365.56-30.23 1364.48-29.2 1362.83-29.2ZM1410.73 0L1404.73 0 1404.73-25.2 1410.03-25.2 1410.48-21 1410.48-21Q1411.63-23.2 1413.78-24.5 1415.93-25.8 1418.88-25.8L1418.88-25.8Q1421.93-25.8 1424.08-24.53 1426.23-23.25 1427.41-20.8 1428.58-18.35 1428.58-14.7L1428.58-14.7 1428.58 0 1422.58 0 1422.58-14.15Q1422.58-17.3 1421.18-19 1419.78-20.7 1417.03-20.7L1417.03-20.7Q1415.23-20.7 1413.81-19.85 1412.38-19 1411.56-17.38 1410.73-15.75 1410.73-13.45L1410.73-13.45 1410.73 0ZM1477.48 11.6L1477.48 11.6Q1473.93 11.6 1471.26 10.73 1468.58 9.85 1467.11 8.08 1465.63 6.3 1465.63 3.65L1465.63 3.65Q1465.63 2.1 1466.41 0.63 1467.18-0.85 1468.76-2.13 1470.33-3.4 1472.78-4.35L1472.78-4.35 1475.43-1.45Q1473.03-0.6 1472.08 0.6 1471.13 1.8 1471.13 3.05L1471.13 3.05Q1471.13 4.35 1471.96 5.23 1472.78 6.1 1474.21 6.55 1475.63 7 1477.43 7L1477.43 7Q1479.18 7 1480.48 6.53 1481.78 6.05 1482.51 5.2 1483.23 4.35 1483.23 3.15L1483.23 3.15Q1483.23 1.65 1482.18 0.73 1481.13-0.2 1478.03-0.4L1478.03-0.4Q1475.38-0.6 1473.38-0.98 1471.38-1.35 1469.96-1.85 1468.53-2.35 1467.53-2.98 1466.53-3.6 1465.88-4.25L1465.88-4.25 1465.88-5.4 1471.13-10.9 1475.58-9.45 1469.68-3.7 1471.23-6.6Q1471.73-6.25 1472.26-5.95 1472.78-5.65 1473.61-5.43 1474.43-5.2 1475.78-5 1477.13-4.8 1479.28-4.6L1479.28-4.6Q1482.63-4.35 1484.73-3.4 1486.83-2.45 1487.83-0.85 1488.83 0.75 1488.83 3L1488.83 3Q1488.83 5.2 1487.61 7.15 1486.38 9.1 1483.88 10.35 1481.38 11.6 1477.48 11.6ZM1477.48-7.55L1477.48-7.55Q1474.33-7.55 1472.06-8.78 1469.78-10 1468.58-12.08 1467.38-14.15 1467.38-16.65L1467.38-16.65Q1467.38-19.2 1468.58-21.25 1469.78-23.3 1472.06-24.55 1474.33-25.8 1477.48-25.8L1477.48-25.8Q1480.63-25.8 1482.88-24.55 1485.13-23.3 1486.33-21.25 1487.53-19.2 1487.53-16.65L1487.53-16.65Q1487.53-14.15 1486.33-12.08 1485.13-10 1482.88-8.78 1480.63-7.55 1477.48-7.55ZM1477.48-12.2L1477.48-12.2Q1479.63-12.2 1480.93-13.35 1482.23-14.5 1482.23-16.65L1482.23-16.65Q1482.23-18.8 1480.93-19.93 1479.63-21.05 1477.48-21.05L1477.48-21.05Q1475.33-21.05 1473.98-19.93 1472.63-18.8 1472.63-16.65L1472.63-16.65Q1472.63-14.5 1473.98-13.35 1475.33-12.2 1477.48-12.2ZM1490.83-21.4L1481.63-20.8 1480.48-25.2 1490.83-25.2 1490.83-21.4ZM1586.54 0L1580.59 0 1580.59-30.15 1570.29-30.15 1570.29-35 1596.84-35 1596.84-30.15 1586.54-30.15 1586.54 0ZM1637.04 0L1631.04 0 1631.04-25.2 1636.39-25.2 1636.94-20.5 1636.94-20.5Q1637.84-22.15 1639.19-23.33 1640.54-24.5 1642.36-25.15 1644.19-25.8 1646.39-25.8L1646.39-25.8 1646.39-19.45 1644.29-19.45Q1642.79-19.45 1641.44-19.07 1640.09-18.7 1639.11-17.88 1638.14-17.05 1637.59-15.63 1637.04-14.2 1637.04-12.05L1637.04-12.05 1637.04 0ZM1692.19 0.6L1692.19 0.6Q1689.14 0.6 1686.96-0.63 1684.79-1.85 1683.64-4.33 1682.49-6.8 1682.49-10.45L1682.49-10.45 1682.49-25.2 1688.49-25.2 1688.49-11.05Q1688.49-7.8 1689.86-6.13 1691.24-4.45 1694.04-4.45L1694.04-4.45Q1695.84-4.45 1697.26-5.3 1698.69-6.15 1699.51-7.78 1700.34-9.4 1700.34-11.75L1700.34-11.75 1700.34-25.2 1706.34-25.2 1706.34 0 1701.04 0 1700.59-4.2 1700.59-4.2Q1699.44-2 1697.26-0.7 1695.09 0.6 1692.19 0.6ZM1755.04 0.6L1755.04 0.6Q1751.69 0.6 1749.22-0.48 1746.74-1.55 1745.32-3.48 1743.89-5.4 1743.64-7.9L1743.64-7.9 1749.64-7.9Q1749.89-6.85 1750.54-5.98 1751.19-5.1 1752.32-4.6 1753.44-4.1 1754.99-4.1L1754.99-4.1Q1756.49-4.1 1757.44-4.53 1758.39-4.95 1758.84-5.65 1759.29-6.35 1759.29-7.15L1759.29-7.15Q1759.29-8.35 1758.64-9 1757.99-9.65 1756.77-10.03 1755.54-10.4 1753.84-10.75L1753.84-10.75Q1752.04-11.1 1750.37-11.63 1748.69-12.15 1747.37-12.95 1746.04-13.75 1745.27-15 1744.49-16.25 1744.49-18.05L1744.49-18.05Q1744.49-20.25 1745.67-22 1746.84-23.75 1749.07-24.78 1751.29-25.8 1754.39-25.8L1754.39-25.8Q1758.79-25.8 1761.42-23.78 1764.04-21.75 1764.49-18.1L1764.49-18.1 1758.79-18.1Q1758.54-19.5 1757.39-20.28 1756.24-21.05 1754.34-21.05L1754.34-21.05Q1752.39-21.05 1751.37-20.33 1750.34-19.6 1750.34-18.4L1750.34-18.4Q1750.34-17.6 1750.97-17 1751.59-16.4 1752.79-15.98 1753.99-15.55 1755.74-15.15L1755.74-15.15Q1758.54-14.6 1760.69-13.85 1762.84-13.1 1764.09-11.65 1765.34-10.2 1765.34-7.55L1765.34-7.55Q1765.39-5.15 1764.12-3.3 1762.84-1.45 1760.54-0.43 1758.24 0.6 1755.04 0.6ZM1817.49 0L1813.19 0Q1810.64 0 1808.77-0.8 1806.89-1.6 1805.84-3.45 1804.79-5.3 1804.79-8.45L1804.79-8.45 1804.79-20.15 1800.49-20.15 1800.49-25.2 1804.79-25.2 1805.49-31.85 1810.79-31.85 1810.79-25.2 1817.64-25.2 1817.64-20.15 1810.79-20.15 1810.79-8.45Q1810.79-6.55 1811.62-5.83 1812.44-5.1 1814.39-5.1L1814.39-5.1 1817.49-5.1 1817.49 0ZM1857.84 0.25L1857.84 0.25Q1856.14 0.25 1855.09-0.8 1854.04-1.85 1854.04-3.3L1854.04-3.3Q1854.04-4.85 1855.09-5.9 1856.14-6.95 1857.84-6.95L1857.84-6.95Q1859.49-6.95 1860.54-5.9 1861.59-4.85 1861.59-3.3L1861.59-3.3Q1861.59-1.85 1860.54-0.8 1859.49 0.25 1857.84 0.25Z" opacity="1" transform="matrix(1,0,0,1,0,0)" fill="#00cc66" class="slogan-text-1" data-fill-palette-color="secondary" id="text-1"></path></svg></g></svg></g></svg></g></svg></g><g transform="matrix(1,0,0,1,149.51046303022056,0)"><svg viewBox="0 0 98.4766739395588 90.66047949342462" height="90.66047949342462" width="98.4766739395588"><g><svg xmlns="http://www.w3.org/2000/svg" xmlns:xlink="http://www.w3.org/1999/xlink" version="1.1" x="0" y="0" viewBox="9.398 12.34 80.1930005690853 73.828" enable-background="new 0 0 100 100" xml:space="preserve" height="90.66047949342462" width="98.4766739395588" class="icon-icon-0" data-fill-palette-color="accent" id="icon-0"><g fill="#00cc66" data-fill-palette-color="accent"><path d="M55.894 49.046V51.038C55.894 53.547 57.036 54.713 59.222 54.713H61.979C64.585 54.713 66.358 56.832 66.358 59.088V61.406C66.358 63.915 65.221 65.427 62.563 65.427H59.367C56.571 65.427 55.114 64.149 55.114 61.538V59.38C55.114 57.321 53.635 55.97 51.833 55.97H47.074C44.694 55.97 44.115 57.578 44.115 59.38V63.629C44.115 65.881 45.466 66.653 47.203 66.653H50.134C53.444 66.653 55.034 68.105 55.034 70.423V72.024C55.034 74.658 56.532 75.656 58.915 75.656H63.83C66.263 75.656 67.452 74.372 67.452 72.177V70.381C67.452 67.358 69.128 66.393 72.345 66.393H75.729C77.595 66.393 78.454 65.235 78.454 63.691V57.451C78.454 55.393 77.296 54.428 75.045 54.428H70.991C68.572 54.428 66.403 52.599 66.403 49.218V47.226C66.403 44.717 65.261 43.551 63.074 43.551H60.317C57.711 43.551 55.938 41.433 55.938 39.177V36.859C55.938 34.35 57.076 32.838 59.734 32.838H62.929C65.725 32.838 67.183 34.116 67.183 36.727V38.885C67.183 40.944 68.662 42.294 70.464 42.294H75.222C77.602 42.294 78.181 40.686 78.181 38.885V34.636C78.181 32.385 76.83 31.613 75.093 31.613H72.162C68.852 31.613 67.262 30.161 67.262 27.843V26.327C67.262 23.694 65.837 22.61 63.454 22.61H58.466C56.033 22.61 54.844 23.894 54.844 26.09V27.885C54.844 30.908 53.168 31.873 49.951 31.873H46.566C44.701 31.873 43.842 33.031 43.842 34.575V40.815C43.842 42.874 44.999 43.839 47.252 43.839H51.304C53.725 43.836 55.894 45.665 55.894 49.046" fill="#00cc66" data-fill-palette-color="accent"></path><path d="M86.07 54.482A3.52 3.52 0 0 0 89.591 50.961V48.273A3.52 3.52 0 0 0 86.07 44.751H83.382A3.52 3.52 0 0 0 79.861 48.273V50.961A3.52 3.52 0 0 0 83.382 54.482z" fill="#00cc66" data-fill-palette-color="accent"></path><path d="M36.547 31.871H39.555C41.806 31.871 42.964 30.906 42.964 28.848V26.874C43.077 23.68 45.188 22.216 47.542 22.216H50.55C52.803 22.216 53.96 21.251 53.96 19.193V15.042C53.96 13.498 53.102 12.34 51.236 12.34H45.541C43.695 12.34 42.91 13.195 42.91 15.122V17.556C42.91 19.751 41.229 21.809 38.739 21.92H34.545C32.7 21.92 31.914 22.775 31.914 24.702V27.21C31.914 29.466 30.143 31.585 27.535 31.585H24.778C22.59 31.585 21.449 32.75 21.449 35.259V38.33C21.449 41.711 19.281 43.54 16.861 43.54H12.807C10.556 43.54 9.398 44.505 9.398 46.563V53.329C9.398 55.388 10.556 56.352 12.807 56.352H16.861C19.281 56.352 21.449 57.401 21.449 60.783V63.195C21.449 65.704 22.591 66.869 24.778 66.869H27.535C30.142 66.869 31.914 68.988 31.914 71.244V73.783C31.914 75.71 32.7 76.565 34.545 76.565H38.758L38.737 76.589C41.228 76.699 42.908 78.758 42.908 80.953V83.386C42.908 85.313 43.693 86.168 45.539 86.168H51.233C53.099 86.168 53.958 85.01 53.958 83.466V79.315C53.958 77.256 52.8 76.291 50.549 76.291H47.54C45.192 76.291 43.087 74.834 42.964 71.658V69.605C42.964 67.546 41.806 66.582 39.555 66.582H36.547C34.126 66.582 31.957 64.754 31.957 61.373V59.74C31.957 57.231 33.1 56.066 35.287 56.066H38.043C40.65 56.066 42.423 53.947 42.423 51.691V48.2C42.423 45.944 40.651 43.825 38.043 43.825H35.287C33.099 43.825 31.957 42.659 31.957 40.151V36.791C31.957 33.411 34.126 31.871 36.547 31.871" fill="#00cc66" data-fill-palette-color="accent"></path></g></svg></g></svg></g><g></g></svg></g><defs></defs></svg><rect width="395.52" height="121.37708980871238" fill="none" stroke="none" visibility="hidden"></rect></g></svg></g></svg>