<svg xmlns="http://www.w3.org/2000/svg" version="1.1" xmlns:xlink="http://www.w3.org/1999/xlink" width="2000" height="277" viewBox="0 0 2000 277"><g transform="matrix(1,0,0,1,-1.2121212121212466,-1.0683415837159203)"><svg viewBox="0 0 396 55" data-background-color="#ffffff" preserveAspectRatio="xMidYMid meet" height="277" width="2000" xmlns="http://www.w3.org/2000/svg" xmlns:xlink="http://www.w3.org/1999/xlink"><g id="tight-bounds" transform="matrix(1,0,0,1,0.2400000000000091,0.21212558521435199)"><svg viewBox="0 0 395.52 54.57574882957129" height="54.57574882957129" width="395.52"><g><svg viewBox="0 0 442.87210633783366 61.10961983999999" height="54.57574882957129" width="395.52"><g transform="matrix(1,0,0,1,47.35210633783365,23.52405667324675)"><svg viewBox="0 0 395.52 14.061506493506494" height="14.061506493506494" width="395.52"><g id="textblocktransform"><svg viewBox="0 0 395.52 14.061506493506494" height="14.061506493506494" width="395.52" id="textblock"><g><svg viewBox="0 0 395.52 14.061506493506494" height="14.061506493506494" width="395.52"><g transform="matrix(1,0,0,1,0,0)"><svg width="395.52" viewBox="0.25 -40.3 1232.9 44.8" height="14.061506493506494" data-palette-color="#141414"><path d="M11.75 0.5L11.75 0.5Q10 0.5 8.05 0.25 6.1 0 4.25-0.55L4.25-0.55 4.25-6.75Q6.6-6.25 8.5-6.03 10.4-5.8 11.5-5.8L11.5-5.8Q13.55-5.8 14.85-6.48 16.15-7.15 16.78-8.58 17.4-10 17.4-12.25L17.4-12.25 17.4-35.7 24.5-35.7 24.5-12.3Q24.5-8.1 23.18-5.25 21.85-2.4 19.05-0.95 16.25 0.5 11.75 0.5ZM45 0.5L45 0.5Q41.5 0.5 38.95-0.75 36.4-2 34.75-4.38 33.1-6.75 32.3-10.15 31.5-13.55 31.5-17.9L31.5-17.9Q31.5-23.7 32.95-27.83 34.4-31.95 37.37-34.13 40.35-36.3 45-36.3L45-36.3Q48.5-36.3 51.05-35.05 53.6-33.8 55.25-31.43 56.9-29.05 57.7-25.63 58.5-22.2 58.5-17.9L58.5-17.9Q58.5-13.55 57.7-10.15 56.9-6.75 55.25-4.38 53.6-2 51.05-0.75 48.5 0.5 45 0.5ZM45-5.75L45-5.75Q47.15-5.75 48.5-7.13 49.85-8.5 50.5-11.2 51.15-13.9 51.15-17.95L51.15-17.95Q51.15-23.9 49.7-26.98 48.25-30.05 45-30.05L45-30.05Q42.85-30.05 41.47-28.68 40.1-27.3 39.47-24.6 38.85-21.9 38.85-17.9L38.85-17.9Q38.85-13.9 39.47-11.2 40.1-8.5 41.47-7.13 42.85-5.75 45-5.75ZM86.5 0L64 0 64-35.7 86.5-35.7 86.5-29.45 71-29.45 71-21.65 85.75-21.65 85.75-15.4 71-15.4 71-6.25 86.5-6.25 86.5 0ZM128.49 0L121.99 0 121.99-35.7 131.79-35.7 134.84-15.45 135.04-15.45 138.64-35.7 147.94-35.7 147.94 0 141.44 0 141.44-8.15Q141.44-9.75 141.52-11.78 141.59-13.8 141.69-15.95 141.79-18.1 141.92-20.2 142.04-22.3 142.17-24.13 142.29-25.95 142.39-27.25 142.49-28.55 142.49-29.1L142.49-29.1 142.19-29.1 138.54-8.4 131.49-8.4 127.54-29.15 127.24-29.15Q127.29-28.5 127.39-27.18 127.49-25.85 127.64-24.03 127.79-22.2 127.94-20.1 128.09-18 128.22-15.83 128.34-13.65 128.42-11.58 128.49-9.5 128.49-7.75L128.49-7.75 128.49 0ZM176.49 0L153.99 0 153.99-35.7 176.49-35.7 176.49-29.45 160.99-29.45 160.99-21.65 175.74-21.65 175.74-15.4 160.99-15.4 160.99-6.25 176.49-6.25 176.49 0ZM188.69 0L182.24 0 182.24-35.7 192.09-35.7 201.49-6.95 201.64-6.95Q201.54-8.7 201.46-10.33 201.39-11.95 201.36-13.38 201.34-14.8 201.31-15.93 201.29-17.05 201.29-17.8L201.29-17.8 201.29-35.7 207.74-35.7 207.74 0 197.79 0 188.39-29 188.19-29Q188.29-27.2 188.39-25.53 188.49-23.85 188.56-22.38 188.64-20.9 188.66-19.73 188.69-18.55 188.69-17.8L188.69-17.8 188.69 0ZM222.73 0L212.23 0 212.23-35.7 223.28-35.7Q227.93-35.7 231.33-33.73 234.73-31.75 236.61-27.85 238.48-23.95 238.48-18.15L238.48-18.15Q238.48-12.3 236.56-8.25 234.63-4.2 231.11-2.1 227.58 0 222.73 0L222.73 0ZM219.38-6.15L222.33-6.15Q226.88-6.15 229.01-9.1 231.13-12.05 231.13-18.1L231.13-18.1Q231.13-22.1 230.21-24.63 229.28-27.15 227.48-28.35 225.68-29.55 222.93-29.55L222.93-29.55 219.38-29.55 219.38-6.15ZM266.48 0L243.98 0 243.98-35.7 266.48-35.7 266.48-29.45 250.98-29.45 250.98-21.65 265.73-21.65 265.73-15.4 250.98-15.4 250.98-6.25 266.48-6.25 266.48 0ZM296.48 0L273.98 0 273.98-4.9 288.28-29.55 275.23-29.55 275.23-35.7 296.38-35.7 296.38-30.8 281.93-6.25 296.48-6.25 296.48 0ZM314.98-19L314.98-19Q312.83-19 311.63-20.15 310.43-21.3 310.43-23.4L310.43-23.4Q310.43-25.6 311.6-26.7 312.78-27.8 314.98-27.8L314.98-27.8Q317.13-27.8 318.3-26.65 319.48-25.5 319.48-23.4L319.48-23.4Q319.48-21.4 318.28-20.2 317.08-19 314.98-19ZM314.98 0.5L314.98 0.5Q312.83 0.5 311.63-0.65 310.43-1.8 310.43-3.9L310.43-3.9Q310.43-6.1 311.6-7.2 312.78-8.3 314.98-8.3L314.98-8.3Q317.13-8.3 318.3-7.15 319.48-6 319.48-3.9L319.48-3.9Q319.48-1.9 318.28-0.7 317.08 0.5 314.98 0.5ZM373.72 0.5L373.72 0.5Q371.02 0.5 368.4-0.03 365.77-0.55 363.47-1.65L363.47-1.65 363.47-8.25Q366.27-6.85 368.87-6.18 371.47-5.5 373.92-5.5L373.92-5.5Q375.67-5.5 377-5.88 378.32-6.25 379.07-7.13 379.82-8 379.82-9.55L379.82-9.55Q379.82-11.15 378.95-12.05 378.07-12.95 376.42-13.78 374.77-14.6 372.47-15.8L372.47-15.8Q370.17-17.05 368.27-18.5 366.37-19.95 365.27-21.93 364.17-23.9 364.17-26.7L364.17-26.7Q364.17-29.9 365.65-32 367.12-34.1 369.75-35.15 372.37-36.2 375.87-36.2L375.87-36.2Q377.97-36.2 380.87-35.73 383.77-35.25 386.57-33.9L386.57-33.9 384.27-28.25Q381.82-29.3 379.82-29.75 377.82-30.2 376.27-30.2L376.27-30.2Q374.67-30.2 373.62-29.75 372.57-29.3 372.07-28.45 371.57-27.6 371.57-26.35L371.57-26.35Q371.57-24.9 372.27-24 372.97-23.1 374.37-22.38 375.77-21.65 377.92-20.55L377.92-20.55Q380.87-19.1 382.95-17.73 385.02-16.35 386.12-14.55 387.22-12.75 387.22-9.95L387.22-9.95Q387.22-7.35 386.25-5.4 385.27-3.45 383.5-2.13 381.72-0.8 379.25-0.15 376.77 0.5 373.72 0.5ZM416.47 0L393.97 0 393.97-35.7 416.47-35.7 416.47-29.45 400.97-29.45 400.97-21.65 415.72-21.65 415.72-15.4 400.97-15.4 400.97-6.25 416.47-6.25 416.47 0ZM428.67 0L422.22 0 422.22-35.7 432.07-35.7 441.47-6.95 441.62-6.95Q441.52-8.7 441.44-10.33 441.37-11.95 441.34-13.38 441.32-14.8 441.29-15.93 441.27-17.05 441.27-17.8L441.27-17.8 441.27-35.7 447.72-35.7 447.72 0 437.77 0 428.37-29 428.17-29Q428.27-27.2 428.37-25.53 428.47-23.85 428.54-22.38 428.62-20.9 428.64-19.73 428.67-18.55 428.67-17.8L428.67-17.8 428.67 0ZM475.46 0L454.46 0 454.46-5 461.41-5.8 461.41-29.9 454.46-30.7 454.46-35.7 475.46-35.7 475.46-30.7 468.36-29.9 468.36-5.8 475.46-5 475.46 0ZM494.96 0.5L494.96 0.5Q491.46 0.5 488.91-0.75 486.36-2 484.71-4.38 483.06-6.75 482.26-10.15 481.46-13.55 481.46-17.9L481.46-17.9Q481.46-23.7 482.91-27.83 484.36-31.95 487.34-34.13 490.31-36.3 494.96-36.3L494.96-36.3Q498.46-36.3 501.01-35.05 503.56-33.8 505.21-31.43 506.86-29.05 507.66-25.63 508.46-22.2 508.46-17.9L508.46-17.9Q508.46-13.55 507.66-10.15 506.86-6.75 505.21-4.38 503.56-2 501.01-0.75 498.46 0.5 494.96 0.5ZM494.96-5.75L494.96-5.75Q497.11-5.75 498.46-7.13 499.81-8.5 500.46-11.2 501.11-13.9 501.11-17.95L501.11-17.95Q501.11-23.9 499.66-26.98 498.21-30.05 494.96-30.05L494.96-30.05Q492.81-30.05 491.44-28.68 490.06-27.3 489.44-24.6 488.81-21.9 488.81-17.9L488.81-17.9Q488.81-13.9 489.44-11.2 490.06-8.5 491.44-7.13 492.81-5.75 494.96-5.75ZM521.21 0L513.96 0 513.96-35.7 523.51-35.7Q527.76-35.7 530.63-34.43 533.51-33.15 535.01-30.75 536.51-28.35 536.51-24.95L536.51-24.95Q536.51-22.55 535.76-20.65 535.01-18.75 533.66-17.38 532.31-16 530.46-15.1L530.46-15.1 539.21 0 531.51 0 524.06-13.45 521.21-13.45 521.21 0ZM521.21-19.6L523.36-19.6Q525.26-19.6 526.56-20.18 527.86-20.75 528.53-21.9 529.21-23.05 529.21-24.8L529.21-24.8Q529.21-27.45 527.68-28.5 526.16-29.55 523.21-29.55L523.21-29.55 521.21-29.55 521.21-19.6ZM587.5 0.5L587.5 0.5Q582.35 0.5 579.03-1.68 575.7-3.85 574.08-7.83 572.45-11.8 572.45-17.1L572.45-17.1Q572.45-21.55 573.55-25.08 574.65-28.6 576.78-31.1 578.9-33.6 582.08-34.9 585.25-36.2 589.35-36.2L589.35-36.2Q591.95-36.2 593.93-35.68 595.9-35.15 597.95-34.15L597.95-34.15 595.55-28.2Q593.7-29.15 592.13-29.5 590.55-29.85 589.1-29.85L589.1-29.85Q586.5-29.85 584.7-28.98 582.9-28.1 581.83-26.45 580.75-24.8 580.28-22.5 579.8-20.2 579.8-17.4L579.8-17.4Q579.8-13.5 580.73-10.93 581.65-8.35 583.6-7.1 585.55-5.85 588.7-5.85L588.7-5.85Q590.45-5.85 592.28-6.3 594.1-6.75 596.55-7.85L596.55-7.85 596.55-1.35Q594.4-0.4 592.08 0.05 589.75 0.5 587.5 0.5ZM618.6 0L611.35 0 611.35-13.85 600.95-35.7 608.6-35.7 615-20.55 621.35-35.7 628.95-35.7 618.6-13.85 618.6 0ZM646.3 0L633.95 0 633.95-35.7 645.1-35.7Q651-35.7 654.1-33.63 657.2-31.55 657.2-26.95L657.2-26.95Q657.2-23.7 655.75-21.6 654.3-19.5 651.85-18.95L651.85-18.95 651.85-18.7Q653.7-18.25 655.05-17.25 656.4-16.25 657.17-14.6 657.95-12.95 657.95-10.45L657.95-10.45Q657.95-7.2 656.57-4.85 655.2-2.5 652.6-1.25 650 0 646.3 0L646.3 0ZM640.7-5.95L645.6-5.95Q648.3-5.95 649.35-7.25 650.4-8.55 650.4-10.85L650.4-10.85Q650.4-12.4 649.95-13.43 649.5-14.45 648.4-14.98 647.3-15.5 645.35-15.5L645.35-15.5 640.7-15.5 640.7-5.95ZM640.7-21.65L645.05-21.65Q647.7-21.65 648.77-22.63 649.85-23.6 649.85-25.7L649.85-25.7Q649.85-27.85 648.7-28.8 647.55-29.75 644.8-29.75L644.8-29.75 640.7-29.75 640.7-21.65ZM686.44 0L663.94 0 663.94-35.7 686.44-35.7 686.44-29.45 670.94-29.45 670.94-21.65 685.69-21.65 685.69-15.4 670.94-15.4 670.94-6.25 686.44-6.25 686.44 0ZM701.19 0L693.94 0 693.94-35.7 703.49-35.7Q707.74-35.7 710.62-34.43 713.49-33.15 714.99-30.75 716.49-28.35 716.49-24.95L716.49-24.95Q716.49-22.55 715.74-20.65 714.99-18.75 713.64-17.38 712.29-16 710.44-15.1L710.44-15.1 719.19 0 711.49 0 704.04-13.45 701.19-13.45 701.19 0ZM701.19-19.6L703.34-19.6Q705.24-19.6 706.54-20.18 707.84-20.75 708.52-21.9 709.19-23.05 709.19-24.8L709.19-24.8Q709.19-27.45 707.67-28.5 706.14-29.55 703.19-29.55L703.19-29.55 701.19-29.55 701.19-19.6ZM733.69 0.5L733.69 0.5Q730.99 0.5 728.36-0.03 725.74-0.55 723.44-1.65L723.44-1.65 723.44-8.25Q726.24-6.85 728.84-6.18 731.44-5.5 733.89-5.5L733.89-5.5Q735.64-5.5 736.96-5.88 738.29-6.25 739.04-7.13 739.79-8 739.79-9.55L739.79-9.55Q739.79-11.15 738.91-12.05 738.04-12.95 736.39-13.78 734.74-14.6 732.44-15.8L732.44-15.8Q730.14-17.05 728.24-18.5 726.34-19.95 725.24-21.93 724.14-23.9 724.14-26.7L724.14-26.7Q724.14-29.9 725.61-32 727.09-34.1 729.71-35.15 732.34-36.2 735.84-36.2L735.84-36.2Q737.94-36.2 740.84-35.73 743.74-35.25 746.54-33.9L746.54-33.9 744.24-28.25Q741.79-29.3 739.79-29.75 737.79-30.2 736.24-30.2L736.24-30.2Q734.64-30.2 733.59-29.75 732.54-29.3 732.04-28.45 731.54-27.6 731.54-26.35L731.54-26.35Q731.54-24.9 732.24-24 732.94-23.1 734.34-22.38 735.74-21.65 737.89-20.55L737.89-20.55Q740.84-19.1 742.91-17.73 744.99-16.35 746.09-14.55 747.19-12.75 747.19-9.95L747.19-9.95Q747.19-7.35 746.21-5.4 745.24-3.45 743.46-2.13 741.69-0.8 739.21-0.15 736.74 0.5 733.69 0.5ZM776.44 0L753.94 0 753.94-35.7 776.44-35.7 776.44-29.45 760.94-29.45 760.94-21.65 775.69-21.65 775.69-15.4 760.94-15.4 760.94-6.25 776.44-6.25 776.44 0ZM797.48 0.5L797.48 0.5Q792.33 0.5 789.01-1.68 785.68-3.85 784.06-7.83 782.43-11.8 782.43-17.1L782.43-17.1Q782.43-21.55 783.53-25.08 784.63-28.6 786.76-31.1 788.88-33.6 792.06-34.9 795.23-36.2 799.33-36.2L799.33-36.2Q801.93-36.2 803.91-35.68 805.88-35.15 807.93-34.15L807.93-34.15 805.53-28.2Q803.68-29.15 802.11-29.5 800.53-29.85 799.08-29.85L799.08-29.85Q796.48-29.85 794.68-28.98 792.88-28.1 791.81-26.45 790.73-24.8 790.26-22.5 789.78-20.2 789.78-17.4L789.78-17.4Q789.78-13.5 790.71-10.93 791.63-8.35 793.58-7.1 795.53-5.85 798.68-5.85L798.68-5.85Q800.43-5.85 802.26-6.3 804.08-6.75 806.53-7.85L806.53-7.85 806.53-1.35Q804.38-0.4 802.06 0.05 799.73 0.5 797.48 0.5ZM824.83 0.5L824.83 0.5Q820.68 0.5 817.86-0.98 815.03-2.45 813.61-5.3 812.18-8.15 812.18-12.15L812.18-12.15 812.18-35.7 819.43-35.7 819.43-13.4Q819.43-10.6 820.03-8.93 820.63-7.25 821.86-6.5 823.08-5.75 824.93-5.75L824.93-5.75Q826.88-5.75 828.11-6.53 829.33-7.3 829.88-9 830.43-10.7 830.43-13.45L830.43-13.45 830.43-35.7 837.68-35.7 837.68-12.2Q837.68-8.3 836.26-5.45 834.83-2.6 831.98-1.05 829.13 0.5 824.83 0.5ZM851.18 0L843.93 0 843.93-35.7 853.48-35.7Q857.73-35.7 860.6-34.43 863.48-33.15 864.98-30.75 866.48-28.35 866.48-24.95L866.48-24.95Q866.48-22.55 865.73-20.65 864.98-18.75 863.63-17.38 862.28-16 860.43-15.1L860.43-15.1 869.18 0 861.48 0 854.03-13.45 851.18-13.45 851.18 0ZM851.18-19.6L853.33-19.6Q855.23-19.6 856.53-20.18 857.83-20.75 858.5-21.9 859.18-23.05 859.18-24.8L859.18-24.8Q859.18-27.45 857.65-28.5 856.13-29.55 853.18-29.55L853.18-29.55 851.18-29.55 851.18-19.6ZM895.43 0L874.43 0 874.43-5 881.38-5.8 881.38-29.9 874.43-30.7 874.43-35.7 895.43-35.7 895.43-30.7 888.33-29.9 888.33-5.8 895.43-5 895.43 0ZM918.52 0L911.27 0 911.27-29.45 901.42-29.45 901.42-35.7 928.42-35.7 928.42-29.45 918.52-29.45 918.52 0ZM948.57 0L941.32 0 941.32-13.85 930.92-35.7 938.57-35.7 944.97-20.55 951.32-35.7 958.92-35.7 948.57-13.85 948.57 0ZM1016.42 0L993.92 0 993.92-35.7 1016.42-35.7 1016.42-29.45 1000.92-29.45 1000.92-21.65 1015.67-21.65 1015.67-15.4 1000.92-15.4 1000.92-6.25 1016.42-6.25 1016.42 0ZM1028.61 0L1022.16 0 1022.16-35.7 1032.01-35.7 1041.41-6.95 1041.56-6.95Q1041.46-8.7 1041.39-10.33 1041.31-11.95 1041.29-13.38 1041.26-14.8 1041.24-15.93 1041.21-17.05 1041.21-17.8L1041.21-17.8 1041.21-35.7 1047.66-35.7 1047.66 0 1037.71 0 1028.31-29 1028.11-29Q1028.21-27.2 1028.31-25.53 1028.41-23.85 1028.49-22.38 1028.56-20.9 1028.59-19.73 1028.61-18.55 1028.61-17.8L1028.61-17.8 1028.61 0ZM1067.06 0.5L1067.06 0.5Q1061.81 0.5 1058.34-1.68 1054.86-3.85 1053.14-7.88 1051.41-11.9 1051.41-17.45L1051.41-17.45Q1051.41-23.35 1053.29-27.53 1055.16-31.7 1058.76-33.95 1062.36-36.2 1067.56-36.2L1067.56-36.2Q1070.36-36.2 1072.86-35.6 1075.36-35 1077.36-34L1077.36-34 1075.11-28.2Q1073.56-29.1 1071.81-29.53 1070.06-29.95 1068.31-29.95L1068.31-29.95Q1065.06-29.95 1062.91-28.5 1060.76-27.05 1059.71-24.28 1058.66-21.5 1058.66-17.6L1058.66-17.6Q1058.66-14 1059.59-11.3 1060.51-8.6 1062.41-7.13 1064.31-5.65 1067.21-5.65L1067.21-5.65Q1068.31-5.65 1069.26-5.8 1070.21-5.95 1071.11-6.15L1071.11-6.15 1071.11-14.1 1066.16-14.1 1066.16-20.1 1077.66-20.1 1077.66-1.55Q1075.06-0.4 1072.56 0.05 1070.06 0.5 1067.06 0.5ZM1105.41 0L1084.41 0 1084.41-5 1091.36-5.8 1091.36-29.9 1084.41-30.7 1084.41-35.7 1105.41-35.7 1105.41-30.7 1098.31-29.9 1098.31-5.8 1105.41-5 1105.41 0ZM1118.61 0L1112.16 0 1112.16-35.7 1122.01-35.7 1131.41-6.95 1131.56-6.95Q1131.46-8.7 1131.38-10.33 1131.31-11.95 1131.28-13.38 1131.26-14.8 1131.23-15.93 1131.21-17.05 1131.21-17.8L1131.21-17.8 1131.21-35.7 1137.66-35.7 1137.66 0 1127.71 0 1118.31-29 1118.11-29Q1118.21-27.2 1118.31-25.53 1118.41-23.85 1118.48-22.38 1118.56-20.9 1118.58-19.73 1118.61-18.55 1118.61-17.8L1118.61-17.8 1118.61 0ZM1166.4 0L1143.9 0 1143.9-35.7 1166.4-35.7 1166.4-29.45 1150.9-29.45 1150.9-21.65 1165.65-21.65 1165.65-15.4 1150.9-15.4 1150.9-6.25 1166.4-6.25 1166.4 0ZM1196.4 0L1173.9 0 1173.9-35.7 1196.4-35.7 1196.4-29.45 1180.9-29.45 1180.9-21.65 1195.65-21.65 1195.65-15.4 1180.9-15.4 1180.9-6.25 1196.4-6.25 1196.4 0ZM1211.15 0L1203.9 0 1203.9-35.7 1213.45-35.7Q1217.7-35.7 1220.57-34.43 1223.45-33.15 1224.95-30.75 1226.45-28.35 1226.45-24.95L1226.45-24.95Q1226.45-22.55 1225.7-20.65 1224.95-18.75 1223.6-17.38 1222.25-16 1220.4-15.1L1220.4-15.1 1229.15 0 1221.45 0 1214-13.45 1211.15-13.45 1211.15 0ZM1211.15-19.6L1213.3-19.6Q1215.2-19.6 1216.5-20.18 1217.8-20.75 1218.47-21.9 1219.15-23.05 1219.15-24.8L1219.15-24.8Q1219.15-27.45 1217.62-28.5 1216.1-29.55 1213.15-29.55L1213.15-29.55 1211.15-29.55 1211.15-19.6Z" opacity="1" transform="matrix(1,0,0,1,0,0)" fill="#141414" class="wordmark-text-0" data-fill-palette-color="primary" id="text-0"></path></svg></g></svg></g></svg></g></svg></g><g><svg viewBox="0 0 44.563049287236254 61.10961983999999" height="61.10961983999999" width="44.563049287236254"><g><svg xmlns="http://www.w3.org/2000/svg" xmlns:xlink="http://www.w3.org/1999/xlink" version="1.1" x="0" y="0" viewBox="12.929 1.021 64.14099999999999 87.957" enable-background="new 0 0 90 90" xml:space="preserve" height="61.10961983999999" width="44.563049287236254" class="icon-icon-0" data-fill-palette-color="accent" id="icon-0"><polygon points="42.225,52.752 46.708,49.581 46.708,38.363 42.225,41.534 " fill="#e63700" data-fill-palette-color="accent"></polygon><polygon points="51.191,20.688 42.225,27.029 42.225,38.248 51.191,31.907 " fill="#e63700" data-fill-palette-color="accent"></polygon><polygon points="56.829,31.207 47.861,37.548 47.861,48.768 56.829,42.425 " fill="#e63700" data-fill-palette-color="accent"></polygon><path d="M51.191 49.698L42.224 56.038V59.048C42.804 59.902 43.4 60.836 44.003 61.868A34 34 0 0 1 45.574 64.889L51.191 60.916z" fill="#e63700" data-fill-palette-color="accent"></path><polygon points="57.98,41.61 66.95,35.27 66.95,24.052 57.98,30.393 " fill="#e63700" data-fill-palette-color="accent"></polygon><polygon points="76.409,1.021 63.177,1.021 28.22,24.912 41.452,24.912 " fill="#e63700" data-fill-palette-color="accent"></polygon><path d="M46.708 67.738V67.372L46.605 67.443C46.641 67.542 46.676 67.641 46.708 67.738" fill="#e63700" data-fill-palette-color="accent"></path><polygon points="62.466,52.943 71.436,46.604 71.436,35.386 62.466,41.727 " fill="#e63700" data-fill-palette-color="accent"></polygon><polygon points="61.313,13.533 52.346,19.874 52.346,31.092 61.313,24.751 " fill="#e63700" data-fill-palette-color="accent"></polygon><polygon points="72.587,45.788 77.07,42.618 77.07,31.4 72.587,34.57 " fill="#e63700" data-fill-palette-color="accent"></polygon><polygon points="68.104,34.455 77.07,28.114 77.07,16.896 68.104,23.237 " fill="#e63700" data-fill-palette-color="accent"></polygon><polygon points="72.587,5.562 72.587,16.78 77.07,13.61 77.07,2.392 " fill="#e63700" data-fill-palette-color="accent"></polygon><polygon points="68.104,63.464 77.07,57.123 77.07,45.905 68.104,52.245 " fill="#e63700" data-fill-palette-color="accent"></polygon><path d="M47.861 73.189A19 19 0 0 1 47.861 76.37V77.775L56.829 71.433V60.216L47.861 66.557z" fill="#e63700" data-fill-palette-color="accent"></path><path d="M32.147 42.79A2.923 2.923 0 0 1 35.93 46.465C34.791 49.845 35.287 50.427 38.038 53.658 38.685 54.418 39.434 55.297 40.244 56.335V27.478H28.22V45.38C29.576 44.054 31.029 43.202 32.147 42.79" fill="#e63700" data-fill-palette-color="accent"></path><polygon points="71.436,6.377 62.466,12.718 62.466,23.936 71.436,17.595 " fill="#e63700" data-fill-palette-color="accent"></polygon><polygon points="61.313,42.542 52.346,48.883 52.346,60.102 61.313,53.76 " fill="#e63700" data-fill-palette-color="accent"></polygon><polygon points="57.98,70.619 66.95,64.277 66.95,53.061 57.98,59.4 " fill="#e63700" data-fill-palette-color="accent"></polygon><path d="M41.48 63.344C35.498 53.112 30.58 53.192 33.16 45.532 33.16 45.532 26.388 48.032 27.194 56.658 27.194 56.658 27.466 58.724 26.04 60.836 26.04 60.836 26.63 56.255 22.356 52.065 22.356 52.065 24.13 54.645 20.664 59.401 17.319 63.99 13.196 65.604 12.96 72.612L12.929 72.606C12.929 72.866 12.937 73.124 12.95 73.379L12.949 73.4 12.951 73.424 12.954 73.482C12.958 73.597 12.966 73.71 12.979 73.822 13.603 82.297 20.671 88.978 29.305 88.978 35.771 88.978 41.36 85.23 44.021 79.79L44.024 79.787S44.07 79.703 44.14 79.546C44.146 79.532 44.154 79.52 44.16 79.505H44.159C44.731 78.186 46.721 72.309 41.48 63.344M24.564 81.752C19.243 77.964 21.361 72.195 25.857 69.8 32.514 66.252 31.468 62.544 31.468 62.544S35.366 67.977 36.091 74.775C36.817 81.576 29.886 85.54 24.564 81.752" fill="#e63700" data-fill-palette-color="accent"></path></svg></g></svg></g></svg></g><defs></defs></svg><rect width="395.52" height="54.57574882957129" fill="none" stroke="none" visibility="hidden"></rect></g></svg></g></svg>