<svg width="172" height="114" viewBox="0 0 172 114" fill="none" xmlns="http://www.w3.org/2000/svg">
    <path d="M25.468 80.427C11.442 80.427 0 69.175 0 55.155 0 41.135 11.442 29.7 25.468 29.7h.923c2.768-4.796 6.459-9.039 10.888-12.175 16.794-12.175 40.416-8.67 52.966 7.563 1.291-.184 2.583-.184 3.875-.369 12.365 0 23.622 7.563 28.052 19.185 7.935 2.029 13.656 9.223 13.656 17.709 0 9.96-8.12 18.077-18.086 18.077-2.03 0-4.06-.369-5.905-1.107l1.292-3.504c1.476.553 3.137.922 4.798.922 7.936 0 14.395-6.456 14.395-14.389 0-7.01-4.798-12.912-11.627-14.203l-1.107-.185-.554-1.107c-3.691-10.514-13.841-17.708-24.914-17.708-1.476 0-2.953.184-4.429.369l-1.107.368-.739-.922c-11.257-15.495-33.034-19-48.536-7.747-4.245 3.136-7.936 7.194-10.335 11.99l-.553.922h-3.138c-11.81 0-21.592 9.777-21.592 21.767s9.781 21.767 21.777 21.767v3.505z" fill="url(#2jgobluhja)"/>
    <path d="M151.329 17.524h-.923c-.369 0-.738-.184-.738-.553l-.369-.738c-.185-.369 0-.922.369-1.291.369-.185.923 0 1.292.369l.184.369h.185c.554 0 .923.369.923.922s-.369.922-.923.922z" fill="url(#sw3k6vxe7b)"/>
    <path d="M146.9 12.175c-.185 0-.554-.185-.738-.37-.369-.368-.923-.737-1.292-1.29a.892.892 0 0 1 0-1.292.892.892 0 0 1 1.292 0c.369.37.922.923 1.292 1.476.369.369.369.922-.185 1.291 0 .185-.185.185-.369.185zm-41.893-2.952c-.184 0-.553-.184-.738-.369a.891.891 0 0 1 0-1.29l.369-.185c.369-.37.738-.738 1.292-.923.369-.369.923-.184 1.292.185.184.184.184.738-.185 1.107s-.738.553-1.107.922l-.185.184c-.369.185-.553.37-.738.37zm36.356-2.029c-.184 0-.369 0-.553-.184-.554-.37-.923-.738-1.477-.923-.369-.184-.553-.922-.369-1.29.185-.37.923-.554 1.292-.37l1.661 1.107c.369.369.554.922.185 1.291-.185.185-.554.37-.739.37zm-30.266-2.213c-.369 0-.738-.185-.738-.554-.184-.369 0-.922.369-1.291.554-.369 1.108-.553 1.661-.738.554-.184.923 0 1.292.553.185.554 0 .923-.554 1.292-.553.184-1.107.553-1.661.738h-.369zm23.623-1.292h-.369l-1.661-.553c-.554-.185-.739-.738-.554-1.107.185-.553.738-.738 1.107-.553.554.184 1.292.369 1.846.553.553.185.738.738.553 1.107a1.013 1.013 0 0 1-.922.553zm-16.61-1.106c-.369 0-.738-.37-.923-.738-.184-.554.185-.923.739-1.107.553-.185 1.292-.185 1.845-.37.554 0 .923.185 1.107.739 0 .553-.184.922-.738 1.107-.553 0-1.107.184-1.845.369h-.185zm9.412-.554s-.184 0 0 0c-.738 0-1.292-.184-1.845-.184-.554 0-.923-.37-.923-.923s.369-.922.923-.922c.553 0 1.292 0 1.845.184.554 0 .923.554.738.923 0 .553-.369.922-.738.922z" fill="url(#5ijom5nvjc)"/>
    <path d="M100.58 14.02h-.185l-.922-.185c-.554-.185-.739-.554-.739-1.107.185-.553.554-.738 1.108-.738h.184l.185-.184c.369-.37.923-.554 1.292-.185.369.37.553.923.184 1.291l-.553.738c0 .185-.37.37-.554.37z" fill="url(#40bfy2feud)"/>
    <path d="M85.998 16.417c-.369 0-.738-.184-.738-.553-.185-.369 0-.922.369-1.291.554-.37 1.107-.554 1.66-.738.555-.185.924 0 1.293.553.369.554 0 .923-.554 1.292-.553.184-1.107.553-1.476.737-.185-.184-.37 0-.554 0zm6.644-2.398c-.37 0-.738-.369-.923-.738 0-.553.185-.922.738-1.106.554-.185 1.292-.185 1.846-.185.553 0 .923.37.923.738 0 .553-.37.922-.739.922-.553.185-1.107.37-1.845.37z" fill="url(#3jlzcxc0ue)"/>
    <path d="M81.755 20.476c-.185 0-.37 0-.554-.185l-.738-.553c-.185-.184-.37-.369-.37-.738s.185-.553.37-.738l.738-.553a.892.892 0 0 1 1.292 0c.369.369.369.738 0 1.107.369.369.369.738 0 1.106-.185.37-.37.554-.738.554z" fill="url(#aci0jxvy3f)"/>
    <path d="M86 24.165c-.184 0-.553 0-.738-.184l-.923-.923a.891.891 0 0 1 0-1.291.892.892 0 0 1 1.292 0l1.108 1.107c.369.369.369.922 0 1.291-.185-.184-.554 0-.739 0z" fill="url(#v4esnb3pug)"/>
    <path d="M89.321 28.039c-.369 0-.553-.185-.738-.37l-.554-.737c-.369-.369-.184-.922.185-1.291.369-.37.923-.185 1.292.184l.184.37h.37c.553 0 .922.184 1.107.737 0 .553-.37.922-.739 1.107h-1.107s.185 0 0 0z" fill="url(#rlnkbdixhh)"/>
    <path d="M117.742 40.398c-.37 0-.554-.184-.739-.369-.369-.553-.738-1.107-1.107-1.476s-.184-.922.185-1.29c.369-.37.922-.185 1.291.184l1.108 1.66c.369.369.184.922-.185 1.291-.184-.184-.369 0-.553 0zm-5.168-5.903c-.184 0-.369 0-.553-.184-.554-.37-.923-.738-1.477-1.107-.369-.37-.553-.922-.184-1.291.369-.37.922-.554 1.291-.185.554.369 1.108.922 1.661 1.291.369.37.369.923.185 1.292-.554 0-.738.184-.923.184zm-6.828-4.243h-.369c-.554-.184-1.108-.553-1.846-.737-.553-.185-.738-.738-.553-1.107.184-.554.738-.738 1.107-.554.554.185 1.292.554 1.845.738.554.185.739.738.37 1.291.184 0-.185.37-.554.37zm-7.567-2.398c-.738-.184-1.476-.184-2.03-.184-.553 0-.922-.554-.922-.923 0-.368.553-.922.922-.922.739 0 1.292.185 2.03.185.554 0 .923.553.739 1.106.184.554-.185.738-.739.738z" fill="url(#jcr4dkx4li)"/>
    <path d="M121.803 46.67h-.184l-.923-.185c-.369 0-.554-.368-.738-.553 0-.184-.185-.553-.369-.738-.185-.553 0-.922.553-1.291.554-.185.923 0 1.292.553 0 .185.185.37.185.37h.369c.554.184.738.553.738 1.106-.184.553-.554.738-.923.738z" fill="url(#uxhy5e1ybj)"/>
    <path d="M131.582 54.049c-.369 0-.553-.185-.738-.37-.184-.368-.553-.922-.738-1.29-.369-.37-.185-.923.185-1.292.369-.369.922-.184 1.291.185.369.369.554.922.923 1.29.185.37.185.923-.369 1.292-.185.185-.369.185-.554.185zm-4.244-4.612c-.185 0-.369 0-.554-.184-.369-.37-.738-.554-1.292-.923-.369-.184-.553-.922-.369-1.291.185-.369.923-.553 1.292-.369.554.369.923.553 1.292.922.369.37.554.923.184 1.292 0 .368-.184.553-.553.553z" fill="url(#778e7d5rtk)"/>
    <path d="M133.615 59.398c-.184 0-.369 0-.369-.184-.369-.185-.369-.37-.554-.738v-.185c0-.184-.184-.553-.184-.738 0-.553.369-.922.923-.922.369 0 .738.185.922.553.369-.184.923.185 1.108.554.184.553 0 .922-.554 1.107l-.923.369c-.184.184-.184.184-.369.184z" fill="url(#sfnd4gvvhl)"/>
    <path d="M138.412 57.184c-.369 0-.738-.184-.738-.553-.185-.369 0-.922.369-1.291.369-.185.738-.369 1.107-.738.369-.184.923-.184 1.292.369.185.369.185.922-.369 1.291-.369.185-.923.554-1.292.738 0 .184-.184.184-.369.184z" fill="url(#o762vmvkgm)"/>
    <path d="M143.027 54.233c-.185 0-.554-.184-.739-.369-.369-.369-.369-.922.185-1.291l.738-.554c.185-.184.738-.368.923-.184l.923.369c.553.184.738.738.369 1.291-.185.553-.738.738-1.292.37l-.185-.185-.184.184c-.369.184-.554.369-.738.369z" fill="url(#8w6pw8lmqn)"/>
    <path d="M151.886 55.524c-.554 0-1.292 0-1.846-.184-.554 0-.923-.554-.738-1.107 0-.553.554-.922 1.107-.738h1.661c.554 0 1.107.37 1.107.922 0 .554-.184.923-.738.923-.369.184-.553.184-.553.184zm5.905-.922c-.369 0-.738-.184-.923-.553-.184-.554.185-.923.554-1.107.554-.185 1.107-.37 1.661-.738.554-.185.923 0 1.292.553.184.554 0 .923-.554 1.292-.553.184-1.292.553-1.845.737 0-.184 0-.184-.185-.184zm6.644-3.874c-.185 0-.554-.184-.738-.369a.891.891 0 0 1 0-1.291l1.292-1.291a.891.891 0 0 1 1.291 0 .89.89 0 0 1 0 1.291c-.369.553-.922.922-1.476 1.476.185.184 0 .184-.369.184zm4.614-6.272h-.369c-.369-.184-.739-.738-.369-1.29.184-.554.553-1.108.738-1.661.184-.553.738-.738 1.107-.553.554.184.738.737.554 1.106-.185.554-.554 1.291-.739 1.845a1.013 1.013 0 0 1-.922.553zm1.845-7.378c-.553 0-.923-.37-.923-.923V34.311c0-.554.37-.923.923-.923.554 0 .923.37.923.923v2.029c0 .369-.369.738-.923.738zm-1.292-7.563c-.369 0-.738-.185-.922-.554-.185-.553-.554-1.107-.739-1.66-.184-.369 0-.922.37-1.291.369-.185.922 0 1.291.369.369.553.554 1.29.923 1.844.185.554 0 .923-.554 1.292-.184-.185-.369 0-.369 0zm-4.429-6.457c-.184 0-.553 0-.738-.184l-1.292-1.291c-.369-.37-.369-.923-.184-1.292.369-.369.922-.369 1.291-.184.554.369 1.108.922 1.477 1.291a.891.891 0 0 1 0 1.291c0 .185-.185.37-.554.37zm-6.459-4.242h-.369l-1.661-.554c-.554-.184-.738-.553-.738-1.107.184-.553.553-.738 1.107-.738.738.185 1.292.37 1.845.554.554.184.739.738.554 1.107 0 .553-.369.738-.738.738z" fill="url(#cpso4q39po)"/>
    <path d="m69.39 114-.553-.185c-1.846-.553-33.403-16.97-33.403-33.757V46.301h1.845c7.751 0 27.867-8.855 30.45-12.728l1.477-2.214 1.477 2.214c2.583 3.689 21.96 12.728 30.45 12.728h1.846v35.602c0 13.466-30.82 31.359-33.404 32.097h-.184zM39.126 49.806v30.252c0 12.36 25.098 27.67 30.081 30.068 4.43-2.213 30.266-18.078 30.266-28.223V49.806c-9.043-.923-24.73-7.748-30.266-12.544-5.536 4.796-21.777 11.621-30.081 12.544z" fill="url(#4km49xunwp)"/>
    <path d="M57.763 68.806h-7.936c-1.477 0-2.768-1.291-2.768-2.767v-7.932c0-1.476 1.291-2.767 2.768-2.767h7.936c1.476 0 2.768 1.291 2.768 2.767v7.932c0 1.476-1.292 2.767-2.768 2.767zm-7.936-11.621c-.554 0-.923.368-.923.922v7.932c0 .553.37.922.923.922h7.936c.553 0 .922-.369.922-.922v-7.932c0-.554-.369-.922-.922-.922h-7.936z" fill="url(#8u2y038n5q)"/>
    <path d="M57.763 85.961h-7.936c-1.477 0-2.768-1.291-2.768-2.767v-7.932c0-1.476 1.291-2.767 2.768-2.767h7.936c1.476 0 2.768 1.291 2.768 2.767v7.932c0 1.66-1.292 2.767-2.768 2.767zM49.827 74.34c-.554 0-.923.369-.923.922v7.932c0 .553.37.922.923.922h7.936c.553 0 .922-.368.922-.922v-7.932c0-.553-.369-.922-.922-.922h-7.936z" fill="url(#cym5bedf8r)"/>
    <path d="M73.821 68.806h-7.936c-1.476 0-2.768-1.291-2.768-2.767v-7.932c0-1.476 1.292-2.767 2.768-2.767h7.936c1.476 0 2.768 1.291 2.768 2.767v7.932c0 1.476-1.292 2.767-2.768 2.767zm-7.936-11.621c-.553 0-.922.368-.922.922v7.932c0 .553.369.922.922.922h7.936c.554 0 .923-.369.923-.922v-7.932c0-.554-.37-.922-.923-.922h-7.936z" fill="url(#z7jyxu81fs)"/>
    <path d="M89.876 68.806H81.94c-1.476 0-2.768-1.291-2.768-2.767v-7.932c0-1.476 1.292-2.767 2.768-2.767h7.936c1.476 0 2.768 1.291 2.768 2.767v7.932c0 1.476-1.292 2.767-2.768 2.767zM81.94 57.185c-.553 0-.923.368-.923.922v7.932c0 .553.37.922.923.922h7.936c.553 0 .922-.369.922-.922v-7.932c0-.554-.369-.922-.922-.922H81.94z" fill="url(#km2kqxwkxt)"/>
    <path d="M73.821 85.961h-7.936c-1.476 0-2.768-1.291-2.768-2.767v-7.932c0-1.476 1.292-2.767 2.768-2.767h7.936c1.476 0 2.768 1.291 2.768 2.767v7.932c0 1.66-1.292 2.767-2.768 2.767zM65.885 74.34c-.553 0-.922.369-.922.922v7.932c0 .553.369.922.922.922h7.936c.554 0 .923-.368.923-.922v-7.932c0-.553-.37-.922-.923-.922h-7.936z" fill="url(#f13mxzx5lu)"/>
    <path d="M92.645 78.951H79.727v1.845h12.918v-1.845z" fill="url(#64qkmhp9uv)"/>
    <path d="M87.107 73.418h-1.845V86.33h1.845V73.418z" fill="url(#55bmyzl1sw)"/>
    <defs>
        <linearGradient id="2jgobluhja" x1="-.018" y1="98.862" x2="-34.606" y2="53.277" gradientUnits="userSpaceOnUse">
            <stop stop-color="#F89705"/>
            <stop offset="1" stop-color="#FFC01E"/>
        </linearGradient>
        <linearGradient id="sw3k6vxe7b" x1="149.226" y1="18.222" x2="147.91" y2="17.201" gradientUnits="userSpaceOnUse">
            <stop stop-color="#F89705"/>
            <stop offset="1" stop-color="#FFC01E"/>
        </linearGradient>
        <linearGradient id="5ijom5nvjc" x1="103.986" y1="15.373" x2="99.62" y2="4.697" gradientUnits="userSpaceOnUse">
            <stop stop-color="#F89705"/>
            <stop offset="1" stop-color="#FFC01E"/>
        </linearGradient>
        <linearGradient id="40bfy2feud" x1="98.734" y1="14.702" x2="97.428" y2="13.623" gradientUnits="userSpaceOnUse">
            <stop stop-color="#F89705"/>
            <stop offset="1" stop-color="#FFC01E"/>
        </linearGradient>
        <linearGradient id="3jlzcxc0ue" x1="85.186" y1="17.58" x2="83.118" y2="14.388" gradientUnits="userSpaceOnUse">
            <stop stop-color="#F89705"/>
            <stop offset="1" stop-color="#FFC01E"/>
        </linearGradient>
        <linearGradient id="aci0jxvy3f" x1="80.093" y1="21.275" x2="78.72" y2="20.453" gradientUnits="userSpaceOnUse">
            <stop stop-color="#F89705"/>
            <stop offset="1" stop-color="#FFC01E"/>
        </linearGradient>
        <linearGradient id="v4esnb3pug" x1="84.062" y1="24.868" x2="82.747" y2="23.879" gradientUnits="userSpaceOnUse">
            <stop stop-color="#F89705"/>
            <stop offset="1" stop-color="#FFC01E"/>
        </linearGradient>
        <linearGradient id="rlnkbdixhh" x1="87.828" y1="28.722" x2="86.509" y2="27.569" gradientUnits="userSpaceOnUse">
            <stop stop-color="#F89705"/>
            <stop offset="1" stop-color="#FFC01E"/>
        </linearGradient>
        <linearGradient id="jcr4dkx4li" x1="95.223" y1="44.226" x2="87.796" y2="36.087" gradientUnits="userSpaceOnUse">
            <stop stop-color="#F89705"/>
            <stop offset="1" stop-color="#FFC01E"/>
        </linearGradient>
        <linearGradient id="uxhy5e1ybj" x1="119.519" y1="47.415" x2="118.116" y2="46.335" gradientUnits="userSpaceOnUse">
            <stop stop-color="#F89705"/>
            <stop offset="1" stop-color="#FFC01E"/>
        </linearGradient>
        <linearGradient id="778e7d5rtk" x1="125.05" y1="56.006" x2="121.482" y2="53.54" gradientUnits="userSpaceOnUse">
            <stop stop-color="#F89705"/>
            <stop offset="1" stop-color="#FFC01E"/>
        </linearGradient>
        <linearGradient id="sfnd4gvvhl" x1="132.507" y1="60.125" x2="131.151" y2="59.116" gradientUnits="userSpaceOnUse">
            <stop stop-color="#F89705"/>
            <stop offset="1" stop-color="#FFC01E"/>
        </linearGradient>
        <linearGradient id="o762vmvkgm" x1="137.601" y1="57.892" x2="136.28" y2="56.906" gradientUnits="userSpaceOnUse">
            <stop stop-color="#F89705"/>
            <stop offset="1" stop-color="#FFC01E"/>
        </linearGradient>
        <linearGradient id="8w6pw8lmqn" x1="142.031" y1="54.883" x2="140.764" y2="53.633" gradientUnits="userSpaceOnUse">
            <stop stop-color="#F89705"/>
            <stop offset="1" stop-color="#FFC01E"/>
        </linearGradient>
        <linearGradient id="cpso4q39po" x1="149.251" y1="65.798" x2="135.628" y2="60.446" gradientUnits="userSpaceOnUse">
            <stop stop-color="#F89705"/>
            <stop offset="1" stop-color="#FFC01E"/>
        </linearGradient>
        <linearGradient id="4km49xunwp" x1="35.424" y1="135.71" x2="-.519" y2="115.705" gradientUnits="userSpaceOnUse">
            <stop stop-color="#F89705"/>
            <stop offset="1" stop-color="#FFC01E"/>
        </linearGradient>
        <linearGradient id="8u2y038n5q" x1="47.057" y1="72.343" x2="40.643" y2="67.974" gradientUnits="userSpaceOnUse">
            <stop stop-color="#F89705"/>
            <stop offset="1" stop-color="#FFC01E"/>
        </linearGradient>
        <linearGradient id="cym5bedf8r" x1="47.057" y1="89.499" x2="40.643" y2="85.13" gradientUnits="userSpaceOnUse">
            <stop stop-color="#F89705"/>
            <stop offset="1" stop-color="#FFC01E"/>
        </linearGradient>
        <linearGradient id="z7jyxu81fs" x1="63.115" y1="72.343" x2="56.702" y2="67.974" gradientUnits="userSpaceOnUse">
            <stop stop-color="#F89705"/>
            <stop offset="1" stop-color="#FFC01E"/>
        </linearGradient>
        <linearGradient id="km2kqxwkxt" x1="79.17" y1="72.343" x2="72.757" y2="67.974" gradientUnits="userSpaceOnUse">
            <stop stop-color="#F89705"/>
            <stop offset="1" stop-color="#FFC01E"/>
        </linearGradient>
        <linearGradient id="f13mxzx5lu" x1="63.115" y1="89.499" x2="56.702" y2="85.13" gradientUnits="userSpaceOnUse">
            <stop stop-color="#F89705"/>
            <stop offset="1" stop-color="#FFC01E"/>
        </linearGradient>
        <linearGradient id="64qkmhp9uv" x1="79.725" y1="81.281" x2="79.346" y2="79.472" gradientUnits="userSpaceOnUse">
            <stop stop-color="#F89705"/>
            <stop offset="1" stop-color="#FFC01E"/>
        </linearGradient>
        <linearGradient id="55bmyzl1sw" x1="85.261" y1="89.722" x2="83.987" y2="89.598" gradientUnits="userSpaceOnUse">
            <stop stop-color="#F89705"/>
            <stop offset="1" stop-color="#FFC01E"/>
        </linearGradient>
    </defs>
</svg>
