<svg xmlns="http://www.w3.org/2000/svg" version="1.1" xmlns:xlink="http://www.w3.org/1999/xlink" width="2000" height="267" viewBox="0 0 2000 267"><g transform="matrix(1,0,0,1,-1.2121212121212466,-0.22412077753617154)"><svg viewBox="0 0 396 53" data-background-color="#ffffff" preserveAspectRatio="xMidYMid meet" height="267" width="2000" xmlns="http://www.w3.org/2000/svg" xmlns:xlink="http://www.w3.org/1999/xlink"><g id="tight-bounds" transform="matrix(1,0,0,1,0.2400000000000091,0.04448839404275873)"><svg viewBox="0 0 395.52 52.911023211914475" height="52.911023211914475" width="395.52"><g><svg viewBox="0 0 441.2759321302463 59.0320618117988" height="52.911023211914475" width="395.52"><g transform="matrix(1,0,0,1,45.75593213024633,22.72430382049911)"><svg viewBox="0 0 395.52 13.583454170800577" height="13.583454170800577" width="395.52"><g id="textblocktransform"><svg viewBox="0 0 395.52 13.583454170800577" height="13.583454170800577" width="395.52" id="textblock"><g><svg viewBox="0 0 395.52 13.583454170800577" height="13.583454170800577" width="395.52"><g transform="matrix(1,0,0,1,0,0)"><svg width="395.52" viewBox="-2 -41.5 1311.2 46" height="13.583454170800577" data-palette-color="#ffffff"><path d="M7.35 0.5L7.35 0.5Q5.2 0.5 3.6 0.28 2 0.05 2 0.05L2 0.05 2-6.4Q2-6.4 3.25-6.28 4.5-6.15 5.95-6.15L5.95-6.15Q9.4-6.15 11.45-7.8 13.5-9.45 13.5-13.7L13.5-13.7 13.5-37 21.15-37 21.15-13.55Q21.15-9.6 19.75-6.43 18.35-3.25 15.33-1.38 12.3 0.5 7.35 0.5ZM45.25 0.5L45.25 0.5Q40.65 0.5 37.15-1.13 33.65-2.75 31.27-5.48 28.9-8.2 27.72-11.6 26.55-15 26.55-18.55L26.55-18.55Q26.55-22.1 27.72-25.48 28.9-28.85 31.27-31.55 33.65-34.25 37.15-35.88 40.65-37.5 45.25-37.5L45.25-37.5Q49.9-37.5 53.4-35.88 56.9-34.25 59.25-31.55 61.6-28.85 62.77-25.48 63.95-22.1 63.95-18.55L63.95-18.55Q63.95-15 62.77-11.6 61.6-8.2 59.25-5.48 56.9-2.75 53.4-1.13 49.9 0.5 45.25 0.5ZM45.25-6.45L45.25-6.45Q48.75-6.45 51.15-8.2 53.55-9.95 54.75-12.73 55.95-15.5 55.95-18.55L55.95-18.55Q55.95-21.6 54.75-24.35 53.55-27.1 51.15-28.85 48.75-30.6 45.25-30.6L45.25-30.6Q41.75-30.6 39.37-28.85 37-27.1 35.8-24.35 34.6-21.6 34.6-18.55L34.6-18.55Q34.6-15.5 35.8-12.73 37-9.95 39.37-8.2 41.75-6.45 45.25-6.45ZM95.1 0L69.35 0 69.35-37 94.85-37 94.85-30.3 77.05-30.3 77.05-22 92.55-22 92.55-15.55 77.05-15.55 77.05-6.7 95.1-6.7 95.1 0ZM120.54 0L112.94 0 112.94-37 123.34-37 131.79-17.95 140.49-37 150.54-37 150.54 0 142.94 0 142.94-25.2 135.34-8.65 128.19-8.65 120.54-25.3 120.54 0ZM183.09 0L157.34 0 157.34-37 182.84-37 182.84-30.3 165.04-30.3 165.04-22 180.54-22 180.54-15.55 165.04-15.55 165.04-6.7 183.09-6.7 183.09 0ZM197.09 0L189.44 0 189.44-37 196.49-37 212.44-13.4 212.44-37 220.09-37 220.09 0 212.94 0 197.09-22.95 197.09 0ZM240.88 0L226.88 0 226.88-37 240.88-37Q245.38-37 248.81-35.43 252.23-33.85 254.48-31.2 256.73-28.55 257.88-25.25 259.03-21.95 259.03-18.5L259.03-18.5Q259.03-15.05 257.88-11.75 256.73-8.45 254.48-5.8 252.23-3.15 248.81-1.58 245.38 0 240.88 0L240.88 0ZM240.53-30.25L240.53-30.25 234.58-30.25 234.58-6.85 240.53-6.85Q244.18-6.85 246.56-8.55 248.93-10.25 250.11-12.95 251.28-15.65 251.28-18.55L251.28-18.55Q251.28-21.45 250.11-24.13 248.93-26.8 246.56-28.53 244.18-30.25 240.53-30.25ZM290.18 0L264.43 0 264.43-37 289.93-37 289.93-30.3 272.13-30.3 272.13-22 287.63-22 287.63-15.55 272.13-15.55 272.13-6.7 290.18-6.7 290.18 0ZM323.93 0L295.58 0 295.58-5.5 313.93-30.25 295.58-30.25 295.58-37 323.93-37 323.93-31.55 305.53-6.75 323.93-6.75 323.93 0ZM351.03-12.6L332.28-12.6 332.28-18.6 351.03-18.6 351.03-12.6ZM367.92 0L360.22 0 360.22-37 367.92-37 367.92-22.25 382.32-22.25 382.32-37 390.02-37 390.02 0 382.32 0 382.32-15.55 367.92-15.55 367.92 0ZM411.87 0.5L411.87 0.5Q407.82 0.5 404.4-1.05 400.97-2.6 398.9-5.85 396.82-9.1 396.82-14.3L396.82-14.3 396.82-37 404.52-37 404.52-14.3Q404.52-11.1 406.32-8.93 408.12-6.75 411.87-6.75L411.87-6.75Q415.62-6.75 417.4-8.93 419.17-11.1 419.17-14.3L419.17-14.3 419.17-37 426.92-37 426.92-14.3Q426.92-9.1 424.85-5.85 422.77-2.6 419.32-1.05 415.87 0.5 411.87 0.5ZM450.92 0.5L450.92 0.5Q446.27 0.5 442.77-1.1 439.27-2.7 436.94-5.43 434.62-8.15 433.47-11.53 432.32-14.9 432.32-18.45L432.32-18.45Q432.32-22 433.49-25.4 434.67-28.8 436.99-31.53 439.32-34.25 442.87-35.88 446.42-37.5 451.17-37.5L451.17-37.5Q454.87-37.5 457.54-36.58 460.22-35.65 462.02-34.18 463.82-32.7 464.89-31.05 465.97-29.4 466.54-27.93 467.12-26.45 467.29-25.53 467.47-24.6 467.47-24.6L467.47-24.6 459.82-24.6Q459.82-24.6 459.52-25.5 459.22-26.4 458.32-27.63 457.42-28.85 455.69-29.78 453.97-30.7 451.17-30.7L451.17-30.7Q447.52-30.7 445.09-28.93 442.67-27.15 441.44-24.38 440.22-21.6 440.22-18.6L440.22-18.6Q440.22-15.5 441.47-12.68 442.72-9.85 445.14-8.08 447.57-6.3 451.22-6.3L451.22-6.3Q455.22-6.3 457.54-8.35 459.87-10.4 460.32-13.9L460.32-13.9 450.72-13.9 450.72-19.95 467.92-19.95 467.92-17.1Q467.92-11.3 465.69-7.38 463.47-3.45 459.64-1.48 455.82 0.5 450.92 0.5ZM480.92 0L473.22 0 473.22-37 480.92-37 480.92-22.25 495.32-22.25 495.32-37 503.02-37 503.02 0 495.32 0 495.32-15.55 480.92-15.55 480.92 0ZM535.56 0L509.81 0 509.81-37 535.31-37 535.31-30.3 517.51-30.3 517.51-22 533.01-22 533.01-15.55 517.51-15.55 517.51-6.7 535.56-6.7 535.56 0ZM555.51 0.5L555.51 0.5Q551.91 0.5 549.39-0.38 546.86-1.25 545.19-2.63 543.51-4 542.51-5.53 541.51-7.05 541.04-8.43 540.56-9.8 540.44-10.68 540.31-11.55 540.31-11.55L540.31-11.55 548.11-11.55Q548.11-11.55 548.34-10.7 548.56-9.85 549.31-8.72 550.06-7.6 551.61-6.78 553.16-5.95 555.81-5.95L555.81-5.95Q559.06-5.95 560.61-7.33 562.16-8.7 562.16-10.6L562.16-10.6Q562.16-12.3 560.99-13.3 559.81-14.3 557.36-14.8L557.36-14.8 552.41-15.75Q549.41-16.3 546.84-17.5 544.26-18.7 542.66-20.83 541.06-22.95 541.06-26.3L541.06-26.3Q541.06-29.7 542.76-32.23 544.46-34.75 547.54-36.13 550.61-37.5 554.76-37.5L554.76-37.5Q558.66-37.5 561.24-36.38 563.81-35.25 565.34-33.63 566.86-32 567.59-30.35 568.31-28.7 568.54-27.6 568.76-26.5 568.76-26.5L568.76-26.5 561.16-26.5Q561.16-26.5 560.99-27.2 560.81-27.9 560.16-28.8 559.51-29.7 558.19-30.4 556.86-31.1 554.56-31.1L554.56-31.1Q551.41-31.1 550.01-29.73 548.61-28.35 548.61-26.75L548.61-26.75Q548.61-25.1 550.01-24.2 551.41-23.3 553.66-22.85L553.66-22.85 558.91-21.8Q561.91-21.25 564.41-19.95 566.91-18.65 568.39-16.48 569.86-14.3 569.86-11.1L569.86-11.1Q569.86-7.8 568.21-5.18 566.56-2.55 563.36-1.03 560.16 0.5 555.51 0.5ZM580.01-18.45L580.01-18.45Q578.11-18.45 576.91-19.73 575.71-21 575.71-22.75L575.71-22.75Q575.71-24.5 576.91-25.75 578.11-27 580.01-27L580.01-27Q581.81-27 583.03-25.75 584.26-24.5 584.26-22.75L584.26-22.75Q584.26-21 583.03-19.73 581.81-18.45 580.01-18.45ZM580.01 0.5L580.01 0.5Q578.11 0.5 576.91-0.78 575.71-2.05 575.71-3.75L575.71-3.75Q575.71-5.55 576.91-6.8 578.11-8.05 580.01-8.05L580.01-8.05Q581.81-8.05 583.03-6.8 584.26-5.55 584.26-3.75L584.26-3.75Q584.26-2 583.03-0.75 581.81 0.5 580.01 0.5ZM620.2 0.5L620.2 0.5Q615.6 0.5 612.18-1.13 608.75-2.75 606.45-5.48 604.15-8.2 603-11.6 601.85-15 601.85-18.55L601.85-18.55Q601.85-22.05 603-25.45 604.15-28.85 606.45-31.58 608.75-34.3 612.18-35.9 615.6-37.5 620.2-37.5L620.2-37.5Q624.05-37.5 626.78-36.52 629.5-35.55 631.33-34.02 633.15-32.5 634.28-30.78 635.4-29.05 635.95-27.53 636.5-26 636.68-25.03 636.85-24.05 636.85-24.05L636.85-24.05 629.2-24.05Q629.2-24.05 629.03-24.73 628.85-25.4 628.35-26.38 627.85-27.35 626.88-28.3 625.9-29.25 624.28-29.93 622.65-30.6 620.25-30.6L620.25-30.6Q616.8-30.6 614.48-28.83 612.15-27.05 610.98-24.3 609.8-21.55 609.8-18.55L609.8-18.55Q609.8-15.55 610.98-12.78 612.15-10 614.48-8.22 616.8-6.45 620.25-6.45L620.25-6.45Q622.65-6.45 624.28-7.1 625.9-7.75 626.88-8.72 627.85-9.7 628.35-10.68 628.85-11.65 629.03-12.3 629.2-12.95 629.2-12.95L629.2-12.95 636.85-12.95Q636.85-12.95 636.68-11.98 636.5-11 635.95-9.47 635.4-7.95 634.28-6.23 633.15-4.5 631.33-2.98 629.5-1.45 626.78-0.48 624.05 0.5 620.2 0.5ZM658.45 0L650.75 0 650.75-12.65 637.75-37 646.2-37 654.6-20.55 663-37 671.45-37 658.45-12.65 658.45 0ZM693.45 0L675.95 0 675.95-37 693.05-37Q696.65-37 699.12-35.75 701.6-34.5 702.9-32.43 704.2-30.35 704.2-27.85L704.2-27.85Q704.2-25.4 703.3-23.78 702.4-22.15 701.12-21.18 699.85-20.2 698.65-19.85L698.65-19.85 698.65-19.45Q700-19.15 701.65-18.15 703.3-17.15 704.5-15.3 705.7-13.45 705.7-10.5L705.7-10.5Q705.7-7.9 704.47-5.5 703.25-3.1 700.52-1.55 697.8 0 693.45 0L693.45 0ZM691.75-30.55L691.75-30.55 683.65-30.55 683.65-21.95 691.75-21.95Q694.35-21.95 695.55-23.2 696.75-24.45 696.75-26.25L696.75-26.25Q696.75-28 695.55-29.28 694.35-30.55 691.75-30.55ZM692.35-16.05L692.35-16.05 683.65-16.05 683.65-6.45 692.35-6.45Q695.3-6.45 696.62-7.88 697.95-9.3 697.95-11.3L697.95-11.3Q697.95-13.25 696.62-14.65 695.3-16.05 692.35-16.05ZM737.14 0L711.39 0 711.39-37 736.89-37 736.89-30.3 719.09-30.3 719.09-22 734.59-22 734.59-15.55 719.09-15.55 719.09-6.7 737.14-6.7 737.14 0ZM751.19 0L743.49 0 743.49-37 758.49-37Q762.59-37 765.52-35.55 768.44-34.1 770.02-31.55 771.59-29 771.59-25.65L771.59-25.65Q771.59-22 769.74-19.28 767.89-16.55 764.49-15.3L764.49-15.3 772.54 0 763.99 0 756.64-14.25 751.19-14.25 751.19 0ZM758.39-30.35L758.39-30.35 751.19-30.35 751.19-20.55 758.39-20.55Q760.94-20.55 762.39-21.95 763.84-23.35 763.84-25.4L763.84-25.4Q763.84-27.5 762.39-28.93 760.94-30.35 758.39-30.35ZM792.09 0.5L792.09 0.5Q788.49 0.5 785.96-0.38 783.44-1.25 781.76-2.63 780.09-4 779.09-5.53 778.09-7.05 777.61-8.43 777.14-9.8 777.01-10.68 776.89-11.55 776.89-11.55L776.89-11.55 784.69-11.55Q784.69-11.55 784.91-10.7 785.14-9.85 785.89-8.72 786.64-7.6 788.19-6.78 789.74-5.95 792.39-5.95L792.39-5.95Q795.64-5.95 797.19-7.33 798.74-8.7 798.74-10.6L798.74-10.6Q798.74-12.3 797.56-13.3 796.39-14.3 793.94-14.8L793.94-14.8 788.99-15.75Q785.99-16.3 783.41-17.5 780.84-18.7 779.24-20.83 777.64-22.95 777.64-26.3L777.64-26.3Q777.64-29.7 779.34-32.23 781.04-34.75 784.11-36.13 787.19-37.5 791.34-37.5L791.34-37.5Q795.24-37.5 797.81-36.38 800.39-35.25 801.91-33.63 803.44-32 804.16-30.35 804.89-28.7 805.11-27.6 805.34-26.5 805.34-26.5L805.34-26.5 797.74-26.5Q797.74-26.5 797.56-27.2 797.39-27.9 796.74-28.8 796.09-29.7 794.76-30.4 793.44-31.1 791.14-31.1L791.14-31.1Q787.99-31.1 786.59-29.73 785.19-28.35 785.19-26.75L785.19-26.75Q785.19-25.1 786.59-24.2 787.99-23.3 790.24-22.85L790.24-22.85 795.49-21.8Q798.49-21.25 800.99-19.95 803.49-18.65 804.96-16.48 806.44-14.3 806.44-11.1L806.44-11.1Q806.44-7.8 804.79-5.18 803.14-2.55 799.94-1.03 796.74 0.5 792.09 0.5ZM837.34 0L811.59 0 811.59-37 837.09-37 837.09-30.3 819.29-30.3 819.29-22 834.79-22 834.79-15.55 819.29-15.55 819.29-6.7 837.34-6.7 837.34 0ZM860.03 0.5L860.03 0.5Q855.43 0.5 852.01-1.13 848.58-2.75 846.28-5.48 843.98-8.2 842.83-11.6 841.68-15 841.68-18.55L841.68-18.55Q841.68-22.05 842.83-25.45 843.98-28.85 846.28-31.58 848.58-34.3 852.01-35.9 855.43-37.5 860.03-37.5L860.03-37.5Q863.88-37.5 866.61-36.52 869.33-35.55 871.16-34.02 872.98-32.5 874.11-30.78 875.23-29.05 875.78-27.53 876.33-26 876.51-25.03 876.68-24.05 876.68-24.05L876.68-24.05 869.03-24.05Q869.03-24.05 868.86-24.73 868.68-25.4 868.18-26.38 867.68-27.35 866.71-28.3 865.73-29.25 864.11-29.93 862.48-30.6 860.08-30.6L860.08-30.6Q856.63-30.6 854.31-28.83 851.98-27.05 850.81-24.3 849.63-21.55 849.63-18.55L849.63-18.55Q849.63-15.55 850.81-12.78 851.98-10 854.31-8.22 856.63-6.45 860.08-6.45L860.08-6.45Q862.48-6.45 864.11-7.1 865.73-7.75 866.71-8.72 867.68-9.7 868.18-10.68 868.68-11.65 868.86-12.3 869.03-12.95 869.03-12.95L869.03-12.95 876.68-12.95Q876.68-12.95 876.51-11.98 876.33-11 875.78-9.47 875.23-7.95 874.11-6.23 872.98-4.5 871.16-2.98 869.33-1.45 866.61-0.48 863.88 0.5 860.03 0.5ZM897.13 0.5L897.13 0.5Q893.08 0.5 889.66-1.05 886.23-2.6 884.16-5.85 882.08-9.1 882.08-14.3L882.08-14.3 882.08-37 889.78-37 889.78-14.3Q889.78-11.1 891.58-8.93 893.38-6.75 897.13-6.75L897.13-6.75Q900.88-6.75 902.66-8.93 904.43-11.1 904.43-14.3L904.43-14.3 904.43-37 912.18-37 912.18-14.3Q912.18-9.1 910.11-5.85 908.03-2.6 904.58-1.05 901.13 0.5 897.13 0.5ZM926.68 0L918.98 0 918.98-37 933.98-37Q938.08-37 941-35.55 943.93-34.1 945.5-31.55 947.08-29 947.08-25.65L947.08-25.65Q947.08-22 945.23-19.28 943.38-16.55 939.98-15.3L939.98-15.3 948.03 0 939.48 0 932.13-14.25 926.68-14.25 926.68 0ZM933.88-30.35L933.88-30.35 926.68-30.35 926.68-20.55 933.88-20.55Q936.43-20.55 937.88-21.95 939.33-23.35 939.33-25.4L939.33-25.4Q939.33-27.5 937.88-28.93 936.43-30.35 933.88-30.35ZM962.28 0L954.58 0 954.58-37 962.28-37 962.28 0ZM986.67 0L978.97 0 978.97-30.3 967.62-30.3 967.62-37 998.02-37 998.02-30.3 986.67-30.3 986.67 0ZM1021.97 0L1014.27 0 1014.27-12.65 1001.27-37 1009.72-37 1018.12-20.55 1026.52-37 1034.97-37 1021.97-12.65 1021.97 0ZM1076.72 0L1050.97 0 1050.97-37 1076.47-37 1076.47-30.3 1058.67-30.3 1058.67-22 1074.17-22 1074.17-15.55 1058.67-15.55 1058.67-6.7 1076.72-6.7 1076.72 0ZM1090.71 0L1083.06 0 1083.06-37 1090.11-37 1106.06-13.4 1106.06-37 1113.71-37 1113.71 0 1106.56 0 1090.71-22.95 1090.71 0ZM1137.71 0.5L1137.71 0.5Q1133.06 0.5 1129.56-1.1 1126.06-2.7 1123.74-5.43 1121.41-8.15 1120.26-11.53 1119.11-14.9 1119.11-18.45L1119.11-18.45Q1119.11-22 1120.29-25.4 1121.46-28.8 1123.79-31.53 1126.11-34.25 1129.66-35.88 1133.21-37.5 1137.96-37.5L1137.96-37.5Q1141.66-37.5 1144.34-36.58 1147.01-35.65 1148.81-34.18 1150.61-32.7 1151.69-31.05 1152.76-29.4 1153.34-27.93 1153.91-26.45 1154.09-25.53 1154.26-24.6 1154.26-24.6L1154.26-24.6 1146.61-24.6Q1146.61-24.6 1146.31-25.5 1146.01-26.4 1145.11-27.63 1144.21-28.85 1142.49-29.78 1140.76-30.7 1137.96-30.7L1137.96-30.7Q1134.31-30.7 1131.89-28.93 1129.46-27.15 1128.24-24.38 1127.01-21.6 1127.01-18.6L1127.01-18.6Q1127.01-15.5 1128.26-12.68 1129.51-9.85 1131.94-8.08 1134.36-6.3 1138.01-6.3L1138.01-6.3Q1142.01-6.3 1144.34-8.35 1146.66-10.4 1147.11-13.9L1147.11-13.9 1137.51-13.9 1137.51-19.95 1154.71-19.95 1154.71-17.1Q1154.71-11.3 1152.49-7.38 1150.26-3.45 1146.44-1.48 1142.61 0.5 1137.71 0.5ZM1167.71 0L1160.01 0 1160.01-37 1167.71-37 1167.71 0ZM1182.16 0L1174.51 0 1174.51-37 1181.56-37 1197.51-13.4 1197.51-37 1205.16-37 1205.16 0 1198.01 0 1182.16-22.95 1182.16 0ZM1237.7 0L1211.95 0 1211.95-37 1237.45-37 1237.45-30.3 1219.65-30.3 1219.65-22 1235.15-22 1235.15-15.55 1219.65-15.55 1219.65-6.7 1237.7-6.7 1237.7 0ZM1269.8 0L1244.05 0 1244.05-37 1269.55-37 1269.55-30.3 1251.75-30.3 1251.75-22 1267.25-22 1267.25-15.55 1251.75-15.55 1251.75-6.7 1269.8-6.7 1269.8 0ZM1283.85 0L1276.15 0 1276.15-37 1291.15-37Q1295.25-37 1298.17-35.55 1301.1-34.1 1302.67-31.55 1304.25-29 1304.25-25.65L1304.25-25.65Q1304.25-22 1302.4-19.28 1300.55-16.55 1297.15-15.3L1297.15-15.3 1305.2 0 1296.65 0 1289.3-14.25 1283.85-14.25 1283.85 0ZM1291.05-30.35L1291.05-30.35 1283.85-30.35 1283.85-20.55 1291.05-20.55Q1293.6-20.55 1295.05-21.95 1296.5-23.35 1296.5-25.4L1296.5-25.4Q1296.5-27.5 1295.05-28.93 1293.6-30.35 1291.05-30.35Z" opacity="1" transform="matrix(1,0,0,1,0,0)" fill="#ffffff" class="wordmark-text-0" data-fill-palette-color="primary" id="text-0"></path></svg></g></svg></g></svg></g></svg></g><g><svg viewBox="0 0 43.04802888537111 59.0320618117988" height="59.0320618117988" width="43.04802888537111"><g><svg xmlns="http://www.w3.org/2000/svg" xmlns:xlink="http://www.w3.org/1999/xlink" version="1.1" x="0" y="0" viewBox="12.929 1.021 64.14099999999999 87.957" enable-background="new 0 0 90 90" xml:space="preserve" height="59.0320618117988" width="43.04802888537111" class="icon-icon-0" data-fill-palette-color="accent" id="icon-0"><polygon points="42.225,52.752 46.708,49.581 46.708,38.363 42.225,41.534 " fill="#ffcb06" data-fill-palette-color="accent"></polygon><polygon points="51.191,20.688 42.225,27.029 42.225,38.248 51.191,31.907 " fill="#ffcb06" data-fill-palette-color="accent"></polygon><polygon points="56.829,31.207 47.861,37.548 47.861,48.768 56.829,42.425 " fill="#ffcb06" data-fill-palette-color="accent"></polygon><path d="M51.191 49.698L42.224 56.038V59.048C42.804 59.902 43.4 60.836 44.003 61.868A34 34 0 0 1 45.574 64.889L51.191 60.916z" fill="#ffcb06" data-fill-palette-color="accent"></path><polygon points="57.98,41.61 66.95,35.27 66.95,24.052 57.98,30.393 " fill="#ffcb06" data-fill-palette-color="accent"></polygon><polygon points="76.409,1.021 63.177,1.021 28.22,24.912 41.452,24.912 " fill="#ffcb06" data-fill-palette-color="accent"></polygon><path d="M46.708 67.738V67.372L46.605 67.443C46.641 67.542 46.676 67.641 46.708 67.738" fill="#ffcb06" data-fill-palette-color="accent"></path><polygon points="62.466,52.943 71.436,46.604 71.436,35.386 62.466,41.727 " fill="#ffcb06" data-fill-palette-color="accent"></polygon><polygon points="61.313,13.533 52.346,19.874 52.346,31.092 61.313,24.751 " fill="#ffcb06" data-fill-palette-color="accent"></polygon><polygon points="72.587,45.788 77.07,42.618 77.07,31.4 72.587,34.57 " fill="#ffcb06" data-fill-palette-color="accent"></polygon><polygon points="68.104,34.455 77.07,28.114 77.07,16.896 68.104,23.237 " fill="#ffcb06" data-fill-palette-color="accent"></polygon><polygon points="72.587,5.562 72.587,16.78 77.07,13.61 77.07,2.392 " fill="#ffcb06" data-fill-palette-color="accent"></polygon><polygon points="68.104,63.464 77.07,57.123 77.07,45.905 68.104,52.245 " fill="#ffcb06" data-fill-palette-color="accent"></polygon><path d="M47.861 73.189A19 19 0 0 1 47.861 76.37V77.775L56.829 71.433V60.216L47.861 66.557z" fill="#ffcb06" data-fill-palette-color="accent"></path><path d="M32.147 42.79A2.923 2.923 0 0 1 35.93 46.465C34.791 49.845 35.287 50.427 38.038 53.658 38.685 54.418 39.434 55.297 40.244 56.335V27.478H28.22V45.38C29.576 44.054 31.029 43.202 32.147 42.79" fill="#ffcb06" data-fill-palette-color="accent"></path><polygon points="71.436,6.377 62.466,12.718 62.466,23.936 71.436,17.595 " fill="#ffcb06" data-fill-palette-color="accent"></polygon><polygon points="61.313,42.542 52.346,48.883 52.346,60.102 61.313,53.76 " fill="#ffcb06" data-fill-palette-color="accent"></polygon><polygon points="57.98,70.619 66.95,64.277 66.95,53.061 57.98,59.4 " fill="#ffcb06" data-fill-palette-color="accent"></polygon><path d="M41.48 63.344C35.498 53.112 30.58 53.192 33.16 45.532 33.16 45.532 26.388 48.032 27.194 56.658 27.194 56.658 27.466 58.724 26.04 60.836 26.04 60.836 26.63 56.255 22.356 52.065 22.356 52.065 24.13 54.645 20.664 59.401 17.319 63.99 13.196 65.604 12.96 72.612L12.929 72.606C12.929 72.866 12.937 73.124 12.95 73.379L12.949 73.4 12.951 73.424 12.954 73.482C12.958 73.597 12.966 73.71 12.979 73.822 13.603 82.297 20.671 88.978 29.305 88.978 35.771 88.978 41.36 85.23 44.021 79.79L44.024 79.787S44.07 79.703 44.14 79.546C44.146 79.532 44.154 79.52 44.16 79.505H44.159C44.731 78.186 46.721 72.309 41.48 63.344M24.564 81.752C19.243 77.964 21.361 72.195 25.857 69.8 32.514 66.252 31.468 62.544 31.468 62.544S35.366 67.977 36.091 74.775C36.817 81.576 29.886 85.54 24.564 81.752" fill="#ffcb06" data-fill-palette-color="accent"></path></svg></g></svg></g></svg></g><defs></defs></svg><rect width="395.52" height="52.911023211914475" fill="none" stroke="none" visibility="hidden"></rect></g></svg></g></svg>