<svg xmlns="http://www.w3.org/2000/svg" version="1.1" xmlns:xlink="http://www.w3.org/1999/xlink" xmlns:svgjs="http://svgjs.dev/svgjs" width="2000" height="356" viewBox="0 0 2000 356"><g transform="matrix(1,0,0,1,-2.446808510638334,-2.3316937313431936)"><svg viewBox="0 0 376 67" data-background-color="#121212" preserveAspectRatio="xMidYMid meet" height="356" width="2000" xmlns="http://www.w3.org/2000/svg" xmlns:xlink="http://www.w3.org/1999/xlink"><g id="tight-bounds" transform="matrix(1,0,0,1,0.46023999999999887,0.43884999999997376)"><svg viewBox="0 0 375.07953 66.12232000000002" height="66.12232000000002" width="375.07953"><g><svg></svg></g><g><svg viewBox="0 0 375.07953 66.12232000000002" height="66.12232000000002" width="375.07953"><g transform="matrix(1,0,0,1,-10.22024,-92.24301999999999)"><path d="M10.22 154.957v-62.714h375.08v62.714h-26.911l0-0.807h26.104v-61.1h-373.466v61.1h39.431v0.807z" fill="#ffffff" fill-rule="nonzero" stroke="none" stroke-width="1" stroke-linecap="butt" stroke-linejoin="miter" stroke-miterlimit="10" stroke-dasharray="" stroke-dashoffset="0" font-family="none" font-weight="none" font-size="none" text-anchor="none" style="mix-blend-mode: normal" data-fill-palette-color="tertiary"></path><g><path transform="translate(52.21079,156.67114) scale(0.16942,0.16942)" d="M8.95-18.35h8.05c1.633 0 2.977-0.26 4.03-0.78 1.047-0.513 1.82-1.237 2.32-2.17 0.5-0.933 0.75-2.017 0.75-3.25v0c0-1.967-0.567-3.5-1.7-4.6-1.133-1.1-2.933-1.65-5.4-1.65v0h-8.05zM29.1-24.55v0c0 1.267-0.217 2.523-0.65 3.77-0.433 1.253-1.133 2.38-2.1 3.38-0.967 1-2.223 1.79-3.77 2.37-1.553 0.587-3.413 0.88-5.58 0.88v0h-8.05v14.15h-5v-35h13.05c2.733 0 4.993 0.473 6.78 1.42 1.78 0.953 3.113 2.22 4 3.8 0.88 1.587 1.32 3.33 1.32 5.23zM74.79 0v-25h4.3l0.3 3.35c0.7-0.867 1.51-1.593 2.43-2.18 0.913-0.58 1.913-0.987 3-1.22 1.08-0.233 2.203-0.217 3.37 0.05v0 4.45c-1.1-0.267-2.167-0.3-3.2-0.1-1.033 0.2-1.957 0.623-2.77 1.27-0.82 0.653-1.48 1.513-1.98 2.58-0.5 1.067-0.75 2.35-0.75 3.85v0 12.95zM143.48 0.35v0c-2.367 0-4.49-0.527-6.37-1.58-1.887-1.047-3.363-2.53-4.43-4.45-1.067-1.913-1.6-4.17-1.6-6.77v0c0-2.633 0.55-4.917 1.65-6.85 1.1-1.933 2.6-3.427 4.5-4.48 1.9-1.047 4.033-1.57 6.4-1.57v0c2.367 0 4.51 0.523 6.43 1.57 1.913 1.053 3.42 2.537 4.52 4.45 1.1 1.92 1.65 4.18 1.65 6.78v0c0 2.633-0.557 4.917-1.67 6.85-1.12 1.933-2.647 3.423-4.58 4.47-1.933 1.053-4.1 1.58-6.5 1.58zM143.43-3.95v0c1.333 0 2.583-0.31 3.75-0.93 1.167-0.613 2.127-1.553 2.88-2.82 0.747-1.267 1.12-2.883 1.12-4.85v0c0-1.933-0.357-3.523-1.07-4.77-0.72-1.253-1.663-2.19-2.83-2.81-1.167-0.613-2.417-0.92-3.75-0.92v0c-1.3 0-2.507 0.307-3.62 0.92-1.12 0.62-2.03 1.563-2.73 2.83-0.7 1.267-1.05 2.883-1.05 4.85v0c0 1.933 0.343 3.523 1.03 4.77 0.68 1.253 1.57 2.187 2.67 2.8 1.1 0.62 2.3 0.93 3.6 0.93zM199.22-25h3.6v-7h4.75v7h6.25v4.2h-6.25v12.3c0 1.533 0.31 2.617 0.93 3.25 0.613 0.633 1.397 0.993 2.35 1.08 0.947 0.08 1.937 0.053 2.97-0.08v0 4.05c-1.367 0.3-2.707 0.393-4.02 0.28-1.32-0.12-2.503-0.497-3.55-1.13-1.053-0.633-1.887-1.56-2.5-2.78-0.62-1.213-0.93-2.77-0.93-4.67v0-12.3h-3.6zM270.02 0.35v0c-2.4 0-4.527-0.56-6.38-1.68-1.847-1.113-3.297-2.653-4.35-4.62-1.047-1.967-1.57-4.217-1.57-6.75v0c0-2.433 0.517-4.6 1.55-6.5 1.033-1.9 2.457-3.4 4.27-4.5 1.82-1.1 3.88-1.65 6.18-1.65v0c2.333 0 4.4 0.507 6.2 1.52 1.8 1.02 3.2 2.437 4.2 4.25 1 1.82 1.483 3.913 1.45 6.28v0c0 0.4-0.017 0.807-0.05 1.22-0.033 0.42-0.083 0.88-0.15 1.38v0h-18.5c0.1 1.333 0.473 2.507 1.12 3.52 0.653 1.02 1.487 1.813 2.5 2.38 1.02 0.567 2.18 0.85 3.48 0.85v0c1.667 0 3.117-0.327 4.35-0.98 1.233-0.647 2.1-1.52 2.6-2.62v0l4.1 1.45c-1 2.033-2.46 3.617-4.38 4.75-1.913 1.133-4.12 1.7-6.62 1.7zM262.92-14.75h13.5c0-1.2-0.3-2.283-0.9-3.25-0.6-0.967-1.41-1.727-2.43-2.28-1.013-0.547-2.153-0.82-3.42-0.82v0c-1.133 0-2.177 0.273-3.13 0.82-0.947 0.553-1.747 1.303-2.4 2.25-0.647 0.953-1.053 2.047-1.22 3.28zM338.11 0.35v0c-2.4 0-4.517-0.543-6.35-1.63-1.833-1.08-3.26-2.57-4.28-4.47-1.013-1.9-1.52-4.117-1.52-6.65v0c0-2.567 0.517-4.817 1.55-6.75 1.033-1.933 2.467-3.45 4.3-4.55 1.833-1.1 3.967-1.65 6.4-1.65v0c2.567 0 4.823 0.6 6.77 1.8 1.953 1.2 3.363 2.817 4.23 4.85v0l-4.25 1.5c-0.5-1.167-1.343-2.1-2.53-2.8-1.18-0.7-2.52-1.05-4.02-1.05v0c-1.533 0-2.85 0.357-3.95 1.07-1.1 0.72-1.95 1.72-2.55 3-0.6 1.287-0.9 2.797-0.9 4.53v0c0 2.6 0.667 4.667 2 6.2 1.333 1.533 3.133 2.3 5.4 2.3v0c1.5 0 2.84-0.333 4.02-1 1.187-0.667 2.08-1.583 2.68-2.75v0l4.2 1.5c-0.933 2-2.4 3.59-4.4 4.77-2 1.187-4.267 1.78-6.8 1.78zM392.3-25h3.6v-7h4.75v7h6.25v4.2h-6.25v12.3c0 1.533 0.307 2.617 0.92 3.25 0.62 0.633 1.403 0.993 2.35 1.08 0.953 0.08 1.947 0.053 2.98-0.08v0 4.05c-1.367 0.3-2.71 0.393-4.03 0.28-1.313-0.12-2.497-0.497-3.55-1.13-1.047-0.633-1.88-1.56-2.5-2.78-0.613-1.213-0.92-2.77-0.92-4.67v0-12.3h-3.6zM452.99 0v-25h4.75v25zM455.39-29.4v0c-0.9 0-1.65-0.3-2.25-0.9-0.6-0.6-0.9-1.333-0.9-2.2v0c0-0.9 0.3-1.657 0.9-2.27 0.6-0.62 1.35-0.93 2.25-0.93v0c0.867 0 1.61 0.31 2.23 0.93 0.613 0.613 0.92 1.37 0.92 2.27v0c0 0.867-0.307 1.6-0.92 2.2-0.62 0.6-1.363 0.9-2.23 0.9zM505.73 0v-25h4.3l0.3 2.9c0.8-1.033 1.817-1.833 3.05-2.4 1.233-0.567 2.6-0.85 4.1-0.85v0c1.933 0 3.61 0.407 5.03 1.22 1.413 0.82 2.513 2.03 3.3 3.63 0.78 1.6 1.17 3.6 1.17 6v0 14.5h-4.7v-13.9c0-2.333-0.49-4.11-1.47-5.33-0.987-1.213-2.413-1.82-4.28-1.82v0c-1.933 0-3.433 0.623-4.5 1.87-1.067 1.253-1.6 3.097-1.6 5.53v0 13.65zM592.27-21.25l0.35-3.75h4.3v20.9c0 2.933-0.7 5.45-2.1 7.55-1.4 2.1-3.407 3.717-6.02 4.85-2.62 1.133-5.78 1.7-9.48 1.7v0l-0.75-4.15c4.467-0.1 7.85-0.99 10.15-2.67 2.3-1.687 3.45-4.113 3.45-7.28v0-0.25l0.55 0.05c-0.8 1.267-1.94 2.357-3.42 3.27-1.487 0.92-3.33 1.38-5.53 1.38v0c-2.233 0-4.207-0.533-5.92-1.6-1.72-1.067-3.053-2.567-4-4.5-0.953-1.933-1.43-4.183-1.43-6.75v0c0-2.567 0.477-4.817 1.43-6.75 0.947-1.933 2.28-3.433 4-4.5 1.713-1.067 3.687-1.6 5.92-1.6v0c1.367 0 2.593 0.183 3.68 0.55 1.08 0.367 2.02 0.857 2.82 1.47 0.8 0.62 1.467 1.313 2 2.08zM577.47-12.5v0c0 2.567 0.677 4.633 2.03 6.2 1.347 1.567 3.153 2.35 5.42 2.35v0c1.333 0 2.55-0.343 3.65-1.03 1.1-0.68 1.977-1.663 2.63-2.95 0.647-1.28 0.97-2.803 0.97-4.57v0c0-1.8-0.323-3.333-0.97-4.6-0.653-1.267-1.537-2.243-2.65-2.93-1.12-0.68-2.33-1.02-3.63-1.02v0c-2.267 0-4.073 0.783-5.42 2.35-1.353 1.567-2.03 3.633-2.03 6.2zM711.36-17.55l9.9-17.45h5.55l-12.95 22v13h-4.95v-12.95l-12.95-22.05h5.55zM778.85 0.35v0c-2.367 0-4.493-0.527-6.38-1.58-1.88-1.047-3.353-2.53-4.42-4.45-1.067-1.913-1.6-4.17-1.6-6.77v0c0-2.633 0.55-4.917 1.65-6.85 1.1-1.933 2.6-3.427 4.5-4.48 1.9-1.047 4.033-1.57 6.4-1.57v0c2.367 0 4.507 0.523 6.42 1.57 1.92 1.053 3.43 2.537 4.53 4.45 1.1 1.92 1.65 4.18 1.65 6.78v0c0 2.633-0.56 4.917-1.68 6.85-1.113 1.933-2.637 3.423-4.57 4.47-1.933 1.053-4.1 1.58-6.5 1.58zM778.8-3.95v0c1.333 0 2.583-0.31 3.75-0.93 1.167-0.613 2.123-1.553 2.87-2.82 0.753-1.267 1.13-2.883 1.13-4.85v0c0-1.933-0.36-3.523-1.08-4.77-0.713-1.253-1.653-2.19-2.82-2.81-1.167-0.613-2.417-0.92-3.75-0.92v0c-1.3 0-2.51 0.307-3.63 0.92-1.113 0.62-2.02 1.563-2.72 2.83-0.7 1.267-1.05 2.883-1.05 4.85v0c0 1.933 0.34 3.523 1.02 4.77 0.687 1.253 1.58 2.187 2.68 2.8 1.1 0.62 2.3 0.93 3.6 0.93zM858.34-25v25h-4.3l-0.35-2.95c-0.8 1.067-1.807 1.883-3.02 2.45-1.22 0.567-2.58 0.85-4.08 0.85v0c-1.933 0-3.617-0.41-5.05-1.23-1.433-0.813-2.54-2.013-3.32-3.6-0.787-1.58-1.18-3.553-1.18-5.92v0-14.6h4.75v14c0 2.3 0.477 4.05 1.43 5.25 0.947 1.2 2.387 1.8 4.32 1.8v0c1.9 0 3.393-0.617 4.48-1.85 1.08-1.233 1.62-3.067 1.62-5.5v0-13.7zM905.58 0v-25h4.3l0.3 3.35c0.7-0.867 1.51-1.593 2.43-2.18 0.913-0.58 1.913-0.987 3-1.22 1.08-0.233 2.203-0.217 3.37 0.05v0 4.45c-1.1-0.267-2.167-0.3-3.2-0.1-1.033 0.2-1.957 0.623-2.77 1.27-0.82 0.653-1.48 1.513-1.98 2.58-0.5 1.067-0.75 2.35-0.75 3.85v0 12.95zM1018.27-35h12c3.8 0 7.073 0.717 9.82 2.15 2.753 1.433 4.887 3.467 6.4 6.1 1.52 2.633 2.28 5.767 2.28 9.4v0c0 3.6-0.76 6.69-2.28 9.27-1.513 2.587-3.647 4.58-6.4 5.98-2.747 1.4-6.02 2.1-9.82 2.1v0h-12zM1023.27-4.2h7c4.4 0 7.74-1.16 10.02-3.48 2.287-2.313 3.43-5.537 3.43-9.67v0c0-4.2-1.143-7.493-3.43-9.88-2.28-2.38-5.62-3.57-10.02-3.57v0h-7zM1095.21 0v-25h4.75v25zM1097.61-29.4v0c-0.9 0-1.65-0.3-2.25-0.9-0.6-0.6-0.9-1.333-0.9-2.2v0c0-0.9 0.3-1.657 0.9-2.27 0.6-0.62 1.35-0.93 2.25-0.93v0c0.867 0 1.607 0.31 2.22 0.93 0.62 0.613 0.93 1.37 0.93 2.27v0c0 0.867-0.31 1.6-0.93 2.2-0.613 0.6-1.353 0.9-2.22 0.9zM1166.35-21.25l0.35-3.75h4.3v20.9c0 2.933-0.7 5.45-2.1 7.55-1.4 2.1-3.41 3.717-6.03 4.85-2.613 1.133-5.77 1.7-9.47 1.7v0l-0.75-4.15c4.467-0.1 7.85-0.99 10.15-2.67 2.3-1.687 3.45-4.113 3.45-7.28v0-0.25l0.55 0.05c-0.8 1.267-1.943 2.357-3.43 3.27-1.48 0.92-3.32 1.38-5.52 1.38v0c-2.233 0-4.21-0.533-5.93-1.6-1.713-1.067-3.047-2.567-4-4.5-0.947-1.933-1.42-4.183-1.42-6.75v0c0-2.567 0.473-4.817 1.42-6.75 0.953-1.933 2.287-3.433 4-4.5 1.72-1.067 3.697-1.6 5.93-1.6v0c1.367 0 2.59 0.183 3.67 0.55 1.087 0.367 2.03 0.857 2.83 1.47 0.8 0.62 1.467 1.313 2 2.08zM1151.55-12.5v0c0 2.567 0.673 4.633 2.02 6.2 1.353 1.567 3.163 2.35 5.43 2.35v0c1.333 0 2.55-0.343 3.65-1.03 1.1-0.68 1.973-1.663 2.62-2.95 0.653-1.28 0.98-2.803 0.98-4.57v0c0-1.8-0.327-3.333-0.98-4.6-0.647-1.267-1.53-2.243-2.65-2.93-1.113-0.68-2.32-1.02-3.62-1.02v0c-2.267 0-4.077 0.783-5.43 2.35-1.347 1.567-2.02 3.633-2.02 6.2zM1218.99 0v-25h4.75v25zM1221.39-29.4v0c-0.9 0-1.65-0.3-2.25-0.9-0.6-0.6-0.9-1.333-0.9-2.2v0c0-0.9 0.3-1.657 0.9-2.27 0.6-0.62 1.35-0.93 2.25-0.93v0c0.867 0 1.607 0.31 2.22 0.93 0.62 0.613 0.93 1.37 0.93 2.27v0c0 0.867-0.31 1.6-0.93 2.2-0.613 0.6-1.353 0.9-2.22 0.9zM1269.73-25h3.6v-7h4.75v7h6.25v4.2h-6.25v12.3c0 1.533 0.31 2.617 0.93 3.25 0.613 0.633 1.397 0.993 2.35 1.08 0.947 0.08 1.937 0.053 2.97-0.08v0 4.05c-1.367 0.3-2.707 0.393-4.02 0.28-1.32-0.12-2.503-0.497-3.55-1.13-1.053-0.633-1.887-1.56-2.5-2.78-0.62-1.213-0.93-2.77-0.93-4.67v0-12.3h-3.6zM1349.27 0h-4.35l-0.4-3.65c-0.767 1.267-1.757 2.24-2.97 2.92-1.22 0.687-2.797 1.03-4.73 1.03v0c-1.8 0-3.333-0.293-4.6-0.88-1.267-0.58-2.24-1.397-2.92-2.45-0.687-1.047-1.03-2.27-1.03-3.67v0c0-2.1 0.783-3.843 2.35-5.23 1.567-1.38 3.833-2.237 6.8-2.57v0l7.1-0.8v-1.95c0-1.067-0.433-1.977-1.3-2.73-0.867-0.747-2.117-1.12-3.75-1.12v0c-1.533 0-2.833 0.357-3.9 1.07-1.067 0.72-1.783 1.78-2.15 3.18v0l-4.2-1.5c0.633-2.2 1.877-3.917 3.73-5.15 1.847-1.233 4.087-1.85 6.72-1.85v0c3.133 0 5.517 0.783 7.15 2.35 1.633 1.567 2.45 3.633 2.45 6.2v0zM1344.52-10.9v-0.55l-6.85 0.85c-1.467 0.2-2.567 0.607-3.3 1.22-0.733 0.62-1.1 1.43-1.1 2.43v0c0 0.933 0.36 1.707 1.08 2.32 0.713 0.62 1.72 0.93 3.02 0.93v0c1.6 0 2.933-0.3 4-0.9 1.067-0.6 1.86-1.443 2.38-2.53 0.513-1.08 0.77-2.337 0.77-3.77zM1396.11 0v-36h4.7v36zM1523.4-27.55l-8 27.55h-5.55l-10-35h5.35l7.45 29.2 8-29.2h5.55l7.95 29.1 7.5-29.1h5.25l-9.95 35h-5.6zM1601.09 0.35v0c-2.367 0-4.493-0.527-6.38-1.58-1.88-1.047-3.353-2.53-4.42-4.45-1.067-1.913-1.6-4.17-1.6-6.77v0c0-2.633 0.55-4.917 1.65-6.85 1.1-1.933 2.6-3.427 4.5-4.48 1.9-1.047 4.033-1.57 6.4-1.57v0c2.367 0 4.507 0.523 6.42 1.57 1.92 1.053 3.43 2.537 4.53 4.45 1.1 1.92 1.65 4.18 1.65 6.78v0c0 2.633-0.56 4.917-1.68 6.85-1.113 1.933-2.637 3.423-4.57 4.47-1.933 1.053-4.1 1.58-6.5 1.58zM1601.04-3.95v0c1.333 0 2.583-0.31 3.75-0.93 1.167-0.613 2.123-1.553 2.87-2.82 0.753-1.267 1.13-2.883 1.13-4.85v0c0-1.933-0.36-3.523-1.08-4.77-0.713-1.253-1.653-2.19-2.82-2.81-1.167-0.613-2.417-0.92-3.75-0.92v0c-1.3 0-2.51 0.307-3.63 0.92-1.113 0.62-2.02 1.563-2.72 2.83-0.7 1.267-1.05 2.883-1.05 4.85v0c0 1.933 0.34 3.523 1.02 4.77 0.687 1.253 1.58 2.187 2.68 2.8 1.1 0.62 2.3 0.93 3.6 0.93zM1659.68 0v-25h4.3l0.3 3.35c0.7-0.867 1.51-1.593 2.43-2.18 0.913-0.58 1.913-0.987 3-1.22 1.08-0.233 2.203-0.217 3.37 0.05v0 4.45c-1.1-0.267-2.167-0.3-3.2-0.1-1.033 0.2-1.957 0.623-2.77 1.27-0.82 0.653-1.48 1.513-1.98 2.58-0.5 1.067-0.75 2.35-0.75 3.85v0 12.95zM1717.92 0v-36h4.7v36zM1788.71-20.75v0l-0.55 0.15v-15.4h4.75v36h-4.3l-0.35-3.75c-0.833 1.133-1.957 2.1-3.37 2.9-1.42 0.8-3.147 1.2-5.18 1.2v0c-2.267 0-4.24-0.533-5.92-1.6-1.687-1.067-3.003-2.567-3.95-4.5-0.953-1.933-1.43-4.183-1.43-6.75v0c0-2.567 0.477-4.817 1.43-6.75 0.947-1.933 2.263-3.433 3.95-4.5 1.68-1.067 3.653-1.6 5.92-1.6v0c2.167 0 4.01 0.44 5.53 1.32 1.513 0.887 2.67 1.98 3.47 3.28zM1773.46-12.5v0c0 2.567 0.667 4.633 2 6.2 1.333 1.567 3.117 2.35 5.35 2.35v0c1.367 0 2.6-0.333 3.7-1 1.1-0.667 1.983-1.643 2.65-2.93 0.667-1.28 1-2.82 1-4.62v0c0-1.8-0.333-3.333-1-4.6-0.667-1.267-1.55-2.243-2.65-2.93-1.1-0.68-2.333-1.02-3.7-1.02v0c-2.2 0-3.973 0.783-5.32 2.35-1.353 1.567-2.03 3.633-2.03 6.2z" fill="#00cc66" fill-rule="nonzero" stroke="none" stroke-width="1" stroke-linecap="butt" stroke-linejoin="miter" stroke-miterlimit="10" stroke-dasharray="" stroke-dashoffset="0" font-family="none" font-weight="none" font-size="none" text-anchor="none" style="mix-blend-mode: normal" data-fill-palette-color="secondary" id="text-1"></path></g></g><g transform="matrix(1,0,0,1,29.33176499999999,21.47270977061864)"><svg viewBox="0 0 316.416 23.176900458762738" height="23.176900458762738" width="316.416"><g><svg viewBox="0 0 316.416 23.176900458762738" height="23.176900458762738" width="316.416"><g><svg viewBox="0 0 346.27968132185276 25.36436117291371" height="23.176900458762738" width="316.416"><g transform="matrix(1,0,0,1,29.863681321852773,6.837157410197555)"><svg viewBox="0 0 316.416 11.6900463525186" height="11.6900463525186" width="316.416"><g id="textblocktransform"><svg viewBox="0 0 316.416 11.6900463525186" height="11.6900463525186" width="316.416" id="textblock"><g><svg viewBox="0 0 316.416 11.6900463525186" height="11.6900463525186" width="316.416"><g transform="matrix(1,0,0,1,0,0)"><svg width="316.416" viewBox="-2.65 -39.6 1170.2 44.2" height="11.6900463525186" data-palette-color="#ffffff"><path d="M11.5 0.6L11.5 0.6Q6.75 0.6 4.05-2.05 1.35-4.7 1.35-9.4L1.35-9.4 5.6-9.4Q5.6-6.75 6.9-4.95 8.2-3.15 11.45-3.15L11.45-3.15Q14.6-3.15 15.83-4.9 17.05-6.65 17.05-9.25L17.05-9.25 17.05-35 21.25-35 21.25-9.25Q21.25-4.6 18.68-2 16.1 0.6 11.5 0.6ZM44.55 0.6L44.55 0.6Q39.4 0.6 35.52-1.68 31.65-3.95 29.47-8.05 27.3-12.15 27.3-17.5L27.3-17.5Q27.3-22.85 29.47-26.93 31.65-31 35.52-33.3 39.4-35.6 44.55-35.6L44.55-35.6Q49.75-35.6 53.62-33.3 57.5-31 59.65-26.93 61.8-22.85 61.8-17.5L61.8-17.5Q61.8-12.15 59.65-8.05 57.5-3.95 53.62-1.68 49.75 0.6 44.55 0.6ZM44.55-3.1L44.55-3.1Q48.4-3.1 51.32-4.83 54.25-6.55 55.87-9.78 57.5-13 57.5-17.5L57.5-17.5Q57.5-22 55.87-25.2 54.25-28.4 51.32-30.13 48.4-31.85 44.55-31.85L44.55-31.85Q40.7-31.85 37.77-30.13 34.85-28.4 33.22-25.2 31.6-22 31.6-17.5L31.6-17.5Q31.6-13 33.22-9.78 34.85-6.55 37.77-4.83 40.7-3.1 44.55-3.1ZM89.5 0L67.85 0 67.85-35 89.5-35 89.5-31.55 72.05-31.55 72.05-19.35 88-19.35 88-15.95 72.05-15.95 72.05-3.45 89.5-3.45 89.5 0ZM113.49 0L109.29 0 109.29-35 114.19-35 126.79-10.6 139.29-35 144.24-35 144.24 0 140.04 0 140.04-27.5 128.34-5 125.19-5 113.49-27.45 113.49 0ZM173.29 0L151.64 0 151.64-35 173.29-35 173.29-31.55 155.84-31.55 155.84-19.35 171.79-19.35 171.79-15.95 155.84-15.95 155.84-3.45 173.29-3.45 173.29 0ZM184.04 0L179.84 0 179.84-35 184.04-35 202.69-6.95 202.69-35 206.89-35 206.89 0 202.69 0 184.04-28.05 184.04 0ZM225.03 0L214.28 0 214.28-35 225.03-35Q234.28-35 238.66-30.3 243.03-25.6 243.03-17.4L243.03-17.4Q243.03-9.35 238.66-4.67 234.28 0 225.03 0L225.03 0ZM218.48-31.5L218.48-3.5 224.93-3.5Q230.03-3.5 233.06-5.18 236.08-6.85 237.38-9.98 238.68-13.1 238.68-17.4L238.68-17.4Q238.68-21.8 237.38-24.95 236.08-28.1 233.06-29.8 230.03-31.5 224.93-31.5L224.93-31.5 218.48-31.5ZM270.73 0L249.08 0 249.08-35 270.73-35 270.73-31.55 253.28-31.55 253.28-19.35 269.23-19.35 269.23-15.95 253.28-15.95 253.28-3.45 270.73-3.45 270.73 0ZM298.13 0L275.78 0 275.78-3.3 293.03-31.35 276.03-31.35 276.03-35 297.93-35 297.93-31.7 280.63-3.65 298.13-3.65 298.13 0ZM323.08-12.75L303.28-12.75 303.28-16.3 323.08-16.3 323.08-12.75ZM333.87 0L329.67 0 329.67-35 333.87-35 333.87-19.55 352.02-19.55 352.02-35 356.22-35 356.22 0 352.02 0 352.02-16.1 333.87-16.1 333.87 0ZM376.27 0.6L376.27 0.6Q372.67 0.6 369.75-0.83 366.82-2.25 365.07-5.25 363.32-8.25 363.32-12.9L363.32-12.9 363.32-35 367.52-35 367.52-12.85Q367.52-7.75 369.97-5.45 372.42-3.15 376.37-3.15L376.37-3.15Q380.32-3.15 382.72-5.45 385.12-7.75 385.12-12.85L385.12-12.85 385.12-35 389.32-35 389.32-12.9Q389.32-8.25 387.57-5.25 385.82-2.25 382.87-0.83 379.92 0.6 376.27 0.6ZM411.47 0.6L411.47 0.6Q406.57 0.6 402.87-1.68 399.17-3.95 397.12-8.03 395.07-12.1 395.07-17.45L395.07-17.45Q395.07-22.8 397.14-26.9 399.22-31 403.04-33.3 406.87-35.6 412.07-35.6L412.07-35.6Q417.97-35.6 421.89-32.75 425.82-29.9 426.97-24.9L426.97-24.9 422.12-24.9Q421.42-28.05 418.79-29.9 416.17-31.75 412.07-31.75L412.07-31.75Q408.22-31.75 405.37-30.03 402.52-28.3 400.94-25.1 399.37-21.9 399.37-17.45L399.37-17.45Q399.37-13 400.92-9.8 402.47-6.6 405.22-4.88 407.97-3.15 411.62-3.15L411.62-3.15Q417.22-3.15 420.07-6.43 422.92-9.7 423.32-15.4L423.32-15.4 413.22-15.4 413.22-18.7 427.62-18.7 427.62 0 423.77 0 423.42-5.75Q421.52-2.7 418.77-1.05 416.02 0.6 411.47 0.6ZM438.47 0L434.27 0 434.27-35 438.47-35 438.47-19.55 456.62-19.55 456.62-35 460.82-35 460.82 0 456.62 0 456.62-16.1 438.47-16.1 438.47 0ZM489.86 0L468.21 0 468.21-35 489.86-35 489.86-31.55 472.41-31.55 472.41-19.35 488.36-19.35 488.36-15.95 472.41-15.95 472.41-3.45 489.86-3.45 489.86 0ZM507.56 0.6L507.56 0.6Q503.71 0.6 500.86-0.8 498.01-2.2 496.46-4.7 494.91-7.2 494.91-10.5L494.91-10.5 499.31-10.5Q499.31-8.45 500.26-6.73 501.21-5 503.04-3.98 504.86-2.95 507.56-2.95L507.56-2.95Q511.11-2.95 513.06-4.65 515.01-6.35 515.01-8.9L515.01-8.9Q515.01-11 514.11-12.28 513.21-13.55 511.69-14.35 510.16-15.15 508.19-15.75 506.21-16.35 504.06-17.1L504.06-17.1Q500.01-18.5 498.06-20.58 496.11-22.65 496.11-26L496.11-26Q496.06-28.8 497.41-30.98 498.76-33.15 501.24-34.38 503.71-35.6 507.11-35.6L507.11-35.6Q510.46-35.6 512.94-34.35 515.41-33.1 516.79-30.9 518.16-28.7 518.21-25.9L518.21-25.9 513.81-25.9Q513.81-27.35 513.06-28.78 512.31-30.2 510.79-31.1 509.26-32 506.96-32L506.96-32Q504.11-32.05 502.29-30.55 500.46-29.05 500.46-26.4L500.46-26.4Q500.46-24.15 501.74-22.95 503.01-21.75 505.31-20.98 507.61-20.2 510.61-19.2L510.61-19.2Q513.11-18.3 515.11-17.1 517.11-15.9 518.24-14 519.36-12.1 519.36-9.15L519.36-9.15Q519.36-6.65 518.06-4.42 516.76-2.2 514.13-0.8 511.51 0.6 507.56 0.6ZM526.51 0.25L526.51 0.25Q525.26 0.25 524.43-0.58 523.61-1.4 523.61-2.6L523.61-2.6Q523.61-3.8 524.43-4.63 525.26-5.45 526.51-5.45L526.51-5.45Q527.71-5.45 528.53-4.63 529.36-3.8 529.36-2.6L529.36-2.6Q529.36-1.4 528.53-0.58 527.71 0.25 526.51 0.25ZM526.51-19.7L526.51-19.7Q525.26-19.7 524.43-20.53 523.61-21.35 523.61-22.55L523.61-22.55Q523.61-23.75 524.43-24.58 525.26-25.4 526.51-25.4L526.51-25.4Q527.71-25.4 528.53-24.58 529.36-23.75 529.36-22.55L529.36-22.55Q529.36-21.35 528.53-20.53 527.71-19.7 526.51-19.7ZM563.85 0.6L563.85 0.6Q558.7 0.6 554.98-1.68 551.25-3.95 549.2-8.03 547.15-12.1 547.15-17.5L547.15-17.5Q547.15-22.85 549.2-26.93 551.25-31 554.98-33.3 558.7-35.6 563.85-35.6L563.85-35.6Q569.85-35.6 573.63-32.73 577.4-29.85 578.45-24.7L578.45-24.7 573.8-24.7Q573-27.95 570.53-29.93 568.05-31.9 563.85-31.9L563.85-31.9Q560.1-31.9 557.3-30.18 554.5-28.45 552.98-25.23 551.45-22 551.45-17.5L551.45-17.5Q551.45-13 552.98-9.78 554.5-6.55 557.3-4.83 560.1-3.1 563.85-3.1L563.85-3.1Q568.05-3.1 570.53-5.03 573-6.95 573.8-10.15L573.8-10.15 578.45-10.15Q577.4-5.1 573.63-2.25 569.85 0.6 563.85 0.6ZM595.85 0L591.65 0 591.65-13.3 580.25-35 585-35 593.75-17.3 602.5-35 607.2-35 595.85-13.3 595.85 0ZM624.6 0L611.9 0 611.9-35 624.2-35Q627.9-35 630.32-33.83 632.75-32.65 633.95-30.63 635.15-28.6 635.15-26.1L635.15-26.1Q635.15-22.7 633.32-20.75 631.5-18.8 628.95-18.05L628.95-18.05Q630.9-17.7 632.5-16.5 634.1-15.3 635.02-13.5 635.95-11.7 635.95-9.55L635.95-9.55Q635.95-6.9 634.65-4.73 633.35-2.55 630.8-1.28 628.25 0 624.6 0L624.6 0ZM616.1-31.5L616.1-19.7 623.9-19.7Q627.25-19.7 629.05-21.28 630.85-22.85 630.85-25.65L630.85-25.65Q630.85-28.3 629.07-29.9 627.3-31.5 623.75-31.5L623.75-31.5 616.1-31.5ZM616.1-16.35L616.1-3.5 624.15-3.5Q627.75-3.5 629.7-5.18 631.65-6.85 631.65-9.85L631.65-9.85Q631.65-12.8 629.6-14.58 627.55-16.35 624.05-16.35L624.05-16.35 616.1-16.35ZM663.64 0L641.99 0 641.99-35 663.64-35 663.64-31.55 646.19-31.55 646.19-19.35 662.14-19.35 662.14-15.95 646.19-15.95 646.19-3.45 663.64-3.45 663.64 0ZM674.39 0L670.19 0 670.19-35 681.49-35Q685.59-35 688.19-33.65 690.79-32.3 692.04-29.95 693.29-27.6 693.29-24.75L693.29-24.75Q693.29-21.45 691.52-18.8 689.74-16.15 685.99-15.05L685.99-15.05 693.64 0 688.69 0 681.59-14.45 681.29-14.45 674.39-14.45 674.39 0ZM674.39-31.45L674.39-17.75 681.19-17.75Q685.24-17.75 687.09-19.7 688.94-21.65 688.94-24.7L688.94-24.7Q688.94-27.8 687.12-29.63 685.29-31.45 681.14-31.45L681.14-31.45 674.39-31.45ZM710.99 0.6L710.99 0.6Q707.14 0.6 704.29-0.8 701.44-2.2 699.89-4.7 698.34-7.2 698.34-10.5L698.34-10.5 702.74-10.5Q702.74-8.45 703.69-6.73 704.64-5 706.46-3.98 708.29-2.95 710.99-2.95L710.99-2.95Q714.54-2.95 716.49-4.65 718.44-6.35 718.44-8.9L718.44-8.9Q718.44-11 717.54-12.28 716.64-13.55 715.11-14.35 713.59-15.15 711.61-15.75 709.64-16.35 707.49-17.1L707.49-17.1Q703.44-18.5 701.49-20.58 699.54-22.65 699.54-26L699.54-26Q699.49-28.8 700.84-30.98 702.19-33.15 704.66-34.38 707.14-35.6 710.54-35.6L710.54-35.6Q713.89-35.6 716.36-34.35 718.84-33.1 720.21-30.9 721.59-28.7 721.64-25.9L721.64-25.9 717.24-25.9Q717.24-27.35 716.49-28.78 715.74-30.2 714.21-31.1 712.69-32 710.39-32L710.39-32Q707.54-32.05 705.71-30.55 703.89-29.05 703.89-26.4L703.89-26.4Q703.89-24.15 705.16-22.95 706.44-21.75 708.74-20.98 711.04-20.2 714.04-19.2L714.04-19.2Q716.54-18.3 718.54-17.1 720.54-15.9 721.66-14 722.79-12.1 722.79-9.15L722.79-9.15Q722.79-6.65 721.49-4.42 720.19-2.2 717.56-0.8 714.94 0.6 710.99 0.6ZM750.39 0L728.74 0 728.74-35 750.39-35 750.39-31.55 732.94-31.55 732.94-19.35 748.89-19.35 748.89-15.95 732.94-15.95 732.94-3.45 750.39-3.45 750.39 0ZM772.28 0.6L772.28 0.6Q767.13 0.6 763.41-1.68 759.68-3.95 757.63-8.03 755.58-12.1 755.58-17.5L755.58-17.5Q755.58-22.85 757.63-26.93 759.68-31 763.41-33.3 767.13-35.6 772.28-35.6L772.28-35.6Q778.28-35.6 782.06-32.73 785.83-29.85 786.88-24.7L786.88-24.7 782.23-24.7Q781.43-27.95 778.96-29.93 776.48-31.9 772.28-31.9L772.28-31.9Q768.53-31.9 765.73-30.18 762.93-28.45 761.41-25.23 759.88-22 759.88-17.5L759.88-17.5Q759.88-13 761.41-9.78 762.93-6.55 765.73-4.83 768.53-3.1 772.28-3.1L772.28-3.1Q776.48-3.1 778.96-5.03 781.43-6.95 782.23-10.15L782.23-10.15 786.88-10.15Q785.83-5.1 782.06-2.25 778.28 0.6 772.28 0.6ZM805.58 0.6L805.58 0.6Q801.98 0.6 799.06-0.83 796.13-2.25 794.38-5.25 792.63-8.25 792.63-12.9L792.63-12.9 792.63-35 796.83-35 796.83-12.85Q796.83-7.75 799.28-5.45 801.73-3.15 805.68-3.15L805.68-3.15Q809.63-3.15 812.03-5.45 814.43-7.75 814.43-12.85L814.43-12.85 814.43-35 818.63-35 818.63-12.9Q818.63-8.25 816.88-5.25 815.13-2.25 812.18-0.83 809.23 0.6 805.58 0.6ZM829.93 0L825.73 0 825.73-35 837.03-35Q841.13-35 843.73-33.65 846.33-32.3 847.58-29.95 848.83-27.6 848.83-24.75L848.83-24.75Q848.83-21.45 847.05-18.8 845.28-16.15 841.53-15.05L841.53-15.05 849.18 0 844.23 0 837.13-14.45 836.83-14.45 829.93-14.45 829.93 0ZM829.93-31.45L829.93-17.75 836.73-17.75Q840.78-17.75 842.63-19.7 844.48-21.65 844.48-24.7L844.48-24.7Q844.48-27.8 842.65-29.63 840.83-31.45 836.68-31.45L836.68-31.45 829.93-31.45ZM859.58 0L855.38 0 855.38-35 859.58-35 859.58 0ZM879.37 0L875.17 0 875.17-31.55 864.72-31.55 864.72-35 889.82-35 889.82-31.55 879.37-31.55 879.37 0ZM907.87 0L903.67 0 903.67-13.3 892.27-35 897.02-35 905.77-17.3 914.52-35 919.22-35 907.87-13.3 907.87 0ZM958.82 0L937.17 0 937.17-35 958.82-35 958.82-31.55 941.37-31.55 941.37-19.35 957.32-19.35 957.32-15.95 941.37-15.95 941.37-3.45 958.82-3.45 958.82 0ZM969.56 0L965.36 0 965.36-35 969.56-35 988.21-6.95 988.21-35 992.41-35 992.41 0 988.21 0 969.56-28.05 969.56 0ZM1014.86 0.6L1014.86 0.6Q1009.96 0.6 1006.26-1.68 1002.56-3.95 1000.51-8.03 998.46-12.1 998.46-17.45L998.46-17.45Q998.46-22.8 1000.54-26.9 1002.61-31 1006.44-33.3 1010.26-35.6 1015.46-35.6L1015.46-35.6Q1021.36-35.6 1025.29-32.75 1029.21-29.9 1030.36-24.9L1030.36-24.9 1025.51-24.9Q1024.81-28.05 1022.19-29.9 1019.56-31.75 1015.46-31.75L1015.46-31.75Q1011.61-31.75 1008.76-30.03 1005.91-28.3 1004.34-25.1 1002.76-21.9 1002.76-17.45L1002.76-17.45Q1002.76-13 1004.31-9.8 1005.86-6.6 1008.61-4.88 1011.36-3.15 1015.01-3.15L1015.01-3.15Q1020.61-3.15 1023.46-6.43 1026.31-9.7 1026.71-15.4L1026.71-15.4 1016.61-15.4 1016.61-18.7 1031.01-18.7 1031.01 0 1027.16 0 1026.81-5.75Q1024.91-2.7 1022.16-1.05 1019.41 0.6 1014.86 0.6ZM1041.86 0L1037.66 0 1037.66-35 1041.86-35 1041.86 0ZM1053.46 0L1049.26 0 1049.26-35 1053.46-35 1072.11-6.95 1072.11-35 1076.31-35 1076.31 0 1072.11 0 1053.46-28.05 1053.46 0ZM1105.35 0L1083.7 0 1083.7-35 1105.35-35 1105.35-31.55 1087.9-31.55 1087.9-19.35 1103.85-19.35 1103.85-15.95 1087.9-15.95 1087.9-3.45 1105.35-3.45 1105.35 0ZM1133.55 0L1111.9 0 1111.9-35 1133.55-35 1133.55-31.55 1116.1-31.55 1116.1-19.35 1132.05-19.35 1132.05-15.95 1116.1-15.95 1116.1-3.45 1133.55-3.45 1133.55 0ZM1144.3 0L1140.1 0 1140.1-35 1151.4-35Q1155.5-35 1158.1-33.65 1160.7-32.3 1161.95-29.95 1163.2-27.6 1163.2-24.75L1163.2-24.75Q1163.2-21.45 1161.42-18.8 1159.65-16.15 1155.9-15.05L1155.9-15.05 1163.55 0 1158.6 0 1151.5-14.45 1151.2-14.45 1144.3-14.45 1144.3 0ZM1144.3-31.45L1144.3-17.75 1151.1-17.75Q1155.15-17.75 1157-19.7 1158.85-21.65 1158.85-24.7L1158.85-24.7Q1158.85-27.8 1157.02-29.63 1155.2-31.45 1151.05-31.45L1151.05-31.45 1144.3-31.45Z" opacity="1" transform="matrix(1,0,0,1,0,0)" fill="#ffffff" class="wordmark-text-0" data-fill-palette-color="primary" id="text-0"></path></svg></g></svg></g></svg></g></svg></g><g><svg viewBox="0 0 27.551121931705506 25.36436117291371" height="25.36436117291371" width="27.551121931705506"><g><svg xmlns="http://www.w3.org/2000/svg" xmlns:xlink="http://www.w3.org/1999/xlink" version="1.1" x="0" y="0" viewBox="9.398 12.34 80.1930005690853 73.828" enable-background="new 0 0 100 100" xml:space="preserve" height="25.36436117291371" width="27.551121931705506" class="icon-icon-0" data-fill-palette-color="accent" id="icon-0"><g fill="#00cc66" data-fill-palette-color="accent"><path d="M55.894 49.046V51.038C55.894 53.547 57.036 54.713 59.222 54.713H61.979C64.585 54.713 66.358 56.832 66.358 59.088V61.406C66.358 63.915 65.221 65.427 62.563 65.427H59.367C56.571 65.427 55.114 64.149 55.114 61.538V59.38C55.114 57.321 53.635 55.97 51.833 55.97H47.074C44.694 55.97 44.115 57.578 44.115 59.38V63.629C44.115 65.881 45.466 66.653 47.203 66.653H50.134C53.444 66.653 55.034 68.105 55.034 70.423V72.024C55.034 74.658 56.532 75.656 58.915 75.656H63.83C66.263 75.656 67.452 74.372 67.452 72.177V70.381C67.452 67.358 69.128 66.393 72.345 66.393H75.729C77.595 66.393 78.454 65.235 78.454 63.691V57.451C78.454 55.393 77.296 54.428 75.045 54.428H70.991C68.572 54.428 66.403 52.599 66.403 49.218V47.226C66.403 44.717 65.261 43.551 63.074 43.551H60.317C57.711 43.551 55.938 41.433 55.938 39.177V36.859C55.938 34.35 57.076 32.838 59.734 32.838H62.929C65.725 32.838 67.183 34.116 67.183 36.727V38.885C67.183 40.944 68.662 42.294 70.464 42.294H75.222C77.602 42.294 78.181 40.686 78.181 38.885V34.636C78.181 32.385 76.83 31.613 75.093 31.613H72.162C68.852 31.613 67.262 30.161 67.262 27.843V26.327C67.262 23.694 65.837 22.61 63.454 22.61H58.466C56.033 22.61 54.844 23.894 54.844 26.09V27.885C54.844 30.908 53.168 31.873 49.951 31.873H46.566C44.701 31.873 43.842 33.031 43.842 34.575V40.815C43.842 42.874 44.999 43.839 47.252 43.839H51.304C53.725 43.836 55.894 45.665 55.894 49.046" fill="#00cc66" data-fill-palette-color="accent"></path><path d="M86.07 54.482A3.52 3.52 0 0 0 89.591 50.961V48.273A3.52 3.52 0 0 0 86.07 44.751H83.382A3.52 3.52 0 0 0 79.861 48.273V50.961A3.52 3.52 0 0 0 83.382 54.482z" fill="#00cc66" data-fill-palette-color="accent"></path><path d="M36.547 31.871H39.555C41.806 31.871 42.964 30.906 42.964 28.848V26.874C43.077 23.68 45.188 22.216 47.542 22.216H50.55C52.803 22.216 53.96 21.251 53.96 19.193V15.042C53.96 13.498 53.102 12.34 51.236 12.34H45.541C43.695 12.34 42.91 13.195 42.91 15.122V17.556C42.91 19.751 41.229 21.809 38.739 21.92H34.545C32.7 21.92 31.914 22.775 31.914 24.702V27.21C31.914 29.466 30.143 31.585 27.535 31.585H24.778C22.59 31.585 21.449 32.75 21.449 35.259V38.33C21.449 41.711 19.281 43.54 16.861 43.54H12.807C10.556 43.54 9.398 44.505 9.398 46.563V53.329C9.398 55.388 10.556 56.352 12.807 56.352H16.861C19.281 56.352 21.449 57.401 21.449 60.783V63.195C21.449 65.704 22.591 66.869 24.778 66.869H27.535C30.142 66.869 31.914 68.988 31.914 71.244V73.783C31.914 75.71 32.7 76.565 34.545 76.565H38.758L38.737 76.589C41.228 76.699 42.908 78.758 42.908 80.953V83.386C42.908 85.313 43.693 86.168 45.539 86.168H51.233C53.099 86.168 53.958 85.01 53.958 83.466V79.315C53.958 77.256 52.8 76.291 50.549 76.291H47.54C45.192 76.291 43.087 74.834 42.964 71.658V69.605C42.964 67.546 41.806 66.582 39.555 66.582H36.547C34.126 66.582 31.957 64.754 31.957 61.373V59.74C31.957 57.231 33.1 56.066 35.287 56.066H38.043C40.65 56.066 42.423 53.947 42.423 51.691V48.2C42.423 45.944 40.651 43.825 38.043 43.825H35.287C33.099 43.825 31.957 42.659 31.957 40.151V36.791C31.957 33.411 34.126 31.871 36.547 31.871" fill="#00cc66" data-fill-palette-color="accent"></path></g></svg></g></svg></g></svg></g></svg></g></svg></g></svg></g><defs></defs></svg><rect width="375.07953" height="66.12232000000002" fill="none" stroke="none" visibility="hidden"></rect></g></svg></g></svg>