<svg xmlns="http://www.w3.org/2000/svg" version="1.1" xmlns:xlink="http://www.w3.org/1999/xlink" xmlns:svgjs="http://svgjs.dev/svgjs" width="2000" height="263" viewBox="0 0 2000 263"><g transform="matrix(1,0,0,1,-1.4722955145118704,-0.7057604999999967)"><svg viewBox="0 0 379 50" data-background-color="#121212" preserveAspectRatio="xMidYMid meet" height="263" width="2000" xmlns="http://www.w3.org/2000/svg" xmlns:xlink="http://www.w3.org/1999/xlink"><g id="tight-bounds" transform="matrix(1,0,0,1,0.27942999999999074,0.13448499999998376)"><svg viewBox="0 0 378.44114 49.73134000000002" height="49.73134000000002" width="378.44114"><g><svg></svg></g><g><svg viewBox="0 0 378.44114 49.73134000000002" height="49.73134000000002" width="378.44114"><g transform="matrix(1,0,0,1,-8.53943,-100.36430999999999)"><path d="M8.539 146.836v-46.472h378.442v46.472l-28.624 0 0-0.796h27.827v-44.88h-376.848v44.88l48.915 0 0 0.796z" fill="#ffffff" fill-rule="nonzero" stroke="none" stroke-width="1" stroke-linecap="butt" stroke-linejoin="miter" stroke-miterlimit="10" stroke-dasharray="" stroke-dashoffset="0" font-family="none" font-weight="none" font-size="none" text-anchor="none" style="mix-blend-mode: normal" data-fill-palette-color="tertiary"></path><g><path transform="translate(59.94816,148.46985) scale(0.16258,0.16258)" d="M8.25-27.1v27.1h-4v-35h4.4l13 29.5 12.95-29.5h4.35v35h-4v-27.1l-11.9 27.1h-2.85zM83.09 0h-3.45l-0.3-4.5c-0.7 1.533-1.733 2.723-3.1 3.57-1.367 0.853-3.1 1.28-5.2 1.28v0c-1.8 0-3.333-0.283-4.6-0.85-1.267-0.567-2.243-1.377-2.93-2.43-0.68-1.047-1.02-2.287-1.02-3.72v0c0-2.1 0.783-3.827 2.35-5.18 1.567-1.347 3.833-2.17 6.8-2.47v0l7.7-0.85v-2c0-1.4-0.517-2.527-1.55-3.38-1.033-0.847-2.433-1.27-4.2-1.27v0c-1.733 0-3.177 0.4-4.33 1.2-1.147 0.8-1.937 1.95-2.37 3.45v0l-3.4-1.2c0.667-2.2 1.89-3.917 3.67-5.15 1.787-1.233 3.963-1.85 6.53-1.85v0c2.967 0 5.273 0.757 6.92 2.27 1.653 1.52 2.48 3.58 2.48 6.18v0zM79.34-11.15v-0.8l-7.75 0.9c-1.667 0.2-2.933 0.657-3.8 1.37-0.867 0.72-1.3 1.663-1.3 2.83v0c0 1.167 0.423 2.1 1.27 2.8 0.853 0.7 2.08 1.05 3.68 1.05v0c1.833 0 3.333-0.367 4.5-1.1 1.167-0.733 2.023-1.727 2.57-2.98 0.553-1.247 0.83-2.603 0.83-4.07zM107.32 0v-36h3.8v21.85h2.3l9.85-10.85h5.3l-11.8 12.5 11.85 12.5h-5.35l-9.85-10.9h-2.3v10.9zM150.91 0v-25h3.7v25zM152.81-30v0c-0.767 0-1.4-0.25-1.9-0.75-0.5-0.5-0.75-1.117-0.75-1.85v0c0-0.767 0.25-1.4 0.75-1.9 0.5-0.5 1.133-0.75 1.9-0.75v0c0.7 0 1.31 0.25 1.83 0.75 0.513 0.5 0.77 1.133 0.77 1.9v0c0 0.733-0.257 1.35-0.77 1.85-0.52 0.5-1.13 0.75-1.83 0.75zM180 0v-25h3.45l0.2 3.55c0.8-1.233 1.85-2.193 3.15-2.88 1.3-0.68 2.817-1.02 4.55-1.02v0c1.9 0 3.567 0.407 5 1.22 1.433 0.82 2.55 2.037 3.35 3.65 0.8 1.62 1.2 3.647 1.2 6.08v0 14.4h-3.75v-13.95c0-2.6-0.56-4.577-1.68-5.93-1.113-1.347-2.72-2.02-4.82-2.02v0c-2.167 0-3.86 0.717-5.08 2.15-1.213 1.433-1.82 3.55-1.82 6.35v0 13.4zM244.04-20.35l0.25-4.65h3.45v20.4c0 3.067-0.683 5.693-2.05 7.88-1.367 2.18-3.35 3.847-5.95 5-2.6 1.147-5.767 1.72-9.5 1.72v0l-0.6-3.45c4.7-0.067 8.267-1.04 10.7-2.92 2.433-1.887 3.65-4.63 3.65-8.23v0-0.55l0.4 0.1c-0.767 1.467-1.917 2.723-3.45 3.77-1.533 1.053-3.517 1.597-5.95 1.63v0c-2.3 0-4.31-0.527-6.03-1.58-1.713-1.047-3.047-2.537-4-4.47-0.947-1.933-1.42-4.2-1.42-6.8v0c0-2.6 0.473-4.86 1.42-6.78 0.953-1.913 2.287-3.403 4-4.47 1.72-1.067 3.73-1.6 6.03-1.6v0c1.5 0 2.833 0.223 4 0.67 1.167 0.453 2.167 1.053 3 1.8 0.833 0.753 1.517 1.597 2.05 2.53zM227.59-12.5v0c0 2.867 0.74 5.14 2.22 6.82 1.487 1.687 3.497 2.53 6.03 2.53v0c1.533 0 2.917-0.367 4.15-1.1 1.233-0.733 2.207-1.8 2.92-3.2 0.72-1.4 1.08-3.083 1.08-5.05v0c0-1.967-0.36-3.643-1.08-5.03-0.713-1.38-1.687-2.447-2.92-3.2-1.233-0.747-2.617-1.12-4.15-1.12v0c-2.5 0-4.5 0.85-6 2.55-1.5 1.7-2.25 3.967-2.25 6.8zM301.11-25h3.75v-7h3.75v7h6.65v3.5h-6.65v13.45c0 1.533 0.323 2.65 0.97 3.35 0.653 0.7 1.487 1.117 2.5 1.25 1.02 0.133 2.08 0.133 3.18 0v0 3.25c-1.3 0.3-2.577 0.383-3.83 0.25-1.247-0.133-2.363-0.507-3.35-1.12-0.98-0.62-1.763-1.497-2.35-2.63-0.58-1.133-0.87-2.583-0.87-4.35v0-13.45h-3.75zM337.8 0v-36h3.75v14.4c0.8-1.2 1.883-2.127 3.25-2.78 1.367-0.647 2.9-0.97 4.6-0.97v0c1.833 0 3.467 0.417 4.9 1.25 1.433 0.833 2.557 2.067 3.37 3.7 0.82 1.633 1.23 3.667 1.23 6.1v0 14.3h-4v-13.85c0-2.6-0.55-4.593-1.65-5.98-1.1-1.38-2.7-2.07-4.8-2.07v0c-2.167 0-3.86 0.733-5.08 2.2-1.213 1.467-1.82 3.6-1.82 6.4v0 13.3zM393.58 0.35v0c-2.333 0-4.407-0.567-6.22-1.7-1.82-1.133-3.247-2.683-4.28-4.65-1.033-1.967-1.55-4.217-1.55-6.75v0c0-2.433 0.517-4.6 1.55-6.5 1.033-1.9 2.45-3.393 4.25-4.48 1.8-1.08 3.85-1.62 6.15-1.62v0c2.267 0 4.293 0.5 6.08 1.5 1.78 1 3.17 2.383 4.17 4.15 1 1.767 1.467 3.783 1.4 6.05v0c0 0.367-0.017 0.75-0.05 1.15-0.033 0.4-0.067 0.833-0.1 1.3v0h-19.35c0.067 1.567 0.45 2.95 1.15 4.15 0.7 1.2 1.627 2.14 2.78 2.82 1.147 0.687 2.453 1.03 3.92 1.03v0c1.933 0 3.577-0.367 4.93-1.1 1.347-0.733 2.32-1.783 2.92-3.15v0l3.25 1.3c-1 2.1-2.45 3.707-4.35 4.82-1.9 1.12-4.117 1.68-6.65 1.68zM385.68-14.45h15.35c0.033-1.433-0.273-2.7-0.92-3.8-0.653-1.1-1.563-1.967-2.73-2.6-1.167-0.633-2.517-0.95-4.05-0.95v0c-1.333 0-2.55 0.317-3.65 0.95-1.1 0.633-2.007 1.507-2.72 2.62-0.72 1.12-1.147 2.38-1.28 3.78zM459.56 0v-35h4v35zM488.59 0v-25h3.45l0.2 3.55c0.8-1.233 1.85-2.193 3.15-2.88 1.3-0.68 2.817-1.02 4.55-1.02v0c1.9 0 3.567 0.407 5 1.22 1.433 0.82 2.55 2.037 3.35 3.65 0.8 1.62 1.2 3.647 1.2 6.08v0 14.4h-3.75v-13.95c0-2.6-0.557-4.577-1.67-5.93-1.12-1.347-2.73-2.02-4.83-2.02v0c-2.167 0-3.857 0.717-5.07 2.15-1.22 1.433-1.83 3.55-1.83 6.35v0 13.4zM531.53-25h3.75v-7h3.75v7h6.65v3.5h-6.65v13.45c0 1.533 0.327 2.65 0.98 3.35 0.647 0.7 1.48 1.117 2.5 1.25 1.013 0.133 2.07 0.133 3.17 0v0 3.25c-1.3 0.3-2.573 0.383-3.82 0.25-1.253-0.133-2.37-0.507-3.35-1.12-0.987-0.62-1.77-1.497-2.35-2.63-0.587-1.133-0.88-2.583-0.88-4.35v0-13.45h-3.75zM578.72 0.35v0c-2.333 0-4.41-0.567-6.23-1.7-1.813-1.133-3.237-2.683-4.27-4.65-1.033-1.967-1.55-4.217-1.55-6.75v0c0-2.433 0.517-4.6 1.55-6.5 1.033-1.9 2.45-3.393 4.25-4.48 1.8-1.08 3.85-1.62 6.15-1.62v0c2.267 0 4.29 0.5 6.07 1.5 1.787 1 3.18 2.383 4.18 4.15 1 1.767 1.467 3.783 1.4 6.05v0c0 0.367-0.017 0.75-0.05 1.15-0.033 0.4-0.067 0.833-0.1 1.3v0h-19.35c0.067 1.567 0.45 2.95 1.15 4.15 0.7 1.2 1.623 2.14 2.77 2.82 1.153 0.687 2.463 1.03 3.93 1.03v0c1.933 0 3.573-0.367 4.92-1.1 1.353-0.733 2.33-1.783 2.93-3.15v0l3.25 1.3c-1 2.1-2.45 3.707-4.35 4.82-1.9 1.12-4.117 1.68-6.65 1.68zM570.82-14.45h15.35c0.033-1.433-0.277-2.7-0.93-3.8-0.647-1.1-1.553-1.967-2.72-2.6-1.167-0.633-2.517-0.95-4.05-0.95v0c-1.333 0-2.55 0.317-3.65 0.95-1.1 0.633-2.01 1.507-2.73 2.62-0.713 1.12-1.137 2.38-1.27 3.78zM613.36 0v-25h3.45l0.2 3.65c0.667-0.9 1.473-1.667 2.42-2.3 0.953-0.633 2.003-1.077 3.15-1.33 1.153-0.247 2.38-0.253 3.68-0.02v0 3.75c-1.4-0.267-2.66-0.267-3.78 0-1.113 0.267-2.07 0.767-2.87 1.5-0.8 0.733-1.417 1.657-1.85 2.77-0.433 1.12-0.65 2.413-0.65 3.88v0 13.1zM648.29 0v-25h3.45l0.2 3.55c0.8-1.233 1.85-2.193 3.15-2.88 1.3-0.68 2.817-1.02 4.55-1.02v0c1.9 0 3.567 0.407 5 1.22 1.433 0.82 2.55 2.037 3.35 3.65 0.8 1.62 1.2 3.647 1.2 6.08v0 14.4h-3.75v-13.95c0-2.6-0.557-4.577-1.67-5.93-1.12-1.347-2.73-2.02-4.83-2.02v0c-2.167 0-3.857 0.717-5.07 2.15-1.22 1.433-1.83 3.55-1.83 6.35v0 13.4zM703.88 0.35v0c-2.333 0-4.407-0.567-6.22-1.7-1.82-1.133-3.247-2.683-4.28-4.65-1.033-1.967-1.55-4.217-1.55-6.75v0c0-2.433 0.517-4.6 1.55-6.5 1.033-1.9 2.45-3.393 4.25-4.48 1.8-1.08 3.85-1.62 6.15-1.62v0c2.267 0 4.293 0.5 6.08 1.5 1.78 1 3.17 2.383 4.17 4.15 1 1.767 1.467 3.783 1.4 6.05v0c0 0.367-0.017 0.75-0.05 1.15-0.033 0.4-0.067 0.833-0.1 1.3v0h-19.35c0.067 1.567 0.45 2.95 1.15 4.15 0.7 1.2 1.627 2.14 2.78 2.82 1.147 0.687 2.453 1.03 3.92 1.03v0c1.933 0 3.577-0.367 4.93-1.1 1.347-0.733 2.32-1.783 2.92-3.15v0l3.25 1.3c-1 2.1-2.45 3.707-4.35 4.82-1.9 1.12-4.117 1.68-6.65 1.68zM695.98-14.45h15.35c0.033-1.433-0.273-2.7-0.92-3.8-0.653-1.1-1.563-1.967-2.73-2.6-1.167-0.633-2.517-0.95-4.05-0.95v0c-1.333 0-2.55 0.317-3.65 0.95-1.1 0.633-2.007 1.507-2.72 2.62-0.72 1.12-1.147 2.38-1.28 3.78zM735.37-25h3.75v-7h3.75v7h6.65v3.5h-6.65v13.45c0 1.533 0.323 2.65 0.97 3.35 0.653 0.7 1.487 1.117 2.5 1.25 1.02 0.133 2.08 0.133 3.18 0v0 3.25c-1.3 0.3-2.577 0.383-3.83 0.25-1.247-0.133-2.363-0.507-3.35-1.12-0.98-0.62-1.763-1.497-2.35-2.63-0.58-1.133-0.87-2.583-0.87-4.35v0-13.45h-3.75zM822.09 0h-3.45l-0.3-4.5c-0.7 1.533-1.733 2.723-3.1 3.57-1.367 0.853-3.1 1.28-5.2 1.28v0c-1.8 0-3.333-0.283-4.6-0.85-1.267-0.567-2.24-1.377-2.92-2.43-0.687-1.047-1.03-2.287-1.03-3.72v0c0-2.1 0.783-3.827 2.35-5.18 1.567-1.347 3.833-2.17 6.8-2.47v0l7.7-0.85v-2c0-1.4-0.517-2.527-1.55-3.38-1.033-0.847-2.433-1.27-4.2-1.27v0c-1.733 0-3.173 0.4-4.32 1.2-1.153 0.8-1.947 1.95-2.38 3.45v0l-3.4-1.2c0.667-2.2 1.893-3.917 3.68-5.15 1.78-1.233 3.953-1.85 6.52-1.85v0c2.967 0 5.277 0.757 6.93 2.27 1.647 1.52 2.47 3.58 2.47 6.18v0zM818.34-11.15v-0.8l-7.75 0.9c-1.667 0.2-2.933 0.657-3.8 1.37-0.867 0.72-1.3 1.663-1.3 2.83v0c0 1.167 0.427 2.1 1.28 2.8 0.847 0.7 2.07 1.05 3.67 1.05v0c1.833 0 3.333-0.367 4.5-1.1 1.167-0.733 2.027-1.727 2.58-2.98 0.547-1.247 0.82-2.603 0.82-4.07zM875.97-7.45l3.65-1.45c0.2 0.9 0.623 1.79 1.27 2.67 0.653 0.887 1.553 1.62 2.7 2.2 1.153 0.587 2.63 0.88 4.43 0.88v0c2.567 0 4.467-0.6 5.7-1.8 1.233-1.2 1.85-2.617 1.85-4.25v0c0-1.3-0.35-2.367-1.05-3.2-0.7-0.833-1.65-1.527-2.85-2.08-1.2-0.547-2.55-1.037-4.05-1.47v0c-1.333-0.367-2.66-0.777-3.98-1.23-1.313-0.447-2.503-1.013-3.57-1.7-1.067-0.68-1.917-1.57-2.55-2.67-0.633-1.1-0.95-2.467-0.95-4.1v0c0-1.967 0.467-3.677 1.4-5.13 0.933-1.447 2.25-2.57 3.95-3.37 1.7-0.8 3.683-1.2 5.95-1.2v0c1.967 0 3.683 0.283 5.15 0.85 1.467 0.567 2.69 1.357 3.67 2.37 0.987 1.02 1.713 2.197 2.18 3.53v0l-3.55 1.35c-0.233-0.767-0.683-1.51-1.35-2.23-0.667-0.713-1.533-1.303-2.6-1.77-1.067-0.467-2.283-0.7-3.65-0.7v0c-1.333 0-2.543 0.233-3.63 0.7-1.08 0.467-1.937 1.133-2.57 2-0.633 0.867-0.95 1.917-0.95 3.15v0c0 1.333 0.373 2.39 1.12 3.17 0.753 0.787 1.753 1.42 3 1.9 1.253 0.487 2.63 0.947 4.13 1.38v0c1.367 0.433 2.69 0.9 3.97 1.4 1.287 0.5 2.437 1.117 3.45 1.85 1.02 0.733 1.83 1.65 2.43 2.75 0.6 1.1 0.9 2.45 0.9 4.05v0c0 1.767-0.417 3.41-1.25 4.93-0.833 1.513-2.093 2.727-3.78 3.64-1.68 0.92-3.837 1.38-6.47 1.38v0c-2.2 0-4.133-0.343-5.8-1.03-1.667-0.68-3.033-1.603-4.1-2.77-1.067-1.167-1.8-2.5-2.2-4zM942 0h-3.45l-0.3-4.5c-0.7 1.533-1.733 2.723-3.1 3.57-1.367 0.853-3.1 1.28-5.2 1.28v0c-1.8 0-3.333-0.283-4.6-0.85-1.267-0.567-2.24-1.377-2.92-2.43-0.687-1.047-1.03-2.287-1.03-3.72v0c0-2.1 0.783-3.827 2.35-5.18 1.567-1.347 3.833-2.17 6.8-2.47v0l7.7-0.85v-2c0-1.4-0.517-2.527-1.55-3.38-1.033-0.847-2.433-1.27-4.2-1.27v0c-1.733 0-3.173 0.4-4.32 1.2-1.153 0.8-1.947 1.95-2.38 3.45v0l-3.4-1.2c0.667-2.2 1.893-3.917 3.68-5.15 1.78-1.233 3.953-1.85 6.52-1.85v0c2.967 0 5.277 0.757 6.93 2.27 1.647 1.52 2.47 3.58 2.47 6.18v0zM938.25-11.15v-0.8l-7.75 0.9c-1.667 0.2-2.933 0.657-3.8 1.37-0.867 0.72-1.3 1.663-1.3 2.83v0c0 1.167 0.427 2.1 1.28 2.8 0.847 0.7 2.07 1.05 3.67 1.05v0c1.833 0 3.333-0.367 4.5-1.1 1.167-0.733 2.027-1.727 2.58-2.98 0.547-1.247 0.82-2.603 0.82-4.07zM967.59-25v-2.95c0-1.833 0.3-3.383 0.9-4.65 0.6-1.267 1.557-2.193 2.87-2.78 1.32-0.58 3.08-0.787 5.28-0.62v0 3.35c-2-0.167-3.383 0.157-4.15 0.97-0.767 0.82-1.15 2.063-1.15 3.73v0 2.95h5.5v3.5h-5.5v21.5h-3.75v-21.5h-3.5v-3.5zM1009.38 0.35v0c-2.333 0-4.41-0.567-6.23-1.7-1.813-1.133-3.237-2.683-4.27-4.65-1.033-1.967-1.55-4.217-1.55-6.75v0c0-2.433 0.517-4.6 1.55-6.5 1.033-1.9 2.45-3.393 4.25-4.48 1.8-1.08 3.85-1.62 6.15-1.62v0c2.267 0 4.29 0.5 6.07 1.5 1.787 1 3.18 2.383 4.18 4.15 1 1.767 1.467 3.783 1.4 6.05v0c0 0.367-0.017 0.75-0.05 1.15-0.033 0.4-0.067 0.833-0.1 1.3v0h-19.35c0.067 1.567 0.45 2.95 1.15 4.15 0.7 1.2 1.623 2.14 2.77 2.82 1.153 0.687 2.463 1.03 3.93 1.03v0c1.933 0 3.573-0.367 4.92-1.1 1.353-0.733 2.33-1.783 2.93-3.15v0l3.25 1.3c-1 2.1-2.45 3.707-4.35 4.82-1.9 1.12-4.117 1.68-6.65 1.68zM1001.48-14.45h15.35c0.033-1.433-0.277-2.7-0.93-3.8-0.647-1.1-1.553-1.967-2.72-2.6-1.167-0.633-2.517-0.95-4.05-0.95v0c-1.333 0-2.55 0.317-3.65 0.95-1.1 0.633-2.01 1.507-2.73 2.62-0.713 1.12-1.137 2.38-1.27 3.78zM1044.01 0v-25h3.45l0.2 3.65c0.667-0.9 1.477-1.667 2.43-2.3 0.947-0.633 1.997-1.077 3.15-1.33 1.147-0.247 2.37-0.253 3.67-0.02v0 3.75c-1.4-0.267-2.657-0.267-3.77 0-1.12 0.267-2.08 0.767-2.88 1.5-0.8 0.733-1.417 1.657-1.85 2.77-0.433 1.12-0.65 2.413-0.65 3.88v0 13.1zM1114.29-17.8h8.35c1.867 0 3.383-0.283 4.55-0.85 1.167-0.567 2.023-1.367 2.57-2.4 0.553-1.033 0.83-2.233 0.83-3.6v0c0-2.167-0.627-3.85-1.88-5.05-1.247-1.2-3.27-1.8-6.07-1.8v0h-8.35zM1134.54-24.65v0c0 1.367-0.227 2.673-0.68 3.92-0.447 1.253-1.153 2.363-2.12 3.33-0.967 0.967-2.2 1.723-3.7 2.27-1.5 0.553-3.3 0.83-5.4 0.83v0h-8.35v14.3h-4v-35h12.35c2.733 0 4.973 0.467 6.72 1.4 1.753 0.933 3.053 2.183 3.9 3.75 0.853 1.567 1.28 3.3 1.28 5.2zM1157.42 0v-36h3.75v36zM1204.86 0h-3.45l-0.3-4.5c-0.7 1.533-1.733 2.723-3.1 3.57-1.367 0.853-3.1 1.28-5.2 1.28v0c-1.8 0-3.333-0.283-4.6-0.85-1.267-0.567-2.24-1.377-2.92-2.43-0.687-1.047-1.03-2.287-1.03-3.72v0c0-2.1 0.783-3.827 2.35-5.18 1.567-1.347 3.833-2.17 6.8-2.47v0l7.7-0.85v-2c0-1.4-0.517-2.527-1.55-3.38-1.033-0.847-2.433-1.27-4.2-1.27v0c-1.733 0-3.173 0.4-4.32 1.2-1.153 0.8-1.947 1.95-2.38 3.45v0l-3.4-1.2c0.667-2.2 1.893-3.917 3.68-5.15 1.78-1.233 3.953-1.85 6.52-1.85v0c2.967 0 5.277 0.757 6.93 2.27 1.647 1.52 2.47 3.58 2.47 6.18v0zM1201.11-11.15v-0.8l-7.75 0.9c-1.667 0.2-2.933 0.657-3.8 1.37-0.867 0.72-1.3 1.663-1.3 2.83v0c0 1.167 0.427 2.1 1.28 2.8 0.847 0.7 2.07 1.05 3.67 1.05v0c1.833 0 3.333-0.367 4.5-1.1 1.167-0.733 2.027-1.727 2.58-2.98 0.547-1.247 0.82-2.603 0.82-4.07zM1239.75 0.35v0c-2.433 0-4.567-0.533-6.4-1.6-1.833-1.067-3.26-2.56-4.28-4.48-1.013-1.913-1.52-4.137-1.52-6.67v0c0-2.567 0.507-4.827 1.52-6.78 1.02-1.947 2.447-3.463 4.28-4.55 1.833-1.08 3.967-1.62 6.4-1.62v0c2.567 0 4.817 0.59 6.75 1.77 1.933 1.187 3.333 2.83 4.2 4.93v0l-3.45 1.2c-0.5-1.333-1.41-2.393-2.73-3.18-1.313-0.78-2.837-1.17-4.57-1.17v0c-1.7 0-3.177 0.383-4.43 1.15-1.247 0.767-2.213 1.85-2.9 3.25-0.68 1.4-1.02 3.05-1.02 4.95v0c0 2.8 0.75 5.04 2.25 6.72 1.5 1.687 3.5 2.53 6 2.53v0c1.7 0 3.217-0.383 4.55-1.15 1.333-0.767 2.317-1.8 2.95-3.1v0l3.4 1.2c-0.9 2.067-2.317 3.683-4.25 4.85-1.933 1.167-4.183 1.75-6.75 1.75zM1284.34 0.35v0c-2.333 0-4.41-0.567-6.23-1.7-1.813-1.133-3.237-2.683-4.27-4.65-1.033-1.967-1.55-4.217-1.55-6.75v0c0-2.433 0.517-4.6 1.55-6.5 1.033-1.9 2.45-3.393 4.25-4.48 1.8-1.08 3.85-1.62 6.15-1.62v0c2.267 0 4.29 0.5 6.07 1.5 1.787 1 3.18 2.383 4.18 4.15 1 1.767 1.467 3.783 1.4 6.05v0c0 0.367-0.017 0.75-0.05 1.15-0.033 0.4-0.067 0.833-0.1 1.3v0h-19.35c0.067 1.567 0.45 2.95 1.15 4.15 0.7 1.2 1.623 2.14 2.77 2.82 1.153 0.687 2.463 1.03 3.93 1.03v0c1.933 0 3.573-0.367 4.92-1.1 1.353-0.733 2.33-1.783 2.93-3.15v0l3.25 1.3c-1 2.1-2.45 3.707-4.35 4.82-1.9 1.12-4.117 1.68-6.65 1.68zM1276.44-14.45h15.35c0.033-1.433-0.277-2.7-0.93-3.8-0.647-1.1-1.553-1.967-2.72-2.6-1.167-0.633-2.517-0.95-4.05-0.95v0c-1.333 0-2.55 0.317-3.65 0.95-1.1 0.633-2.01 1.507-2.73 2.62-0.713 1.12-1.137 2.38-1.27 3.78zM1351.26-25v-2.95c0-1.833 0.3-3.383 0.9-4.65 0.6-1.267 1.56-2.193 2.88-2.78 1.313-0.58 3.07-0.787 5.27-0.62v0 3.35c-2-0.167-3.383 0.157-4.15 0.97-0.767 0.82-1.15 2.063-1.15 3.73v0 2.95h5.5v3.5h-5.5v21.5h-3.75v-21.5h-3.5v-3.5zM1393.35 0.35v0c-2.367 0-4.483-0.517-6.35-1.55-1.867-1.033-3.333-2.51-4.4-4.43-1.067-1.913-1.6-4.187-1.6-6.82v0c0-2.667 0.54-4.967 1.62-6.9 1.087-1.933 2.57-3.417 4.45-4.45 1.887-1.033 4.013-1.55 6.38-1.55v0c2.367 0 4.49 0.517 6.37 1.55 1.887 1.033 3.37 2.507 4.45 4.42 1.087 1.92 1.63 4.197 1.63 6.83v0c0 2.667-0.55 4.967-1.65 6.9-1.1 1.933-2.6 3.417-4.5 4.45-1.9 1.033-4.033 1.55-6.4 1.55zM1393.3-3.2v0c1.467 0 2.85-0.323 4.15-0.97 1.3-0.653 2.357-1.673 3.17-3.06 0.82-1.38 1.23-3.137 1.23-5.27v0c0-2.167-0.4-3.933-1.2-5.3-0.8-1.367-1.843-2.377-3.13-3.03-1.28-0.647-2.653-0.97-4.12-0.97v0c-1.467 0-2.833 0.323-4.1 0.97-1.267 0.653-2.293 1.67-3.08 3.05-0.78 1.387-1.17 3.147-1.17 5.28v0c0 2.167 0.383 3.933 1.15 5.3 0.767 1.367 1.773 2.377 3.02 3.03 1.253 0.647 2.613 0.97 4.08 0.97zM1428.98 0v-25h3.45l0.2 3.65c0.667-0.9 1.477-1.667 2.43-2.3 0.947-0.633 1.997-1.077 3.15-1.33 1.147-0.247 2.37-0.253 3.67-0.02v0 3.75c-1.4-0.267-2.657-0.267-3.77 0-1.12 0.267-2.08 0.767-2.88 1.5-0.8 0.733-1.417 1.657-1.85 2.77-0.433 1.12-0.65 2.413-0.65 3.88v0 13.1zM1518.21-35v3.5h-18.95v11.95h14.25v3.5h-14.25v12.55h18.95v3.5h-22.95v-35zM1539.7-25h4l7.9 20.8 7.95-20.8h3.95l-10 25h-3.9zM1595.53 0.35v0c-2.333 0-4.407-0.567-6.22-1.7-1.82-1.133-3.247-2.683-4.28-4.65-1.033-1.967-1.55-4.217-1.55-6.75v0c0-2.433 0.517-4.6 1.55-6.5 1.033-1.9 2.45-3.393 4.25-4.48 1.8-1.08 3.85-1.62 6.15-1.62v0c2.267 0 4.293 0.5 6.08 1.5 1.78 1 3.17 2.383 4.17 4.15 1 1.767 1.467 3.783 1.4 6.05v0c0 0.367-0.017 0.75-0.05 1.15-0.033 0.4-0.067 0.833-0.1 1.3v0h-19.35c0.067 1.567 0.45 2.95 1.15 4.15 0.7 1.2 1.627 2.14 2.78 2.82 1.147 0.687 2.453 1.03 3.92 1.03v0c1.933 0 3.577-0.367 4.93-1.1 1.347-0.733 2.32-1.783 2.92-3.15v0l3.25 1.3c-1 2.1-2.45 3.707-4.35 4.82-1.9 1.12-4.117 1.68-6.65 1.68zM1587.63-14.45h15.35c0.033-1.433-0.273-2.7-0.92-3.8-0.653-1.1-1.563-1.967-2.73-2.6-1.167-0.633-2.517-0.95-4.05-0.95v0c-1.333 0-2.55 0.317-3.65 0.95-1.1 0.633-2.007 1.507-2.72 2.62-0.72 1.12-1.147 2.38-1.28 3.78zM1630.17 0v-25h3.45l0.2 3.65c0.667-0.9 1.473-1.667 2.42-2.3 0.953-0.633 2.003-1.077 3.15-1.33 1.153-0.247 2.38-0.253 3.68-0.02v0 3.75c-1.4-0.267-2.66-0.267-3.78 0-1.113 0.267-2.07 0.767-2.87 1.5-0.8 0.733-1.417 1.657-1.85 2.77-0.433 1.12-0.65 2.413-0.65 3.88v0 13.1zM1674.31-4.8l7.75-20.2h3.9l-14.3 35h-3.6l4.25-10.35-10.1-24.65h4.1zM1717.99 0.35v0c-2.367 0-4.483-0.517-6.35-1.55-1.867-1.033-3.333-2.51-4.4-4.43-1.067-1.913-1.6-4.187-1.6-6.82v0c0-2.667 0.543-4.967 1.63-6.9 1.08-1.933 2.563-3.417 4.45-4.45 1.88-1.033 4.003-1.55 6.37-1.55v0c2.367 0 4.493 0.517 6.38 1.55 1.88 1.033 3.363 2.507 4.45 4.42 1.08 1.92 1.62 4.197 1.62 6.83v0c0 2.667-0.55 4.967-1.65 6.9-1.1 1.933-2.6 3.417-4.5 4.45-1.9 1.033-4.033 1.55-6.4 1.55zM1717.94-3.2v0c1.467 0 2.85-0.323 4.15-0.97 1.3-0.653 2.36-1.673 3.18-3.06 0.813-1.38 1.22-3.137 1.22-5.27v0c0-2.167-0.4-3.933-1.2-5.3-0.8-1.367-1.84-2.377-3.12-3.03-1.287-0.647-2.663-0.97-4.13-0.97v0c-1.467 0-2.833 0.323-4.1 0.97-1.267 0.653-2.29 1.67-3.07 3.05-0.787 1.387-1.18 3.147-1.18 5.28v0c0 2.167 0.383 3.933 1.15 5.3 0.767 1.367 1.777 2.377 3.03 3.03 1.247 0.647 2.603 0.97 4.07 0.97zM1753.63 0v-25h3.45l0.2 3.55c0.8-1.233 1.85-2.193 3.15-2.88 1.3-0.68 2.817-1.02 4.55-1.02v0c1.9 0 3.567 0.407 5 1.22 1.433 0.82 2.55 2.037 3.35 3.65 0.8 1.62 1.2 3.647 1.2 6.08v0 14.4h-3.75v-13.95c0-2.6-0.557-4.577-1.67-5.93-1.12-1.347-2.73-2.02-4.83-2.02v0c-2.167 0-3.857 0.717-5.07 2.15-1.22 1.433-1.83 3.55-1.83 6.35v0 13.4zM1809.22 0.35v0c-2.333 0-4.41-0.567-6.23-1.7-1.813-1.133-3.237-2.683-4.27-4.65-1.033-1.967-1.55-4.217-1.55-6.75v0c0-2.433 0.517-4.6 1.55-6.5 1.033-1.9 2.45-3.393 4.25-4.48 1.8-1.08 3.85-1.62 6.15-1.62v0c2.267 0 4.29 0.5 6.07 1.5 1.787 1 3.18 2.383 4.18 4.15 1 1.767 1.467 3.783 1.4 6.05v0c0 0.367-0.017 0.75-0.05 1.15-0.033 0.4-0.067 0.833-0.1 1.3v0h-19.35c0.067 1.567 0.45 2.95 1.15 4.15 0.7 1.2 1.623 2.14 2.77 2.82 1.153 0.687 2.463 1.03 3.93 1.03v0c1.933 0 3.573-0.367 4.92-1.1 1.353-0.733 2.33-1.783 2.93-3.15v0l3.25 1.3c-1 2.1-2.45 3.707-4.35 4.82-1.9 1.12-4.117 1.68-6.65 1.68zM1801.32-14.45h15.35c0.033-1.433-0.277-2.7-0.93-3.8-0.647-1.1-1.553-1.967-2.72-2.6-1.167-0.633-2.517-0.95-4.05-0.95v0c-1.333 0-2.55 0.317-3.65 0.95-1.1 0.633-2.01 1.507-2.73 2.62-0.713 1.12-1.137 2.38-1.27 3.78z" fill="#00cc66" fill-rule="nonzero" stroke="none" stroke-width="1" stroke-linecap="butt" stroke-linejoin="miter" stroke-miterlimit="10" stroke-dasharray="" stroke-dashoffset="0" font-family="none" font-weight="none" font-size="none" text-anchor="none" style="mix-blend-mode: normal" data-fill-palette-color="secondary" id="text-1"></path></g></g><g transform="matrix(1,0,0,1,31.01257000000004,16.033790177636064)"><svg viewBox="0 0 316.41599999999994 17.663759644727886" height="17.663759644727886" width="316.41599999999994"><g><svg viewBox="0 0 339.21978287265415 18.936769036329846" height="17.663759644727886" width="316.41599999999994"><g transform="matrix(1,0,0,1,22.80378287265416,3.8526313224133855)"><svg viewBox="0 0 316.416 11.231506391503075" height="11.231506391503075" width="316.416"><g id="textblocktransform"><svg viewBox="0 0 316.416 11.231506391503075" height="11.231506391503075" width="316.416" id="textblock"><g><svg viewBox="0 0 316.416 11.231506391503075" height="11.231506391503075" width="316.416"><g transform="matrix(1,0,0,1,0,0)"><svg width="316.416" viewBox="-1.94 -40.86 1254.56 45.5" height="11.231506391503075" data-palette-color="#ffffff"><path d="M18.32-10.37L18.32-36.36 22.73-36.36 22.73-10.37Q22.73-6.89 21.45-4.46 20.17-2.02 17.84-0.76 15.52 0.5 12.36 0.5L12.36 0.5Q9.38 0.5 7.05-0.59 4.72-1.69 3.39-3.71 2.06-5.74 2.06-8.52L2.06-8.52 6.39-8.52Q6.39-6.98 7.16-5.83 7.94-4.69 9.29-4.05 10.64-3.41 12.36-3.41L12.36-3.41Q14.26-3.41 15.59-4.21 16.92-5.01 17.62-6.56 18.32-8.11 18.32-10.37L18.32-10.37ZM62.21-18.18L62.21-18.18Q62.21-12.43 60.14-8.24 58.06-4.05 54.44-1.78 50.81 0.5 46.16 0.5L46.16 0.5Q41.51 0.5 37.89-1.78 34.27-4.05 32.19-8.24 30.11-12.43 30.11-18.18L30.11-18.18Q30.11-23.93 32.19-28.13 34.27-32.32 37.89-34.59 41.51-36.86 46.16-36.86L46.16-36.86Q50.81-36.86 54.44-34.59 58.06-32.32 60.14-28.13 62.21-23.93 62.21-18.18ZM57.95-18.18L57.95-18.18Q57.95-22.9 56.38-26.15 54.81-29.4 52.14-31.07 49.46-32.74 46.16-32.74L46.16-32.74Q42.86-32.74 40.19-31.07 37.52-29.4 35.94-26.15 34.37-22.9 34.37-18.18L34.37-18.18Q34.37-13.46 35.94-10.21 37.52-6.96 40.19-5.29 42.86-3.62 46.16-3.62L46.16-3.62Q49.46-3.62 52.14-5.29 54.81-6.96 56.38-10.21 57.95-13.46 57.95-18.18ZM91.83 0L69.6 0 69.6-36.36 91.54-36.36 91.54-32.46 74-32.46 74-20.17 90.41-20.17 90.41-16.26 74-16.26 74-3.91 91.83-3.91 91.83 0ZM113.56 0L113.56-36.36 118.81-36.36 131.17-6.18 131.6-6.18 143.95-36.36 149.21-36.36 149.21 0 145.09 0 145.09-27.63 144.73-27.63 133.37 0 129.39 0 118.03-27.63 117.67-27.63 117.67 0 113.56 0ZM180.24 0L158.01 0 158.01-36.36 179.96-36.36 179.96-32.46 162.42-32.46 162.42-20.17 178.82-20.17 178.82-16.26 162.42-16.26 162.42-3.91 180.24-3.91 180.24 0ZM212.41-36.36L216.75-36.36 216.75 0 212.49 0 192.67-28.55 192.31-28.55 192.31 0 187.91 0 187.91-36.36 192.17-36.36 212.06-7.74 212.41-7.74 212.41-36.36ZM236.77 0L236.77 0 225.55 0 225.55-36.36 237.27-36.36Q242.56-36.36 246.32-34.19 250.09-32.01 252.1-27.96 254.1-23.9 254.1-18.25L254.1-18.25Q254.1-12.57 252.08-8.48 250.05-4.39 246.18-2.19 242.31 0 236.77 0ZM229.95-32.46L229.95-3.91 236.49-3.91Q241-3.91 243.96-5.65 246.93-7.39 248.38-10.6 249.84-13.81 249.84-18.25L249.84-18.25Q249.84-22.66 248.4-25.84 246.96-29.03 244.11-30.74 241.25-32.46 236.99-32.46L236.99-32.46 229.95-32.46ZM283.72 0L261.49 0 261.49-36.36 283.43-36.36 283.43-32.46 265.89-32.46 265.89-20.17 282.3-20.17 282.3-16.26 265.89-16.26 265.89-3.91 283.72-3.91 283.72 0ZM315.25 0L290.18 0 290.18-3.2 309.78-32.46 289.96-32.46 289.96-36.36 315.03-36.36 315.03-33.17 295.43-3.91 315.25-3.91 315.25 0ZM321.78-17.54L337.69-17.54 337.69-13.64 321.78-13.64 321.78-17.54ZM350.04 0L345.64 0 345.64-36.36 350.04-36.36 350.04-20.17 369.43-20.17 369.43-36.36 373.84-36.36 373.84 0 369.43 0 369.43-16.26 350.04-16.26 350.04 0ZM406.5-12.64L406.5-36.36 410.91-36.36 410.91-12.29Q410.91-8.56 409.16-5.64 407.41-2.72 404.23-1.04 401.05 0.64 396.77 0.64L396.77 0.64Q392.49 0.64 389.32-1.04 386.14-2.72 384.39-5.64 382.64-8.56 382.64-12.29L382.64-12.29 382.64-36.36 387.04-36.36 387.04-12.64Q387.04-9.98 388.22-7.91 389.39-5.84 391.56-4.66 393.74-3.48 396.77-3.48L396.77-3.48Q399.81-3.48 401.99-4.66 404.18-5.84 405.34-7.91 406.5-9.98 406.5-12.64L406.5-12.64ZM449.12-25L444.57-25Q443.98-26.79 443.03-28.22 442.08-29.65 440.78-30.66 439.47-31.68 437.82-32.21 436.17-32.74 434.2-32.74L434.2-32.74Q430.97-32.74 428.32-31.07 425.68-29.4 424.12-26.15 422.55-22.9 422.55-18.18L422.55-18.18Q422.55-13.46 424.13-10.21 425.71-6.96 428.41-5.29 431.11-3.62 434.48-3.62L434.48-3.62Q437.61-3.62 440-4.96 442.39-6.3 443.73-8.76 445.07-11.22 445.07-14.56L445.07-14.56 446.42-14.28 435.48-14.28 435.48-18.18 449.33-18.18 449.33-14.28Q449.33-9.78 447.42-6.46 445.51-3.14 442.16-1.32 438.82 0.5 434.48 0.5L434.48 0.5Q429.66 0.5 426.01-1.78 422.36-4.05 420.32-8.24 418.29-12.43 418.29-18.18L418.29-18.18Q418.29-22.5 419.45-25.95 420.62-29.4 422.75-31.84 424.88-34.27 427.79-35.56 430.7-36.86 434.2-36.86L434.2-36.86Q437.08-36.86 439.57-36 442.07-35.14 444.03-33.57 445.99-32 447.3-29.82 448.62-27.65 449.12-25L449.12-25ZM461.26 0L456.85 0 456.85-36.36 461.26-36.36 461.26-20.17 480.65-20.17 480.65-36.36 485.05-36.36 485.05 0 480.65 0 480.65-16.26 461.26-16.26 461.26 0ZM516.08 0L493.85 0 493.85-36.36 515.8-36.36 515.8-32.46 498.26-32.46 498.26-20.17 514.66-20.17 514.66-16.26 498.26-16.26 498.26-3.91 516.08-3.91 516.08 0ZM547.9-27.27L543.64-27.27Q543.32-29.97 541.05-31.46 538.77-32.95 535.47-32.95L535.47-32.95Q533.06-32.95 531.25-32.17 529.45-31.39 528.45-30.02 527.45-28.66 527.45-26.92L527.45-26.92Q527.45-25.46 528.15-24.42 528.85-23.38 529.95-22.7 531.05-22.02 532.26-21.58 533.46-21.15 534.48-20.88L534.48-20.88 538.17-19.89Q539.59-19.51 541.34-18.86 543.09-18.2 544.7-17.07 546.3-15.94 547.35-14.19 548.4-12.43 548.4-9.87L548.4-9.87Q548.4-6.92 546.86-4.55 545.33-2.17 542.39-0.76 539.45 0.64 535.26 0.64L535.26 0.64Q531.35 0.64 528.5-0.62 525.65-1.88 524.03-4.14 522.4-6.39 522.19-9.38L522.19-9.38 526.74-9.38Q526.91-7.32 528.13-5.97 529.35-4.63 531.22-3.99 533.09-3.34 535.26-3.34L535.26-3.34Q537.78-3.34 539.79-4.16 541.79-4.99 542.96-6.47 544.14-7.95 544.14-9.94L544.14-9.94Q544.14-11.75 543.12-12.89 542.11-14.03 540.46-14.74 538.81-15.45 536.89-15.98L536.89-15.98 532.42-17.26Q528.16-18.48 525.67-20.76 523.18-23.03 523.18-26.7L523.18-26.7Q523.18-29.76 524.84-32.04 526.5-34.32 529.32-35.59 532.13-36.86 535.61-36.86L535.61-36.86Q539.13-36.86 541.86-35.61 544.6-34.36 546.2-32.19 547.81-30.02 547.9-27.27L547.9-27.27ZM558.13 0.28L558.13 0.28Q556.81 0.28 555.87-0.66 554.93-1.6 554.93-2.91L554.93-2.91Q554.93-4.23 555.87-5.17 556.81-6.11 558.13-6.11L558.13-6.11Q559.44-6.11 560.38-5.17 561.32-4.23 561.32-2.91L561.32-2.91Q561.32-2.04 560.89-1.31 560.45-0.59 559.73-0.15 559.01 0.28 558.13 0.28ZM558.13-19.96L558.13-19.96Q556.81-19.96 555.87-20.9 554.93-21.84 554.93-23.15L554.93-23.15Q554.93-24.47 555.87-25.41 556.81-26.35 558.13-26.35L558.13-26.35Q559.44-26.35 560.38-25.41 561.32-24.47 561.32-23.15L561.32-23.15Q561.32-22.28 560.89-21.56 560.45-20.83 559.73-20.39 559.01-19.96 558.13-19.96ZM612.74-25L612.74-25 608.33-25Q607.94-26.9 606.97-28.34 606.01-29.78 604.63-30.76 603.26-31.75 601.59-32.24 599.92-32.74 598.11-32.74L598.11-32.74Q594.8-32.74 592.13-31.07 589.46-29.4 587.89-26.15 586.32-22.9 586.32-18.18L586.32-18.18Q586.32-13.46 587.89-10.21 589.46-6.96 592.13-5.29 594.8-3.62 598.11-3.62L598.11-3.62Q599.92-3.62 601.59-4.12 603.26-4.62 604.63-5.6 606.01-6.59 606.97-8.03 607.94-9.48 608.33-11.36L608.33-11.36 612.74-11.36Q612.24-8.58 610.93-6.37 609.61-4.17 607.66-2.64 605.71-1.1 603.28-0.3 600.86 0.5 598.11 0.5L598.11 0.5Q593.45 0.5 589.83-1.78 586.21-4.05 584.13-8.24 582.05-12.43 582.05-18.18L582.05-18.18Q582.05-23.93 584.13-28.13 586.21-32.32 589.83-34.59 593.45-36.86 598.11-36.86L598.11-36.86Q600.86-36.86 603.28-36.06 605.71-35.26 607.66-33.73 609.61-32.19 610.93-30 612.24-27.81 612.74-25ZM629.85-14.99L616.71-36.36 621.75-36.36 631.84-19.39 632.27-19.39 642.35-36.36 647.39-36.36 634.25-14.99 634.25 0 629.85 0 629.85-14.99ZM666.21 0L653.07 0 653.07-36.36 665.79-36.36Q669.59-36.36 672.05-35.06 674.52-33.75 675.73-31.56 676.94-29.37 676.94-26.7L676.94-26.7Q676.94-24.36 676.11-22.83 675.28-21.31 673.94-20.42 672.6-19.53 671.04-19.11L671.04-19.11 671.04-18.75Q672.71-18.64 674.4-17.58 676.08-16.51 677.22-14.52 678.36-12.54 678.36-9.66L678.36-9.66Q678.36-6.92 677.11-4.74 675.87-2.56 673.19-1.28 670.51 0 666.21 0L666.21 0ZM657.48-16.55L657.48-3.91 666.21-3.91Q670.53-3.91 672.35-5.58 674.17-7.26 674.17-9.66L674.17-9.66Q674.17-11.51 673.23-13.08 672.28-14.65 670.54-15.6 668.8-16.55 666.42-16.55L666.42-16.55 657.48-16.55ZM657.48-32.46L657.48-20.38 665.64-20.38Q667.63-20.38 669.24-21.16 670.85-21.95 671.8-23.37 672.75-24.79 672.75-26.7L672.75-26.7Q672.75-29.1 671.08-30.78 669.41-32.46 665.79-32.46L665.79-32.46 657.48-32.46ZM707.83 0L685.6 0 685.6-36.36 707.54-36.36 707.54-32.46 690-32.46 690-20.17 706.41-20.17 706.41-16.26 690-16.26 690-3.91 707.83-3.91 707.83 0ZM719.9 0L715.5 0 715.5-36.36 727.78-36.36Q732.04-36.36 734.78-34.92 737.51-33.47 738.83-30.95 740.14-28.43 740.14-25.21L740.14-25.21Q740.14-22 738.83-19.51 737.51-17.03 734.8-15.62 732.08-14.2 727.85-14.2L727.85-14.2 717.91-14.2 717.91-18.18 727.71-18.18Q730.62-18.18 732.41-19.03 734.19-19.89 735-21.46 735.81-23.03 735.81-25.21L735.81-25.21Q735.81-27.4 734.99-29.03 734.18-30.66 732.38-31.56 730.59-32.46 727.64-32.46L727.64-32.46 719.9-32.46 719.9 0ZM727.64-16.34L732.61-16.34 741.56 0 736.45 0 727.64-16.34ZM771.6-27.27L767.34-27.27Q767.02-29.97 764.75-31.46 762.48-32.95 759.17-32.95L759.17-32.95Q756.76-32.95 754.96-32.17 753.15-31.39 752.15-30.02 751.15-28.66 751.15-26.92L751.15-26.92Q751.15-25.46 751.85-24.42 752.55-23.38 753.65-22.7 754.75-22.02 755.96-21.58 757.17-21.15 758.18-20.88L758.18-20.88 761.87-19.89Q763.29-19.51 765.04-18.86 766.79-18.2 768.4-17.07 770-15.94 771.05-14.19 772.1-12.43 772.1-9.87L772.1-9.87Q772.1-6.92 770.56-4.55 769.03-2.17 766.09-0.76 763.15 0.64 758.96 0.64L758.96 0.64Q755.05 0.64 752.2-0.62 749.35-1.88 747.73-4.14 746.1-6.39 745.89-9.38L745.89-9.38 750.44-9.38Q750.61-7.32 751.83-5.97 753.05-4.63 754.92-3.99 756.79-3.34 758.96-3.34L758.96-3.34Q761.48-3.34 763.49-4.16 765.49-4.99 766.67-6.47 767.84-7.95 767.84-9.94L767.84-9.94Q767.84-11.75 766.83-12.89 765.81-14.03 764.16-14.74 762.51-15.45 760.59-15.98L760.59-15.98 756.12-17.26Q751.86-18.48 749.37-20.76 746.89-23.03 746.89-26.7L746.89-26.7Q746.89-29.76 748.55-32.04 750.21-34.32 753.02-35.59 755.83-36.86 759.31-36.86L759.31-36.86Q762.83-36.86 765.56-35.61 768.3-34.36 769.91-32.19 771.51-30.02 771.6-27.27L771.6-27.27ZM801.57 0L779.34 0 779.34-36.36 801.29-36.36 801.29-32.46 783.74-32.46 783.74-20.17 800.15-20.17 800.15-16.26 783.74-16.26 783.74-3.91 801.57-3.91 801.57 0ZM838.5-25L838.5-25 834.1-25Q833.71-26.9 832.74-28.34 831.77-29.78 830.39-30.76 829.02-31.75 827.35-32.24 825.68-32.74 823.87-32.74L823.87-32.74Q820.57-32.74 817.89-31.07 815.22-29.4 813.65-26.15 812.08-22.9 812.08-18.18L812.08-18.18Q812.08-13.46 813.65-10.21 815.22-6.96 817.89-5.29 820.57-3.62 823.87-3.62L823.87-3.62Q825.68-3.62 827.35-4.12 829.02-4.62 830.39-5.6 831.77-6.59 832.74-8.03 833.71-9.48 834.1-11.36L834.1-11.36 838.5-11.36Q838-8.58 836.69-6.37 835.38-4.17 833.42-2.64 831.47-1.1 829.05-0.3 826.62 0.5 823.87 0.5L823.87 0.5Q819.22 0.5 815.6-1.78 811.97-4.05 809.9-8.24 807.82-12.43 807.82-18.18L807.82-18.18Q807.82-23.93 809.9-28.13 811.97-32.32 815.6-34.59 819.22-36.86 823.87-36.86L823.87-36.86Q826.62-36.86 829.05-36.06 831.47-35.26 833.42-33.73 835.38-32.19 836.69-30 838-27.81 838.5-25ZM869.46-12.64L869.46-36.36 873.87-36.36 873.87-12.29Q873.87-8.56 872.12-5.64 870.37-2.72 867.19-1.04 864.01 0.64 859.73 0.64L859.73 0.64Q855.45 0.64 852.28-1.04 849.1-2.72 847.35-5.64 845.6-8.56 845.6-12.29L845.6-12.29 845.6-36.36 850-36.36 850-12.64Q850-9.98 851.18-7.91 852.35-5.84 854.52-4.66 856.7-3.48 859.73-3.48L859.73-3.48Q862.77-3.48 864.95-4.66 867.14-5.84 868.3-7.91 869.46-9.98 869.46-12.64L869.46-12.64ZM887.07 0L882.67 0 882.67-36.36 894.96-36.36Q899.22-36.36 901.95-34.92 904.69-33.47 906-30.95 907.32-28.43 907.32-25.21L907.32-25.21Q907.32-22 906-19.51 904.69-17.03 901.97-15.62 899.26-14.2 895.03-14.2L895.03-14.2 885.09-14.2 885.09-18.18 894.89-18.18Q897.8-18.18 899.58-19.03 901.37-19.89 902.18-21.46 902.98-23.03 902.98-25.21L902.98-25.21Q902.98-27.4 902.17-29.03 901.35-30.66 899.56-31.56 897.76-32.46 894.82-32.46L894.82-32.46 887.07-32.46 887.07 0ZM894.82-16.34L899.79-16.34 908.74 0 903.62 0 894.82-16.34ZM914.63-36.36L919.03-36.36 919.03 0 914.63 0 914.63-36.36ZM937.28-32.46L925.85-32.46 925.85-36.36 953.12-36.36 953.12-32.46 941.69-32.46 941.69 0 937.28 0 937.28-32.46ZM969.95-14.99L956.81-36.36 961.85-36.36 971.94-19.39 972.37-19.39 982.45-36.36 987.49-36.36 974.35-14.99 974.35 0 969.95 0 969.95-14.99ZM1029.46 0L1007.23 0 1007.23-36.36 1029.18-36.36 1029.18-32.46 1011.64-32.46 1011.64-20.17 1028.04-20.17 1028.04-16.26 1011.64-16.26 1011.64-3.91 1029.46-3.91 1029.46 0ZM1061.63-36.36L1065.97-36.36 1065.97 0 1061.7 0 1041.89-28.55 1041.53-28.55 1041.53 0 1037.13 0 1037.13-36.36 1041.39-36.36 1061.28-7.74 1061.63-7.74 1061.63-36.36ZM1104.17-25L1099.63-25Q1099.04-26.79 1098.09-28.22 1097.14-29.65 1095.84-30.66 1094.53-31.68 1092.88-32.21 1091.23-32.74 1089.26-32.74L1089.26-32.74Q1086.03-32.74 1083.38-31.07 1080.74-29.4 1079.17-26.15 1077.61-22.9 1077.61-18.18L1077.61-18.18Q1077.61-13.46 1079.19-10.21 1080.77-6.96 1083.47-5.29 1086.17-3.62 1089.54-3.62L1089.54-3.62Q1092.67-3.62 1095.06-4.96 1097.44-6.3 1098.79-8.76 1100.13-11.22 1100.13-14.56L1100.13-14.56 1101.47-14.28 1090.54-14.28 1090.54-18.18 1104.39-18.18 1104.39-14.28Q1104.39-9.78 1102.48-6.46 1100.57-3.14 1097.22-1.32 1093.88 0.5 1089.54 0.5L1089.54 0.5Q1084.71 0.5 1081.06-1.78 1077.42-4.05 1075.38-8.24 1073.35-12.43 1073.35-18.18L1073.35-18.18Q1073.35-22.5 1074.51-25.95 1075.68-29.4 1077.81-31.84 1079.94-34.27 1082.85-35.56 1085.76-36.86 1089.26-36.86L1089.26-36.86Q1092.14-36.86 1094.63-36 1097.12-35.14 1099.09-33.57 1101.05-32 1102.36-29.82 1103.68-27.65 1104.17-25L1104.17-25ZM1111.91-36.36L1116.32-36.36 1116.32 0 1111.91 0 1111.91-36.36ZM1149.62-36.36L1153.96-36.36 1153.96 0 1149.69 0 1129.88-28.55 1129.52-28.55 1129.52 0 1125.12 0 1125.12-36.36 1129.38-36.36 1149.27-7.74 1149.62-7.74 1149.62-36.36ZM1184.99 0L1162.76 0 1162.76-36.36 1184.71-36.36 1184.71-32.46 1167.16-32.46 1167.16-20.17 1183.57-20.17 1183.57-16.26 1167.16-16.26 1167.16-3.91 1184.99-3.91 1184.99 0ZM1214.89 0L1192.66 0 1192.66-36.36 1214.6-36.36 1214.6-32.46 1197.06-32.46 1197.06-20.17 1213.47-20.17 1213.47-16.26 1197.06-16.26 1197.06-3.91 1214.89-3.91 1214.89 0ZM1226.96 0L1222.56 0 1222.56-36.36 1234.84-36.36Q1239.1-36.36 1241.84-34.92 1244.57-33.47 1245.89-30.95 1247.2-28.43 1247.2-25.21L1247.2-25.21Q1247.2-22 1245.89-19.51 1244.57-17.03 1241.86-15.62 1239.14-14.2 1234.91-14.2L1234.91-14.2 1224.97-14.2 1224.97-18.18 1234.77-18.18Q1237.68-18.18 1239.47-19.03 1241.25-19.89 1242.06-21.46 1242.87-23.03 1242.87-25.21L1242.87-25.21Q1242.87-27.4 1242.05-29.03 1241.24-30.66 1239.44-31.56 1237.65-32.46 1234.7-32.46L1234.7-32.46 1226.96-32.46 1226.96 0ZM1234.7-16.34L1239.67-16.34 1248.62 0 1243.51 0 1234.7-16.34Z" opacity="1" transform="matrix(1,0,0,1,0,0)" fill="#ffffff" class="wordmark-text-0" data-fill-palette-color="primary" id="text-0"></path></svg></g></svg></g></svg></g></svg></g><g><svg viewBox="0 0 20.5693819432605 18.936769036329846" height="18.936769036329846" width="20.5693819432605"><g><svg xmlns="http://www.w3.org/2000/svg" xmlns:xlink="http://www.w3.org/1999/xlink" version="1.1" x="0" y="0" viewBox="9.398 12.34 80.1930005690853 73.828" enable-background="new 0 0 100 100" xml:space="preserve" height="18.936769036329846" width="20.5693819432605" class="icon-icon-0" data-fill-palette-color="accent" id="icon-0"><g fill="#00cc66" data-fill-palette-color="accent"><path d="M55.894 49.046V51.038C55.894 53.547 57.036 54.713 59.222 54.713H61.979C64.585 54.713 66.358 56.832 66.358 59.088V61.406C66.358 63.915 65.221 65.427 62.563 65.427H59.367C56.571 65.427 55.114 64.149 55.114 61.538V59.38C55.114 57.321 53.635 55.97 51.833 55.97H47.074C44.694 55.97 44.115 57.578 44.115 59.38V63.629C44.115 65.881 45.466 66.653 47.203 66.653H50.134C53.444 66.653 55.034 68.105 55.034 70.423V72.024C55.034 74.658 56.532 75.656 58.915 75.656H63.83C66.263 75.656 67.452 74.372 67.452 72.177V70.381C67.452 67.358 69.128 66.393 72.345 66.393H75.729C77.595 66.393 78.454 65.235 78.454 63.691V57.451C78.454 55.393 77.296 54.428 75.045 54.428H70.991C68.572 54.428 66.403 52.599 66.403 49.218V47.226C66.403 44.717 65.261 43.551 63.074 43.551H60.317C57.711 43.551 55.938 41.433 55.938 39.177V36.859C55.938 34.35 57.076 32.838 59.734 32.838H62.929C65.725 32.838 67.183 34.116 67.183 36.727V38.885C67.183 40.944 68.662 42.294 70.464 42.294H75.222C77.602 42.294 78.181 40.686 78.181 38.885V34.636C78.181 32.385 76.83 31.613 75.093 31.613H72.162C68.852 31.613 67.262 30.161 67.262 27.843V26.327C67.262 23.694 65.837 22.61 63.454 22.61H58.466C56.033 22.61 54.844 23.894 54.844 26.09V27.885C54.844 30.908 53.168 31.873 49.951 31.873H46.566C44.701 31.873 43.842 33.031 43.842 34.575V40.815C43.842 42.874 44.999 43.839 47.252 43.839H51.304C53.725 43.836 55.894 45.665 55.894 49.046" fill="#00cc66" data-fill-palette-color="accent"></path><path d="M86.07 54.482A3.52 3.52 0 0 0 89.591 50.961V48.273A3.52 3.52 0 0 0 86.07 44.751H83.382A3.52 3.52 0 0 0 79.861 48.273V50.961A3.52 3.52 0 0 0 83.382 54.482z" fill="#00cc66" data-fill-palette-color="accent"></path><path d="M36.547 31.871H39.555C41.806 31.871 42.964 30.906 42.964 28.848V26.874C43.077 23.68 45.188 22.216 47.542 22.216H50.55C52.803 22.216 53.96 21.251 53.96 19.193V15.042C53.96 13.498 53.102 12.34 51.236 12.34H45.541C43.695 12.34 42.91 13.195 42.91 15.122V17.556C42.91 19.751 41.229 21.809 38.739 21.92H34.545C32.7 21.92 31.914 22.775 31.914 24.702V27.21C31.914 29.466 30.143 31.585 27.535 31.585H24.778C22.59 31.585 21.449 32.75 21.449 35.259V38.33C21.449 41.711 19.281 43.54 16.861 43.54H12.807C10.556 43.54 9.398 44.505 9.398 46.563V53.329C9.398 55.388 10.556 56.352 12.807 56.352H16.861C19.281 56.352 21.449 57.401 21.449 60.783V63.195C21.449 65.704 22.591 66.869 24.778 66.869H27.535C30.142 66.869 31.914 68.988 31.914 71.244V73.783C31.914 75.71 32.7 76.565 34.545 76.565H38.758L38.737 76.589C41.228 76.699 42.908 78.758 42.908 80.953V83.386C42.908 85.313 43.693 86.168 45.539 86.168H51.233C53.099 86.168 53.958 85.01 53.958 83.466V79.315C53.958 77.256 52.8 76.291 50.549 76.291H47.54C45.192 76.291 43.087 74.834 42.964 71.658V69.605C42.964 67.546 41.806 66.582 39.555 66.582H36.547C34.126 66.582 31.957 64.754 31.957 61.373V59.74C31.957 57.231 33.1 56.066 35.287 56.066H38.043C40.65 56.066 42.423 53.947 42.423 51.691V48.2C42.423 45.944 40.651 43.825 38.043 43.825H35.287C33.099 43.825 31.957 42.659 31.957 40.151V36.791C31.957 33.411 34.126 31.871 36.547 31.871" fill="#00cc66" data-fill-palette-color="accent"></path></g></svg></g></svg></g></svg></g></svg></g></svg></g><defs></defs></svg><rect width="378.44114" height="49.73134000000002" fill="none" stroke="none" visibility="hidden"></rect></g></svg></g></svg>