<svg width="176" height="104" viewBox="0 0 176 104" fill="none" xmlns="http://www.w3.org/2000/svg">
    <path d="M162.205 68.663c-3.029 0-5.385-2.344-5.385-5.359 0-3.014 2.356-5.359 5.385-5.359 3.028 0 5.384 2.345 5.384 5.36 0 3.014-2.356 5.358-5.384 5.358zm0-7.368c-1.178 0-2.019.837-2.019 2.01 0 1.172.841 2.01 2.019 2.01 1.177 0 2.019-.838 2.019-2.01 0-1.005-.842-2.01-2.019-2.01z" fill="url(#y65p3nf43a)"/>
    <path d="M162.205 97.134c-3.029 0-5.385-2.345-5.385-5.36 0-3.014 2.356-5.359 5.385-5.359 3.028 0 5.384 2.345 5.384 5.36 0 3.014-2.356 5.359-5.384 5.359zm0-7.369c-1.178 0-2.019.837-2.019 2.01 0 1.172.841 2.01 2.019 2.01 1.177 0 2.019-.838 2.019-2.01 0-1.005-.842-2.01-2.019-2.01z" fill="url(#auhjbdlngb)"/>
    <path d="M170.615 83.736c-3.029 0-5.385-2.345-5.385-5.36 0-3.014 2.356-5.358 5.385-5.358 3.028 0 5.384 2.344 5.384 5.359 0 3.014-2.356 5.359-5.384 5.359zm0-7.369c-1.178 0-2.019.837-2.019 2.01 0 1.172.841 2.01 2.019 2.01 1.178 0 2.019-.838 2.019-2.01 0-1.005-.841-2.01-2.019-2.01z" fill="url(#qh172tto6c)"/>
    <path d="M138.648 58.448h-35.671v3.35h35.671v-3.35z" fill="url(#l60rqzd4ld)"/>
    <path d="M74.706 58.448h-37.69v3.35h37.69v-3.35z" fill="url(#ccep3o0qve)"/>
    <path d="M138.645 95.291H37.015v3.35h101.63v-3.35z" fill="url(#sakwaluk2f)"/>
    <path d="M38.701 104H28.605V53.088h10.096V104zm-6.73-3.35h3.365V56.438H31.97v44.212z" fill="url(#plutc25afg)"/>
    <path d="M148.068 104h-10.095V53.088h10.095V104zm-6.73-3.35h3.365V56.438h-3.365v44.212z" fill="url(#6w2n2rq2hh)"/>
    <path d="M164.895 79.717h-1.683c-.505 0-.841-.335-.841-.838 0-.502.336-.837.841-.837h1.683c.505 0 .841.335.841.837 0 .503-.336.838-.841.838zm-6.731 0h-1.682c-.505 0-.841-.335-.841-.838 0-.502.336-.837.841-.837h1.682c.505 0 .842.335.842.837 0 .503-.337.838-.842.838zm-6.73 0h-1.683c-.504 0-.841-.335-.841-.838 0-.502.337-.837.841-.837h1.683c.505 0 .841.335.841.837 0 .503-.336.838-.841.838z" fill="url(#2p9nw8ymni)"/>
    <path d="M159.849 69.333c-.337 0-.505-.167-.673-.335-.337-.335-.169-.837.168-1.172l.673-.502c.336-.335.841-.168 1.178.167.336.335.168.838-.169 1.172l-.673.503c-.168 0-.336.167-.504.167z" fill="url(#wr7f3cavcj)"/>
    <path d="M155.471 72.18h-.505c-.504 0-.841-.334-.841-.837 0-.502.337-.837.841-.837h.337l.505-.335c.336-.335.841-.168 1.177.167.337.335.169.838-.168 1.173l-.841.502c-.168.167-.337.167-.505.167z" fill="url(#b4ux4i00qk)"/>
    <path d="M150.593 72.18h-.842c-.504 0-.841-.334-.841-.837 0-.502.337-.837.841-.837h.842c.505 0 .841.335.841.837 0 .503-.336.838-.841.838z" fill="url(#ibc173omrl)"/>
    <path d="M160.522 88.928c-.169 0-.337 0-.505-.168l-.673-.502c-.337-.335-.505-.838-.168-1.173.336-.334.841-.502 1.177-.167l.673.502c.337.335.505.838.169 1.173-.169.167-.337.335-.673.335z" fill="url(#yd8yrlz9um)"/>
    <path d="M156.312 86.08c-.168 0-.336 0-.504-.167l-.505-.335h-.337c-.504 0-.841-.335-.841-.837 0-.503.337-.838.841-.838h.505c.168 0 .337 0 .505.168l.673.502c.336.335.505.838.168 1.173 0 .167-.336.335-.505.335z" fill="url(#084rdpddhn)"/>
    <path d="M150.593 85.578h-.842c-.504 0-.841-.335-.841-.837 0-.503.337-.838.841-.838h.842c.505 0 .841.335.841.838 0 .502-.336.837-.841.837z" fill="url(#do7fl6kwso)"/>
    <path d="M13.798 68.663c-3.028 0-5.384-2.344-5.384-5.359 0-3.014 2.356-5.359 5.384-5.359 3.03 0 5.385 2.345 5.385 5.36 0 3.014-2.524 5.358-5.385 5.358zm0-7.368c-1.177 0-2.019.837-2.019 2.01 0 1.172.842 2.01 2.02 2.01 1.177 0 2.019-.838 2.019-2.01 0-1.005-1.01-2.01-2.02-2.01z" fill="url(#l5e351kalp)"/>
    <path d="M13.798 97.134c-3.028 0-5.384-2.345-5.384-5.36 0-3.014 2.356-5.359 5.384-5.359 3.03 0 5.385 2.345 5.385 5.36 0 3.014-2.524 5.359-5.385 5.359zm0-7.369c-1.177 0-2.019.837-2.019 2.01 0 1.172.842 2.01 2.02 2.01 1.177 0 2.019-.838 2.019-2.01 0-1.005-1.01-2.01-2.02-2.01z" fill="url(#fa30e7jrrq)"/>
    <path d="M5.384 83.736C2.356 83.736 0 81.39 0 78.376c0-3.014 2.356-5.358 5.384-5.358 3.029 0 5.385 2.344 5.385 5.359 0 3.014-2.524 5.359-5.385 5.359zm0-7.369c-1.178 0-2.019.837-2.019 2.01 0 1.172.841 2.01 2.02 2.01 1.177 0 2.018-.838 2.018-2.01 0-1.005-1.01-2.01-2.019-2.01z" fill="url(#xmql6rpwjr)"/>
    <path d="M26.25 79.717h-1.682c-.505 0-.842-.335-.842-.838 0-.502.337-.837.842-.837h1.682c.505 0 .842.335.842.837 0 .503-.337.838-.842.838zm-6.73 0h-1.683c-.505 0-.841-.335-.841-.838 0-.502.337-.837.841-.837h1.683c.505 0 .841.335.841.837 0 .503-.336.838-.841.838zm-6.73 0h-1.683c-.505 0-.841-.335-.841-.838 0-.502.336-.837.84-.837h1.684c.504 0 .84.335.84.837 0 .503-.336.838-.84.838z" fill="url(#tdlz7czavs)"/>
    <path d="M16.154 69.333c-.168 0-.336 0-.504-.167l-.673-.502c-.337-.335-.505-.838-.169-1.173.337-.335.842-.502 1.178-.167l.673.502c.337.335.505.838.169 1.172-.169.168-.505.335-.674.335z" fill="url(#0145hah42t)"/>
    <path d="M21.034 72.18h-.505c-.168 0-.336 0-.504-.167l-.673-.502c-.337-.335-.505-.838-.169-1.173.337-.335.842-.502 1.178-.167l.505.335h.337c.504 0 .84.335.84.837 0 .503-.504.837-1.009.837z" fill="url(#f2xc5nsecu)"/>
    <path d="M26.249 72.18h-.841c-.505 0-.842-.334-.842-.837 0-.502.337-.837.842-.837h.841c.505 0 .841.335.841.837 0 .503-.336.838-.841.838z" fill="url(#gugv44lj4v)"/>
    <path d="M15.482 88.928c-.337 0-.505-.168-.674-.335-.336-.335-.168-.838.169-1.173l.673-.502c.336-.335.841-.168 1.178.167.336.335.168.838-.169 1.173l-.673.502c-.168.168-.336.168-.505.168z" fill="url(#hoj744q3aw)"/>
    <path d="M19.685 86.08c-.337 0-.505-.167-.673-.334-.337-.335-.169-.838.168-1.173l.673-.502c.168-.168.336-.168.505-.168h.504c.505 0 .842.335.842.838 0 .502-.337.837-.842.837h-.336l-.337.335c-.168 0-.336.168-.504.168z" fill="url(#uxq3q6kxox)"/>
    <path d="M26.249 85.578h-.841c-.505 0-.842-.335-.842-.837 0-.503.337-.838.842-.838h.841c.505 0 .841.335.841.838 0 .502-.336.837-.841.837z" fill="url(#b6ijclrbky)"/>
    <path d="M67.642 87.253H44.254v3.35h23.388v-3.35z" fill="url(#omiihmcldz)"/>
    <path d="M133.432 87.253h-23.725v3.35h23.725v-3.35z" fill="url(#90mgu5lxjA)"/>
    <path d="M116.1 56.103h-3.365V3.35H65.959v52.754h-3.365V0H116.1v56.103z" fill="url(#s5617fitsB)"/>
    <path d="M81.943 29.977h-9.76v-9.713h9.76v9.713zm-7.404-2.512h4.712v-4.689h-4.712v4.69z" fill="url(#94t3zhky4C)"/>
    <path d="M94.396 29.977h-9.76v-9.713h9.76v9.713zm-7.404-2.512h4.712v-4.689h-4.712v4.69z" fill="url(#85172n60bD)"/>
    <path d="M106.845 29.977h-9.76v-9.713h9.76v9.713zm-7.403-2.512h4.879v-4.689H99.61v4.69h-.168z" fill="url(#xhlbke9siE)"/>
    <path d="M94.396 41.7h-9.76v-9.713h9.76v9.714zm-7.404-2.511h4.712v-4.69h-4.712v4.69z" fill="url(#2p7wgn7phF)"/>
    <path d="M106.845 41.7h-9.76v-9.713h9.76v9.714zm-7.403-2.511h4.879v-4.69H99.61v4.69h-.168z" fill="url(#uo0rly9f9G)"/>
    <path d="M81.943 18.254h-9.76V8.541h9.76v9.713zm-7.404-2.512h4.712v-4.689h-4.712v4.69z" fill="url(#s6188rpvvH)"/>
    <path d="M94.396 18.254h-9.76V8.541h9.76v9.713zm-7.404-2.512h4.712v-4.689h-4.712v4.69z" fill="url(#82ua5x8b1I)"/>
    <path d="M106.845 18.254h-9.76V8.541h9.76v9.713zm-7.403-2.512h4.879v-4.689H99.61v4.69h-.168z" fill="url(#p2lp0gbqvJ)"/>
    <path d="M60.741 15.24H59.9c-.505 0-.841-.335-.841-.837 0-.503.336-.838.84-.838h.842c.505 0 .842.335.842.838 0 .502-.505.837-.842.837z" fill="url(#1ab5ldyguK)"/>
    <path d="M55.693 15.24h-1.346c-.505 0-.841-.335-.841-.837 0-.503.336-.838.841-.838h1.346c.505 0 .841.335.841.838 0 .502-.336.837-.84.837zm-5.552 0h-1.347c-.504 0-.84-.335-.84-.837 0-.503.336-.838.84-.838h1.347c.504 0 .84.335.84.838 0 .502-.336.837-.84.837z" fill="url(#vvjn2itxlL)"/>
    <path d="M43.748 16.078c-.505 0-.842-.335-.842-.838v-.837c0-.503.337-.838.842-.838h.84c.506 0 .842.335.842.838 0 .502-.336.837-.841.837 0 .503-.505.838-.841.838z" fill="url(#9idy7ir4mM)"/>
    <path d="M43.748 44.38c-.505 0-.842-.335-.842-.837V41.7c0-.502.337-.837.842-.837.504 0 .84.335.84.837v1.843c0 .502-.504.837-.84.837zm0-7.034c-.505 0-.842-.335-.842-.837v-1.842c0-.503.337-.838.842-.838.504 0 .84.335.84.838v1.842c0 .502-.504.837-.84.837zm0-7.201c-.505 0-.842-.335-.842-.837v-1.843c0-.502.337-.837.842-.837.504 0 .84.335.84.837v1.843c0 .502-.504.837-.84.837zm0-7.034c-.505 0-.842-.335-.842-.837v-1.842c0-.503.337-.838.842-.838.504 0 .84.335.84.838v1.842c0 .502-.504.837-.84.837z" fill="url(#fx5hr7wa3N)"/>
    <path d="M43.748 50.577c-.505 0-.842-.335-.842-.838v-.837c0-.503.337-.837.842-.837.504 0 .84.334.84.837v.837c0 .503-.504.838-.84.838z" fill="url(#3zs3ekbp3O)"/>
    <path d="M58.388 41.7h-9.76v-9.88h9.76v9.88zm-7.235-2.511h4.711v-4.69h-4.711v4.69z" fill="url(#vgulnpjciP)"/>
    <path d="M58.388 28.973h-9.76v-9.714h9.76v9.714zm-7.235-2.512h4.711v-4.69h-4.711v4.69z" fill="url(#1en16g704Q)"/>
    <path d="M81.943 41.868h-9.76v-9.713h9.76v9.713zm-7.404-2.512h4.712v-4.69h-4.712v4.69z" fill="url(#cc0pxsdt9R)"/>
    <path d="M118.96 15.24h-.841c-.505 0-.842-.335-.842-.837 0-.503.337-.838.842-.838h.841c.505 0 .841.335.841.838 0 .502-.336.837-.841.837z" fill="url(#v1kevp9q0S)"/>
    <path d="M130.064 15.24h-1.346c-.505 0-.841-.335-.841-.837 0-.503.336-.838.841-.838h1.346c.505 0 .842.335.842.838 0 .502-.337.837-.842.837zm-5.552 0h-1.346c-.505 0-.842-.335-.842-.837 0-.503.337-.838.842-.838h1.346c.504 0 .841.335.841.838 0 .502-.337.837-.841.837z" fill="url(#ct1j2xwzmT)"/>
    <path d="M135.112 16.078c-.504 0-.841-.335-.841-.838-.505 0-.841-.335-.841-.837 0-.503.336-.838.841-.838h.841c.505 0 .842.335.842.838v.837c0 .503-.337.838-.842.838z" fill="url(#8jt3vmrnvU)"/>
    <path d="M135.115 44.38c-.505 0-.842-.335-.842-.837V41.7c0-.502.337-.837.842-.837.505 0 .841.335.841.837v1.843c0 .502-.336.837-.841.837zm0-7.034c-.505 0-.842-.335-.842-.837v-1.842c0-.503.337-.838.842-.838.505 0 .841.335.841.838v1.842c0 .502-.336.837-.841.837zm0-7.201c-.505 0-.842-.335-.842-.837v-1.843c0-.502.337-.837.842-.837.505 0 .841.335.841.837v1.843c0 .502-.336.837-.841.837zm0-7.034c-.505 0-.842-.335-.842-.837v-1.842c0-.503.337-.838.842-.838.505 0 .841.335.841.838v1.842c0 .502-.336.837-.841.837z" fill="url(#qgd32goq2V)"/>
    <path d="M135.115 50.577c-.505 0-.842-.335-.842-.838v-.837c0-.503.337-.837.842-.837.505 0 .841.334.841.837v.837c0 .503-.336.838-.841.838z" fill="url(#8oif5l4rhW)"/>
    <path d="M130.232 41.7h-9.759v-9.88h9.759v9.88zm-7.235-2.511h4.711v-4.69h-4.711v4.69z" fill="url(#rhb6yf21gX)"/>
    <path d="M130.232 28.973h-9.759v-9.714h9.759v9.714zm-7.235-2.512h4.711v-4.69h-4.711v4.69z" fill="url(#vwraztgafY)"/>
    <path d="M85.307 59.118H75.043v-3.35h6.899v-6.866h3.365v10.216z" fill="url(#cz0fqr4o9Z)"/>
    <path d="M104.32 87.085H73.191V56.773l9.591-9.713h21.538v40.025zm-27.763-3.35h24.397V50.578H84.297l-7.572 7.703v25.456h-.168z" fill="url(#ibskvx7rmaa)"/>
    <path d="M96.583 69.501H80.262v3.35h16.32V69.5z" fill="url(#2020w0nuiab)"/>
    <path d="M91.535 75.697H80.262v3.35h11.273v-3.35z" fill="url(#imwz3qn9eac)"/>
    <path d="M96.583 63.137H80.262v3.35h16.32v-3.35z" fill="url(#th2xvu9d6ad)"/>
    <defs>
        <linearGradient id="y65p3nf43a" x1="156.819" y1="71.479" x2="151.706" y2="67.981" gradientUnits="userSpaceOnUse">
            <stop stop-color="#F89705"/>
            <stop offset="1" stop-color="#FFC01E"/>
        </linearGradient>
        <linearGradient id="auhjbdlngb" x1="156.819" y1="99.949" x2="151.706" y2="96.452" gradientUnits="userSpaceOnUse">
            <stop stop-color="#F89705"/>
            <stop offset="1" stop-color="#FFC01E"/>
        </linearGradient>
        <linearGradient id="qh172tto6c" x1="165.229" y1="86.551" x2="160.116" y2="83.054" gradientUnits="userSpaceOnUse">
            <stop stop-color="#F89705"/>
            <stop offset="1" stop-color="#FFC01E"/>
        </linearGradient>
        <linearGradient id="l60rqzd4ld" x1="102.972" y1="62.677" x2="102.508" y2="59.313" gradientUnits="userSpaceOnUse">
            <stop stop-color="#F89705"/>
            <stop offset="1" stop-color="#FFC01E"/>
        </linearGradient>
        <linearGradient id="ccep3o0qve" x1="37.011" y1="62.677" x2="36.571" y2="59.306" gradientUnits="userSpaceOnUse">
            <stop stop-color="#F89705"/>
            <stop offset="1" stop-color="#FFC01E"/>
        </linearGradient>
        <linearGradient id="sakwaluk2f" x1="37.002" y1="99.521" x2="36.836" y2="96.1" gradientUnits="userSpaceOnUse">
            <stop stop-color="#F89705"/>
            <stop offset="1" stop-color="#FFC01E"/>
        </linearGradient>
        <linearGradient id="plutc25afg" x1="28.604" y1="117.374" x2="21.694" y2="116.441" gradientUnits="userSpaceOnUse">
            <stop stop-color="#F89705"/>
            <stop offset="1" stop-color="#FFC01E"/>
        </linearGradient>
        <linearGradient id="6w2n2rq2hh" x1="137.971" y1="117.374" x2="131.061" y2="116.441" gradientUnits="userSpaceOnUse">
            <stop stop-color="#F89705"/>
            <stop offset="1" stop-color="#FFC01E"/>
        </linearGradient>
        <linearGradient id="2p9nw8ymni" x1="148.908" y1="80.157" x2="148.663" y2="78.478" gradientUnits="userSpaceOnUse">
            <stop stop-color="#F89705"/>
            <stop offset="1" stop-color="#FFC01E"/>
        </linearGradient>
        <linearGradient id="wr7f3cavcj" x1="158.992" y1="69.909" x2="157.918" y2="69.114" gradientUnits="userSpaceOnUse">
            <stop stop-color="#F89705"/>
            <stop offset="1" stop-color="#FFC01E"/>
        </linearGradient>
        <linearGradient id="b4ux4i00qk" x1="154.125" y1="72.756" x2="153.004" y2="71.697" gradientUnits="userSpaceOnUse">
            <stop stop-color="#F89705"/>
            <stop offset="1" stop-color="#FFC01E"/>
        </linearGradient>
        <linearGradient id="ibc173omrl" x1="148.91" y1="72.621" x2="148.053" y2="71.741" gradientUnits="userSpaceOnUse">
            <stop stop-color="#F89705"/>
            <stop offset="1" stop-color="#FFC01E"/>
        </linearGradient>
        <linearGradient id="yd8yrlz9um" x1="158.992" y1="89.504" x2="157.918" y2="88.708" gradientUnits="userSpaceOnUse">
            <stop stop-color="#F89705"/>
            <stop offset="1" stop-color="#FFC01E"/>
        </linearGradient>
        <linearGradient id="084rdpddhn" x1="154.125" y1="86.652" x2="153.017" y2="85.656" gradientUnits="userSpaceOnUse">
            <stop stop-color="#F89705"/>
            <stop offset="1" stop-color="#FFC01E"/>
        </linearGradient>
        <linearGradient id="do7fl6kwso" x1="148.91" y1="86.018" x2="148.053" y2="85.139" gradientUnits="userSpaceOnUse">
            <stop stop-color="#F89705"/>
            <stop offset="1" stop-color="#FFC01E"/>
        </linearGradient>
        <linearGradient id="l5e351kalp" x1="8.413" y1="71.479" x2="3.3" y2="67.981" gradientUnits="userSpaceOnUse">
            <stop stop-color="#F89705"/>
            <stop offset="1" stop-color="#FFC01E"/>
        </linearGradient>
        <linearGradient id="fa30e7jrrq" x1="8.413" y1="99.949" x2="3.3" y2="96.452" gradientUnits="userSpaceOnUse">
            <stop stop-color="#F89705"/>
            <stop offset="1" stop-color="#FFC01E"/>
        </linearGradient>
        <linearGradient id="xmql6rpwjr" x1="-.001" y1="86.551" x2="-5.114" y2="83.054" gradientUnits="userSpaceOnUse">
            <stop stop-color="#F89705"/>
            <stop offset="1" stop-color="#FFC01E"/>
        </linearGradient>
        <linearGradient id="tdlz7czavs" x1="10.263" y1="80.157" x2="10.018" y2="78.478" gradientUnits="userSpaceOnUse">
            <stop stop-color="#F89705"/>
            <stop offset="1" stop-color="#FFC01E"/>
        </linearGradient>
        <linearGradient id="0145hah42t" x1="14.625" y1="69.909" x2="13.551" y2="69.114" gradientUnits="userSpaceOnUse">
            <stop stop-color="#F89705"/>
            <stop offset="1" stop-color="#FFC01E"/>
        </linearGradient>
        <linearGradient id="f2xc5nsecu" x1="19" y1="72.756" x2="17.879" y2="71.697" gradientUnits="userSpaceOnUse">
            <stop stop-color="#F89705"/>
            <stop offset="1" stop-color="#FFC01E"/>
        </linearGradient>
        <linearGradient id="gugv44lj4v" x1="24.566" y1="72.621" x2="23.709" y2="71.741" gradientUnits="userSpaceOnUse">
            <stop stop-color="#F89705"/>
            <stop offset="1" stop-color="#FFC01E"/>
        </linearGradient>
        <linearGradient id="hoj744q3aw" x1="14.625" y1="89.504" x2="13.551" y2="88.708" gradientUnits="userSpaceOnUse">
            <stop stop-color="#F89705"/>
            <stop offset="1" stop-color="#FFC01E"/>
        </linearGradient>
        <linearGradient id="uxq3q6kxox" x1="18.828" y1="86.652" x2="17.72" y2="85.656" gradientUnits="userSpaceOnUse">
            <stop stop-color="#F89705"/>
            <stop offset="1" stop-color="#FFC01E"/>
        </linearGradient>
        <linearGradient id="b6ijclrbky" x1="24.566" y1="86.018" x2="23.709" y2="85.139" gradientUnits="userSpaceOnUse">
            <stop stop-color="#F89705"/>
            <stop offset="1" stop-color="#FFC01E"/>
        </linearGradient>
        <linearGradient id="omiihmcldz" x1="44.251" y1="91.482" x2="43.56" y2="88.199" gradientUnits="userSpaceOnUse">
            <stop stop-color="#F89705"/>
            <stop offset="1" stop-color="#FFC01E"/>
        </linearGradient>
        <linearGradient id="90mgu5lxjA" x1="109.704" y1="91.482" x2="109.022" y2="88.195" gradientUnits="userSpaceOnUse">
            <stop stop-color="#F89705"/>
            <stop offset="1" stop-color="#FFC01E"/>
        </linearGradient>
        <linearGradient id="s5617fitsB" x1="62.587" y1="70.841" x2="36.356" y2="53.807" gradientUnits="userSpaceOnUse">
            <stop stop-color="#F89705"/>
            <stop offset="1" stop-color="#FFC01E"/>
        </linearGradient>
        <linearGradient id="94t3zhky4C" x1="72.182" y1="32.529" x2="67.549" y2="29.36" gradientUnits="userSpaceOnUse">
            <stop stop-color="#F89705"/>
            <stop offset="1" stop-color="#FFC01E"/>
        </linearGradient>
        <linearGradient id="85172n60bD" x1="84.635" y1="32.529" x2="80.002" y2="29.36" gradientUnits="userSpaceOnUse">
            <stop stop-color="#F89705"/>
            <stop offset="1" stop-color="#FFC01E"/>
        </linearGradient>
        <linearGradient id="xhlbke9siE" x1="97.085" y1="32.529" x2="92.451" y2="29.36" gradientUnits="userSpaceOnUse">
            <stop stop-color="#F89705"/>
            <stop offset="1" stop-color="#FFC01E"/>
        </linearGradient>
        <linearGradient id="2p7wgn7phF" x1="84.635" y1="44.252" x2="80.002" y2="41.083" gradientUnits="userSpaceOnUse">
            <stop stop-color="#F89705"/>
            <stop offset="1" stop-color="#FFC01E"/>
        </linearGradient>
        <linearGradient id="uo0rly9f9G" x1="97.085" y1="44.252" x2="92.451" y2="41.083" gradientUnits="userSpaceOnUse">
            <stop stop-color="#F89705"/>
            <stop offset="1" stop-color="#FFC01E"/>
        </linearGradient>
        <linearGradient id="s6188rpvvH" x1="72.182" y1="20.806" x2="67.549" y2="17.636" gradientUnits="userSpaceOnUse">
            <stop stop-color="#F89705"/>
            <stop offset="1" stop-color="#FFC01E"/>
        </linearGradient>
        <linearGradient id="82ua5x8b1I" x1="84.635" y1="20.806" x2="80.002" y2="17.636" gradientUnits="userSpaceOnUse">
            <stop stop-color="#F89705"/>
            <stop offset="1" stop-color="#FFC01E"/>
        </linearGradient>
        <linearGradient id="p2lp0gbqvJ" x1="97.085" y1="20.806" x2="92.451" y2="17.636" gradientUnits="userSpaceOnUse">
            <stop stop-color="#F89705"/>
            <stop offset="1" stop-color="#FFC01E"/>
        </linearGradient>
        <linearGradient id="1ab5ldyguK" x1="59.058" y1="15.68" x2="58.202" y2="14.801" gradientUnits="userSpaceOnUse">
            <stop stop-color="#F89705"/>
            <stop offset="1" stop-color="#FFC01E"/>
        </linearGradient>
        <linearGradient id="vvjn2itxlL" x1="47.952" y1="15.68" x2="47.498" y2="14.096" gradientUnits="userSpaceOnUse">
            <stop stop-color="#F89705"/>
            <stop offset="1" stop-color="#FFC01E"/>
        </linearGradient>
        <linearGradient id="9idy7ir4mM" x1="42.906" y1="16.737" x2="41.708" y2="15.918" gradientUnits="userSpaceOnUse">
            <stop stop-color="#F89705"/>
            <stop offset="1" stop-color="#FFC01E"/>
        </linearGradient>
        <linearGradient id="fx5hr7wa3N" x1="42.906" y1="50.891" x2="41.736" y2="50.837" gradientUnits="userSpaceOnUse">
            <stop stop-color="#F89705"/>
            <stop offset="1" stop-color="#FFC01E"/>
        </linearGradient>
        <linearGradient id="3zs3ekbp3O" x1="42.906" y1="51.236" x2="41.935" y2="50.794" gradientUnits="userSpaceOnUse">
            <stop stop-color="#F89705"/>
            <stop offset="1" stop-color="#FFC01E"/>
        </linearGradient>
        <linearGradient id="vgulnpjciP" x1="48.628" y1="44.296" x2="43.944" y2="41.147" gradientUnits="userSpaceOnUse">
            <stop stop-color="#F89705"/>
            <stop offset="1" stop-color="#FFC01E"/>
        </linearGradient>
        <linearGradient id="1en16g704Q" x1="48.628" y1="31.524" x2="43.994" y2="28.355" gradientUnits="userSpaceOnUse">
            <stop stop-color="#F89705"/>
            <stop offset="1" stop-color="#FFC01E"/>
        </linearGradient>
        <linearGradient id="cc0pxsdt9R" x1="72.182" y1="44.42" x2="67.549" y2="41.25" gradientUnits="userSpaceOnUse">
            <stop stop-color="#F89705"/>
            <stop offset="1" stop-color="#FFC01E"/>
        </linearGradient>
        <linearGradient id="v1kevp9q0S" x1="117.277" y1="15.68" x2="116.42" y2="14.801" gradientUnits="userSpaceOnUse">
            <stop stop-color="#F89705"/>
            <stop offset="1" stop-color="#FFC01E"/>
        </linearGradient>
        <linearGradient id="ct1j2xwzmT" x1="122.323" y1="15.68" x2="121.869" y2="14.096" gradientUnits="userSpaceOnUse">
            <stop stop-color="#F89705"/>
            <stop offset="1" stop-color="#FFC01E"/>
        </linearGradient>
        <linearGradient id="8jt3vmrnvU" x1="133.429" y1="16.737" x2="132.231" y2="15.918" gradientUnits="userSpaceOnUse">
            <stop stop-color="#F89705"/>
            <stop offset="1" stop-color="#FFC01E"/>
        </linearGradient>
        <linearGradient id="qgd32goq2V" x1="134.273" y1="50.891" x2="133.103" y2="50.837" gradientUnits="userSpaceOnUse">
            <stop stop-color="#F89705"/>
            <stop offset="1" stop-color="#FFC01E"/>
        </linearGradient>
        <linearGradient id="8oif5l4rhW" x1="134.273" y1="51.236" x2="133.302" y2="50.794" gradientUnits="userSpaceOnUse">
            <stop stop-color="#F89705"/>
            <stop offset="1" stop-color="#FFC01E"/>
        </linearGradient>
        <linearGradient id="rhb6yf21gX" x1="120.471" y1="44.296" x2="115.788" y2="41.147" gradientUnits="userSpaceOnUse">
            <stop stop-color="#F89705"/>
            <stop offset="1" stop-color="#FFC01E"/>
        </linearGradient>
        <linearGradient id="vwraztgafY" x1="120.471" y1="31.524" x2="115.838" y2="28.355" gradientUnits="userSpaceOnUse">
            <stop stop-color="#F89705"/>
            <stop offset="1" stop-color="#FFC01E"/>
        </linearGradient>
        <linearGradient id="cz0fqr4o9Z" x1="75.042" y1="61.801" x2="70.169" y2="58.468" gradientUnits="userSpaceOnUse">
            <stop stop-color="#F89705"/>
            <stop offset="1" stop-color="#FFC01E"/>
        </linearGradient>
        <linearGradient id="ibskvx7rmaa" x1="73.187" y1="97.6" x2="56.243" y2="88.627" gradientUnits="userSpaceOnUse">
            <stop stop-color="#F89705"/>
            <stop offset="1" stop-color="#FFC01E"/>
        </linearGradient>
        <linearGradient id="2020w0nuiab" x1="80.26" y1="73.73" x2="79.312" y2="70.587" gradientUnits="userSpaceOnUse">
            <stop stop-color="#F89705"/>
            <stop offset="1" stop-color="#FFC01E"/>
        </linearGradient>
        <linearGradient id="imwz3qn9eac" x1="80.26" y1="79.927" x2="79.004" y2="77.047" gradientUnits="userSpaceOnUse">
            <stop stop-color="#F89705"/>
            <stop offset="1" stop-color="#FFC01E"/>
        </linearGradient>
        <linearGradient id="th2xvu9d6ad" x1="80.26" y1="67.366" x2="79.312" y2="64.223" gradientUnits="userSpaceOnUse">
            <stop stop-color="#F89705"/>
            <stop offset="1" stop-color="#FFC01E"/>
        </linearGradient>
    </defs>
</svg>
