<svg xmlns="http://www.w3.org/2000/svg" version="1.1" xmlns:xlink="http://www.w3.org/1999/xlink" xmlns:svgjs="http://svgjs.dev/svgjs" width="2000" height="207" viewBox="0 0 2000 207"><g transform="matrix(1,0,0,1,-1.2121212121212466,-0.49452345969375244)"><svg viewBox="0 0 396 41" data-background-color="#121212" preserveAspectRatio="xMidYMid meet" height="207" width="2000" xmlns="http://www.w3.org/2000/svg" xmlns:xlink="http://www.w3.org/1999/xlink"><g id="tight-bounds" transform="matrix(1,0,0,1,0.2400000000000091,0.09794909105045235)"><svg viewBox="0 0 395.52 40.80410181789912" height="40.80410181789912" width="395.52"><g><svg viewBox="0 0 446.9374966488257 46.10862439192868" height="40.80410181789912" width="395.52"><g transform="matrix(1,0,0,1,49.43989664882575,5.442156202103117)"><svg viewBox="0 0 397.4975999999999 35.224311987722444" height="35.224311987722444" width="397.4975999999999"><g id="textblocktransform"><svg viewBox="0 0 397.4975999999999 35.224311987722444" height="35.224311987722444" width="397.4975999999999" id="textblock"><g><rect width="397.4975999999999" height="1.2721046799673468" x="0" y="18.347532225306118" fill="#ffffff" opacity="1" stroke-width="0" stroke="transparent" fill-opacity="1" class="rect-yte-0" data-fill-palette-color="primary" rx="1%" id="yte-0" data-palette-color="#ffffff"></rect></g><g transform="matrix(1,0,0,1,0.9887999999999693,0)"><svg viewBox="0 0 395.52 16.84897959183673" height="16.84897959183673" width="395.52"><g transform="matrix(1,0,0,1,0,0)"><svg width="395.52" viewBox="-2.1 -39.5 1010.32 44" height="16.84897959183673" data-palette-color="#ffffff"><path d="M14.75 0.5L14.75 0.5Q12.2 0.5 9.93-0.15 7.65-0.8 5.88-2.1 4.1-3.4 3.05-5.4 2-7.4 1.9-10.1L1.9-10.1Q1.9-10.55 2.2-10.88 2.5-11.2 3-11.2L3-11.2 5.7-11.2Q6.25-11.2 6.58-10.88 6.9-10.55 7-10.05L7-10.05Q7.2-7.8 8.3-6.43 9.4-5.05 11.1-4.4 12.8-3.75 14.85-3.75L14.85-3.75Q18.65-3.75 20.65-6.25 22.65-8.75 22.65-12.9L22.65-12.9 22.65-30.65 4.9-30.65Q4.4-30.65 4.08-30.98 3.75-31.3 3.75-31.8L3.75-31.8 3.75-33.85Q3.75-34.35 4.08-34.68 4.4-35 4.9-35L4.9-35 26.45-35Q27-35 27.33-34.68 27.65-34.35 27.65-33.8L27.65-33.8 27.65-12.8Q27.65-8.75 26.1-5.75 24.55-2.75 21.7-1.13 18.85 0.5 14.75 0.5ZM48.65 0.5L48.65 0.5Q44.35 0.5 41.3-0.98 38.25-2.45 36.6-5.53 34.95-8.6 34.75-13.25L34.75-13.25Q34.7-15.45 34.7-17.48 34.7-19.5 34.75-21.7L34.75-21.7Q34.95-26.3 36.67-29.38 38.4-32.45 41.47-33.98 44.55-35.5 48.65-35.5L48.65-35.5Q52.7-35.5 55.77-33.98 58.85-32.45 60.6-29.38 62.35-26.3 62.5-21.7L62.5-21.7Q62.6-19.5 62.6-17.48 62.6-15.45 62.5-13.25L62.5-13.25Q62.35-8.6 60.67-5.53 59-2.45 55.95-0.98 52.9 0.5 48.65 0.5ZM48.65-3.75L48.65-3.75Q52.45-3.75 54.87-6.05 57.3-8.35 57.5-13.5L57.5-13.5Q57.6-15.75 57.6-17.53 57.6-19.3 57.5-21.5L57.5-21.5Q57.4-24.95 56.22-27.1 55.05-29.25 53.1-30.25 51.15-31.25 48.65-31.25L48.65-31.25Q46.15-31.25 44.2-30.25 42.25-29.25 41.07-27.1 39.9-24.95 39.75-21.5L39.75-21.5Q39.7-19.3 39.7-17.53 39.7-15.75 39.75-13.5L39.75-13.5Q39.95-8.35 42.4-6.05 44.85-3.75 48.65-3.75ZM92.09 0L71.05 0Q70.5 0 70.2-0.33 69.89-0.65 69.89-1.15L69.89-1.15 69.89-33.8Q69.89-34.35 70.2-34.68 70.5-35 71.05-35L71.05-35 91.7-35Q92.25-35 92.55-34.68 92.84-34.35 92.84-33.8L92.84-33.8 92.84-31.9Q92.84-31.35 92.55-31.05 92.25-30.75 91.7-30.75L91.7-30.75 74.7-30.75 74.7-19.8 90.59-19.8Q91.15-19.8 91.45-19.48 91.75-19.15 91.75-18.6L91.75-18.6 91.75-16.75Q91.75-16.25 91.45-15.93 91.15-15.6 90.59-15.6L90.59-15.6 74.7-15.6 74.7-4.25 92.09-4.25Q92.65-4.25 92.95-3.95 93.25-3.65 93.25-3.1L93.25-3.1 93.25-1.15Q93.25-0.65 92.95-0.33 92.65 0 92.09 0L92.09 0ZM116.04 0L113.59 0Q113.09 0 112.77-0.33 112.44-0.65 112.44-1.15L112.44-1.15 112.44-33.8Q112.44-34.35 112.77-34.68 113.09-35 113.59-35L113.59-35 116.09-35Q116.69-35 116.99-34.7 117.29-34.4 117.39-34.2L117.39-34.2 127.94-14 138.59-34.2Q138.69-34.4 138.97-34.7 139.24-35 139.84-35L139.84-35 142.29-35Q142.84-35 143.17-34.68 143.49-34.35 143.49-33.8L143.49-33.8 143.49-1.15Q143.49-0.65 143.17-0.33 142.84 0 142.29 0L142.29 0 139.84 0Q139.34 0 139.02-0.33 138.69-0.65 138.69-1.15L138.69-1.15 138.69-25.75 130.34-9.45Q130.14-8.95 129.74-8.68 129.34-8.4 128.74-8.4L128.74-8.4 127.19-8.4Q126.54-8.4 126.19-8.68 125.84-8.95 125.59-9.45L125.59-9.45 117.19-25.75 117.19-1.15Q117.19-0.65 116.87-0.33 116.54 0 116.04 0L116.04 0ZM174.34 0L153.29 0Q152.74 0 152.44-0.33 152.14-0.65 152.14-1.15L152.14-1.15 152.14-33.8Q152.14-34.35 152.44-34.68 152.74-35 153.29-35L153.29-35 173.94-35Q174.49-35 174.79-34.68 175.09-34.35 175.09-33.8L175.09-33.8 175.09-31.9Q175.09-31.35 174.79-31.05 174.49-30.75 173.94-30.75L173.94-30.75 156.94-30.75 156.94-19.8 172.84-19.8Q173.39-19.8 173.69-19.48 173.99-19.15 173.99-18.6L173.99-18.6 173.99-16.75Q173.99-16.25 173.69-15.93 173.39-15.6 172.84-15.6L172.84-15.6 156.94-15.6 156.94-4.25 174.34-4.25Q174.89-4.25 175.19-3.95 175.49-3.65 175.49-3.1L175.49-3.1 175.49-1.15Q175.49-0.65 175.19-0.33 174.89 0 174.34 0L174.34 0ZM185.99 0L183.59 0Q183.04 0 182.74-0.33 182.44-0.65 182.44-1.15L182.44-1.15 182.44-33.8Q182.44-34.35 182.74-34.68 183.04-35 183.59-35L183.59-35 185.89-35Q186.49-35 186.79-34.73 187.09-34.45 187.14-34.3L187.14-34.3 203.74-8.8 203.74-33.8Q203.74-34.35 204.04-34.68 204.34-35 204.89-35L204.89-35 207.29-35Q207.84-35 208.16-34.68 208.49-34.35 208.49-33.8L208.49-33.8 208.49-1.2Q208.49-0.7 208.16-0.35 207.84 0 207.34 0L207.34 0 204.94 0Q204.39 0 204.11-0.3 203.84-0.6 203.74-0.7L203.74-0.7 187.19-25.95 187.19-1.15Q187.19-0.65 186.86-0.33 186.54 0 185.99 0L185.99 0ZM229.93 0L218.33 0Q217.78 0 217.48-0.33 217.18-0.65 217.18-1.15L217.18-1.15 217.18-33.8Q217.18-34.35 217.48-34.68 217.78-35 218.33-35L218.33-35 229.68-35Q234.83-35 237.98-33.45 241.13-31.9 242.58-28.88 244.03-25.85 244.08-21.45L244.08-21.45Q244.13-19.2 244.13-17.5 244.13-15.8 244.08-13.6L244.08-13.6Q243.98-9 242.56-5.98 241.13-2.95 238.06-1.48 234.98 0 229.93 0L229.93 0ZM222.08-30.75L222.08-4.25 229.68-4.25Q233.13-4.25 235.18-5.2 237.23-6.15 238.16-8.25 239.08-10.35 239.13-13.8L239.13-13.8Q239.23-15.3 239.23-16.43 239.23-17.55 239.23-18.68 239.23-19.8 239.13-21.25L239.13-21.25Q239.03-26.1 236.83-28.43 234.63-30.75 229.43-30.75L229.43-30.75 222.08-30.75ZM273.83 0L252.78 0Q252.23 0 251.93-0.33 251.63-0.65 251.63-1.15L251.63-1.15 251.63-33.8Q251.63-34.35 251.93-34.68 252.23-35 252.78-35L252.78-35 273.43-35Q273.98-35 274.28-34.68 274.58-34.35 274.58-33.8L274.58-33.8 274.58-31.9Q274.58-31.35 274.28-31.05 273.98-30.75 273.43-30.75L273.43-30.75 256.43-30.75 256.43-19.8 272.33-19.8Q272.88-19.8 273.18-19.48 273.48-19.15 273.48-18.6L273.48-18.6 273.48-16.75Q273.48-16.25 273.18-15.93 272.88-15.6 272.33-15.6L272.33-15.6 256.43-15.6 256.43-4.25 273.83-4.25Q274.38-4.25 274.68-3.95 274.98-3.65 274.98-3.1L274.98-3.1 274.98-1.15Q274.98-0.65 274.68-0.33 274.38 0 273.83 0L273.83 0ZM304.38 0L280.78 0Q280.23 0 279.93-0.35 279.63-0.7 279.63-1.2L279.63-1.2 279.63-3.35Q279.63-4.1 279.93-4.55 280.23-5 280.38-5.2L280.38-5.2 298.98-30.65 281.23-30.65Q280.73-30.65 280.4-30.98 280.08-31.3 280.08-31.8L280.08-31.8 280.08-33.8Q280.08-34.35 280.4-34.68 280.73-35 281.23-35L281.23-35 303.88-35Q304.43-35 304.75-34.68 305.08-34.35 305.08-33.8L305.08-33.8 305.08-31.65Q305.08-31.05 304.88-30.65 304.68-30.25 304.43-29.9L304.43-29.9 285.98-4.35 304.38-4.35Q304.93-4.35 305.25-4.03 305.58-3.7 305.58-3.15L305.58-3.15 305.58-1.15Q305.58-0.65 305.25-0.33 304.93 0 304.38 0L304.38 0ZM327.18-12.9L312.18-12.9Q311.68-12.9 311.35-13.23 311.03-13.55 311.03-14.05L311.03-14.05 311.03-15.95Q311.03-16.45 311.35-16.78 311.68-17.1 312.18-17.1L312.18-17.1 327.18-17.1Q327.73-17.1 328.03-16.78 328.33-16.45 328.33-15.95L328.33-15.95 328.33-14.05Q328.33-13.55 328.03-13.23 327.73-12.9 327.18-12.9L327.18-12.9ZM339.82 0L337.27 0Q336.72 0 336.42-0.33 336.12-0.65 336.12-1.15L336.12-1.15 336.12-33.8Q336.12-34.35 336.42-34.68 336.72-35 337.27-35L337.27-35 339.82-35Q340.37-35 340.7-34.68 341.02-34.35 341.02-33.8L341.02-33.8 341.02-20 358.22-20 358.22-33.8Q358.22-34.35 358.55-34.68 358.87-35 359.37-35L359.37-35 361.92-35Q362.47-35 362.8-34.68 363.12-34.35 363.12-33.8L363.12-33.8 363.12-1.15Q363.12-0.65 362.8-0.33 362.47 0 361.92 0L361.92 0 359.37 0Q358.87 0 358.55-0.33 358.22-0.65 358.22-1.15L358.22-1.15 358.22-15.5 341.02-15.5 341.02-1.15Q341.02-0.65 340.7-0.33 340.37 0 339.82 0L339.82 0ZM385.02 0.5L385.02 0.5Q380.82 0.5 377.8-1 374.77-2.5 373.15-5.58 371.52-8.65 371.52-13.5L371.52-13.5 371.52-33.8Q371.52-34.35 371.82-34.68 372.12-35 372.67-35L372.67-35 375.22-35Q375.77-35 376.1-34.68 376.42-34.35 376.42-33.8L376.42-33.8 376.42-13.4Q376.42-8.5 378.72-6.15 381.02-3.8 385.02-3.8L385.02-3.8Q388.97-3.8 391.3-6.15 393.62-8.5 393.62-13.4L393.62-13.4 393.62-33.8Q393.62-34.35 393.95-34.68 394.27-35 394.77-35L394.77-35 397.37-35Q397.87-35 398.2-34.68 398.52-34.35 398.52-33.8L398.52-33.8 398.52-13.5Q398.52-8.65 396.9-5.58 395.27-2.5 392.27-1 389.27 0.5 385.02 0.5ZM419.62 0.5L419.62 0.5Q415.17 0.5 412.09-1.15 409.02-2.8 407.39-5.8 405.77-8.8 405.57-12.85L405.57-12.85Q405.52-15.05 405.52-17.53 405.52-20 405.57-22.25L405.57-22.25Q405.77-26.3 407.39-29.28 409.02-32.25 412.12-33.88 415.22-35.5 419.62-35.5L419.62-35.5Q423.12-35.5 425.72-34.5 428.32-33.5 429.99-31.98 431.67-30.45 432.49-28.8 433.32-27.15 433.37-25.9L433.37-25.9Q433.42-25.45 433.12-25.18 432.82-24.9 432.32-24.9L432.32-24.9 429.37-24.9Q428.87-24.9 428.64-25.1 428.42-25.3 428.22-25.8L428.22-25.8Q427.77-27.1 426.74-28.35 425.72-29.6 423.99-30.43 422.27-31.25 419.62-31.25L419.62-31.25Q415.62-31.25 413.19-29.1 410.77-26.95 410.57-22L410.57-22Q410.42-17.55 410.57-13.1L410.57-13.1Q410.77-8.1 413.22-5.93 415.67-3.75 419.62-3.75L419.62-3.75Q422.27-3.75 424.34-4.75 426.42-5.75 427.62-7.78 428.82-9.8 428.82-12.95L428.82-12.95 428.82-15.05 421.32-15.05Q420.82-15.05 420.49-15.38 420.17-15.7 420.17-16.25L420.17-16.25 420.17-17.85Q420.17-18.4 420.49-18.73 420.82-19.05 421.32-19.05L421.32-19.05 432.62-19.05Q433.17-19.05 433.47-18.73 433.77-18.4 433.77-17.85L433.77-17.85 433.77-13.05Q433.77-8.95 432.09-5.9 430.42-2.85 427.22-1.18 424.02 0.5 419.62 0.5ZM444.62 0L442.07 0Q441.52 0 441.22-0.33 440.92-0.65 440.92-1.15L440.92-1.15 440.92-33.8Q440.92-34.35 441.22-34.68 441.52-35 442.07-35L442.07-35 444.62-35Q445.17-35 445.49-34.68 445.82-34.35 445.82-33.8L445.82-33.8 445.82-20 463.02-20 463.02-33.8Q463.02-34.35 463.34-34.68 463.67-35 464.17-35L464.17-35 466.72-35Q467.27-35 467.59-34.68 467.92-34.35 467.92-33.8L467.92-33.8 467.92-1.15Q467.92-0.65 467.59-0.33 467.27 0 466.72 0L466.72 0 464.17 0Q463.67 0 463.34-0.33 463.02-0.65 463.02-1.15L463.02-1.15 463.02-15.5 445.82-15.5 445.82-1.15Q445.82-0.65 445.49-0.33 445.17 0 444.62 0L444.62 0ZM498.81 0L477.76 0Q477.21 0 476.91-0.33 476.61-0.65 476.61-1.15L476.61-1.15 476.61-33.8Q476.61-34.35 476.91-34.68 477.21-35 477.76-35L477.76-35 498.41-35Q498.96-35 499.26-34.68 499.56-34.35 499.56-33.8L499.56-33.8 499.56-31.9Q499.56-31.35 499.26-31.05 498.96-30.75 498.41-30.75L498.41-30.75 481.41-30.75 481.41-19.8 497.31-19.8Q497.86-19.8 498.16-19.48 498.46-19.15 498.46-18.6L498.46-18.6 498.46-16.75Q498.46-16.25 498.16-15.93 497.86-15.6 497.31-15.6L497.31-15.6 481.41-15.6 481.41-4.25 498.81-4.25Q499.36-4.25 499.66-3.95 499.96-3.65 499.96-3.1L499.96-3.1 499.96-1.15Q499.96-0.65 499.66-0.33 499.36 0 498.81 0L498.81 0ZM518.16 0.5L518.16 0.5Q513.81 0.5 510.86-0.85 507.91-2.2 506.34-4.33 504.76-6.45 504.66-8.8L504.66-8.8Q504.66-9.2 504.99-9.53 505.31-9.85 505.76-9.85L505.76-9.85 508.31-9.85Q508.91-9.85 509.21-9.55 509.51-9.25 509.61-8.85L509.61-8.85Q509.91-7.65 510.86-6.48 511.81-5.3 513.59-4.53 515.36-3.75 518.16-3.75L518.16-3.75Q522.46-3.75 524.49-5.28 526.51-6.8 526.51-9.35L526.51-9.35Q526.51-11.1 525.44-12.18 524.36-13.25 522.16-14.1 519.96-14.95 516.46-15.95L516.46-15.95Q512.81-17 510.41-18.25 508.01-19.5 506.84-21.35 505.66-23.2 505.66-26.05L505.66-26.05Q505.66-28.75 507.11-30.88 508.56-33 511.31-34.25 514.06-35.5 517.91-35.5L517.91-35.5Q521.01-35.5 523.34-34.68 525.66-33.85 527.21-32.48 528.76-31.1 529.56-29.53 530.36-27.95 530.41-26.45L530.41-26.45Q530.41-26.1 530.16-25.78 529.91-25.45 529.36-25.45L529.36-25.45 526.71-25.45Q526.36-25.45 525.99-25.65 525.61-25.85 525.41-26.4L525.41-26.4Q525.11-28.45 523.11-29.85 521.11-31.25 517.91-31.25L517.91-31.25Q514.66-31.25 512.64-30 510.61-28.75 510.61-26.1L510.61-26.1Q510.61-24.4 511.56-23.28 512.51-22.15 514.56-21.3 516.61-20.45 519.91-19.5L519.91-19.5Q523.91-18.4 526.46-17.18 529.01-15.95 530.24-14.13 531.46-12.3 531.46-9.45L531.46-9.45Q531.46-6.3 529.81-4.08 528.16-1.85 525.19-0.68 522.21 0.5 518.16 0.5ZM541.86-17.5L538.26-17.5Q537.76-17.5 537.43-17.82 537.11-18.15 537.11-18.65L537.11-18.65 537.11-22.15Q537.11-22.65 537.43-22.98 537.76-23.3 538.26-23.3L538.26-23.3 541.86-23.3Q542.36-23.3 542.68-22.98 543.01-22.65 543.01-22.15L543.01-22.15 543.01-18.65Q543.01-18.15 542.68-17.82 542.36-17.5 541.86-17.5L541.86-17.5ZM541.86 0L538.26 0Q537.76 0 537.43-0.33 537.11-0.65 537.11-1.15L537.11-1.15 537.11-4.65Q537.11-5.15 537.43-5.48 537.76-5.8 538.26-5.8L538.26-5.8 541.86-5.8Q542.36-5.8 542.68-5.48 543.01-5.15 543.01-4.65L543.01-4.65 543.01-1.15Q543.01-0.65 542.68-0.33 542.36 0 541.86 0L541.86 0ZM575.8 0L564.2 0Q563.65 0 563.35-0.33 563.05-0.65 563.05-1.15L563.05-1.15 563.05-33.8Q563.05-34.35 563.35-34.68 563.65-35 564.2-35L564.2-35 575.55-35Q580.7-35 583.85-33.45 587-31.9 588.45-28.88 589.9-25.85 589.95-21.45L589.95-21.45Q590-19.2 590-17.5 590-15.8 589.95-13.6L589.95-13.6Q589.85-9 588.43-5.98 587-2.95 583.93-1.48 580.85 0 575.8 0L575.8 0ZM567.95-30.75L567.95-4.25 575.55-4.25Q579-4.25 581.05-5.2 583.1-6.15 584.03-8.25 584.95-10.35 585-13.8L585-13.8Q585.1-15.3 585.1-16.43 585.1-17.55 585.1-18.68 585.1-19.8 585-21.25L585-21.25Q584.9-26.1 582.7-28.43 580.5-30.75 575.3-30.75L575.3-30.75 567.95-30.75ZM619.7 0L598.65 0Q598.1 0 597.8-0.33 597.5-0.65 597.5-1.15L597.5-1.15 597.5-33.8Q597.5-34.35 597.8-34.68 598.1-35 598.65-35L598.65-35 619.3-35Q619.85-35 620.15-34.68 620.45-34.35 620.45-33.8L620.45-33.8 620.45-31.9Q620.45-31.35 620.15-31.05 619.85-30.75 619.3-30.75L619.3-30.75 602.3-30.75 602.3-19.8 618.2-19.8Q618.75-19.8 619.05-19.48 619.35-19.15 619.35-18.6L619.35-18.6 619.35-16.75Q619.35-16.25 619.05-15.93 618.75-15.6 618.2-15.6L618.2-15.6 602.3-15.6 602.3-4.25 619.7-4.25Q620.25-4.25 620.55-3.95 620.85-3.65 620.85-3.1L620.85-3.1 620.85-1.15Q620.85-0.65 620.55-0.33 620.25 0 619.7 0L619.7 0ZM641.45 0L638.2 0Q637.45 0 637.02-0.35 636.6-0.7 636.35-1.3L636.35-1.3 625.2-33.45Q625.1-33.75 625.1-34L625.1-34Q625.1-34.4 625.4-34.7 625.7-35 626.1-35L626.1-35 628.7-35Q629.3-35 629.62-34.68 629.95-34.35 630.05-34.1L630.05-34.1 639.8-5.75 649.6-34.1Q649.7-34.35 650-34.68 650.3-35 650.9-35L650.9-35 653.5-35Q653.9-35 654.22-34.7 654.55-34.4 654.55-34L654.55-34Q654.55-33.75 654.45-33.45L654.45-33.45 643.25-1.3Q643.05-0.7 642.62-0.35 642.2 0 641.45 0L641.45 0ZM673.14 0.5L673.14 0.5Q668.84 0.5 665.79-0.98 662.74-2.45 661.09-5.53 659.44-8.6 659.24-13.25L659.24-13.25Q659.19-15.45 659.19-17.48 659.19-19.5 659.24-21.7L659.24-21.7Q659.44-26.3 661.17-29.38 662.89-32.45 665.97-33.98 669.04-35.5 673.14-35.5L673.14-35.5Q677.19-35.5 680.27-33.98 683.34-32.45 685.09-29.38 686.84-26.3 686.99-21.7L686.99-21.7Q687.09-19.5 687.09-17.48 687.09-15.45 686.99-13.25L686.99-13.25Q686.84-8.6 685.17-5.53 683.49-2.45 680.44-0.98 677.39 0.5 673.14 0.5ZM673.14-3.75L673.14-3.75Q676.94-3.75 679.37-6.05 681.79-8.35 681.99-13.5L681.99-13.5Q682.09-15.75 682.09-17.53 682.09-19.3 681.99-21.5L681.99-21.5Q681.89-24.95 680.72-27.1 679.54-29.25 677.59-30.25 675.64-31.25 673.14-31.25L673.14-31.25Q670.64-31.25 668.69-30.25 666.74-29.25 665.57-27.1 664.39-24.95 664.24-21.5L664.24-21.5Q664.19-19.3 664.19-17.53 664.19-15.75 664.24-13.5L664.24-13.5Q664.44-8.35 666.89-6.05 669.34-3.75 673.14-3.75ZM698.19 0L695.54 0Q694.99 0 694.69-0.33 694.39-0.65 694.39-1.15L694.39-1.15 694.39-33.8Q694.39-34.35 694.69-34.68 694.99-35 695.54-35L695.54-35 708.24-35Q711.94-35 714.67-33.8 717.39-32.6 718.89-30.23 720.39-27.85 720.39-24.3L720.39-24.3Q720.39-20.75 718.89-18.4 717.39-16.05 714.67-14.85 711.94-13.65 708.24-13.65L708.24-13.65 699.39-13.65 699.39-1.15Q699.39-0.65 699.07-0.33 698.74 0 698.19 0L698.19 0ZM699.34-30.8L699.34-17.85 707.99-17.85Q711.69-17.85 713.54-19.5 715.39-21.15 715.39-24.3L715.39-24.3Q715.39-27.4 713.59-29.1 711.79-30.8 707.99-30.8L707.99-30.8 699.34-30.8ZM737.74 0.5L737.74 0.5Q733.39 0.5 730.44-0.85 727.49-2.2 725.91-4.33 724.34-6.45 724.24-8.8L724.24-8.8Q724.24-9.2 724.56-9.53 724.89-9.85 725.34-9.85L725.34-9.85 727.89-9.85Q728.49-9.85 728.79-9.55 729.09-9.25 729.19-8.85L729.19-8.85Q729.49-7.65 730.44-6.48 731.39-5.3 733.16-4.53 734.94-3.75 737.74-3.75L737.74-3.75Q742.04-3.75 744.06-5.28 746.09-6.8 746.09-9.35L746.09-9.35Q746.09-11.1 745.01-12.18 743.94-13.25 741.74-14.1 739.54-14.95 736.04-15.95L736.04-15.95Q732.39-17 729.99-18.25 727.59-19.5 726.41-21.35 725.24-23.2 725.24-26.05L725.24-26.05Q725.24-28.75 726.69-30.88 728.14-33 730.89-34.25 733.64-35.5 737.49-35.5L737.49-35.5Q740.59-35.5 742.91-34.68 745.24-33.85 746.79-32.48 748.34-31.1 749.14-29.53 749.94-27.95 749.99-26.45L749.99-26.45Q749.99-26.1 749.74-25.78 749.49-25.45 748.94-25.45L748.94-25.45 746.29-25.45Q745.94-25.45 745.56-25.65 745.19-25.85 744.99-26.4L744.99-26.4Q744.69-28.45 742.69-29.85 740.69-31.25 737.49-31.25L737.49-31.25Q734.24-31.25 732.21-30 730.19-28.75 730.19-26.1L730.19-26.1Q730.19-24.4 731.14-23.28 732.09-22.15 734.14-21.3 736.19-20.45 739.49-19.5L739.49-19.5Q743.49-18.4 746.04-17.18 748.59-15.95 749.81-14.13 751.04-12.3 751.04-9.45L751.04-9.45Q751.04-6.3 749.39-4.08 747.74-1.85 744.76-0.68 741.79 0.5 737.74 0.5ZM792.03 0L770.98 0Q770.43 0 770.13-0.33 769.83-0.65 769.83-1.15L769.83-1.15 769.83-33.8Q769.83-34.35 770.13-34.68 770.43-35 770.98-35L770.98-35 791.63-35Q792.18-35 792.48-34.68 792.78-34.35 792.78-33.8L792.78-33.8 792.78-31.9Q792.78-31.35 792.48-31.05 792.18-30.75 791.63-30.75L791.63-30.75 774.63-30.75 774.63-19.8 790.53-19.8Q791.08-19.8 791.38-19.48 791.68-19.15 791.68-18.6L791.68-18.6 791.68-16.75Q791.68-16.25 791.38-15.93 791.08-15.6 790.53-15.6L790.53-15.6 774.63-15.6 774.63-4.25 792.03-4.25Q792.58-4.25 792.88-3.95 793.18-3.65 793.18-3.1L793.18-3.1 793.18-1.15Q793.18-0.65 792.88-0.33 792.58 0 792.03 0L792.03 0ZM803.68 0L801.28 0Q800.73 0 800.43-0.33 800.13-0.65 800.13-1.15L800.13-1.15 800.13-33.8Q800.13-34.35 800.43-34.68 800.73-35 801.28-35L801.28-35 803.58-35Q804.18-35 804.48-34.73 804.78-34.45 804.83-34.3L804.83-34.3 821.43-8.8 821.43-33.8Q821.43-34.35 821.73-34.68 822.03-35 822.58-35L822.58-35 824.98-35Q825.53-35 825.86-34.68 826.18-34.35 826.18-33.8L826.18-33.8 826.18-1.2Q826.18-0.7 825.86-0.35 825.53 0 825.03 0L825.03 0 822.63 0Q822.08 0 821.81-0.3 821.53-0.6 821.43-0.7L821.43-0.7 804.88-25.95 804.88-1.15Q804.88-0.65 804.56-0.33 804.23 0 803.68 0L803.68 0ZM847.63 0.5L847.63 0.5Q843.18 0.5 840.1-1.15 837.03-2.8 835.4-5.8 833.78-8.8 833.58-12.85L833.58-12.85Q833.53-15.05 833.53-17.53 833.53-20 833.58-22.25L833.58-22.25Q833.78-26.3 835.4-29.28 837.03-32.25 840.13-33.88 843.23-35.5 847.63-35.5L847.63-35.5Q851.13-35.5 853.73-34.5 856.33-33.5 858-31.98 859.68-30.45 860.5-28.8 861.33-27.15 861.38-25.9L861.38-25.9Q861.43-25.45 861.13-25.18 860.83-24.9 860.33-24.9L860.33-24.9 857.38-24.9Q856.88-24.9 856.65-25.1 856.43-25.3 856.23-25.8L856.23-25.8Q855.78-27.1 854.75-28.35 853.73-29.6 852-30.43 850.28-31.25 847.63-31.25L847.63-31.25Q843.63-31.25 841.2-29.1 838.78-26.95 838.58-22L838.58-22Q838.43-17.55 838.58-13.1L838.58-13.1Q838.78-8.1 841.23-5.93 843.68-3.75 847.63-3.75L847.63-3.75Q850.28-3.75 852.35-4.75 854.43-5.75 855.63-7.78 856.83-9.8 856.83-12.95L856.83-12.95 856.83-15.05 849.33-15.05Q848.83-15.05 848.5-15.38 848.18-15.7 848.18-16.25L848.18-16.25 848.18-17.85Q848.18-18.4 848.5-18.73 848.83-19.05 849.33-19.05L849.33-19.05 860.63-19.05Q861.18-19.05 861.48-18.73 861.78-18.4 861.78-17.85L861.78-17.85 861.78-13.05Q861.78-8.95 860.1-5.9 858.43-2.85 855.23-1.18 852.03 0.5 847.63 0.5ZM872.73 0L870.08 0Q869.53 0 869.23-0.33 868.93-0.65 868.93-1.15L868.93-1.15 868.93-33.85Q868.93-34.35 869.23-34.68 869.53-35 870.08-35L870.08-35 872.73-35Q873.28-35 873.58-34.68 873.88-34.35 873.88-33.85L873.88-33.85 873.88-1.15Q873.88-0.65 873.58-0.33 873.28 0 872.73 0L872.73 0ZM886.12 0L883.72 0Q883.17 0 882.87-0.33 882.57-0.65 882.57-1.15L882.57-1.15 882.57-33.8Q882.57-34.35 882.87-34.68 883.17-35 883.72-35L883.72-35 886.02-35Q886.62-35 886.92-34.73 887.22-34.45 887.27-34.3L887.27-34.3 903.87-8.8 903.87-33.8Q903.87-34.35 904.17-34.68 904.47-35 905.02-35L905.02-35 907.42-35Q907.97-35 908.3-34.68 908.62-34.35 908.62-33.8L908.62-33.8 908.62-1.2Q908.62-0.7 908.3-0.35 907.97 0 907.47 0L907.47 0 905.07 0Q904.52 0 904.25-0.3 903.97-0.6 903.87-0.7L903.87-0.7 887.32-25.95 887.32-1.15Q887.32-0.65 887-0.33 886.67 0 886.12 0L886.12 0ZM939.52 0L918.47 0Q917.92 0 917.62-0.33 917.32-0.65 917.32-1.15L917.32-1.15 917.32-33.8Q917.32-34.35 917.62-34.68 917.92-35 918.47-35L918.47-35 939.12-35Q939.67-35 939.97-34.68 940.27-34.35 940.27-33.8L940.27-33.8 940.27-31.9Q940.27-31.35 939.97-31.05 939.67-30.75 939.12-30.75L939.12-30.75 922.12-30.75 922.12-19.8 938.02-19.8Q938.57-19.8 938.87-19.48 939.17-19.15 939.17-18.6L939.17-18.6 939.17-16.75Q939.17-16.25 938.87-15.93 938.57-15.6 938.02-15.6L938.02-15.6 922.12-15.6 922.12-4.25 939.52-4.25Q940.07-4.25 940.37-3.95 940.67-3.65 940.67-3.1L940.67-3.1 940.67-1.15Q940.67-0.65 940.37-0.33 940.07 0 939.52 0L939.52 0ZM969.82 0L948.77 0Q948.22 0 947.92-0.33 947.62-0.65 947.62-1.15L947.62-1.15 947.62-33.8Q947.62-34.35 947.92-34.68 948.22-35 948.77-35L948.77-35 969.42-35Q969.97-35 970.27-34.68 970.57-34.35 970.57-33.8L970.57-33.8 970.57-31.9Q970.57-31.35 970.27-31.05 969.97-30.75 969.42-30.75L969.42-30.75 952.42-30.75 952.42-19.8 968.32-19.8Q968.87-19.8 969.17-19.48 969.47-19.15 969.47-18.6L969.47-18.6 969.47-16.75Q969.47-16.25 969.17-15.93 968.87-15.6 968.32-15.6L968.32-15.6 952.42-15.6 952.42-4.25 969.82-4.25Q970.37-4.25 970.67-3.95 970.97-3.65 970.97-3.1L970.97-3.1 970.97-1.15Q970.97-0.65 970.67-0.33 970.37 0 969.82 0L969.82 0ZM981.62 0L979.07 0Q978.52 0 978.22-0.33 977.92-0.65 977.92-1.15L977.92-1.15 977.92-33.8Q977.92-34.35 978.22-34.68 978.52-35 979.07-35L979.07-35 991.27-35Q996.92-35 1000.22-32.35 1003.52-29.7 1003.52-24.5L1003.52-24.5Q1003.52-20.65 1001.59-18.23 999.67-15.8 996.37-14.85L996.37-14.85 1004.07-1.55Q1004.22-1.25 1004.22-1L1004.22-1Q1004.22-0.6 1003.89-0.3 1003.57 0 1003.17 0L1003.17 0 1000.77 0Q999.92 0 999.52-0.45 999.12-0.9 998.82-1.35L998.82-1.35 991.57-14.05 982.82-14.05 982.82-1.15Q982.82-0.65 982.49-0.33 982.17 0 981.62 0L981.62 0ZM982.82-30.8L982.82-18.3 991.07-18.3Q994.82-18.3 996.67-19.88 998.52-21.45 998.52-24.55L998.52-24.55Q998.52-27.6 996.69-29.2 994.87-30.8 991.07-30.8L991.07-30.8 982.82-30.8Z" opacity="1" transform="matrix(1,0,0,1,0,0)" fill="#ffffff" class="wordmark-text-0" data-fill-palette-color="primary" id="text-0"></path></svg></g></svg></g><g transform="matrix(1,0,0,1,3.5,21.11818953874285)"><svg viewBox="0 0 388.52 14.106122448979589" height="14.106122448979589" width="388.52"><g transform="matrix(1,0,0,1,0,0)"><svg width="388.52" viewBox="-1.9900000000000002 -42.44 1539.67 56.67" height="14.106122448979589" data-palette-color="#00add8"><path d="M13.07 0.44L13.07 0.44Q9.96 0.44 7.45-1.16 4.94-2.77 3.47-5.9 2.01-9.04 2.01-13.6L2.01-13.6Q2.01-18.29 3.52-21.4 5.02-24.52 7.54-26.07 10.05-27.63 13.05-27.63L13.05-27.63Q15.34-27.63 16.88-26.86 18.41-26.08 19.36-24.94 20.31-23.79 20.81-22.69L20.81-22.69 21.04-22.69 21.04-36.36 28.59-36.36 28.59 0 21.13 0 21.13-4.37 20.81-4.37Q20.28-3.23 19.31-2.12 18.34-1.01 16.81-0.28 15.27 0.44 13.07 0.44ZM15.47-5.58L15.47-5.58Q17.29-5.58 18.56-6.58 19.83-7.58 20.52-9.39 21.2-11.2 21.2-13.64L21.2-13.64Q21.2-16.07 20.53-17.86 19.85-19.66 18.57-20.63 17.29-21.61 15.47-21.61L15.47-21.61Q13.6-21.61 12.32-20.6 11.04-19.58 10.39-17.79 9.73-16 9.73-13.64L9.73-13.64Q9.73-11.26 10.4-9.44 11.06-7.62 12.33-6.6 13.6-5.58 15.47-5.58ZM85.95 0.53L85.95 0.53Q81.74 0.53 78.72-1.18 75.69-2.89 74.06-6.05 72.42-9.2 72.42-13.51L72.42-13.51Q72.42-17.72 74.06-20.9 75.69-24.08 78.66-25.85 81.64-27.63 85.65-27.63L85.65-27.63Q88.35-27.63 90.68-26.77 93.02-25.91 94.77-24.18 96.52-22.46 97.49-19.86 98.47-17.26 98.47-13.78L98.47-13.78 98.47-11.7 75.44-11.7 75.44-16.39 91.35-16.39Q91.35-18.02 90.64-19.28 89.93-20.54 88.68-21.26 87.43-21.98 85.77-21.98L85.77-21.98Q84.05-21.98 82.73-21.19 81.41-20.4 80.66-19.08 79.92-17.76 79.9-16.14L79.9-16.14 79.9-11.68Q79.9-9.66 80.65-8.19 81.41-6.71 82.79-5.91 84.18-5.11 86.08-5.11L86.08-5.11Q87.34-5.11 88.38-5.47 89.43-5.82 90.18-6.53 90.92-7.24 91.31-8.27L91.31-8.27 98.31-7.81Q97.78-5.29 96.14-3.42 94.49-1.54 91.91-0.51 89.33 0.53 85.95 0.53ZM159.56-27.27L167.57-27.27 158.04 0 149.51 0 139.98-27.27 147.97-27.27 153.63-7.76 153.92-7.76 159.56-27.27ZM222.61 0.53L222.61 0.53Q218.4 0.53 215.38-1.18 212.35-2.89 210.72-6.05 209.08-9.2 209.08-13.51L209.08-13.51Q209.08-17.72 210.72-20.9 212.35-24.08 215.32-25.85 218.3-27.63 222.31-27.63L222.31-27.63Q225.01-27.63 227.34-26.77 229.68-25.91 231.43-24.18 233.18-22.46 234.15-19.86 235.13-17.26 235.13-13.78L235.13-13.78 235.13-11.7 212.1-11.7 212.1-16.39 228.01-16.39Q228.01-18.02 227.3-19.28 226.59-20.54 225.34-21.26 224.09-21.98 222.43-21.98L222.43-21.98Q220.71-21.98 219.39-21.19 218.07-20.4 217.32-19.08 216.57-17.76 216.56-16.14L216.56-16.14 216.56-11.68Q216.56-9.66 217.31-8.19 218.07-6.71 219.45-5.91 220.84-5.11 222.74-5.11L222.74-5.11Q224-5.11 225.04-5.47 226.09-5.82 226.84-6.53 227.58-7.24 227.97-8.27L227.97-8.27 234.97-7.81Q234.44-5.29 232.79-3.42 231.15-1.54 228.57-0.51 225.99 0.53 222.61 0.53ZM278.81-36.36L286.37-36.36 286.37 0 278.81 0 278.81-36.36ZM343.47 0.53L343.47 0.53Q339.33 0.53 336.32-1.23 333.31-3 331.68-6.17 330.05-9.34 330.05-13.53L330.05-13.53Q330.05-17.76 331.68-20.93 333.31-24.09 336.32-25.86 339.33-27.63 343.47-27.63L343.47-27.63Q347.61-27.63 350.62-25.86 353.62-24.09 355.26-20.93 356.89-17.76 356.89-13.53L356.89-13.53Q356.89-9.34 355.26-6.17 353.62-3 350.62-1.23 347.61 0.53 343.47 0.53ZM343.5-5.33L343.5-5.33Q345.39-5.33 346.65-6.4 347.91-7.48 348.56-9.34 349.2-11.2 349.2-13.58L349.2-13.58Q349.2-15.96 348.56-17.83 347.91-19.69 346.65-20.77 345.39-21.86 343.5-21.86L343.5-21.86Q341.6-21.86 340.32-20.77 339.03-19.69 338.38-17.83 337.73-15.96 337.73-13.58L337.73-13.58Q337.73-11.2 338.38-9.34 339.03-7.48 340.32-6.4 341.6-5.33 343.5-5.33ZM408.13 10.23L400.57 10.23 400.57-27.27 408.02-27.27 408.02-22.69 408.36-22.69Q408.86-23.79 409.81-24.94 410.76-26.08 412.3-26.86 413.83-27.63 416.12-27.63L416.12-27.63Q419.1-27.63 421.63-26.07 424.15-24.52 425.66-21.4 427.17-18.29 427.17-13.6L427.17-13.6Q427.17-9.04 425.7-5.9 424.24-2.77 421.72-1.16 419.21 0.44 416.1 0.44L416.1 0.44Q413.9 0.44 412.37-0.28 410.83-1.01 409.85-2.12 408.88-3.23 408.36-4.37L408.36-4.37 408.13-4.37 408.13 10.23ZM407.97-13.64L407.97-13.64Q407.97-11.2 408.65-9.39 409.32-7.58 410.6-6.58 411.88-5.58 413.71-5.58L413.71-5.58Q415.55-5.58 416.83-6.6 418.11-7.62 418.78-9.44 419.44-11.26 419.44-13.64L419.44-13.64Q419.44-16 418.78-17.79 418.13-19.58 416.85-20.6 415.57-21.61 413.71-21.61L413.71-21.61Q411.86-21.61 410.59-20.63 409.32-19.66 408.65-17.86 407.97-16.07 407.97-13.64ZM478.49 0L470.93 0 470.93-27.27 478.14-27.27 478.14-22.46 478.46-22.46Q479.31-24.86 481.3-26.24 483.29-27.63 486.06-27.63L486.06-27.63Q488.86-27.63 490.83-26.23 492.81-24.84 493.46-22.46L493.46-22.46 493.75-22.46Q494.58-24.8 496.77-26.22 498.97-27.63 501.97-27.63L501.97-27.63Q505.78-27.63 508.17-25.2 510.56-22.78 510.56-18.34L510.56-18.34 510.56 0 503.01 0 503.01-16.85Q503.01-19.12 501.81-20.26 500.6-21.4 498.79-21.4L498.79-21.4Q496.73-21.4 495.58-20.09 494.42-18.79 494.42-16.65L494.42-16.65 494.42 0 487.09 0 487.09-17.01Q487.09-19.02 485.94-20.21 484.8-21.4 482.93-21.4L482.93-21.4Q481.67-21.4 480.67-20.77 479.67-20.13 479.08-19.01 478.49-17.88 478.49-16.37L478.49-16.37 478.49 0ZM567.7 0.53L567.7 0.53Q563.49 0.53 560.46-1.18 557.43-2.89 555.8-6.05 554.17-9.2 554.17-13.51L554.17-13.51Q554.17-17.72 555.8-20.9 557.43-24.08 560.41-25.85 563.38-27.63 567.39-27.63L567.39-27.63Q570.09-27.63 572.43-26.77 574.76-25.91 576.51-24.18 578.26-22.46 579.24-19.86 580.21-17.26 580.21-13.78L580.21-13.78 580.21-11.7 557.18-11.7 557.18-16.39 573.09-16.39Q573.09-18.02 572.38-19.28 571.67-20.54 570.42-21.26 569.17-21.98 567.52-21.98L567.52-21.98Q565.8-21.98 564.47-21.19 563.15-20.4 562.4-19.08 561.66-17.76 561.64-16.14L561.64-16.14 561.64-11.68Q561.64-9.66 562.4-8.19 563.15-6.71 564.54-5.91 565.92-5.11 567.82-5.11L567.82-5.11Q569.08-5.11 570.13-5.47 571.18-5.82 571.92-6.53 572.67-7.24 573.06-8.27L573.06-8.27 580.05-7.81Q579.52-5.29 577.88-3.42 576.24-1.54 573.65-0.51 571.07 0.53 567.7 0.53ZM631.45-15.77L631.45-15.77 631.45 0 623.89 0 623.89-27.27 631.1-27.27 631.1-22.46 631.42-22.46Q632.32-24.84 634.45-26.23 636.58-27.63 639.62-27.63L639.62-27.63Q642.46-27.63 644.57-26.38 646.69-25.14 647.86-22.84 649.03-20.54 649.03-17.37L649.03-17.37 649.03 0 641.47 0 641.47-16.02Q641.49-18.52 640.19-19.93 638.89-21.34 636.62-21.34L636.62-21.34Q635.09-21.34 633.93-20.69 632.77-20.03 632.12-18.78 631.47-17.52 631.45-15.77ZM691.8-27.27L708.23-27.27 708.23-21.59 691.8-21.59 691.8-27.27ZM695.53-7.39L695.53-33.81 703.09-33.81 703.09-8.38Q703.09-7.33 703.41-6.76 703.73-6.18 704.31-5.95 704.89-5.72 705.65-5.72L705.65-5.72Q706.18-5.72 706.72-5.81 707.25-5.91 707.53-5.97L707.53-5.97 708.72-0.34Q708.15-0.16 707.12 0.08 706.1 0.32 704.62 0.37L704.62 0.37Q701.89 0.48 699.84-0.36 697.79-1.19 696.65-2.95 695.51-4.71 695.53-7.39L695.53-7.39ZM819.37-1.97L813.01-1.97 813.01-27.11 819.37-27.11 819.37-1.97ZM828.76-11.36L803.62-11.36 803.62-17.72 828.76-17.72 828.76-11.36ZM937.6 0.53L937.6 0.53Q933.46 0.53 930.45-1.23 927.44-3 925.81-6.17 924.18-9.34 924.18-13.53L924.18-13.53Q924.18-17.76 925.81-20.93 927.44-24.09 930.45-25.86 933.46-27.63 937.6-27.63L937.6-27.63Q941.74-27.63 944.75-25.86 947.76-24.09 949.39-20.93 951.02-17.76 951.02-13.53L951.02-13.53Q951.02-9.34 949.39-6.17 947.76-3 944.75-1.23 941.74 0.53 937.6 0.53ZM937.63-5.33L937.63-5.33Q939.52-5.33 940.78-6.4 942.04-7.48 942.69-9.34 943.33-11.2 943.33-13.58L943.33-13.58Q943.33-15.96 942.69-17.83 942.04-19.69 940.78-20.77 939.52-21.86 937.63-21.86L937.63-21.86Q935.73-21.86 934.45-20.77 933.16-19.69 932.51-17.83 931.86-15.96 931.86-13.58L931.86-13.58Q931.86-11.2 932.51-9.34 933.16-7.48 934.45-6.4 935.73-5.33 937.63-5.33ZM1002.26 10.23L994.7 10.23 994.7-27.27 1002.16-27.27 1002.16-22.69 1002.49-22.69Q1002.99-23.79 1003.94-24.94 1004.89-26.08 1006.43-26.86 1007.96-27.63 1010.25-27.63L1010.25-27.63Q1013.24-27.63 1015.76-26.07 1018.28-24.52 1019.79-21.4 1021.3-18.29 1021.3-13.6L1021.3-13.6Q1021.3-9.04 1019.83-5.9 1018.37-2.77 1015.85-1.16 1013.34 0.44 1010.23 0.44L1010.23 0.44Q1008.03 0.44 1006.5-0.28 1004.96-1.01 1003.98-2.12 1003.01-3.23 1002.49-4.37L1002.49-4.37 1002.26-4.37 1002.26 10.23ZM1002.1-13.64L1002.1-13.64Q1002.1-11.2 1002.78-9.39 1003.45-7.58 1004.73-6.58 1006.01-5.58 1007.84-5.58L1007.84-5.58Q1009.68-5.58 1010.96-6.6 1012.24-7.62 1012.91-9.44 1013.57-11.26 1013.57-13.64L1013.57-13.64Q1013.57-16 1012.92-17.79 1012.26-19.58 1010.98-20.6 1009.7-21.61 1007.84-21.61L1007.84-21.61Q1005.99-21.61 1004.72-20.63 1003.45-19.66 1002.78-17.86 1002.1-16.07 1002.1-13.64ZM1077.49 0.53L1077.49 0.53Q1073.28 0.53 1070.25-1.18 1067.23-2.89 1065.59-6.05 1063.96-9.2 1063.96-13.51L1063.96-13.51Q1063.96-17.72 1065.59-20.9 1067.23-24.08 1070.2-25.85 1073.18-27.63 1077.19-27.63L1077.19-27.63Q1079.89-27.63 1082.22-26.77 1084.56-25.91 1086.31-24.18 1088.05-22.46 1089.03-19.86 1090.01-17.26 1090.01-13.78L1090.01-13.78 1090.01-11.7 1066.98-11.7 1066.98-16.39 1082.89-16.39Q1082.89-18.02 1082.18-19.28 1081.47-20.54 1080.22-21.26 1078.96-21.98 1077.31-21.98L1077.31-21.98Q1075.59-21.98 1074.27-21.19 1072.94-20.4 1072.2-19.08 1071.45-17.76 1071.44-16.14L1071.44-16.14 1071.44-11.68Q1071.44-9.66 1072.19-8.19 1072.94-6.71 1074.33-5.91 1075.71-5.11 1077.61-5.11L1077.61-5.11Q1078.88-5.11 1079.92-5.47 1080.97-5.82 1081.72-6.53 1082.46-7.24 1082.85-8.27L1082.85-8.27 1089.85-7.81Q1089.32-5.29 1087.67-3.42 1086.03-1.54 1083.45-0.51 1080.86 0.53 1077.49 0.53ZM1141.25 0L1133.68 0 1133.68-27.27 1141.02-27.27 1141.02-22.51 1141.3-22.51Q1142.05-25.05 1143.8-26.36 1145.56-27.66 1147.85-27.66L1147.85-27.66Q1148.42-27.66 1149.08-27.59 1149.73-27.52 1150.23-27.4L1150.23-27.4 1150.23-20.69Q1149.7-20.85 1148.76-20.97 1147.82-21.09 1147.04-21.09L1147.04-21.09Q1145.37-21.09 1144.06-20.37 1142.76-19.66 1142-18.38 1141.25-17.1 1141.25-15.43L1141.25-15.43 1141.25 0ZM1200.64 0.51L1200.64 0.51Q1198.03 0.51 1195.99-0.4 1193.94-1.31 1192.76-3.12 1191.58-4.92 1191.58-7.62L1191.58-7.62Q1191.58-9.89 1192.42-11.43 1193.25-12.98 1194.69-13.92 1196.13-14.86 1197.97-15.34 1199.8-15.82 1201.83-16.02L1201.83-16.02Q1204.21-16.26 1205.66-16.49 1207.12-16.71 1207.78-17.15 1208.43-17.6 1208.43-18.47L1208.43-18.47 1208.43-18.57Q1208.43-20.26 1207.38-21.18 1206.32-22.11 1204.38-22.11L1204.38-22.11Q1202.34-22.11 1201.13-21.21 1199.93-20.31 1199.54-18.96L1199.54-18.96 1192.54-19.53Q1193.07-22.02 1194.64-23.84 1196.2-25.66 1198.68-26.64 1201.15-27.63 1204.42-27.63L1204.42-27.63Q1206.69-27.63 1208.78-27.1 1210.86-26.56 1212.49-25.44 1214.11-24.33 1215.05-22.58 1216-20.83 1216-18.39L1216-18.39 1216 0 1208.82 0 1208.82-3.78 1208.61-3.78Q1207.95-2.5 1206.85-1.54 1205.75-0.57 1204.21-0.03 1202.66 0.51 1200.64 0.51ZM1202.8-4.71L1202.8-4.71Q1204.47-4.71 1205.75-5.37 1207.03-6.04 1207.76-7.17 1208.49-8.31 1208.49-9.75L1208.49-9.75 1208.49-12.64Q1208.13-12.41 1207.52-12.22 1206.91-12.04 1206.14-11.89 1205.38-11.74 1204.61-11.62 1203.85-11.51 1203.23-11.42L1203.23-11.42Q1201.9-11.22 1200.9-10.8 1199.91-10.37 1199.36-9.65 1198.81-8.93 1198.81-7.87L1198.81-7.87Q1198.81-6.32 1199.94-5.51 1201.06-4.71 1202.8-4.71ZM1258.7-27.27L1275.12-27.27 1275.12-21.59 1258.7-21.59 1258.7-27.27ZM1262.42-7.39L1262.42-33.81 1269.99-33.81 1269.99-8.38Q1269.99-7.33 1270.31-6.76 1270.63-6.18 1271.2-5.95 1271.78-5.72 1272.54-5.72L1272.54-5.72Q1273.08-5.72 1273.61-5.81 1274.14-5.91 1274.43-5.97L1274.43-5.97 1275.62-0.34Q1275.05-0.16 1274.02 0.08 1272.99 0.32 1271.52 0.37L1271.52 0.37Q1268.78 0.48 1266.73-0.36 1264.68-1.19 1263.54-2.95 1262.41-4.71 1262.42-7.39L1262.42-7.39ZM1326.34 0L1318.78 0 1318.78-27.27 1326.34-27.27 1326.34 0ZM1322.58-30.79L1322.58-30.79Q1320.89-30.79 1319.69-31.92 1318.49-33.04 1318.49-34.62L1318.49-34.62Q1318.49-36.19 1319.69-37.31 1320.89-38.44 1322.58-38.44L1322.58-38.44Q1324.26-38.44 1325.46-37.31 1326.66-36.19 1326.66-34.62L1326.66-34.62Q1326.66-33.04 1325.46-31.92 1324.26-30.79 1322.58-30.79ZM1383.44 0.53L1383.44 0.53Q1379.3 0.53 1376.29-1.23 1373.28-3 1371.65-6.17 1370.02-9.34 1370.02-13.53L1370.02-13.53Q1370.02-17.76 1371.65-20.93 1373.28-24.09 1376.29-25.86 1379.3-27.63 1383.44-27.63L1383.44-27.63Q1387.58-27.63 1390.59-25.86 1393.6-24.09 1395.23-20.93 1396.86-17.76 1396.86-13.53L1396.86-13.53Q1396.86-9.34 1395.23-6.17 1393.6-3 1390.59-1.23 1387.58 0.53 1383.44 0.53ZM1383.48-5.33L1383.48-5.33Q1385.36-5.33 1386.62-6.4 1387.88-7.48 1388.53-9.34 1389.18-11.2 1389.18-13.58L1389.18-13.58Q1389.18-15.96 1388.53-17.83 1387.88-19.69 1386.62-20.77 1385.36-21.86 1383.48-21.86L1383.48-21.86Q1381.58-21.86 1380.29-20.77 1379-19.69 1378.35-17.83 1377.71-15.96 1377.71-13.58L1377.71-13.58Q1377.71-11.2 1378.35-9.34 1379-7.48 1380.29-6.4 1381.58-5.33 1383.48-5.33ZM1448.1-15.77L1448.1-15.77 1448.1 0 1440.54 0 1440.54-27.27 1447.75-27.27 1447.75-22.46 1448.07-22.46Q1448.97-24.84 1451.1-26.23 1453.24-27.63 1456.27-27.63L1456.27-27.63Q1459.11-27.63 1461.23-26.38 1463.34-25.14 1464.51-22.84 1465.68-20.54 1465.68-17.37L1465.68-17.37 1465.68 0 1458.12 0 1458.12-16.02Q1458.14-18.52 1456.84-19.93 1455.54-21.34 1453.27-21.34L1453.27-21.34Q1451.74-21.34 1450.58-20.69 1449.42-20.03 1448.77-18.78 1448.12-17.52 1448.1-15.77ZM1533.06-19.5L1533.06-19.5 1526.14-19.07Q1525.96-19.96 1525.37-20.68 1524.79-21.4 1523.84-21.83 1522.89-22.27 1521.57-22.27L1521.57-22.27Q1519.82-22.27 1518.61-21.53 1517.4-20.79 1517.4-19.57L1517.4-19.57Q1517.4-18.59 1518.18-17.92 1518.96-17.24 1520.86-16.83L1520.86-16.83 1525.8-15.84Q1529.78-15.02 1531.73-13.21 1533.68-11.4 1533.68-8.45L1533.68-8.45Q1533.68-5.77 1532.11-3.75 1530.54-1.72 1527.81-0.59 1525.09 0.53 1521.54 0.53L1521.54 0.53Q1516.12 0.53 1512.92-1.73 1509.71-4 1509.16-7.9L1509.16-7.9 1516.6-8.29Q1516.94-6.64 1518.24-5.78 1519.53-4.92 1521.56-4.92L1521.56-4.92Q1523.54-4.92 1524.76-5.69 1525.98-6.46 1525.99-7.69L1525.99-7.69Q1525.98-8.72 1525.12-9.38 1524.27-10.05 1522.5-10.4L1522.5-10.4 1517.77-11.35Q1513.78-12.14 1511.83-14.12 1509.89-16.09 1509.89-19.14L1509.89-19.14Q1509.89-21.77 1511.32-23.67 1512.75-25.57 1515.35-26.6 1517.95-27.63 1521.45-27.63L1521.45-27.63Q1526.62-27.63 1529.59-25.44 1532.56-23.26 1533.06-19.5Z" opacity="1" transform="matrix(1,0,0,1,0,0)" fill="#00add8" class="slogan-text-1" data-fill-palette-color="secondary" id="text-1"></path></svg></g></svg></g></svg></g></svg></g><g><svg viewBox="0 0 46.10977968556045 46.10862439192868" height="46.10862439192868" width="46.10977968556045"><g><svg xmlns="http://www.w3.org/2000/svg" xmlns:xlink="http://www.w3.org/1999/xlink" version="1.1" x="0" y="0" viewBox="7.279893330341158 7.28 85.44214077711491 85.44" enable-background="new 0 0 100 100" xml:space="preserve" height="46.10862439192868" width="46.10977968556045" class="icon-icon-0" data-fill-palette-color="accent" id="icon-0"><path d="M91.24 67.483L74.39 58.951 90.34 50.705C90.848 50.441 90.848 50.017 90.337 49.76L72.349 40.653 91.261 30.875C92.18 30.398 92.725 29.552 92.72 28.611 92.714 27.672 92.159 26.834 91.24 26.37L54.356 7.698C53.673 7.353 52.96 7.28 52.481 7.28 52.041 7.28 51.383 7.342 50.746 7.64L8.818 27.269C7.864 27.716 7.289 28.552 7.28 29.504 7.271 30.457 7.832 31.304 8.779 31.77L28.918 41.673 9.667 50.685C9.153 50.926 9.151 51.328 9.662 51.579L26.756 59.985 8.818 68.381C7.863 68.828 7.288 69.664 7.28 70.616 7.272 71.569 7.833 72.416 8.779 72.88L48.333 92.332C48.984 92.653 49.66 92.72 50.112 92.72 50.588 92.72 51.298 92.647 51.984 92.295L91.263 71.987C92.182 71.51 92.727 70.664 92.722 69.723 92.714 68.785 92.16 67.946 91.24 67.483M52.375 11.289A1 1 0 0 1 52.481 11.28C52.542 11.28 52.587 11.288 52.563 11.274L86.872 28.642 50.215 47.6C50.205 47.602 50.167 47.61 50.112 47.61L50.098 47.631 13.353 29.562zM50.22 88.71A0.5 0.5 0 0 1 50.111 88.72L50.099 88.743 13.355 70.673 30.73 62.539 48.331 71.194C48.983 71.515 49.659 71.583 50.111 71.583 50.588 71.583 51.299 71.509 51.981 71.157L70.615 61.524 86.87 69.754z" fill="#00add8" data-fill-palette-color="accent"></path></svg></g></svg></g></svg></g><defs></defs></svg><rect width="395.52" height="40.80410181789912" fill="none" stroke="none" visibility="hidden"></rect></g></svg></g></svg>