<svg xmlns="http://www.w3.org/2000/svg" version="1.1" xmlns:xlink="http://www.w3.org/1999/xlink" width="2000" height="272" viewBox="0 0 2000 272"><g transform="matrix(1,0,0,1,-1.2121212121212466,-2.24145306459738)"><svg viewBox="0 0 396 54" data-background-color="#ffffff" preserveAspectRatio="xMidYMid meet" height="272" width="2000" xmlns="http://www.w3.org/2000/svg" xmlns:xlink="http://www.w3.org/1999/xlink"><g id="tight-bounds" transform="matrix(1,0,0,1,0.2400000000000091,0.44499435841271406)"><svg viewBox="0 0 395.52 53.11001128317458" height="53.11001128317458" width="395.52"><g><svg viewBox="0 0 441.4433557411971 59.27655138626979" height="53.11001128317458" width="395.52"><g transform="matrix(1,0,0,1,45.92335574119711,22.818419716178582)"><svg viewBox="0 0 395.52 13.639711953912625" height="13.639711953912625" width="395.52"><g id="textblocktransform"><svg viewBox="0 0 395.52 13.639711953912625" height="13.639711953912625" width="395.52" id="textblock"><g><svg viewBox="0 0 395.52 13.639711953912625" height="13.639711953912625" width="395.52"><g transform="matrix(1,0,0,1,0,0)"><svg width="395.52" viewBox="-2.9 -39.55 1250.7 44.099999999999994" height="13.639711953912625" data-palette-color="#141414"><path d="M14.4 0.55L14.4 0.55Q9.5 0.55 6.03-2 2.55-4.55 1.1-9.2L1.1-9.2 6.6-11.25Q7.7-8.05 9.65-6.43 11.6-4.8 14.45-4.8L14.45-4.8Q17.9-4.8 20-7.2 22.1-9.6 22.1-13.55L22.1-13.55 22.1-35 28.1-35 28.1-13.45Q28.1-9.2 26.4-6.05 24.7-2.9 21.63-1.18 18.55 0.55 14.4 0.55ZM51.9 0.55L51.9 0.55Q48.2 0.55 44.97-0.83 41.75-2.2 39.32-4.67 36.9-7.15 35.55-10.43 34.2-13.7 34.2-17.5L34.2-17.5Q34.2-21.3 35.55-24.58 36.9-27.85 39.32-30.33 41.75-32.8 44.97-34.18 48.2-35.55 51.9-35.55L51.9-35.55Q55.6-35.55 58.82-34.18 62.05-32.8 64.47-30.33 66.9-27.85 68.25-24.58 69.6-21.3 69.6-17.5L69.6-17.5Q69.6-13.7 68.25-10.43 66.9-7.15 64.47-4.67 62.05-2.2 58.82-0.83 55.6 0.55 51.9 0.55ZM51.9-4.85L51.9-4.85Q54.35-4.85 56.45-5.8 58.55-6.75 60.12-8.47 61.7-10.2 62.57-12.5 63.45-14.8 63.45-17.5L63.45-17.5Q63.45-20.2 62.57-22.5 61.7-24.8 60.12-26.53 58.55-28.25 56.45-29.2 54.35-30.15 51.9-30.15L51.9-30.15Q49.45-30.15 47.35-29.2 45.25-28.25 43.67-26.53 42.1-24.8 41.2-22.5 40.3-20.2 40.3-17.5L40.3-17.5Q40.3-14.8 41.2-12.5 42.1-10.2 43.67-8.47 45.25-6.75 47.35-5.8 49.45-4.85 51.9-4.85ZM101.65 0L76.4 0 76.4-35 101.45-35 101.45-29.9 82.4-29.9 82.4-20.15 95.7-20.15 95.7-15.15 82.4-15.15 82.4-5.1 101.65-5.1 101.65 0ZM125.24 0L119.69 0 119.69-35 127.49-35 137.74-13.75 147.94-35 155.74-35 155.74 0 150.09 0 150.09-27.4 137.69-2.5 125.24-27.55 125.24 0ZM189.39 0L164.14 0 164.14-35 189.19-35 189.19-29.9 170.14-29.9 170.14-20.15 183.44-20.15 183.44-15.15 170.14-15.15 170.14-5.1 189.39-5.1 189.39 0ZM201.84 0L196.19 0 196.19-35 202.04-35 220.29-9.55 220.19-35 225.84-35 225.84 0 220.49 0 201.74-26.15 201.84 0ZM240.23-29.8L240.23-5.2 247.18-5.2Q250.33-5.2 252.88-6.83 255.43-8.45 256.93-11.25 258.43-14.05 258.43-17.5L258.43-17.5Q258.43-21 256.93-23.78 255.43-26.55 252.88-28.18 250.33-29.8 247.18-29.8L247.18-29.8 240.23-29.8ZM247.03 0L234.23 0 234.23-35 247.03-35Q250.83-35 254.03-33.65 257.23-32.3 259.61-29.93 261.98-27.55 263.28-24.38 264.58-21.2 264.58-17.5L264.58-17.5Q264.58-13.8 263.28-10.63 261.98-7.45 259.61-5.08 257.23-2.7 254.03-1.35 250.83 0 247.03 0L247.03 0ZM296.58 0L271.33 0 271.33-35 296.38-35 296.38-29.9 277.33-29.9 277.33-20.15 290.63-20.15 290.63-15.15 277.33-15.15 277.33-5.1 296.58-5.1 296.58 0ZM328.38 0L300.83 0 300.83-4 320.48-30.05 300.98-29.9 300.98-35 328.08-35 328.08-31 308.48-4.95 328.38-5.1 328.38 0ZM336.33 0.45L336.33 0.45Q334.88 0.45 333.85-0.63 332.83-1.7 332.83-3.15L332.83-3.15Q332.83-4.7 333.85-5.75 334.88-6.8 336.33-6.8L336.33-6.8Q337.78-6.8 338.8-5.75 339.83-4.7 339.83-3.15L339.83-3.15Q339.83-1.7 338.8-0.63 337.78 0.45 336.33 0.45ZM336.33-18.3L336.33-18.3Q334.88-18.3 333.85-19.38 332.83-20.45 332.83-21.9L332.83-21.9Q332.83-23.45 333.85-24.5 334.88-25.55 336.33-25.55L336.33-25.55Q337.78-25.55 338.8-24.5 339.83-23.45 339.83-21.9L339.83-21.9Q339.83-20.45 338.8-19.38 337.78-18.3 336.33-18.3ZM369.72 0.55L369.72 0.55Q365.62 0.55 362-0.88 358.37-2.3 355.02-5.1L355.02-5.1 358.27-9.5Q361.67-6.75 364.35-5.6 367.02-4.45 370.07-4.45L370.07-4.45Q372.37-4.45 374.15-5.15 375.92-5.85 376.9-7.1 377.87-8.35 377.87-10L377.87-10Q377.87-12.15 376.45-13.28 375.02-14.4 371.52-15L371.52-15 365.07-16.1Q360.52-16.9 358.3-19.18 356.07-21.45 356.07-25L356.07-25Q356.07-28.15 357.67-30.53 359.27-32.9 362.15-34.23 365.02-35.55 368.97-35.55L368.97-35.55Q372.92-35.55 376.47-34.4 380.02-33.25 383.02-31.05L383.02-31.05 379.97-26.55Q377.32-28.55 374.52-29.58 371.72-30.6 368.77-30.6L368.77-30.6Q366.67-30.6 365.1-29.95 363.52-29.3 362.65-28.15 361.77-27 361.77-25.6L361.77-25.6Q361.77-23.7 363.05-22.68 364.32-21.65 367.17-21.15L367.17-21.15 373.42-20.1Q378.72-19.15 381.25-16.8 383.77-14.45 383.77-10.45L383.77-10.45Q383.77-7.25 382-4.75 380.22-2.25 377.07-0.85 373.92 0.55 369.72 0.55ZM415.12 0L389.87 0 389.87-35 414.92-35 414.92-29.9 395.87-29.9 395.87-20.15 409.17-20.15 409.17-15.15 395.87-15.15 395.87-5.1 415.12-5.1 415.12 0ZM427.57 0L421.92 0 421.92-35 427.77-35 446.02-9.55 445.92-35 451.57-35 451.57 0 446.22 0 427.47-26.15 427.57 0ZM465.71 0L459.71 0 459.71-35 465.71-35 465.71 0ZM489.96 0.55L489.96 0.55Q486.26 0.55 483.04-0.83 479.81-2.2 477.39-4.67 474.96-7.15 473.61-10.43 472.26-13.7 472.26-17.5L472.26-17.5Q472.26-21.3 473.61-24.58 474.96-27.85 477.39-30.33 479.81-32.8 483.04-34.18 486.26-35.55 489.96-35.55L489.96-35.55Q493.66-35.55 496.89-34.18 500.11-32.8 502.54-30.33 504.96-27.85 506.31-24.58 507.66-21.3 507.66-17.5L507.66-17.5Q507.66-13.7 506.31-10.43 504.96-7.15 502.54-4.67 500.11-2.2 496.89-0.83 493.66 0.55 489.96 0.55ZM489.96-4.85L489.96-4.85Q492.41-4.85 494.51-5.8 496.61-6.75 498.19-8.47 499.76-10.2 500.64-12.5 501.51-14.8 501.51-17.5L501.51-17.5Q501.51-20.2 500.64-22.5 499.76-24.8 498.19-26.53 496.61-28.25 494.51-29.2 492.41-30.15 489.96-30.15L489.96-30.15Q487.51-30.15 485.41-29.2 483.31-28.25 481.74-26.53 480.16-24.8 479.26-22.5 478.36-20.2 478.36-17.5L478.36-17.5Q478.36-14.8 479.26-12.5 480.16-10.2 481.74-8.47 483.31-6.75 485.41-5.8 487.51-4.85 489.96-4.85ZM520.46 0L514.46 0 514.46-35 530.01-35Q533.46-35 536.11-33.65 538.76-32.3 540.23-29.93 541.71-27.55 541.71-24.4L541.71-24.4Q541.71-21 539.83-18.48 537.96-15.95 534.76-14.8L534.76-14.8 542.16 0 535.51 0 528.76-14 520.46-14 520.46 0ZM520.46-29.9L520.46-18.8 529.46-18.8Q532.26-18.8 533.96-20.33 535.66-21.85 535.66-24.35L535.66-24.35Q535.66-26.9 533.96-28.4 532.26-29.9 529.46-29.9L529.46-29.9 520.46-29.9ZM575.75 0.55L575.75 0.55Q571.95 0.55 568.65-0.83 565.35-2.2 562.88-4.67 560.4-7.15 559.03-10.43 557.65-13.7 557.65-17.5L557.65-17.5Q557.65-21.3 559.03-24.58 560.4-27.85 562.88-30.33 565.35-32.8 568.65-34.18 571.95-35.55 575.75-35.55L575.75-35.55Q578.45-35.55 580.95-34.8 583.45-34.05 585.63-32.68 587.8-31.3 589.4-29.3L589.4-29.3 585.4-25.4Q583.55-27.75 581.05-28.95 578.55-30.15 575.75-30.15L575.75-30.15Q573.2-30.15 571.03-29.2 568.85-28.25 567.23-26.53 565.6-24.8 564.7-22.5 563.8-20.2 563.8-17.5L563.8-17.5Q563.8-14.8 564.7-12.5 565.6-10.2 567.23-8.47 568.85-6.75 571.03-5.8 573.2-4.85 575.75-4.85L575.75-4.85Q578.55-4.85 581.05-6.08 583.55-7.3 585.4-9.6L585.4-9.6 589.4-5.7Q587.8-3.75 585.63-2.35 583.45-0.95 580.95-0.2 578.45 0.55 575.75 0.55ZM610.7 0L604.7 0 604.7-13.8 590.8-35 597.75-35 607.85-19 618.05-35 624.6-35 610.7-13.8 610.7 0ZM645.35 0L629.1 0 629.1-35 644.7-35Q647.95-35 650.45-33.85 652.95-32.7 654.35-30.63 655.75-28.55 655.75-25.8L655.75-25.8Q655.75-23.1 654.2-21.08 652.65-19.05 650-18.05L650-18.05Q653.2-17.1 655.05-14.93 656.9-12.75 656.9-9.75L656.9-9.75Q656.9-6.85 655.45-4.65 654-2.45 651.4-1.23 648.8 0 645.35 0L645.35 0ZM635.1-30.1L635.1-20.25 644.05-20.25Q646.65-20.25 648.17-21.6 649.7-22.95 649.7-25.2L649.7-25.2Q649.7-27.45 648.17-28.78 646.65-30.1 644.05-30.1L644.05-30.1 635.1-30.1ZM635.1-15.65L635.1-4.9 644.6-4.9Q647.45-4.9 649.15-6.38 650.85-7.85 650.85-10.3L650.85-10.3Q650.85-12.7 649.17-14.18 647.5-15.65 644.6-15.65L644.6-15.65 635.1-15.65ZM689.14 0L663.89 0 663.89-35 688.94-35 688.94-29.9 669.89-29.9 669.89-20.15 683.19-20.15 683.19-15.15 669.89-15.15 669.89-5.1 689.14-5.1 689.14 0ZM701.94 0L695.94 0 695.94-35 711.49-35Q714.94-35 717.59-33.65 720.24-32.3 721.72-29.93 723.19-27.55 723.19-24.4L723.19-24.4Q723.19-21 721.32-18.48 719.44-15.95 716.24-14.8L716.24-14.8 723.64 0 716.99 0 710.24-14 701.94-14 701.94 0ZM701.94-29.9L701.94-18.8 710.94-18.8Q713.74-18.8 715.44-20.33 717.14-21.85 717.14-24.35L717.14-24.35Q717.14-26.9 715.44-28.4 713.74-29.9 710.94-29.9L710.94-29.9 701.94-29.9ZM741.49 0.55L741.49 0.55Q737.39 0.55 733.76-0.88 730.14-2.3 726.79-5.1L726.79-5.1 730.04-9.5Q733.44-6.75 736.11-5.6 738.79-4.45 741.84-4.45L741.84-4.45Q744.14-4.45 745.91-5.15 747.69-5.85 748.66-7.1 749.64-8.35 749.64-10L749.64-10Q749.64-12.15 748.21-13.28 746.79-14.4 743.29-15L743.29-15 736.84-16.1Q732.29-16.9 730.06-19.18 727.84-21.45 727.84-25L727.84-25Q727.84-28.15 729.44-30.53 731.04-32.9 733.91-34.23 736.79-35.55 740.74-35.55L740.74-35.55Q744.69-35.55 748.24-34.4 751.79-33.25 754.79-31.05L754.79-31.05 751.74-26.55Q749.09-28.55 746.29-29.58 743.49-30.6 740.54-30.6L740.54-30.6Q738.44-30.6 736.86-29.95 735.29-29.3 734.41-28.15 733.54-27 733.54-25.6L733.54-25.6Q733.54-23.7 734.81-22.68 736.09-21.65 738.94-21.15L738.94-21.15 745.19-20.1Q750.49-19.15 753.01-16.8 755.54-14.45 755.54-10.45L755.54-10.45Q755.54-7.25 753.76-4.75 751.99-2.25 748.84-0.85 745.69 0.55 741.49 0.55ZM786.89 0L761.64 0 761.64-35 786.69-35 786.69-29.9 767.64-29.9 767.64-20.15 780.94-20.15 780.94-15.15 767.64-15.15 767.64-5.1 786.89-5.1 786.89 0ZM808.23 0.55L808.23 0.55Q804.43 0.55 801.13-0.83 797.83-2.2 795.36-4.67 792.88-7.15 791.51-10.43 790.13-13.7 790.13-17.5L790.13-17.5Q790.13-21.3 791.51-24.58 792.88-27.85 795.36-30.33 797.83-32.8 801.13-34.18 804.43-35.55 808.23-35.55L808.23-35.55Q810.93-35.55 813.43-34.8 815.93-34.05 818.11-32.68 820.28-31.3 821.88-29.3L821.88-29.3 817.88-25.4Q816.03-27.75 813.53-28.95 811.03-30.15 808.23-30.15L808.23-30.15Q805.68-30.15 803.51-29.2 801.33-28.25 799.71-26.53 798.08-24.8 797.18-22.5 796.28-20.2 796.28-17.5L796.28-17.5Q796.28-14.8 797.18-12.5 798.08-10.2 799.71-8.47 801.33-6.75 803.51-5.8 805.68-4.85 808.23-4.85L808.23-4.85Q811.03-4.85 813.53-6.08 816.03-7.3 817.88-9.6L817.88-9.6 821.88-5.7Q820.28-3.75 818.11-2.35 815.93-0.95 813.43-0.2 810.93 0.55 808.23 0.55ZM841.93 0.55L841.93 0.55Q837.48 0.55 834.16-1.35 830.83-3.25 829.03-6.75 827.23-10.25 827.23-15L827.23-15 827.23-35 833.23-35 833.23-15Q833.23-11.9 834.31-9.65 835.38-7.4 837.33-6.15 839.28-4.9 841.93-4.9L841.93-4.9Q844.58-4.9 846.56-6.15 848.53-7.4 849.58-9.65 850.63-11.9 850.63-15L850.63-15 850.63-35 856.63-35 856.63-15Q856.63-10.25 854.86-6.75 853.08-3.25 849.78-1.35 846.48 0.55 841.93 0.55ZM870.33 0L864.33 0 864.33-35 879.88-35Q883.33-35 885.98-33.65 888.63-32.3 890.1-29.93 891.58-27.55 891.58-24.4L891.58-24.4Q891.58-21 889.7-18.48 887.83-15.95 884.63-14.8L884.63-14.8 892.03 0 885.38 0 878.63-14 870.33-14 870.33 0ZM870.33-29.9L870.33-18.8 879.33-18.8Q882.13-18.8 883.83-20.33 885.53-21.85 885.53-24.35L885.53-24.35Q885.53-26.9 883.83-28.4 882.13-29.9 879.33-29.9L879.33-29.9 870.33-29.9ZM903.68 0L897.68 0 897.68-35 903.68-35 903.68 0ZM926.57 0L920.57 0 920.57-29.8 908.87-29.8 908.87-35 938.27-35 938.27-29.8 926.57-29.8 926.57 0ZM960.22 0L954.22 0 954.22-13.8 940.32-35 947.27-35 957.37-19 967.57-35 974.12-35 960.22-13.8 960.22 0ZM1015.12 0L989.87 0 989.87-35 1014.92-35 1014.92-29.9 995.87-29.9 995.87-20.15 1009.17-20.15 1009.17-15.15 995.87-15.15 995.87-5.1 1015.12-5.1 1015.12 0ZM1027.56 0L1021.91 0 1021.91-35 1027.76-35 1046.01-9.55 1045.91-35 1051.56-35 1051.56 0 1046.21 0 1027.46-26.15 1027.56 0ZM1076.31 0.55L1076.31 0.55Q1072.51 0.55 1069.26-0.85 1066.01-2.25 1063.54-4.73 1061.06-7.2 1059.69-10.48 1058.31-13.75 1058.31-17.5L1058.31-17.5Q1058.31-21.25 1059.69-24.53 1061.06-27.8 1063.51-30.28 1065.96-32.75 1069.21-34.15 1072.46-35.55 1076.26-35.55L1076.26-35.55Q1080.46-35.55 1084.19-33.95 1087.91-32.35 1090.41-29.3L1090.41-29.3 1086.21-25.5Q1084.41-27.8 1081.81-28.98 1079.21-30.15 1076.26-30.15L1076.26-30.15Q1073.71-30.15 1071.59-29.2 1069.46-28.25 1067.86-26.53 1066.26-24.8 1065.36-22.5 1064.46-20.2 1064.46-17.5L1064.46-17.5Q1064.46-14.8 1065.36-12.48 1066.26-10.15 1067.89-8.45 1069.51-6.75 1071.66-5.78 1073.81-4.8 1076.41-4.8L1076.41-4.8Q1079.21-4.8 1081.46-5.98 1083.71-7.15 1085.19-9.25 1086.66-11.35 1087.01-13.95L1087.01-13.95 1076.61-13.95 1076.61-19.1 1093.36-19.1 1093.36-17.15Q1093.36-13.35 1092.09-10.15 1090.81-6.95 1088.51-4.53 1086.21-2.1 1083.11-0.78 1080.01 0.55 1076.31 0.55ZM1105.81 0L1099.81 0 1099.81-35 1105.81-35 1105.81 0ZM1119.61 0L1113.96 0 1113.96-35 1119.81-35 1138.06-9.55 1137.96-35 1143.61-35 1143.61 0 1138.26 0 1119.51-26.15 1119.61 0ZM1177.25 0L1152 0 1152-35 1177.05-35 1177.05-29.9 1158-29.9 1158-20.15 1171.3-20.15 1171.3-15.15 1158-15.15 1158-5.1 1177.25-5.1 1177.25 0ZM1209.3 0L1184.05 0 1184.05-35 1209.1-35 1209.1-29.9 1190.05-29.9 1190.05-20.15 1203.35-20.15 1203.35-15.15 1190.05-15.15 1190.05-5.1 1209.3-5.1 1209.3 0ZM1222.1 0L1216.1 0 1216.1-35 1231.65-35Q1235.1-35 1237.75-33.65 1240.4-32.3 1241.87-29.93 1243.35-27.55 1243.35-24.4L1243.35-24.4Q1243.35-21 1241.47-18.48 1239.6-15.95 1236.4-14.8L1236.4-14.8 1243.8 0 1237.15 0 1230.4-14 1222.1-14 1222.1 0ZM1222.1-29.9L1222.1-18.8 1231.1-18.8Q1233.9-18.8 1235.6-20.33 1237.3-21.85 1237.3-24.35L1237.3-24.35Q1237.3-26.9 1235.6-28.4 1233.9-29.9 1231.1-29.9L1231.1-29.9 1222.1-29.9Z" opacity="1" transform="matrix(1,0,0,1,0,0)" fill="#141414" class="wordmark-text-0" data-fill-palette-color="primary" id="text-0"></path></svg></g></svg></g></svg></g></svg></g><g><svg viewBox="0 0 43.22631834267575 59.27655138626979" height="59.27655138626979" width="43.22631834267575"><g><svg xmlns="http://www.w3.org/2000/svg" xmlns:xlink="http://www.w3.org/1999/xlink" version="1.1" x="0" y="0" viewBox="12.929 1.021 64.14099999999999 87.957" enable-background="new 0 0 90 90" xml:space="preserve" height="59.27655138626979" width="43.22631834267575" class="icon-icon-0" data-fill-palette-color="accent" id="icon-0"><polygon points="42.225,52.752 46.708,49.581 46.708,38.363 42.225,41.534 " fill="#e63700" data-fill-palette-color="accent"></polygon><polygon points="51.191,20.688 42.225,27.029 42.225,38.248 51.191,31.907 " fill="#e63700" data-fill-palette-color="accent"></polygon><polygon points="56.829,31.207 47.861,37.548 47.861,48.768 56.829,42.425 " fill="#e63700" data-fill-palette-color="accent"></polygon><path d="M51.191 49.698L42.224 56.038V59.048C42.804 59.902 43.4 60.836 44.003 61.868A34 34 0 0 1 45.574 64.889L51.191 60.916z" fill="#e63700" data-fill-palette-color="accent"></path><polygon points="57.98,41.61 66.95,35.27 66.95,24.052 57.98,30.393 " fill="#e63700" data-fill-palette-color="accent"></polygon><polygon points="76.409,1.021 63.177,1.021 28.22,24.912 41.452,24.912 " fill="#e63700" data-fill-palette-color="accent"></polygon><path d="M46.708 67.738V67.372L46.605 67.443C46.641 67.542 46.676 67.641 46.708 67.738" fill="#e63700" data-fill-palette-color="accent"></path><polygon points="62.466,52.943 71.436,46.604 71.436,35.386 62.466,41.727 " fill="#e63700" data-fill-palette-color="accent"></polygon><polygon points="61.313,13.533 52.346,19.874 52.346,31.092 61.313,24.751 " fill="#e63700" data-fill-palette-color="accent"></polygon><polygon points="72.587,45.788 77.07,42.618 77.07,31.4 72.587,34.57 " fill="#e63700" data-fill-palette-color="accent"></polygon><polygon points="68.104,34.455 77.07,28.114 77.07,16.896 68.104,23.237 " fill="#e63700" data-fill-palette-color="accent"></polygon><polygon points="72.587,5.562 72.587,16.78 77.07,13.61 77.07,2.392 " fill="#e63700" data-fill-palette-color="accent"></polygon><polygon points="68.104,63.464 77.07,57.123 77.07,45.905 68.104,52.245 " fill="#e63700" data-fill-palette-color="accent"></polygon><path d="M47.861 73.189A19 19 0 0 1 47.861 76.37V77.775L56.829 71.433V60.216L47.861 66.557z" fill="#e63700" data-fill-palette-color="accent"></path><path d="M32.147 42.79A2.923 2.923 0 0 1 35.93 46.465C34.791 49.845 35.287 50.427 38.038 53.658 38.685 54.418 39.434 55.297 40.244 56.335V27.478H28.22V45.38C29.576 44.054 31.029 43.202 32.147 42.79" fill="#e63700" data-fill-palette-color="accent"></path><polygon points="71.436,6.377 62.466,12.718 62.466,23.936 71.436,17.595 " fill="#e63700" data-fill-palette-color="accent"></polygon><polygon points="61.313,42.542 52.346,48.883 52.346,60.102 61.313,53.76 " fill="#e63700" data-fill-palette-color="accent"></polygon><polygon points="57.98,70.619 66.95,64.277 66.95,53.061 57.98,59.4 " fill="#e63700" data-fill-palette-color="accent"></polygon><path d="M41.48 63.344C35.498 53.112 30.58 53.192 33.16 45.532 33.16 45.532 26.388 48.032 27.194 56.658 27.194 56.658 27.466 58.724 26.04 60.836 26.04 60.836 26.63 56.255 22.356 52.065 22.356 52.065 24.13 54.645 20.664 59.401 17.319 63.99 13.196 65.604 12.96 72.612L12.929 72.606C12.929 72.866 12.937 73.124 12.95 73.379L12.949 73.4 12.951 73.424 12.954 73.482C12.958 73.597 12.966 73.71 12.979 73.822 13.603 82.297 20.671 88.978 29.305 88.978 35.771 88.978 41.36 85.23 44.021 79.79L44.024 79.787S44.07 79.703 44.14 79.546C44.146 79.532 44.154 79.52 44.16 79.505H44.159C44.731 78.186 46.721 72.309 41.48 63.344M24.564 81.752C19.243 77.964 21.361 72.195 25.857 69.8 32.514 66.252 31.468 62.544 31.468 62.544S35.366 67.977 36.091 74.775C36.817 81.576 29.886 85.54 24.564 81.752" fill="#e63700" data-fill-palette-color="accent"></path></svg></g></svg></g></svg></g><defs></defs></svg><rect width="395.52" height="53.11001128317458" fill="none" stroke="none" visibility="hidden"></rect></g></svg></g></svg>