<svg width="131" height="131" viewBox="0 0 131 131" fill="none" xmlns="http://www.w3.org/2000/svg">
    <g clip-path="url(#s7d87wpz6a)">
        <path d="M96.6 81.208v-3.142c4.712 0 8.639-3.927 8.482-8.639 0-4.084-2.985-7.54-6.912-8.325l-.785-.157-.314-.785c-2.356-6.44-8.325-10.681-15.236-10.681-.943 0-1.885.157-2.67.314l-.943.157-.628-.785c-6.912-9.425-20.106-11.624-29.687-4.713-2.67 1.885-4.87 4.398-6.283 7.383l-.472.942H39.11c-3.612 0-6.91 1.257-9.424 3.77-2.513 2.513-3.927 5.655-3.927 9.268 0 5.34 3.142 10.21 8.168 12.251l-1.257 2.828c-6.126-2.514-10.21-8.482-10.052-15.237 0-4.398 1.728-8.481 4.869-11.466 3.141-2.984 7.225-4.712 11.466-4.712h.314c1.728-2.985 4.084-5.498 6.755-7.54 10.68-7.696 25.446-5.497 33.457 4.712.785-.157 1.57-.157 2.356-.157 7.853 0 14.922 4.713 17.906 11.938 5.027 1.414 8.482 5.969 8.482 11.152 0 6.283-5.183 11.624-11.623 11.624z" fill="url(#yr2naj0kwb)"/>
        <path d="m76.337 89.69-1.1-1.885c-.47 0-1.099-.157-1.57-.314l-1.728 1.413-4.24-1.884v-2.2c-.472-.314-.786-.628-1.257-1.099l-2.2.471-2.827-3.77 1.257-2.041-.471-1.414-2.042-.629-.471-4.712 1.884-1.1c0-.47.157-1.099.314-1.57l-1.413-1.728 1.885-4.24h2.199c.314-.472.628-.786 1.1-1.257l-.472-2.2 3.77-2.827 1.885 1.1c.471-.157.942-.471 1.57-.629l.786-2.199 4.712-.157 1.1 1.885c.47 0 1.1.157 1.57.314l1.728-1.413 4.241 1.885v2.199c.471.314.786.628 1.257 1.1l2.199-.472 2.67 4.084-1.414 1.885.472 1.413 2.042.629.47 4.555-1.884 1.1c0 .628-.157 1.099-.314 1.57l1.413 1.728-1.727 4.398h-2.2c-.314.471-.628.785-1.099 1.257l.471 2.199-3.77 2.827-1.884-1.1c-.472.158-.943.472-1.571.629l-.628 2.042-4.713.157zm-3.455-5.498.785.157c.943.314 1.728.471 2.67.471h.786l.942 1.571h.629l.628-1.728.785-.157c.785-.157 1.728-.47 2.513-.942l.786-.314 1.57.942.472-.314-.314-1.885.628-.628c.628-.628 1.256-1.257 1.728-2.042l.47-.628h1.886l.314-.472-1.257-1.413.157-.786c.314-.942.472-1.727.472-2.67v-.785l1.57-.943v-.628l-1.728-.628-.156-.786c-.158-.785-.472-1.728-.943-2.513l-.628-1.1 1.1-1.57-.315-.471-1.728.47-.628-.627c-.628-.629-1.257-1.257-2.042-1.728l-.785-.471v-1.885l-.629-.315-1.413 1.257-.786-.157c-.942-.314-1.728-.471-2.67-.471h-.785l-.943-1.728h-.628l-.628 1.728-.786.157c-.785.157-1.728.471-2.513.942l-.785.315-1.571-.943-.471.314.314 1.885-.628.628c-.629.629-1.257 1.257-1.728 2.042l-.472.629H64.4l-.314.628 1.256 1.414-.157.785c-.314.942-.471 1.728-.471 2.67v.786l-1.57.942v.628l1.727.629.157.785c.157.785.471 1.728.942 2.513l.472.786-1.1 1.727.314.472 1.885-.315.629.629c.628.628 1.256 1.256 2.041 1.728l.629.47v1.886l.628.314 1.414-1.257z" fill="url(#mf879udp1c)"/>
        <path d="M75.553 79.951h-.157c-.629-.157-1.1-.314-1.571-.628-.314-.157-.629-.628-.314-1.1.157-.314.628-.628 1.1-.314.47.157.785.314 1.256.471.471.157.628.472.628.943-.314.314-.628.628-.942.628zm4.555-.628c-.314 0-.629-.157-.629-.471-.157-.315 0-.786.315-1.1.47-.157.785-.471 1.1-.785.313-.314.785-.157 1.099.157.314.314.157.785-.157 1.1-.472.313-.943.627-1.414.942-.157.157-.157.157-.314.157zM70.84 76.18c-.314 0-.628-.157-.628-.471-.314-.471-.471-1.1-.628-1.57-.157-.472.157-.786.628-.943.471-.157.785.157.943.628.157.471.314.943.47 1.257.158.314 0 .785-.313 1.1h-.472zm13.038-1.413h-.157c-.472-.157-.629-.472-.629-.943.157-.471.157-.942.157-1.413 0-.472.314-.786.786-.786.47 0 .785.314.785.785h-.785.785c0 .629 0 1.257-.157 1.728-.157.314-.471.629-.785.629zM70.84 70.212h-.314c-.314-.157-.628-.628-.314-1.1l.943-1.413c.314-.314.785-.471 1.1-.157.313.314.47.786.156 1.1-.314.314-.471.785-.785 1.1-.314.313-.629.47-.786.47zM82.464 68.8c-.157 0-.471-.157-.628-.314l-.943-.943c-.314-.314-.471-.785-.157-1.1.314-.313.785-.47 1.1-.156a4.78 4.78 0 0 1 1.256 1.256c.314.314.157.786-.157 1.1-.157 0-.314.157-.471.157zm-7.068-2.356c-.315 0-.629-.314-.786-.629-.157-.47.157-.785.629-.942.628-.157 1.099-.157 1.727-.157.472 0 .786.314.786.785 0 .471-.314.786-.786.786-.47 0-.942 0-1.413.157h-.157z" fill="url(#81t736ukud)"/>
        <path d="m48.849 97.072-.786-1.414c-.314 0-.471 0-.785-.157l-1.257 1.1-3.612-1.728v-1.571l-.472-.471-1.57.314-2.2-3.299.786-1.413c-.157-.158-.157-.472-.314-.629l-1.57-.471-.315-4.084 1.414-.785c0-.314 0-.472.157-.786l-1.1-1.256 1.57-3.613h1.729a2.17 2.17 0 0 0 .47-.628l-.156-1.414 3.298-2.199 1.414.785c.157-.157.471-.157.628-.314l.472-1.57h.47v-.315h2.671v1.571l1.257-.785.314.628c.314 0 .471 0 .785.157l1.257-1.1 3.612 1.571v1.728l.472.471 1.57-.314 2.2 3.299-.786 1.413c.157.314.157.472.314.786l1.571.471.314 3.927-1.413.785c0 .314 0 .471-.158.786l1.1 1.256-1.57 3.613H58.9l-.47.471.313 1.57-3.298 2.2-1.414-.785c-.157.157-.471.157-.628.314l-.471 1.57-4.084.315zm-2.356-5.027.785.157c.628.157 1.257.314 1.885.314h.785l.471.943.315-1.1.785-.157c.628-.157 1.257-.314 1.728-.628l.785-.314.943.628v-1.1l.628-.628c.471-.47.785-.785 1.256-1.413l.472-.629h1.1l-.786-.942.157-.785c.157-.629.314-1.257.314-1.728v-.786l.943-.47-1.1-.315-.157-.785c-.157-.629-.471-1.257-.628-1.728l-.472-.786.629-.942-1.1.157-.628-.628c-.471-.471-.785-.786-1.414-1.257l-.628-.471v-1.257l-.943.786-.785-.157c-.628-.157-1.257-.314-1.728-.314h-.785l-.471-.943-.314 1.1-.786.157a7.66 7.66 0 0 0-1.728.628l-.785.314-.942-.628.157 1.1-.629.628c-.471.47-.785.942-1.256 1.413l-.315.629h-1.099l.785.942-.314.628c-.157.629-.314 1.257-.314 1.728v.785l-.942.472 1.1.314.156.785c.157.629.314 1.1.629 1.728l.47.785-.628.943 1.1-.157.628.628c.471.471.943.785 1.414 1.1l.628.47v1.415l.629-.629z" fill="url(#06fq50o2he)"/>
        <path d="M49.79 89.847c-.47 0-.785-.314-.785-.785 0-.472.315-.786.786-.786.471 0 .942 0 1.257-.157.47-.157.785.157.942.471.157.472-.157.786-.471.943-.471.157-1.1.314-1.728.314zm-4.083-2.042c-.314 0-.471-.157-.628-.314-.315-.471-.629-.943-.786-1.57-.157-.472 0-.786.471-.943.472-.157.786 0 .943.47.157.472.314.786.628 1.1.314.314.157.786-.157 1.1 0 .157-.157.157-.471.157zm8.796-1.414h-.314c-.471-.157-.628-.628-.471-.942.157-.471.157-.785.157-1.257 0-.471.314-.785.785-.785.471 0 .786.314.786.785v.157c0 .629-.157 1.257-.315 1.728 0 0-.314.314-.628.314zm-8.796-4.398c-.157 0-.314 0-.471-.157-.314-.314-.471-.785-.157-1.1a4.781 4.781 0 0 1 1.256-1.256c.314-.314.786-.157 1.1.157.314.314.157.785-.157 1.1l-.943.942c-.157.157-.314.314-.628.314zm6.911-1.256c-.157 0-.314 0-.471-.157-.314-.157-.785-.472-1.1-.472-.47-.157-.628-.628-.47-.942.156-.471.628-.628.942-.471.628.157 1.1.47 1.57.785.315.314.472.785.157 1.1-.157 0-.314.157-.628.157z" fill="url(#ysrcctb3uf)"/>
        <path d="M65.502 16.964a8.447 8.447 0 0 1-8.482-8.482A8.447 8.447 0 0 1 65.501 0a8.447 8.447 0 0 1 8.482 8.482 8.447 8.447 0 0 1-8.482 8.482zm0-13.823a5.296 5.296 0 0 0-5.341 5.341 5.296 5.296 0 0 0 5.34 5.34 5.296 5.296 0 0 0 5.341-5.34 5.296 5.296 0 0 0-5.34-5.34z" fill="url(#xa9e5hxccg)"/>
        <path d="M65.502 131a8.447 8.447 0 0 1-8.482-8.482 8.447 8.447 0 0 1 8.482-8.482 8.447 8.447 0 0 1 8.482 8.482A8.447 8.447 0 0 1 65.502 131zm0-13.822a5.296 5.296 0 0 0-5.341 5.34 5.296 5.296 0 0 0 5.34 5.341 5.296 5.296 0 0 0 5.341-5.341 5.296 5.296 0 0 0-5.34-5.34z" fill="url(#23loq5uh2h)"/>
        <path d="M122.517 73.982a8.447 8.447 0 0 1-8.482-8.482 8.447 8.447 0 0 1 8.482-8.482 8.447 8.447 0 0 1 8.482 8.482 8.447 8.447 0 0 1-8.482 8.482zm0-13.823a5.296 5.296 0 0 0-5.34 5.34 5.296 5.296 0 0 0 5.34 5.341 5.296 5.296 0 0 0 5.341-5.34 5.296 5.296 0 0 0-5.341-5.34z" fill="url(#5lwjvt6zni)"/>
        <path d="M8.482 73.982A8.447 8.447 0 0 1 0 65.5a8.447 8.447 0 0 1 8.482-8.482 8.447 8.447 0 0 1 8.482 8.482 8.447 8.447 0 0 1-8.482 8.482zm0-13.823a5.296 5.296 0 0 0-5.34 5.34 5.296 5.296 0 0 0 5.34 5.341 5.296 5.296 0 0 0 5.34-5.34 5.296 5.296 0 0 0-5.34-5.34z" fill="url(#r2a1ihn8ij)"/>
        <path d="M105.869 114.35a8.447 8.447 0 0 1-8.482-8.482 8.448 8.448 0 0 1 8.482-8.482 8.447 8.447 0 0 1 8.482 8.482 8.447 8.447 0 0 1-8.482 8.482zm0-13.823a5.297 5.297 0 0 0-5.341 5.341 5.296 5.296 0 0 0 5.341 5.34 5.296 5.296 0 0 0 5.34-5.34 5.296 5.296 0 0 0-5.34-5.341z" fill="url(#tk50q39u1k)"/>
        <path d="M25.13 33.613a8.447 8.447 0 0 1-8.482-8.482 8.447 8.447 0 0 1 8.483-8.482 8.447 8.447 0 0 1 8.481 8.482 8.447 8.447 0 0 1-8.482 8.482zm0-13.822a5.296 5.296 0 0 0-5.34 5.34 5.297 5.297 0 0 0 5.34 5.341 5.297 5.297 0 0 0 5.341-5.34 5.296 5.296 0 0 0-5.34-5.341z" fill="url(#pvlagsrhll)"/>
        <path d="M25.13 114.35a8.447 8.447 0 0 1-8.482-8.482 8.447 8.447 0 0 1 8.483-8.482 8.447 8.447 0 0 1 8.481 8.482 8.447 8.447 0 0 1-8.482 8.482zm0-13.823a5.296 5.296 0 0 0-5.34 5.341 5.296 5.296 0 0 0 5.34 5.34 5.296 5.296 0 0 0 5.341-5.34 5.296 5.296 0 0 0-5.34-5.341z" fill="url(#rm5dpnoetm)"/>
        <path d="M105.869 33.613a8.447 8.447 0 0 1-8.482-8.482 8.447 8.447 0 0 1 8.482-8.482 8.447 8.447 0 0 1 8.482 8.482 8.447 8.447 0 0 1-8.482 8.482zm0-13.822a5.296 5.296 0 0 0-5.341 5.34 5.297 5.297 0 0 0 5.341 5.341 5.296 5.296 0 0 0 5.34-5.34 5.296 5.296 0 0 0-5.34-5.341z" fill="url(#l6a2mnyqun)"/>
        <path d="m72.725 8.639-.943-.157c-.47 0-.785-.471-.628-.943 0-.47.471-.785.943-.628l.785.157c.471 0 .785.471.628.943 0 .314-.314.628-.785.628z" fill="url(#g0l4n2kpbo)"/>
        <path d="M96.287 17.278c-.157 0-.315 0-.472-.157-.47-.314-.942-.628-1.256-.785-.314-.157-.471-.786-.314-1.1.157-.314.785-.471 1.1-.314.47.314.942.628 1.413.785.314.157.471.786.157 1.1 0 .314-.314.471-.628.471zm-5.498-3.141c-.157 0-.314 0-.314-.158-.471-.157-.943-.47-1.414-.628-.471-.157-.628-.628-.314-1.1.157-.47.628-.628 1.1-.314.47.158.942.472 1.413.629.314.157.471.628.314 1.1a.864.864 0 0 1-.785.47zm-5.812-2.514h-.314l-1.413-.47c-.472-.158-.629-.63-.472-.943.157-.472.628-.629.943-.472.47.157.942.315 1.57.472.472.157.629.628.472.942a.864.864 0 0 1-.786.471zm-5.969-1.885h-.157c-.47-.157-.942-.314-1.57-.314-.472-.157-.629-.471-.629-.942.157-.471.472-.628.943-.628.471.157 1.1.157 1.57.314.472.157.629.47.629.942-.157.471-.471.628-.785.628z" fill="url(#xdnhp42r8p)"/>
        <path d="M100.842 20.42c-.157 0-.314 0-.471-.158l-.629-.47c-.314-.315-.47-.786-.157-1.1.315-.315.786-.472 1.1-.157l.628.47c.314.315.471.786.157 1.1-.157.314-.471.314-.628.314z" fill="url(#4zql2teikq)"/>
        <path d="M110.581 101.627c-.157 0-.314 0-.471-.157-.315-.314-.472-.785-.158-1.099l.472-.629c.314-.314.785-.47 1.099-.157.314.315.471.786.157 1.1l-.471.628c-.157.157-.471.314-.628.314z" fill="url(#1ljyolpd0r)"/>
        <path d="M113.721 97.072c-.157 0-.314 0-.471-.157-.314-.157-.471-.785-.157-1.1.314-.47.628-.942.785-1.256.158-.314.786-.471 1.1-.314.314.157.471.785.314 1.1-.314.47-.628.942-.785 1.413-.314.157-.471.314-.786.314zm3.142-5.498c-.157 0-.314 0-.314-.157-.314-.157-.471-.628-.314-1.1.157-.47.471-.942.628-1.413.157-.471.628-.628 1.099-.314.472.157.629.628.315 1.1-.158.47-.472.942-.629 1.413a.863.863 0 0 1-.785.471zm2.513-5.811h-.314c-.471-.157-.628-.629-.471-.943l.471-1.413c.157-.472.628-.629.942-.472.472.157.629.629.472.943-.157.471-.315.942-.472 1.57 0 .158-.314.315-.628.315zm1.885-5.97h-.157c-.471-.156-.628-.47-.628-.942.157-.47.314-.942.314-1.57.157-.472.471-.629.942-.629.471.157.628.472.628.943-.157.471-.157 1.1-.314 1.57-.157.315-.471.629-.785.629z" fill="url(#ivacgxks2s)"/>
        <path d="M122.36 73.511c-.472 0-.786-.471-.786-.942l.157-.786c0-.47.472-.785.943-.628.471 0 .785.471.628.943l-.157.785c0 .314-.314.628-.785.628z" fill="url(#bqnkzalr9t)"/>
        <path d="M7.696 59.06c-.472 0-.786-.471-.786-.942l.157-.786c0-.471.471-.785.943-.628.47 0 .785.471.628.942l-.157.786c0 .314-.314.628-.785.628z" fill="url(#fdb3ulrenu)"/>
        <path d="M8.64 53.563h-.156c-.314-.157-.629-.472-.629-.943.158-.471.158-1.1.315-1.57.157-.472.47-.629.942-.629.471.157.628.471.628.943-.157.47-.314.942-.314 1.57 0 .314-.314.629-.785.629zm1.729-6.126h-.314c-.472-.157-.629-.629-.472-.943.157-.471.314-.942.472-1.57.157-.472.628-.629.942-.472.471.157.628.629.471.943l-.471 1.413c0 .472-.314.629-.628.629zm2.356-5.812h-.314c-.472-.157-.629-.628-.314-1.1.157-.47.47-.942.628-1.413.157-.314.628-.471 1.1-.314.313 0 .47.47.313.942-.157.471-.47.942-.628 1.414a.864.864 0 0 1-.785.47zm2.984-5.655c-.157 0-.314 0-.471-.157-.314-.157-.471-.785-.314-1.1.314-.47.628-.942.785-1.413.157-.314.786-.471 1.1-.157.314.157.47.785.157 1.1-.314.47-.629.942-.786 1.256 0 .314-.157.471-.47.471z" fill="url(#rnveyw51uv)"/>
        <path d="M19.163 30.786c-.157 0-.314 0-.471-.157-.315-.314-.472-.785-.157-1.1l.47-.627c.315-.315.786-.472 1.1-.158.314.315.471.786.157 1.1l-.47.628c-.158.314-.315.314-.63.314z" fill="url(#wi57p1f0ew)"/>
        <path d="M7.853 73.51c-.315 0-.786-.314-.786-.628l-.157-.785c0-.471.314-.786.628-.943.472 0 .786.314.943.629l.157.785c0 .471-.314.942-.785.942z" fill="url(#32ltx2zdkx)"/>
        <path d="M16.492 97.072c-.315 0-.472-.157-.629-.314-.314-.471-.628-.943-.785-1.414-.157-.314-.157-.785.314-1.1.314-.156.785-.156 1.1.315.314.471.47.942.785 1.256.157.315.157.786-.157 1.1-.314.157-.471.157-.628.157zm-3.142-5.498c-.314 0-.628-.157-.628-.47-.314-.472-.471-.943-.628-1.415-.157-.314 0-.785.314-1.099.47-.157.785 0 1.1.314.156.628.313 1.1.628 1.57.157.315 0 .786-.315 1.1h-.47zm-2.513-5.811a.864.864 0 0 1-.785-.472 19.762 19.762 0 0 1-.472-1.57c-.157-.472.157-.786.472-.943.47-.157.942.157 1.1.471l.47 1.414c.157.471 0 .785-.47.943-.158.157-.158.157-.315.157zm-1.728-5.97c-.314 0-.628-.313-.785-.628-.157-.47-.314-1.099-.314-1.57-.157-.471.157-.786.628-.943.314 0 .785.157.785.629.157.47.157.942.314 1.57.158.472-.157.786-.628.943z" fill="url(#sf4d6450uy)"/>
        <path d="M19.634 101.627c-.157 0-.471-.157-.628-.314l-.471-.628c-.315-.314-.158-.785.157-1.1.314-.314.785-.157 1.1.157l.47.629c.314.314.157.785-.157 1.099 0 0-.314.157-.471.157z" fill="url(#dv2eujg1jz)"/>
        <path d="M30.002 111.837c-.157 0-.314 0-.471-.157l-.628-.471c-.315-.314-.472-.785-.157-1.099.314-.315.785-.472 1.099-.158l.628.472c.314.314.472.785.157 1.099-.157.157-.314.314-.628.314z" fill="url(#bm48db5k1A)"/>
        <path d="M52.779 122.361h-.157c-.471-.157-1.1-.157-1.571-.314-.471-.157-.628-.471-.628-.943.157-.471.47-.628.942-.628.471.157.942.314 1.57.314.472.157.63.472.63.943-.158.314-.472.628-.786.628zm-6.126-1.728h-.314c-.471-.157-.943-.314-1.571-.471-.471-.157-.628-.628-.471-.942.157-.472.628-.629.942-.472l1.414.472c.471.157.628.628.471.942.157.314-.157.471-.471.471zm-5.812-2.356h-.314c-.471-.157-.943-.471-1.414-.628-.314-.157-.47-.628-.314-1.1.157-.314.628-.471 1.1-.314.47.157.942.471 1.413.628.472.158.629.629.315 1.1a1.2 1.2 0 0 1-.786.314zm-5.655-2.984c-.157 0-.314 0-.47-.157-.472-.314-.943-.629-1.414-.786-.315-.157-.472-.785-.315-1.099.157-.314.786-.471 1.1-.314.471.314.942.628 1.256.785.315.157.472.785.315 1.1.157.471-.157.471-.472.471z" fill="url(#7s0jpmloyB)"/>
        <path d="M58.276 123.303s-.157 0 0 0l-.943-.157c-.471 0-.785-.471-.628-.943 0-.471.471-.785.942-.628l.786.157c.471 0 .785.471.628.943-.157.314-.471.628-.785.628z" fill="url(#3ca8wus0wC)"/>
        <path d="M71.942 123.303c-.314 0-.786-.314-.786-.628 0-.472.314-.786.629-.943l.785-.157c.471 0 .785.314.942.628 0 .472-.314.786-.628.943l-.942.157s.157 0 0 0z" fill="url(#bhj1r7c3eD)"/>
        <path d="M77.44 122.36c-.315 0-.629-.314-.786-.628-.157-.471.157-.785.628-.942.472-.157.943-.157 1.571-.314.471-.157.786.157.943.628.157.471-.157.785-.629.942-.47.157-1.1.314-1.57.314h-.157zm6.125-1.727a.863.863 0 0 1-.785-.472c-.157-.471.157-.785.471-.942l1.414-.471c.471-.157.785 0 .942.471.157.471 0 .785-.47.942-.472.158-.943.315-1.572.472 0 0 .157 0 0 0zm5.812-2.356a.865.865 0 0 1-.785-.472c-.157-.314 0-.785.314-1.099.471-.157.942-.471 1.414-.628.314-.158.785 0 1.1.314.156.314 0 .785-.315 1.099-.471.314-.943.471-1.414.628 0 .158-.157.158-.314.158zm5.655-2.985c-.314 0-.471-.157-.629-.314-.157-.314-.157-.785.315-1.1.47-.314.942-.471 1.256-.785.314-.314.786-.157 1.1.157.314.314.157.786-.157 1.1-.472.314-.943.628-1.414.785-.157.157-.314.157-.471.157z" fill="url(#d4cr9wee6E)"/>
        <path d="M100.214 111.837c-.157 0-.472-.157-.629-.314-.314-.314-.157-.785.157-1.099l.629-.472c.314-.314.785-.157 1.099.158.314.314.157.785-.157 1.099l-.628.471c-.157 0-.314.157-.471.157z" fill="url(#8eoao6e1mF)"/>
        <path d="M111.053 30.786c-.314 0-.471-.157-.628-.314a2.15 2.15 0 0 1-.472-.628c-.314-.314-.314-.786.157-1.1.315-.314.786-.314 1.1.157.157.157.314.472.471.629.314.314.157.785-.157 1.1-.157.156-.314.156-.471.156z" fill="url(#psmnkfvnvG)"/>
        <path d="M121.575 53.562c-.314 0-.628-.314-.785-.628-.157-.471-.157-.943-.314-1.571-.157-.471.157-.785.628-.942.471-.157.785.157.942.628.157.471.314 1.1.314 1.57.158.472-.157.786-.628.943h-.157zm-1.728-6.126a.863.863 0 0 1-.785-.471l-.471-1.414c-.157-.471 0-.785.471-.942.471-.157.785 0 .942.471.157.471.315.943.472 1.57.157.472-.157.786-.472.943 0-.157 0-.157-.157-.157zm-2.356-5.812a.863.863 0 0 1-.785-.47c-.157-.472-.471-.943-.628-1.415-.158-.314 0-.785.314-1.099.314-.157.785 0 1.099.314.314.471.471.943.628 1.414.158.471 0 .785-.314 1.1 0 .156-.157.156-.314.156zm-2.984-5.654c-.314 0-.471-.157-.629-.314-.314-.472-.471-.943-.785-1.257-.314-.314-.157-.785.157-1.1.314-.157.786-.157 1.1.157.314.472.628.943.785 1.414.157.314.157.786-.314 1.1h-.314z" fill="url(#9ea4fpqu0H)"/>
        <path d="M122.517 59.06c-.314 0-.786-.314-.786-.628l-.157-.785c0-.472.314-.786.629-.943.471 0 .785.314.942.628l.157.786c0 .471-.314.785-.785.942z" fill="url(#98offcknaI)"/>
        <path d="M29.374 20.42c-.314 0-.471-.158-.628-.315-.315-.314-.158-.785.157-1.1l.628-.47c.314-.315.785-.158 1.1.157.314.314.156.785-.158 1.1l-.628.47c-.157.157-.314.157-.471.157z" fill="url(#3gj31u81hJ)"/>
        <path d="M33.93 17.278c-.315 0-.472-.157-.629-.314-.157-.314-.157-.786.314-1.1.471-.314.943-.628 1.414-.785.314-.157.785-.157 1.1.314.156.314.156.785-.315 1.1-.471.314-.942.47-1.256.785h-.629zm5.497-3.142c-.314 0-.628-.157-.628-.47-.157-.315 0-.786.314-1.1.47-.315.942-.472 1.413-.629.472-.157.786 0 1.1.315.157.47 0 .785-.314 1.1-.471.156-.943.47-1.414.627-.314.157-.314.157-.471.157zm5.812-2.513a.864.864 0 0 1-.786-.471c-.157-.471 0-.785.471-.942.472-.158.943-.315 1.571-.472.471-.157.786.157.943.472.157.47-.157.785-.472.942l-1.413.471h-.314zm5.968-1.728c-.314 0-.628-.314-.785-.628-.157-.471.157-.785.628-.942.472-.157 1.1-.314 1.571-.314.314-.158.785.157.943.47 0 .472-.315.943-.629.943-.471.157-.942.157-1.57.314 0 .157-.158.157-.158.157z" fill="url(#n6dtuah8sK)"/>
        <path d="M57.489 8.639c-.315 0-.786-.314-.786-.628 0-.472.314-.786.628-.943l.786-.157c.471 0 .785.314.942.628 0 .472-.314.786-.628.943l-.942.157z" fill="url(#1dfe6wag5L)"/>
    </g>
    <defs>
        <linearGradient id="yr2naj0kwb" x1="22.602" y1="92.734" x2="1.024" y2="64.065" gradientUnits="userSpaceOnUse">
            <stop stop-color="#F89705"/>
            <stop offset="1" stop-color="#FFC01E"/>
        </linearGradient>
        <linearGradient id="mf879udp1c" x1="59.683" y1="98.85" x2="43.134" y2="87.683" gradientUnits="userSpaceOnUse">
            <stop stop-color="#F89705"/>
            <stop offset="1" stop-color="#FFC01E"/>
        </linearGradient>
        <linearGradient id="81t736ukud" x1="69.541" y1="83.954" x2="62.279" y2="78.995" gradientUnits="userSpaceOnUse">
            <stop stop-color="#F89705"/>
            <stop offset="1" stop-color="#FFC01E"/>
        </linearGradient>
        <linearGradient id="06fq50o2he" x1="36.75" y1="103.88" x2="24.409" y2="95.477" gradientUnits="userSpaceOnUse">
            <stop stop-color="#F89705"/>
            <stop offset="1" stop-color="#FFC01E"/>
        </linearGradient>
        <linearGradient id="ysrcctb3uf" x1="44.233" y1="92.792" x2="38.894" y2="89.157" gradientUnits="userSpaceOnUse">
            <stop stop-color="#F89705"/>
            <stop offset="1" stop-color="#FFC01E"/>
        </linearGradient>
        <linearGradient id="xa9e5hxccg" x1="57.017" y1="21.421" x2="48.939" y2="15.92" gradientUnits="userSpaceOnUse">
            <stop stop-color="#F89705"/>
            <stop offset="1" stop-color="#FFC01E"/>
        </linearGradient>
        <linearGradient id="23loq5uh2h" x1="57.017" y1="135.457" x2="48.939" y2="129.956" gradientUnits="userSpaceOnUse">
            <stop stop-color="#F89705"/>
            <stop offset="1" stop-color="#FFC01E"/>
        </linearGradient>
        <linearGradient id="5lwjvt6zni" x1="114.033" y1="78.438" x2="105.955" y2="72.938" gradientUnits="userSpaceOnUse">
            <stop stop-color="#F89705"/>
            <stop offset="1" stop-color="#FFC01E"/>
        </linearGradient>
        <linearGradient id="r2a1ihn8ij" x1="-.002" y1="78.438" x2="-8.08" y2="72.938" gradientUnits="userSpaceOnUse">
            <stop stop-color="#F89705"/>
            <stop offset="1" stop-color="#FFC01E"/>
        </linearGradient>
        <linearGradient id="tk50q39u1k" x1="97.384" y1="118.806" x2="89.306" y2="113.306" gradientUnits="userSpaceOnUse">
            <stop stop-color="#F89705"/>
            <stop offset="1" stop-color="#FFC01E"/>
        </linearGradient>
        <linearGradient id="pvlagsrhll" x1="16.646" y1="38.07" x2="8.568" y2="32.569" gradientUnits="userSpaceOnUse">
            <stop stop-color="#F89705"/>
            <stop offset="1" stop-color="#FFC01E"/>
        </linearGradient>
        <linearGradient id="rm5dpnoetm" x1="16.646" y1="118.806" x2="8.568" y2="113.306" gradientUnits="userSpaceOnUse">
            <stop stop-color="#F89705"/>
            <stop offset="1" stop-color="#FFC01E"/>
        </linearGradient>
        <linearGradient id="l6a2mnyqun" x1="97.384" y1="38.07" x2="89.306" y2="32.569" gradientUnits="userSpaceOnUse">
            <stop stop-color="#F89705"/>
            <stop offset="1" stop-color="#FFC01E"/>
        </linearGradient>
        <linearGradient id="g0l4n2kpbo" x1="71.113" y1="9.103" x2="70.21" y2="8.256" gradientUnits="userSpaceOnUse">
            <stop stop-color="#F89705"/>
            <stop offset="1" stop-color="#FFC01E"/>
        </linearGradient>
        <linearGradient id="xdnhp42r8p" x1="76.65" y1="19.754" x2="72.171" y2="13.141" gradientUnits="userSpaceOnUse">
            <stop stop-color="#F89705"/>
            <stop offset="1" stop-color="#FFC01E"/>
        </linearGradient>
        <linearGradient id="4zql2teikq" x1="99.414" y1="20.96" x2="98.408" y2="20.218" gradientUnits="userSpaceOnUse">
            <stop stop-color="#F89705"/>
            <stop offset="1" stop-color="#FFC01E"/>
        </linearGradient>
        <linearGradient id="1ljyolpd0r" x1="109.781" y1="102.209" x2="108.754" y2="101.555" gradientUnits="userSpaceOnUse">
            <stop stop-color="#F89705"/>
            <stop offset="1" stop-color="#FFC01E"/>
        </linearGradient>
        <linearGradient id="ivacgxks2s" x1="112.921" y1="102.436" x2="106.935" y2="100.552" gradientUnits="userSpaceOnUse">
            <stop stop-color="#F89705"/>
            <stop offset="1" stop-color="#FFC01E"/>
        </linearGradient>
        <linearGradient id="bqnkzalr9t" x1="121.574" y1="74.141" x2="120.59" y2="73.646" gradientUnits="userSpaceOnUse">
            <stop stop-color="#F89705"/>
            <stop offset="1" stop-color="#FFC01E"/>
        </linearGradient>
        <linearGradient id="fdb3ulrenu" x1="6.91" y1="59.69" x2="5.926" y2="59.195" gradientUnits="userSpaceOnUse">
            <stop stop-color="#F89705"/>
            <stop offset="1" stop-color="#FFC01E"/>
        </linearGradient>
        <linearGradient id="rnveyw51uv" x1="7.854" y1="58.972" x2="1.942" y2="57.157" gradientUnits="userSpaceOnUse">
            <stop stop-color="#F89705"/>
            <stop offset="1" stop-color="#FFC01E"/>
        </linearGradient>
        <linearGradient id="wi57p1f0ew" x1="18.363" y1="31.368" x2="17.337" y2="30.714" gradientUnits="userSpaceOnUse">
            <stop stop-color="#F89705"/>
            <stop offset="1" stop-color="#FFC01E"/>
        </linearGradient>
        <linearGradient id="32ltx2zdkx" x1="6.91" y1="74.129" x2="5.946" y2="73.648" gradientUnits="userSpaceOnUse">
            <stop stop-color="#F89705"/>
            <stop offset="1" stop-color="#FFC01E"/>
        </linearGradient>
        <linearGradient id="sf4d6450uy" x1="7.967" y1="102.436" x2="1.996" y2="100.562" gradientUnits="userSpaceOnUse">
            <stop stop-color="#F89705"/>
            <stop offset="1" stop-color="#FFC01E"/>
        </linearGradient>
        <linearGradient id="dv2eujg1jz" x1="18.363" y1="102.209" x2="17.337" y2="101.555" gradientUnits="userSpaceOnUse">
            <stop stop-color="#F89705"/>
            <stop offset="1" stop-color="#FFC01E"/>
        </linearGradient>
        <linearGradient id="bm48db5k1A" x1="28.574" y1="112.378" x2="27.569" y2="111.636" gradientUnits="userSpaceOnUse">
            <stop stop-color="#F89705"/>
            <stop offset="1" stop-color="#FFC01E"/>
        </linearGradient>
        <linearGradient id="7s0jpmloyB" x1="32.923" y1="124.853" x2="28.421" y2="118.183" gradientUnits="userSpaceOnUse">
            <stop stop-color="#F89705"/>
            <stop offset="1" stop-color="#FFC01E"/>
        </linearGradient>
        <linearGradient id="3ca8wus0wC" x1="56.664" y1="123.768" x2="55.76" y2="122.92" gradientUnits="userSpaceOnUse">
            <stop stop-color="#F89705"/>
            <stop offset="1" stop-color="#FFC01E"/>
        </linearGradient>
        <linearGradient id="bhj1r7c3eD" x1="71.156" y1="123.757" x2="70.274" y2="122.938" gradientUnits="userSpaceOnUse">
            <stop stop-color="#F89705"/>
            <stop offset="1" stop-color="#FFC01E"/>
        </linearGradient>
        <linearGradient id="d4cr9wee6E" x1="76.611" y1="124.84" x2="72.138" y2="118.184" gradientUnits="userSpaceOnUse">
            <stop stop-color="#F89705"/>
            <stop offset="1" stop-color="#FFC01E"/>
        </linearGradient>
        <linearGradient id="8eoao6e1mF" x1="99.414" y1="112.378" x2="98.408" y2="111.636" gradientUnits="userSpaceOnUse">
            <stop stop-color="#F89705"/>
            <stop offset="1" stop-color="#FFC01E"/>
        </linearGradient>
        <linearGradient id="psmnkfvnvG" x1="109.734" y1="31.38" x2="108.685" y2="30.711" gradientUnits="userSpaceOnUse">
            <stop stop-color="#F89705"/>
            <stop offset="1" stop-color="#FFC01E"/>
        </linearGradient>
        <linearGradient id="9ea4fpqu0H" x1="112.921" y1="58.912" x2="106.917" y2="57.009" gradientUnits="userSpaceOnUse">
            <stop stop-color="#F89705"/>
            <stop offset="1" stop-color="#FFC01E"/>
        </linearGradient>
        <linearGradient id="98offcknaI" x1="121.574" y1="59.679" x2="120.61" y2="59.198" gradientUnits="userSpaceOnUse">
            <stop stop-color="#F89705"/>
            <stop offset="1" stop-color="#FFC01E"/>
        </linearGradient>
        <linearGradient id="3gj31u81hJ" x1="28.574" y1="20.96" x2="27.569" y2="20.218" gradientUnits="userSpaceOnUse">
            <stop stop-color="#F89705"/>
            <stop offset="1" stop-color="#FFC01E"/>
        </linearGradient>
        <linearGradient id="n6dtuah8sK" x1="33.204" y1="19.723" x2="28.794" y2="13.157" gradientUnits="userSpaceOnUse">
            <stop stop-color="#F89705"/>
            <stop offset="1" stop-color="#FFC01E"/>
        </linearGradient>
        <linearGradient id="1dfe6wag5L" x1="56.703" y1="9.093" x2="55.821" y2="8.274" gradientUnits="userSpaceOnUse">
            <stop stop-color="#F89705"/>
            <stop offset="1" stop-color="#FFC01E"/>
        </linearGradient>
        <clipPath id="s7d87wpz6a">
            <path fill="#fff" d="M0 0h131v131H0z"/>
        </clipPath>
    </defs>
</svg>
