<svg xmlns="http://www.w3.org/2000/svg" version="1.1" xmlns:xlink="http://www.w3.org/1999/xlink" xmlns:svgjs="http://svgjs.dev/svgjs" width="128" height="128" viewBox="0 0 128 128"><g transform="matrix(0.8046875,0,0,0.8046875,12.221578124999994,12.220294753805838)"><svg viewBox="0 0 96 96" data-background-color="#121212" preserveAspectRatio="xMidYMid meet" height="128" width="128" xmlns="http://www.w3.org/2000/svg" xmlns:xlink="http://www.w3.org/1999/xlink"><g id="tight-bounds" transform="matrix(1,0,0,1,0.25950000000000273,0.2606961517926152)"><svg viewBox="0 0 95.481 95.47860769641478" height="95.47860769641478" width="95.481"><g><svg viewBox="0 0 95.481 95.47860769641478" height="95.47860769641478" width="95.481"><g><svg viewBox="0 0 95.481 95.47860769641478" height="95.47860769641478" width="95.481"><g id="textblocktransform"><svg viewBox="0 0 95.481 95.47860769641478" height="95.47860769641478" width="95.481" id="textblock"><g><svg viewBox="0 0 95.481 95.47860769641478" height="95.47860769641478" width="95.481"><g><svg viewBox="0 0 95.481 95.47860769641478" height="95.47860769641478" width="95.481"><g><svg xmlns="http://www.w3.org/2000/svg" xmlns:xlink="http://www.w3.org/1999/xlink" version="1.1" x="0" y="0" viewBox="7.279893330341158 7.28 85.44214077711491 85.44" enable-background="new 0 0 100 100" xml:space="preserve" height="95.47860769641478" width="95.481" class="icon-icon-0" data-fill-palette-color="accent" id="icon-0"><path d="M91.24 67.483L74.39 58.951 90.34 50.705C90.848 50.441 90.848 50.017 90.337 49.76L72.349 40.653 91.261 30.875C92.18 30.398 92.725 29.552 92.72 28.611 92.714 27.672 92.159 26.834 91.24 26.37L54.356 7.698C53.673 7.353 52.96 7.28 52.481 7.28 52.041 7.28 51.383 7.342 50.746 7.64L8.818 27.269C7.864 27.716 7.289 28.552 7.28 29.504 7.271 30.457 7.832 31.304 8.779 31.77L28.918 41.673 9.667 50.685C9.153 50.926 9.151 51.328 9.662 51.579L26.756 59.985 8.818 68.381C7.863 68.828 7.288 69.664 7.28 70.616 7.272 71.569 7.833 72.416 8.779 72.88L48.333 92.332C48.984 92.653 49.66 92.72 50.112 92.72 50.588 92.72 51.298 92.647 51.984 92.295L91.263 71.987C92.182 71.51 92.727 70.664 92.722 69.723 92.714 68.785 92.16 67.946 91.24 67.483M52.375 11.289A1 1 0 0 1 52.481 11.28C52.542 11.28 52.587 11.288 52.563 11.274L86.872 28.642 50.215 47.6C50.205 47.602 50.167 47.61 50.112 47.61L50.098 47.631 13.353 29.562zM50.22 88.71A0.5 0.5 0 0 1 50.111 88.72L50.099 88.743 13.355 70.673 30.73 62.539 48.331 71.194C48.983 71.515 49.659 71.583 50.111 71.583 50.588 71.583 51.299 71.509 51.981 71.157L70.615 61.524 86.87 69.754z" fill="#00add8" data-fill-palette-color="accent"></path></svg></g></svg></g></svg></g></svg></g></svg></g></svg></g><defs></defs></svg><rect width="95.481" height="95.47860769641478" fill="none" stroke="none" visibility="hidden"></rect></g></svg></g></svg>