<svg xmlns="http://www.w3.org/2000/svg" version="1.1" xmlns:xlink="http://www.w3.org/1999/xlink" xmlns:svgjs="http://svgjs.dev/svgjs" width="2000" height="525" viewBox="0 0 2000 525"><g transform="matrix(1,0,0,1,-1.2121212121212466,-0.8812059501640874)"><svg viewBox="0 0 396 104" data-background-color="#121212" preserveAspectRatio="xMidYMid meet" height="525" width="2000" xmlns="http://www.w3.org/2000/svg" xmlns:xlink="http://www.w3.org/1999/xlink"><g id="tight-bounds" transform="matrix(1,0,0,1,0.2400000000000091,0.17456270250869466)"><svg viewBox="0 0 395.52 103.65087459498262" height="103.65087459498262" width="395.52"><g><svg viewBox="0 0 397.4975999999999 104.16912896795752" height="103.65087459498262" width="395.52"><g transform="matrix(1,0,0,1,0,72.39439238349854)"><svg viewBox="0 0 397.4975999999999 31.774736584458974" height="31.774736584458974" width="397.4975999999999"><g id="textblocktransform"><svg viewBox="0 0 397.4975999999999 31.774736584458974" height="31.774736584458974" width="397.4975999999999" id="textblock"><g><rect width="397.4975999999999" height="1.2796221750117496" x="0" y="18.345594216293463" fill="#ffffff" opacity="1" stroke-width="0" stroke="transparent" fill-opacity="1" class="rect-yte-0" data-fill-palette-color="primary" rx="1%" id="yte-0" data-palette-color="#ffffff"></rect></g><g transform="matrix(1,0,0,1,0.9887999999999693,0)"><svg viewBox="0 0 395.52 16.838185894944544" height="16.838185894944544" width="395.52"><g transform="matrix(1,0,0,1,0,0)"><svg width="395.52" viewBox="-1.94 -40.86 1046.2 45.5" height="16.838185894944544" data-palette-color="#ffffff"><path d="M18.32-10.37L18.32-36.36 22.73-36.36 22.73-10.37Q22.73-6.89 21.45-4.46 20.17-2.02 17.84-0.76 15.52 0.5 12.36 0.5L12.36 0.5Q9.38 0.5 7.05-0.59 4.72-1.69 3.39-3.71 2.06-5.74 2.06-8.52L2.06-8.52 6.39-8.52Q6.39-6.98 7.16-5.83 7.94-4.69 9.29-4.05 10.64-3.41 12.36-3.41L12.36-3.41Q14.26-3.41 15.59-4.21 16.92-5.01 17.62-6.56 18.32-8.11 18.32-10.37L18.32-10.37ZM62.21-18.18L62.21-18.18Q62.21-12.43 60.14-8.24 58.06-4.05 54.44-1.78 50.81 0.5 46.16 0.5L46.16 0.5Q41.51 0.5 37.89-1.78 34.27-4.05 32.19-8.24 30.11-12.43 30.11-18.18L30.11-18.18Q30.11-23.93 32.19-28.13 34.27-32.32 37.89-34.59 41.51-36.86 46.16-36.86L46.16-36.86Q50.81-36.86 54.44-34.59 58.06-32.32 60.14-28.13 62.21-23.93 62.21-18.18ZM57.95-18.18L57.95-18.18Q57.95-22.9 56.38-26.15 54.81-29.4 52.14-31.07 49.46-32.74 46.16-32.74L46.16-32.74Q42.86-32.74 40.19-31.07 37.52-29.4 35.94-26.15 34.37-22.9 34.37-18.18L34.37-18.18Q34.37-13.46 35.94-10.21 37.52-6.96 40.19-5.29 42.86-3.62 46.16-3.62L46.16-3.62Q49.46-3.62 52.14-5.29 54.81-6.96 56.38-10.21 57.95-13.46 57.95-18.18ZM91.83 0L69.6 0 69.6-36.36 91.54-36.36 91.54-32.46 74-32.46 74-20.17 90.41-20.17 90.41-16.26 74-16.26 74-3.91 91.83-3.91 91.83 0ZM113.56 0L113.56-36.36 118.81-36.36 131.17-6.18 131.6-6.18 143.95-36.36 149.21-36.36 149.21 0 145.09 0 145.09-27.63 144.73-27.63 133.37 0 129.39 0 118.03-27.63 117.67-27.63 117.67 0 113.56 0ZM180.24 0L158.01 0 158.01-36.36 179.96-36.36 179.96-32.46 162.42-32.46 162.42-20.17 178.82-20.17 178.82-16.26 162.42-16.26 162.42-3.91 180.24-3.91 180.24 0ZM212.41-36.36L216.75-36.36 216.75 0 212.49 0 192.67-28.55 192.31-28.55 192.31 0 187.91 0 187.91-36.36 192.17-36.36 212.06-7.74 212.41-7.74 212.41-36.36ZM236.77 0L236.77 0 225.55 0 225.55-36.36 237.27-36.36Q242.56-36.36 246.32-34.19 250.09-32.01 252.1-27.96 254.1-23.9 254.1-18.25L254.1-18.25Q254.1-12.57 252.08-8.48 250.05-4.39 246.18-2.19 242.31 0 236.77 0ZM229.95-32.46L229.95-3.91 236.49-3.91Q241-3.91 243.96-5.65 246.93-7.39 248.38-10.6 249.84-13.81 249.84-18.25L249.84-18.25Q249.84-22.66 248.4-25.84 246.96-29.03 244.11-30.74 241.25-32.46 236.99-32.46L236.99-32.46 229.95-32.46ZM283.72 0L261.49 0 261.49-36.36 283.43-36.36 283.43-32.46 265.89-32.46 265.89-20.17 282.3-20.17 282.3-16.26 265.89-16.26 265.89-3.91 283.72-3.91 283.72 0ZM315.25 0L290.18 0 290.18-3.2 309.78-32.46 289.96-32.46 289.96-36.36 315.03-36.36 315.03-33.17 295.43-3.91 315.25-3.91 315.25 0ZM321.78-17.54L337.69-17.54 337.69-13.64 321.78-13.64 321.78-17.54ZM350.04 0L345.64 0 345.64-36.36 350.04-36.36 350.04-20.17 369.43-20.17 369.43-36.36 373.84-36.36 373.84 0 369.43 0 369.43-16.26 350.04-16.26 350.04 0ZM406.5-12.64L406.5-36.36 410.91-36.36 410.91-12.29Q410.91-8.56 409.16-5.64 407.41-2.72 404.23-1.04 401.05 0.64 396.77 0.64L396.77 0.64Q392.49 0.64 389.32-1.04 386.14-2.72 384.39-5.64 382.64-8.56 382.64-12.29L382.64-12.29 382.64-36.36 387.04-36.36 387.04-12.64Q387.04-9.98 388.22-7.91 389.39-5.84 391.56-4.66 393.74-3.48 396.77-3.48L396.77-3.48Q399.81-3.48 401.99-4.66 404.18-5.84 405.34-7.91 406.5-9.98 406.5-12.64L406.5-12.64ZM449.12-25L444.57-25Q443.98-26.79 443.03-28.22 442.08-29.65 440.78-30.66 439.47-31.68 437.82-32.21 436.17-32.74 434.2-32.74L434.2-32.74Q430.97-32.74 428.32-31.07 425.68-29.4 424.12-26.15 422.55-22.9 422.55-18.18L422.55-18.18Q422.55-13.46 424.13-10.21 425.71-6.96 428.41-5.29 431.11-3.62 434.48-3.62L434.48-3.62Q437.61-3.62 440-4.96 442.39-6.3 443.73-8.76 445.07-11.22 445.07-14.56L445.07-14.56 446.42-14.28 435.48-14.28 435.48-18.18 449.33-18.18 449.33-14.28Q449.33-9.78 447.42-6.46 445.51-3.14 442.16-1.32 438.82 0.5 434.48 0.5L434.48 0.5Q429.66 0.5 426.01-1.78 422.36-4.05 420.32-8.24 418.29-12.43 418.29-18.18L418.29-18.18Q418.29-22.5 419.45-25.95 420.62-29.4 422.75-31.84 424.88-34.27 427.79-35.56 430.7-36.86 434.2-36.86L434.2-36.86Q437.08-36.86 439.57-36 442.07-35.14 444.03-33.57 445.99-32 447.3-29.82 448.62-27.65 449.12-25L449.12-25ZM461.26 0L456.85 0 456.85-36.36 461.26-36.36 461.26-20.17 480.65-20.17 480.65-36.36 485.05-36.36 485.05 0 480.65 0 480.65-16.26 461.26-16.26 461.26 0ZM516.08 0L493.85 0 493.85-36.36 515.8-36.36 515.8-32.46 498.26-32.46 498.26-20.17 514.66-20.17 514.66-16.26 498.26-16.26 498.26-3.91 516.08-3.91 516.08 0ZM547.9-27.27L543.64-27.27Q543.32-29.97 541.05-31.46 538.77-32.95 535.47-32.95L535.47-32.95Q533.06-32.95 531.25-32.17 529.45-31.39 528.45-30.02 527.45-28.66 527.45-26.92L527.45-26.92Q527.45-25.46 528.15-24.42 528.85-23.38 529.95-22.7 531.05-22.02 532.26-21.58 533.46-21.15 534.48-20.88L534.48-20.88 538.17-19.89Q539.59-19.51 541.34-18.86 543.09-18.2 544.7-17.07 546.3-15.94 547.35-14.19 548.4-12.43 548.4-9.87L548.4-9.87Q548.4-6.92 546.86-4.55 545.33-2.17 542.39-0.76 539.45 0.64 535.26 0.64L535.26 0.64Q531.35 0.64 528.5-0.62 525.65-1.88 524.03-4.14 522.4-6.39 522.19-9.38L522.19-9.38 526.74-9.38Q526.91-7.32 528.13-5.97 529.35-4.63 531.22-3.99 533.09-3.34 535.26-3.34L535.26-3.34Q537.78-3.34 539.79-4.16 541.79-4.99 542.96-6.47 544.14-7.95 544.14-9.94L544.14-9.94Q544.14-11.75 543.12-12.89 542.11-14.03 540.46-14.74 538.81-15.45 536.89-15.98L536.89-15.98 532.42-17.26Q528.16-18.48 525.67-20.76 523.18-23.03 523.18-26.7L523.18-26.7Q523.18-29.76 524.84-32.04 526.5-34.32 529.32-35.59 532.13-36.86 535.61-36.86L535.61-36.86Q539.13-36.86 541.86-35.61 544.6-34.36 546.2-32.19 547.81-30.02 547.9-27.27L547.9-27.27ZM558.13 0.28L558.13 0.28Q556.81 0.28 555.87-0.66 554.93-1.6 554.93-2.91L554.93-2.91Q554.93-4.23 555.87-5.17 556.81-6.11 558.13-6.11L558.13-6.11Q559.44-6.11 560.38-5.17 561.32-4.23 561.32-2.91L561.32-2.91Q561.32-2.04 560.89-1.31 560.45-0.59 559.73-0.15 559.01 0.28 558.13 0.28ZM558.13-19.96L558.13-19.96Q556.81-19.96 555.87-20.9 554.93-21.84 554.93-23.15L554.93-23.15Q554.93-24.47 555.87-25.41 556.81-26.35 558.13-26.35L558.13-26.35Q559.44-26.35 560.38-25.41 561.32-24.47 561.32-23.15L561.32-23.15Q561.32-22.28 560.89-21.56 560.45-20.83 559.73-20.39 559.01-19.96 558.13-19.96ZM594.7 0L594.7 0 583.48 0 583.48-36.36 595.19-36.36Q600.49-36.36 604.25-34.19 608.01-32.01 610.02-27.96 612.03-23.9 612.03-18.25L612.03-18.25Q612.03-12.57 610-8.48 607.98-4.39 604.11-2.19 600.24 0 594.7 0ZM587.88-32.46L587.88-3.91 594.41-3.91Q598.92-3.91 601.89-5.65 604.85-7.39 606.31-10.6 607.76-13.81 607.76-18.25L607.76-18.25Q607.76-22.66 606.33-25.84 604.89-29.03 602.03-30.74 599.17-32.46 594.91-32.46L594.91-32.46 587.88-32.46ZM641.64 0L619.41 0 619.41-36.36 641.36-36.36 641.36-32.46 623.81-32.46 623.81-20.17 640.22-20.17 640.22-16.26 623.81-16.26 623.81-3.91 641.64-3.91 641.64 0ZM646.18-36.36L650.8-36.36 661.6-5.75 662.02-5.75 672.82-36.36 677.43-36.36 664.08 0 659.54 0 646.18-36.36ZM713.79-18.18L713.79-18.18Q713.79-12.43 711.72-8.24 709.64-4.05 706.02-1.78 702.4 0.5 697.74 0.5L697.74 0.5Q693.09 0.5 689.47-1.78 685.85-4.05 683.77-8.24 681.69-12.43 681.69-18.18L681.69-18.18Q681.69-23.93 683.77-28.13 685.85-32.32 689.47-34.59 693.09-36.86 697.74-36.86L697.74-36.86Q702.4-36.86 706.02-34.59 709.64-32.32 711.72-28.13 713.79-23.93 713.79-18.18ZM709.53-18.18L709.53-18.18Q709.53-22.9 707.96-26.15 706.39-29.4 703.72-31.07 701.05-32.74 697.74-32.74L697.74-32.74Q694.44-32.74 691.77-31.07 689.1-29.4 687.52-26.15 685.95-22.9 685.95-18.18L685.95-18.18Q685.95-13.46 687.52-10.21 689.1-6.96 691.77-5.29 694.44-3.62 697.74-3.62L697.74-3.62Q701.05-3.62 703.72-5.29 706.39-6.96 707.96-10.21 709.53-13.46 709.53-18.18ZM725.58 0L721.18 0 721.18-36.36 733.47-36.36Q737.74-36.36 740.47-34.83 743.2-33.29 744.51-30.68 745.82-28.07 745.82-24.86L745.82-24.86Q745.82-21.64 744.52-19.02 743.21-16.39 740.5-14.83 737.78-13.28 733.54-13.28L733.54-13.28 724.73-13.28 724.73-17.19 733.39-17.19Q736.32-17.19 738.1-18.2 739.88-19.21 740.68-20.94 741.49-22.67 741.49-24.86L741.49-24.86Q741.49-27.04 740.68-28.76 739.88-30.49 738.08-31.47 736.29-32.46 733.32-32.46L733.32-32.46 725.58-32.46 725.58 0ZM777.07-27.27L772.81-27.27Q772.49-29.97 770.22-31.46 767.94-32.95 764.64-32.95L764.64-32.95Q762.23-32.95 760.42-32.17 758.62-31.39 757.62-30.02 756.62-28.66 756.62-26.92L756.62-26.92Q756.62-25.46 757.32-24.42 758.02-23.38 759.12-22.7 760.22-22.02 761.43-21.58 762.64-21.15 763.65-20.88L763.65-20.88 767.34-19.89Q768.76-19.51 770.51-18.86 772.26-18.2 773.87-17.07 775.47-15.94 776.52-14.19 777.57-12.43 777.57-9.87L777.57-9.87Q777.57-6.92 776.03-4.55 774.5-2.17 771.56-0.76 768.62 0.64 764.43 0.64L764.43 0.64Q760.52 0.64 757.67-0.62 754.82-1.88 753.2-4.14 751.57-6.39 751.36-9.38L751.36-9.38 755.91-9.38Q756.08-7.32 757.3-5.97 758.52-4.63 760.39-3.99 762.26-3.34 764.43-3.34L764.43-3.34Q766.95-3.34 768.96-4.16 770.96-4.99 772.13-6.47 773.31-7.95 773.31-9.94L773.31-9.94Q773.31-11.75 772.29-12.89 771.28-14.03 769.63-14.74 767.98-15.45 766.06-15.98L766.06-15.98 761.59-17.26Q757.33-18.48 754.84-20.76 752.35-23.03 752.35-26.7L752.35-26.7Q752.35-29.76 754.01-32.04 755.68-34.32 758.49-35.59 761.3-36.86 764.78-36.86L764.78-36.86Q768.3-36.86 771.03-35.61 773.77-34.36 775.38-32.19 776.98-30.02 777.07-27.27L777.07-27.27ZM821.1 0L798.87 0 798.87-36.36 820.82-36.36 820.82-32.46 803.27-32.46 803.27-20.17 819.68-20.17 819.68-16.26 803.27-16.26 803.27-3.91 821.1-3.91 821.1 0ZM853.27-36.36L857.6-36.36 857.6 0 853.34 0 833.53-28.55 833.17-28.55 833.17 0 828.77 0 828.77-36.36 833.03-36.36 852.92-7.74 853.27-7.74 853.27-36.36ZM895.81-25L891.27-25Q890.68-26.79 889.73-28.22 888.78-29.65 887.47-30.66 886.17-31.68 884.52-32.21 882.87-32.74 880.9-32.74L880.9-32.74Q877.66-32.74 875.02-31.07 872.37-29.4 870.81-26.15 869.25-22.9 869.25-18.18L869.25-18.18Q869.25-13.46 870.83-10.21 872.41-6.96 875.11-5.29 877.81-3.62 881.18-3.62L881.18-3.62Q884.3-3.62 886.69-4.96 889.08-6.3 890.42-8.76 891.76-11.22 891.76-14.56L891.76-14.56 893.11-14.28 882.17-14.28 882.17-18.18 896.02-18.18 896.02-14.28Q896.02-9.78 894.12-6.46 892.21-3.14 888.86-1.32 885.51 0.5 881.18 0.5L881.18 0.5Q876.35 0.5 872.7-1.78 869.05-4.05 867.02-8.24 864.99-12.43 864.99-18.18L864.99-18.18Q864.99-22.5 866.15-25.95 867.31-29.4 869.44-31.84 871.57-34.27 874.49-35.56 877.4-36.86 880.9-36.86L880.9-36.86Q883.77-36.86 886.27-36 888.76-35.14 890.72-33.57 892.69-32 894-29.82 895.31-27.65 895.81-25L895.81-25ZM903.55-36.36L907.95-36.36 907.95 0 903.55 0 903.55-36.36ZM941.26-36.36L945.59-36.36 945.59 0 941.33 0 921.52-28.55 921.16-28.55 921.16 0 916.76 0 916.76-36.36 921.02-36.36 940.91-7.74 941.26-7.74 941.26-36.36ZM976.63 0L954.4 0 954.4-36.36 976.34-36.36 976.34-32.46 958.8-32.46 958.8-20.17 975.21-20.17 975.21-16.26 958.8-16.26 958.8-3.91 976.63-3.91 976.63 0ZM1006.53 0L984.29 0 984.29-36.36 1006.24-36.36 1006.24-32.46 988.7-32.46 988.7-20.17 1005.1-20.17 1005.1-16.26 988.7-16.26 988.7-3.91 1006.53-3.91 1006.53 0ZM1018.6 0L1014.19 0 1014.19-36.36 1026.48-36.36Q1030.74-36.36 1033.48-34.92 1036.21-33.47 1037.52-30.95 1038.84-28.43 1038.84-25.21L1038.84-25.21Q1038.84-22 1037.52-19.51 1036.21-17.03 1033.49-15.62 1030.78-14.2 1026.55-14.2L1026.55-14.2 1016.61-14.2 1016.61-18.18 1026.41-18.18Q1029.32-18.18 1031.11-19.03 1032.89-19.89 1033.7-21.46 1034.51-23.03 1034.51-25.21L1034.51-25.21Q1034.51-27.4 1033.69-29.03 1032.87-30.66 1031.08-31.56 1029.29-32.46 1026.34-32.46L1026.34-32.46 1018.6-32.46 1018.6 0ZM1026.34-16.34L1031.31-16.34 1040.26 0 1035.14 0 1026.34-16.34Z" opacity="1" transform="matrix(1,0,0,1,0,0)" fill="#ffffff" class="wordmark-text-0" data-fill-palette-color="primary" id="text-0"></path></svg></g></svg></g><g transform="matrix(1,0,0,1,3.5,21.13262471265413)"><svg viewBox="0 0 388.52 10.64211187180484" height="10.64211187180484" width="388.52"><g transform="matrix(1,0,0,1,0,0)"><svg width="388.52" viewBox="-1.9900000000000002 -42.44 2041.8 56.67" height="10.64211187180484" data-palette-color="#00add8"><path d="M13.07 0.44L13.07 0.44Q9.96 0.44 7.45-1.16 4.94-2.77 3.47-5.9 2.01-9.04 2.01-13.6L2.01-13.6Q2.01-18.29 3.52-21.4 5.02-24.52 7.54-26.07 10.05-27.63 13.05-27.63L13.05-27.63Q15.34-27.63 16.88-26.86 18.41-26.08 19.36-24.94 20.31-23.79 20.81-22.69L20.81-22.69 21.04-22.69 21.04-36.36 28.59-36.36 28.59 0 21.13 0 21.13-4.37 20.81-4.37Q20.28-3.23 19.31-2.12 18.34-1.01 16.81-0.28 15.27 0.44 13.07 0.44ZM15.47-5.58L15.47-5.58Q17.29-5.58 18.56-6.58 19.83-7.58 20.52-9.39 21.2-11.2 21.2-13.64L21.2-13.64Q21.2-16.07 20.53-17.86 19.85-19.66 18.57-20.63 17.29-21.61 15.47-21.61L15.47-21.61Q13.6-21.61 12.32-20.6 11.04-19.58 10.39-17.79 9.73-16 9.73-13.64L9.73-13.64Q9.73-11.26 10.4-9.44 11.06-7.62 12.33-6.6 13.6-5.58 15.47-5.58ZM107.78 0.53L107.78 0.53Q103.58 0.53 100.55-1.18 97.52-2.89 95.89-6.05 94.25-9.2 94.25-13.51L94.25-13.51Q94.25-17.72 95.89-20.9 97.52-24.08 100.5-25.85 103.47-27.63 107.48-27.63L107.48-27.63Q110.18-27.63 112.52-26.77 114.85-25.91 116.6-24.18 118.35-22.46 119.33-19.86 120.3-17.26 120.3-13.78L120.3-13.78 120.3-11.7 97.27-11.7 97.27-16.39 113.18-16.39Q113.18-18.02 112.47-19.28 111.76-20.54 110.51-21.26 109.26-21.98 107.61-21.98L107.61-21.98Q105.88-21.98 104.56-21.19 103.24-20.4 102.49-19.08 101.75-17.76 101.73-16.14L101.73-16.14 101.73-11.68Q101.73-9.66 102.48-8.19 103.24-6.71 104.62-5.91 106.01-5.11 107.91-5.11L107.91-5.11Q109.17-5.11 110.22-5.47 111.26-5.82 112.01-6.53 112.76-7.24 113.15-8.27L113.15-8.27 120.14-7.81Q119.61-5.29 117.97-3.42 116.32-1.54 113.74-0.51 111.16 0.53 107.78 0.53ZM203.23-27.27L211.24-27.27 201.7 0 193.18 0 183.64-27.27 191.63-27.27 197.3-7.76 197.58-7.76 203.23-27.27ZM288.11 0.53L288.11 0.53Q283.9 0.53 280.87-1.18 277.84-2.89 276.21-6.05 274.58-9.2 274.58-13.51L274.58-13.51Q274.58-17.72 276.21-20.9 277.84-24.08 280.82-25.85 283.79-27.63 287.81-27.63L287.81-27.63Q290.5-27.63 292.84-26.77 295.17-25.91 296.92-24.18 298.67-22.46 299.65-19.86 300.62-17.26 300.62-13.78L300.62-13.78 300.62-11.7 277.6-11.7 277.6-16.39 293.5-16.39Q293.5-18.02 292.79-19.28 292.08-20.54 290.83-21.26 289.58-21.98 287.93-21.98L287.93-21.98Q286.21-21.98 284.88-21.19 283.56-20.4 282.82-19.08 282.07-17.76 282.05-16.14L282.05-16.14 282.05-11.68Q282.05-9.66 282.81-8.19 283.56-6.71 284.95-5.91 286.33-5.11 288.23-5.11L288.23-5.11Q289.49-5.11 290.54-5.47 291.59-5.82 292.33-6.53 293.08-7.24 293.47-8.27L293.47-8.27 300.46-7.81Q299.93-5.29 298.29-3.42 296.65-1.54 294.06-0.51 291.48 0.53 288.11 0.53ZM366.13-36.36L373.7-36.36 373.7 0 366.13 0 366.13-36.36ZM452.63 0.53L452.63 0.53Q448.49 0.53 445.48-1.23 442.47-3 440.84-6.17 439.2-9.34 439.2-13.53L439.2-13.53Q439.2-17.76 440.84-20.93 442.47-24.09 445.48-25.86 448.49-27.63 452.63-27.63L452.63-27.63Q456.76-27.63 459.77-25.86 462.78-24.09 464.42-20.93 466.05-17.76 466.05-13.53L466.05-13.53Q466.05-9.34 464.42-6.17 462.78-3 459.77-1.23 456.76 0.53 452.63 0.53ZM452.66-5.33L452.66-5.33Q454.54-5.33 455.81-6.4 457.07-7.48 457.71-9.34 458.36-11.2 458.36-13.58L458.36-13.58Q458.36-15.96 457.71-17.83 457.07-19.69 455.81-20.77 454.54-21.86 452.66-21.86L452.66-21.86Q450.76-21.86 449.48-20.77 448.19-19.69 447.54-17.83 446.89-15.96 446.89-13.58L446.89-13.58Q446.89-11.2 447.54-9.34 448.19-7.48 449.48-6.4 450.76-5.33 452.66-5.33ZM539.12 10.23L531.56 10.23 531.56-27.27 539.02-27.27 539.02-22.69 539.35-22.69Q539.85-23.79 540.8-24.94 541.75-26.08 543.29-26.86 544.82-27.63 547.11-27.63L547.11-27.63Q550.1-27.63 552.62-26.07 555.14-24.52 556.65-21.4 558.16-18.29 558.16-13.6L558.16-13.6Q558.16-9.04 556.69-5.9 555.23-2.77 552.71-1.16 550.2 0.44 547.09 0.44L547.09 0.44Q544.89 0.44 543.36-0.28 541.82-1.01 540.84-2.12 539.87-3.23 539.35-4.37L539.35-4.37 539.12-4.37 539.12 10.23ZM538.96-13.64L538.96-13.64Q538.96-11.2 539.64-9.39 540.31-7.58 541.59-6.58 542.87-5.58 544.7-5.58L544.7-5.58Q546.54-5.58 547.82-6.6 549.1-7.62 549.77-9.44 550.43-11.26 550.43-13.64L550.43-13.64Q550.43-16 549.78-17.79 549.12-19.58 547.84-20.6 546.56-21.61 544.7-21.61L544.7-21.61Q542.85-21.61 541.58-20.63 540.31-19.66 539.64-17.86 538.96-16.07 538.96-13.64ZM631.32 0L623.75 0 623.75-27.27 630.96-27.27 630.96-22.46 631.28-22.46Q632.13-24.86 634.12-26.24 636.11-27.63 638.88-27.63L638.88-27.63Q641.69-27.63 643.66-26.23 645.63-24.84 646.28-22.46L646.28-22.46 646.57-22.46Q647.4-24.8 649.6-26.22 651.79-27.63 654.79-27.63L654.79-27.63Q658.61-27.63 661-25.2 663.38-22.78 663.38-18.34L663.38-18.34 663.38 0 655.84 0 655.84-16.85Q655.84-19.12 654.63-20.26 653.42-21.4 651.61-21.4L651.61-21.4Q649.55-21.4 648.4-20.09 647.24-18.79 647.24-16.65L647.24-16.65 647.24 0 639.91 0 639.91-17.01Q639.91-19.02 638.77-20.21 637.62-21.4 635.76-21.4L635.76-21.4Q634.49-21.4 633.49-20.77 632.49-20.13 631.9-19.01 631.32-17.88 631.32-16.37L631.32-16.37 631.32 0ZM742.35 0.53L742.35 0.53Q738.14 0.53 735.11-1.18 732.09-2.89 730.45-6.05 728.82-9.2 728.82-13.51L728.82-13.51Q728.82-17.72 730.45-20.9 732.09-24.08 735.06-25.85 738.04-27.63 742.05-27.63L742.05-27.63Q744.75-27.63 747.08-26.77 749.42-25.91 751.17-24.18 752.91-22.46 753.89-19.86 754.87-17.26 754.87-13.78L754.87-13.78 754.87-11.7 731.84-11.7 731.84-16.39 747.75-16.39Q747.75-18.02 747.04-19.28 746.33-20.54 745.08-21.26 743.82-21.98 742.17-21.98L742.17-21.98Q740.45-21.98 739.13-21.19 737.8-20.4 737.06-19.08 736.31-17.76 736.3-16.14L736.3-16.14 736.3-11.68Q736.3-9.66 737.05-8.19 737.8-6.71 739.19-5.91 740.57-5.11 742.47-5.11L742.47-5.11Q743.73-5.11 744.78-5.47 745.83-5.82 746.58-6.53 747.32-7.24 747.71-8.27L747.71-8.27 754.71-7.81Q754.18-5.29 752.53-3.42 750.89-1.54 748.31-0.51 745.72 0.53 742.35 0.53ZM827.94-15.77L827.94-15.77 827.94 0 820.38 0 820.38-27.27 827.58-27.27 827.58-22.46 827.9-22.46Q828.81-24.84 830.94-26.23 833.07-27.63 836.11-27.63L836.11-27.63Q838.95-27.63 841.06-26.38 843.17-25.14 844.35-22.84 845.52-20.54 845.52-17.37L845.52-17.37 845.52 0 837.95 0 837.95-16.02Q837.97-18.52 836.68-19.93 835.38-21.34 833.11-21.34L833.11-21.34Q831.58-21.34 830.42-20.69 829.25-20.03 828.61-18.78 827.96-17.52 827.94-15.77ZM910.12-27.27L926.54-27.27 926.54-21.59 910.12-21.59 910.12-27.27ZM913.85-7.39L913.85-33.81 921.41-33.81 921.41-8.38Q921.41-7.33 921.73-6.76 922.05-6.18 922.63-5.95 923.21-5.72 923.97-5.72L923.97-5.72Q924.5-5.72 925.03-5.81 925.57-5.91 925.85-5.97L925.85-5.97 927.04-0.34Q926.47-0.16 925.44 0.08 924.41 0.32 922.94 0.37L922.94 0.37Q920.2 0.48 918.15-0.36 916.1-1.19 914.97-2.95 913.83-4.71 913.85-7.39L913.85-7.39ZM1081.35-1.97L1074.99-1.97 1074.99-27.11 1081.35-27.11 1081.35-1.97ZM1090.74-11.36L1065.6-11.36 1065.6-17.72 1090.74-17.72 1090.74-11.36ZM1243.24 0.53L1243.24 0.53Q1239.11 0.53 1236.1-1.23 1233.09-3 1231.45-6.17 1229.82-9.34 1229.82-13.53L1229.82-13.53Q1229.82-17.76 1231.45-20.93 1233.09-24.09 1236.1-25.86 1239.11-27.63 1243.24-27.63L1243.24-27.63Q1247.38-27.63 1250.39-25.86 1253.4-24.09 1255.03-20.93 1256.67-17.76 1256.67-13.53L1256.67-13.53Q1256.67-9.34 1255.03-6.17 1253.4-3 1250.39-1.23 1247.38 0.53 1243.24 0.53ZM1243.28-5.33L1243.28-5.33Q1245.16-5.33 1246.42-6.4 1247.68-7.48 1248.33-9.34 1248.98-11.2 1248.98-13.58L1248.98-13.58Q1248.98-15.96 1248.33-17.83 1247.68-19.69 1246.42-20.77 1245.16-21.86 1243.28-21.86L1243.28-21.86Q1241.38-21.86 1240.09-20.77 1238.81-19.69 1238.16-17.83 1237.51-15.96 1237.51-13.58L1237.51-13.58Q1237.51-11.2 1238.16-9.34 1238.81-7.48 1240.09-6.4 1241.38-5.33 1243.28-5.33ZM1329.74 10.23L1322.18 10.23 1322.18-27.27 1329.63-27.27 1329.63-22.69 1329.97-22.69Q1330.47-23.79 1331.42-24.94 1332.37-26.08 1333.9-26.86 1335.44-27.63 1337.73-27.63L1337.73-27.63Q1340.71-27.63 1343.23-26.07 1345.75-24.52 1347.26-21.4 1348.77-18.29 1348.77-13.6L1348.77-13.6Q1348.77-9.04 1347.31-5.9 1345.84-2.77 1343.33-1.16 1340.82 0.44 1337.71 0.44L1337.71 0.44Q1335.51 0.44 1333.97-0.28 1332.44-1.01 1331.46-2.12 1330.48-3.23 1329.97-4.37L1329.97-4.37 1329.74-4.37 1329.74 10.23ZM1329.58-13.64L1329.58-13.64Q1329.58-11.2 1330.25-9.39 1330.93-7.58 1332.21-6.58 1333.49-5.58 1335.31-5.58L1335.31-5.58Q1337.16-5.58 1338.44-6.6 1339.72-7.62 1340.38-9.44 1341.05-11.26 1341.05-13.64L1341.05-13.64Q1341.05-16 1340.39-17.79 1339.74-19.58 1338.46-20.6 1337.18-21.61 1335.31-21.61L1335.31-21.61Q1333.47-21.61 1332.2-20.63 1330.93-19.66 1330.25-17.86 1329.58-16.07 1329.58-13.64ZM1426.8 0.53L1426.8 0.53Q1422.59 0.53 1419.56-1.18 1416.54-2.89 1414.9-6.05 1413.27-9.2 1413.27-13.51L1413.27-13.51Q1413.27-17.72 1414.9-20.9 1416.54-24.08 1419.51-25.85 1422.48-27.63 1426.5-27.63L1426.5-27.63Q1429.2-27.63 1431.53-26.77 1433.87-25.91 1435.61-24.18 1437.36-22.46 1438.34-19.86 1439.32-17.26 1439.32-13.78L1439.32-13.78 1439.32-11.7 1416.29-11.7 1416.29-16.39 1432.2-16.39Q1432.2-18.02 1431.49-19.28 1430.78-20.54 1429.52-21.26 1428.27-21.98 1426.62-21.98L1426.62-21.98Q1424.9-21.98 1423.58-21.19 1422.25-20.4 1421.51-19.08 1420.76-17.76 1420.74-16.14L1420.74-16.14 1420.74-11.68Q1420.74-9.66 1421.5-8.19 1422.25-6.71 1423.64-5.91 1425.02-5.11 1426.92-5.11L1426.92-5.11Q1428.18-5.11 1429.23-5.47 1430.28-5.82 1431.02-6.53 1431.77-7.24 1432.16-8.27L1432.16-8.27 1439.16-7.81Q1438.62-5.29 1436.98-3.42 1435.34-1.54 1432.76-0.51 1430.17 0.53 1426.8 0.53ZM1512.39 0L1504.82 0 1504.82-27.27 1512.16-27.27 1512.16-22.51 1512.44-22.51Q1513.19-25.05 1514.94-26.36 1516.7-27.66 1518.99-27.66L1518.99-27.66Q1519.56-27.66 1520.22-27.59 1520.88-27.52 1521.37-27.4L1521.37-27.4 1521.37-20.69Q1520.84-20.85 1519.9-20.97 1518.96-21.09 1518.18-21.09L1518.18-21.09Q1516.51-21.09 1515.2-20.37 1513.9-19.66 1513.14-18.38 1512.39-17.1 1512.39-15.43L1512.39-15.43 1512.39 0ZM1593.61 0.51L1593.61 0.51Q1591 0.51 1588.96-0.4 1586.92-1.31 1585.73-3.12 1584.55-4.92 1584.55-7.62L1584.55-7.62Q1584.55-9.89 1585.39-11.43 1586.22-12.98 1587.66-13.92 1589.1-14.86 1590.94-15.34 1592.77-15.82 1594.8-16.02L1594.8-16.02Q1597.18-16.26 1598.63-16.49 1600.09-16.71 1600.75-17.15 1601.4-17.6 1601.4-18.47L1601.4-18.47 1601.4-18.57Q1601.4-20.26 1600.35-21.18 1599.29-22.11 1597.36-22.11L1597.36-22.11Q1595.31-22.11 1594.11-21.21 1592.9-20.31 1592.51-18.96L1592.51-18.96 1585.51-19.53Q1586.05-22.02 1587.61-23.84 1589.17-25.66 1591.65-26.64 1594.12-27.63 1597.39-27.63L1597.39-27.63Q1599.66-27.63 1601.75-27.1 1603.84-26.56 1605.46-25.44 1607.09-24.33 1608.03-22.58 1608.97-20.83 1608.97-18.39L1608.97-18.39 1608.97 0 1601.79 0 1601.79-3.78 1601.58-3.78Q1600.92-2.5 1599.82-1.54 1598.72-0.57 1597.18-0.03 1595.63 0.51 1593.61 0.51ZM1595.78-4.71L1595.78-4.71Q1597.44-4.71 1598.72-5.37 1600-6.04 1600.73-7.17 1601.46-8.31 1601.46-9.75L1601.46-9.75 1601.46-12.64Q1601.1-12.41 1600.49-12.22 1599.88-12.04 1599.11-11.89 1598.35-11.74 1597.59-11.62 1596.82-11.51 1596.2-11.42L1596.2-11.42Q1594.87-11.22 1593.88-10.8 1592.88-10.37 1592.33-9.65 1591.78-8.93 1591.78-7.87L1591.78-7.87Q1591.78-6.32 1592.91-5.51 1594.04-4.71 1595.78-4.71ZM1673.5-27.27L1689.92-27.27 1689.92-21.59 1673.5-21.59 1673.5-27.27ZM1677.23-7.39L1677.23-33.81 1684.79-33.81 1684.79-8.38Q1684.79-7.33 1685.11-6.76 1685.43-6.18 1686.01-5.95 1686.59-5.72 1687.35-5.72L1687.35-5.72Q1687.88-5.72 1688.41-5.81 1688.95-5.91 1689.23-5.97L1689.23-5.97 1690.42-0.34Q1689.85-0.16 1688.82 0.08 1687.79 0.32 1686.32 0.37L1686.32 0.37Q1683.58 0.48 1681.53-0.36 1679.48-1.19 1678.35-2.95 1677.21-4.71 1677.23-7.39L1677.23-7.39ZM1762.98 0L1755.41 0 1755.41-27.27 1762.98-27.27 1762.98 0ZM1759.21-30.79L1759.21-30.79Q1757.53-30.79 1756.33-31.92 1755.13-33.04 1755.13-34.62L1755.13-34.62Q1755.13-36.19 1756.33-37.31 1757.53-38.44 1759.21-38.44L1759.21-38.44Q1760.9-38.44 1762.1-37.31 1763.3-36.19 1763.3-34.62L1763.3-34.62Q1763.3-33.04 1762.1-31.92 1760.9-30.79 1759.21-30.79ZM1841.91 0.53L1841.91 0.53Q1837.77 0.53 1834.76-1.23 1831.75-3 1830.12-6.17 1828.48-9.34 1828.48-13.53L1828.48-13.53Q1828.48-17.76 1830.12-20.93 1831.75-24.09 1834.76-25.86 1837.77-27.63 1841.91-27.63L1841.91-27.63Q1846.05-27.63 1849.05-25.86 1852.06-24.09 1853.7-20.93 1855.33-17.76 1855.33-13.53L1855.33-13.53Q1855.33-9.34 1853.7-6.17 1852.06-3 1849.05-1.23 1846.05 0.53 1841.91 0.53ZM1841.94-5.33L1841.94-5.33Q1843.83-5.33 1845.09-6.4 1846.35-7.48 1846.99-9.34 1847.64-11.2 1847.64-13.58L1847.64-13.58Q1847.64-15.96 1846.99-17.83 1846.35-19.69 1845.09-20.77 1843.83-21.86 1841.94-21.86L1841.94-21.86Q1840.04-21.86 1838.76-20.77 1837.47-19.69 1836.82-17.83 1836.17-15.96 1836.17-13.58L1836.17-13.58Q1836.17-11.2 1836.82-9.34 1837.47-7.48 1838.76-6.4 1840.04-5.33 1841.94-5.33ZM1928.4-15.77L1928.4-15.77 1928.4 0 1920.84 0 1920.84-27.27 1928.05-27.27 1928.05-22.46 1928.37-22.46Q1929.27-24.84 1931.4-26.23 1933.53-27.63 1936.57-27.63L1936.57-27.63Q1939.41-27.63 1941.52-26.38 1943.64-25.14 1944.81-22.84 1945.98-20.54 1945.98-17.37L1945.98-17.37 1945.98 0 1938.42 0 1938.42-16.02Q1938.43-18.52 1937.14-19.93 1935.84-21.34 1933.57-21.34L1933.57-21.34Q1932.04-21.34 1930.88-20.69 1929.72-20.03 1929.07-18.78 1928.42-17.52 1928.4-15.77ZM2035.19-19.5L2035.19-19.5 2028.27-19.07Q2028.09-19.96 2027.5-20.68 2026.92-21.4 2025.97-21.83 2025.02-22.27 2023.7-22.27L2023.7-22.27Q2021.95-22.27 2020.74-21.53 2019.53-20.79 2019.53-19.57L2019.53-19.57Q2019.53-18.59 2020.31-17.92 2021.09-17.24 2022.99-16.83L2022.99-16.83 2027.93-15.84Q2031.91-15.02 2033.86-13.21 2035.81-11.4 2035.81-8.45L2035.81-8.45Q2035.81-5.77 2034.24-3.75 2032.67-1.72 2029.95-0.59 2027.22 0.53 2023.67 0.53L2023.67 0.53Q2018.25 0.53 2015.05-1.73 2011.84-4 2011.29-7.9L2011.29-7.9 2018.73-8.29Q2019.07-6.64 2020.37-5.78 2021.66-4.92 2023.69-4.92L2023.69-4.92Q2025.68-4.92 2026.89-5.69 2028.11-6.46 2028.13-7.69L2028.13-7.69Q2028.11-8.72 2027.26-9.38 2026.4-10.05 2024.63-10.4L2024.63-10.4 2019.9-11.35Q2015.91-12.14 2013.97-14.12 2012.02-16.09 2012.02-19.14L2012.02-19.14Q2012.02-21.77 2013.45-23.67 2014.88-25.57 2017.48-26.6 2020.08-27.63 2023.58-27.63L2023.58-27.63Q2028.75-27.63 2031.72-25.44 2034.7-23.26 2035.19-19.5Z" opacity="1" transform="matrix(1,0,0,1,0,0)" fill="#00add8" class="slogan-text-1" data-fill-palette-color="secondary" id="text-1"></path></svg></g></svg></g></svg></g></svg></g><g transform="matrix(1,0,0,1,164.22563695542325,0)"><svg viewBox="0 0 69.04632608915342 69.04459611383427" height="69.04459611383427" width="69.04632608915342"><g><svg xmlns="http://www.w3.org/2000/svg" xmlns:xlink="http://www.w3.org/1999/xlink" version="1.1" x="0" y="0" viewBox="7.279893330341158 7.28 85.44214077711491 85.44" enable-background="new 0 0 100 100" xml:space="preserve" height="69.04459611383427" width="69.04632608915342" class="icon-icon-0" data-fill-palette-color="accent" id="icon-0"><path d="M91.24 67.483L74.39 58.951 90.34 50.705C90.848 50.441 90.848 50.017 90.337 49.76L72.349 40.653 91.261 30.875C92.18 30.398 92.725 29.552 92.72 28.611 92.714 27.672 92.159 26.834 91.24 26.37L54.356 7.698C53.673 7.353 52.96 7.28 52.481 7.28 52.041 7.28 51.383 7.342 50.746 7.64L8.818 27.269C7.864 27.716 7.289 28.552 7.28 29.504 7.271 30.457 7.832 31.304 8.779 31.77L28.918 41.673 9.667 50.685C9.153 50.926 9.151 51.328 9.662 51.579L26.756 59.985 8.818 68.381C7.863 68.828 7.288 69.664 7.28 70.616 7.272 71.569 7.833 72.416 8.779 72.88L48.333 92.332C48.984 92.653 49.66 92.72 50.112 92.72 50.588 92.72 51.298 92.647 51.984 92.295L91.263 71.987C92.182 71.51 92.727 70.664 92.722 69.723 92.714 68.785 92.16 67.946 91.24 67.483M52.375 11.289A1 1 0 0 1 52.481 11.28C52.542 11.28 52.587 11.288 52.563 11.274L86.872 28.642 50.215 47.6C50.205 47.602 50.167 47.61 50.112 47.61L50.098 47.631 13.353 29.562zM50.22 88.71A0.5 0.5 0 0 1 50.111 88.72L50.099 88.743 13.355 70.673 30.73 62.539 48.331 71.194C48.983 71.515 49.659 71.583 50.111 71.583 50.588 71.583 51.299 71.509 51.981 71.157L70.615 61.524 86.87 69.754z" fill="#00add8" data-fill-palette-color="accent"></path></svg></g></svg></g><g></g></svg></g><defs></defs></svg><rect width="395.52" height="103.65087459498262" fill="none" stroke="none" visibility="hidden"></rect></g></svg></g></svg>