<svg xmlns="http://www.w3.org/2000/svg" version="1.1" xmlns:xlink="http://www.w3.org/1999/xlink" xmlns:svgjs="http://svgjs.dev/svgjs" width="2000" height="212" viewBox="0 0 2000 212"><g transform="matrix(1,0,0,1,-1.2121212121212466,-2.199684657590666)"><svg viewBox="0 0 396 42" data-background-color="#121212" preserveAspectRatio="xMidYMid meet" height="212" width="2000" xmlns="http://www.w3.org/2000/svg" xmlns:xlink="http://www.w3.org/1999/xlink"><g id="tight-bounds" transform="matrix(1,0,0,1,0.2400000000000091,0.43578658310758556)"><svg viewBox="0 0 395.52 41.1284268337848" height="41.1284268337848" width="395.52"><g><svg viewBox="0 0 451.14162977293216 46.912281330376395" height="41.1284268337848" width="395.52"><g transform="matrix(1,0,0,1,53.64402977293226,9.234609225225427)"><svg viewBox="0 0 397.4975999999999 28.44306287992554" height="28.44306287992554" width="397.4975999999999"><g id="textblocktransform"><svg viewBox="0 0 397.4975999999999 28.44306287992554" height="28.44306287992554" width="397.4975999999999" id="textblock"><g><rect width="397.4975999999999" height="1.0265322612165326" x="0" y="14.82424741262348" fill="#ffffff" opacity="1" stroke-width="0" stroke="transparent" fill-opacity="1" class="rect-yte-0" data-fill-palette-color="primary" rx="1%" id="yte-0" data-palette-color="#ffffff"></rect></g><g transform="matrix(1,0,0,1,0.9887999999999693,0)"><svg viewBox="0 0 395.52 13.614981659881492" height="13.614981659881492" width="395.52"><g transform="matrix(1,0,0,1,0,0)"><svg width="395.52" viewBox="-1.35 -39.35 1241.35 43.7" height="13.614981659881492" data-palette-color="#ffffff"><path d="M17.05-9.45L17.05-35 22.05-35 22.05-9.65Q22.05-6.65 20.75-4.4 19.45-2.15 17.2-0.9 14.95 0.35 12 0.35L12 0.35Q8.35 0.35 5.95-1.43 3.55-3.2 2.65-6.4L2.65-6.4 6.9-7.85Q7.25-6.7 7.9-5.8 8.55-4.9 9.58-4.38 10.6-3.85 12-3.85L12-3.85Q13.7-3.85 14.8-4.65 15.9-5.45 16.48-6.73 17.05-8 17.05-9.45L17.05-9.45ZM45.45 0.35L45.45 0.35Q41.75 0.35 38.52-0.95 35.3-2.25 32.9-4.63 30.5-7 29.15-10.28 27.8-13.55 27.8-17.5L27.8-17.5Q27.8-21.45 29.15-24.7 30.5-27.95 32.9-30.35 35.3-32.75 38.52-34.05 41.75-35.35 45.45-35.35L45.45-35.35Q49.1-35.35 52.3-34.05 55.5-32.75 57.9-30.35 60.3-27.95 61.65-24.7 63-21.45 63-17.5L63-17.5Q63-13.55 61.65-10.28 60.3-7 57.9-4.63 55.5-2.25 52.3-0.95 49.1 0.35 45.45 0.35ZM45.45-3.95L45.45-3.95Q49-3.95 51.82-5.6 54.65-7.25 56.3-10.3 57.95-13.35 57.95-17.5L57.95-17.5Q57.95-21.7 56.3-24.73 54.65-27.75 51.82-29.4 49-31.05 45.45-31.05L45.45-31.05Q41.85-31.05 39-29.4 36.15-27.75 34.52-24.73 32.9-21.7 32.9-17.5L32.9-17.5Q32.9-13.35 34.52-10.3 36.15-7.25 39-5.6 41.85-3.95 45.45-3.95ZM92.3-35L92.3-30.8 73.9-30.8 73.9-19.85 87.7-19.85 87.7-15.65 73.9-15.65 73.9-4.2 92.3-4.2 92.3 0 68.9 0 68.9-35 92.3-35ZM118.19-25.3L118.19 0 113.19 0 113.19-35 118.69-35 131.14-6.65 143.54-35 148.99-35 148.99 0 144.04 0 144.04-25.3 132.94 0 129.29 0 118.19-25.3ZM180.29-35L180.29-30.8 161.89-30.8 161.89-19.85 175.69-19.85 175.69-15.65 161.89-15.65 161.89-4.2 180.29-4.2 180.29 0 156.89 0 156.89-35 180.29-35ZM209.74-35L214.74-35 214.74 0 209.64 0 192.19-27.1 192.19 0 187.19 0 187.19-35 192.29-35 209.74-8 209.74-35ZM222.63-35L234.63-35Q240.33-35 244.46-32.85 248.58-30.7 250.86-26.75 253.13-22.8 253.13-17.35L253.13-17.35Q253.13-11.95 250.86-8.08 248.58-4.2 244.46-2.1 240.33 0 234.63 0L234.63 0 222.63 0 222.63-35ZM227.63-4.2L234.63-4.2Q241.23-4.2 244.66-7.68 248.08-11.15 248.08-17.35L248.08-17.35Q248.08-23.65 244.66-27.23 241.23-30.8 234.63-30.8L234.63-30.8 227.63-30.8 227.63-4.2ZM282.48-35L282.48-30.8 264.08-30.8 264.08-19.85 277.88-19.85 277.88-15.65 264.08-15.65 264.08-4.2 282.48-4.2 282.48 0 259.08 0 259.08-35 282.48-35ZM312.58-35L312.58-31.2 293.93-4.2 312.68-4.2 312.68 0 288.08 0 288.08-3.8 306.68-30.8 288.18-30.8 288.18-35 312.58-35ZM318.23-11.8L318.23-16 338.43-16 338.43-11.8 318.23-11.8ZM345.37 0L345.37-35 350.37-35 350.37-19.85 367.97-19.85 367.97-35 372.92-35 372.92 0 367.97 0 367.97-15.65 350.37-15.65 350.37 0 345.37 0ZM380.67-12.85L380.67-35 385.67-35 385.67-12.75Q385.67-9.75 386.82-7.78 387.97-5.8 389.97-4.88 391.97-3.95 394.47-3.95L394.47-3.95Q397.02-3.95 399-4.88 400.97-5.8 402.12-7.78 403.27-9.75 403.27-12.75L403.27-12.75 403.27-35 408.27-35 408.27-12.85Q408.27-9.45 407.15-6.98 406.02-4.5 404.05-2.88 402.07-1.25 399.6-0.45 397.12 0.35 394.42 0.35L394.42 0.35Q390.82 0.35 387.67-1.07 384.52-2.5 382.6-5.43 380.67-8.35 380.67-12.85L380.67-12.85ZM447.27-25.9L442.92-24.3Q441.02-27.85 438.09-29.45 435.17-31.05 431.72-31.05L431.72-31.05Q428.22-31.05 425.32-29.35 422.42-27.65 420.74-24.63 419.07-21.6 419.07-17.5L419.07-17.5Q419.07-13.45 420.72-10.4 422.37-7.35 425.24-5.65 428.12-3.95 431.67-3.95L431.67-3.95Q434.22-3.95 436.47-4.85 438.72-5.75 440.39-7.35 442.07-8.95 443.02-11.15L443.02-11.15 443.02-14.95 432.02-14.95 432.02-19.05 448.07-19.05 448.07-10.9Q446.87-7.7 444.49-5.15 442.12-2.6 438.84-1.13 435.57 0.35 431.67 0.35L431.67 0.35Q427.97 0.35 424.74-0.95 421.52-2.25 419.12-4.63 416.72-7 415.37-10.28 414.02-13.55 414.02-17.5L414.02-17.5Q414.02-21.4 415.37-24.68 416.72-27.95 419.12-30.35 421.52-32.75 424.74-34.05 427.97-35.35 431.67-35.35L431.67-35.35Q435.02-35.35 438.07-34.25 441.12-33.15 443.52-31.05 445.92-28.95 447.27-25.9L447.27-25.9ZM454.37 0L454.37-35 459.37-35 459.37-19.85 476.97-19.85 476.97-35 481.92-35 481.92 0 476.97 0 476.97-15.65 459.37-15.65 459.37 0 454.37 0ZM513.26-35L513.26-30.8 494.86-30.8 494.86-19.85 508.66-19.85 508.66-15.65 494.86-15.65 494.86-4.2 513.26-4.2 513.26 0 489.86 0 489.86-35 513.26-35ZM518.61-7.55L523.16-9.25Q523.46-7.85 524.38-6.65 525.31-5.45 526.91-4.7 528.51-3.95 530.86-3.95L530.86-3.95Q534.36-3.95 536.03-5.58 537.71-7.2 537.71-9.4L537.71-9.4Q537.71-11.2 536.68-12.38 535.66-13.55 533.88-14.38 532.11-15.2 529.81-15.85L529.81-15.85Q527.81-16.45 525.88-17.13 523.96-17.8 522.41-18.82 520.86-19.85 519.96-21.48 519.06-23.1 519.06-25.55L519.06-25.55Q519.06-28.6 520.51-30.8 521.96-33 524.58-34.18 527.21-35.35 530.66-35.35L530.66-35.35Q533.56-35.35 535.86-34.52 538.16-33.7 539.73-32.18 541.31-30.65 542.06-28.5L542.06-28.5 537.51-26.85Q537.21-27.95 536.26-28.93 535.31-29.9 533.86-30.5 532.41-31.1 530.61-31.1L530.61-31.1Q528.76-31.15 527.28-30.53 525.81-29.9 524.93-28.75 524.06-27.6 524.06-26L524.06-26Q524.06-24.25 525.06-23.25 526.06-22.25 527.73-21.6 529.41-20.95 531.41-20.35L531.41-20.35Q533.51-19.7 535.51-18.95 537.51-18.2 539.13-17.05 540.76-15.9 541.76-14.18 542.76-12.45 542.76-9.85L542.76-9.85Q542.76-7.05 541.46-4.75 540.16-2.45 537.53-1.05 534.91 0.35 530.96 0.35L530.96 0.35Q527.71 0.35 525.11-0.65 522.51-1.65 520.83-3.43 519.16-5.2 518.61-7.55L518.61-7.55ZM551.51 0.3L551.51 0.3Q550.16 0.3 549.21-0.65 548.26-1.6 548.26-2.95L548.26-2.95Q548.26-4.35 549.21-5.3 550.16-6.25 551.51-6.25L551.51-6.25Q552.86-6.25 553.81-5.3 554.76-4.35 554.76-2.95L554.76-2.95Q554.76-1.6 553.81-0.65 552.86 0.3 551.51 0.3ZM551.51-20.95L551.51-20.95Q550.16-20.95 549.21-21.9 548.26-22.85 548.26-24.2L548.26-24.2Q548.26-25.6 549.21-26.55 550.16-27.5 551.51-27.5L551.51-27.5Q552.86-27.5 553.81-26.55 554.76-25.6 554.76-24.2L554.76-24.2Q554.76-22.85 553.81-21.9 552.86-20.95 551.51-20.95ZM573.9-17.5L573.9-17.5Q573.9-21.45 575.25-24.73 576.6-28 579-30.38 581.4-32.75 584.58-34.05 587.75-35.35 591.45-35.35L591.45-35.35Q596.7-35.35 600.83-32.9 604.95-30.45 607.1-25.85L607.1-25.85 603.1-24.4Q601.9-26.75 600.05-28.2 598.2-29.65 596-30.35 593.8-31.05 591.55-31.05L591.55-31.05Q588-31.05 585.13-29.4 582.25-27.75 580.63-24.7 579-21.65 579-17.5L579-17.5Q579-13.4 580.63-10.35 582.25-7.3 585.13-5.63 588-3.95 591.55-3.95L591.55-3.95Q593.85-3.95 596.1-4.7 598.35-5.45 600.3-7.13 602.25-8.8 603.5-11.5L603.5-11.5 607.5-10.1Q605.25-4.8 601.05-2.23 596.85 0.35 591.45 0.35L591.45 0.35Q587.75 0.35 584.58-0.95 581.4-2.25 579-4.65 576.6-7.05 575.25-10.33 573.9-13.6 573.9-17.5ZM625.45-17.55L635.35-35 640.9-35 627.95-13 627.95 0 623 0 623-12.95 610.05-35 615.6-35 625.45-17.55ZM667.1-25.3L667.1-25.3Q667.1-27.85 665.42-29.33 663.75-30.8 660.6-30.8L660.6-30.8 651.2-30.8 651.2-19.85 660.65-19.85Q663.7-19.85 665.4-21.3 667.1-22.75 667.1-25.3ZM661.6 0L646.2 0 646.2-35 661.05-35Q664.75-35 667.2-33.75 669.65-32.5 670.87-30.45 672.1-28.4 672.1-25.9L672.1-25.9Q672.1-23.55 671.22-21.95 670.35-20.35 668.92-19.4 667.5-18.45 665.7-18.05L665.7-18.05 665.7-17.7Q667.85-17.4 669.47-16.43 671.1-15.45 672.02-13.7 672.95-11.95 672.95-9.35L672.95-9.35Q672.95-6.75 671.6-4.6 670.25-2.45 667.72-1.23 665.2 0 661.6 0L661.6 0ZM651.2-15.65L651.2-4.2 661.15-4.2Q664.35-4.2 666.17-5.68 668-7.15 668-9.9L668-9.9Q668-12.7 666.07-14.18 664.15-15.65 661-15.65L661-15.65 651.2-15.65ZM702.89-35L702.89-30.8 684.49-30.8 684.49-19.85 698.29-19.85 698.29-15.65 684.49-15.65 684.49-4.2 702.89-4.2 702.89 0 679.49 0 679.49-35 702.89-35ZM729.89-24.55L729.89-24.55Q729.89-27.4 728.19-29.1 726.49-30.8 722.79-30.8L722.79-30.8 714.79-30.8 714.79-18.35 722.84-18.35Q725.29-18.35 726.84-19.13 728.39-19.9 729.14-21.3 729.89-22.7 729.89-24.55ZM709.79-35L722.79-35Q726.94-35 729.62-33.58 732.29-32.15 733.62-29.8 734.94-27.45 734.94-24.55L734.94-24.55Q734.94-22.65 734.29-20.8 733.64-18.95 732.19-17.43 730.74-15.9 728.42-15.03 726.09-14.15 722.84-14.15L722.84-14.15 714.79-14.15 714.79 0 709.79 0 709.79-35ZM720.69-15.85L725.99-15.85 735.64 0 729.99 0 720.69-15.85ZM740.04-7.55L744.59-9.25Q744.89-7.85 745.81-6.65 746.74-5.45 748.34-4.7 749.94-3.95 752.29-3.95L752.29-3.95Q755.79-3.95 757.46-5.58 759.14-7.2 759.14-9.4L759.14-9.4Q759.14-11.2 758.11-12.38 757.09-13.55 755.31-14.38 753.54-15.2 751.24-15.85L751.24-15.85Q749.24-16.45 747.31-17.13 745.39-17.8 743.84-18.82 742.29-19.85 741.39-21.48 740.49-23.1 740.49-25.55L740.49-25.55Q740.49-28.6 741.94-30.8 743.39-33 746.01-34.18 748.64-35.35 752.09-35.35L752.09-35.35Q754.99-35.35 757.29-34.52 759.59-33.7 761.16-32.18 762.74-30.65 763.49-28.5L763.49-28.5 758.94-26.85Q758.64-27.95 757.69-28.93 756.74-29.9 755.29-30.5 753.84-31.1 752.04-31.1L752.04-31.1Q750.19-31.15 748.71-30.53 747.24-29.9 746.36-28.75 745.49-27.6 745.49-26L745.49-26Q745.49-24.25 746.49-23.25 747.49-22.25 749.16-21.6 750.84-20.95 752.84-20.35L752.84-20.35Q754.94-19.7 756.94-18.95 758.94-18.2 760.56-17.05 762.19-15.9 763.19-14.18 764.19-12.45 764.19-9.85L764.19-9.85Q764.19-7.05 762.89-4.75 761.59-2.45 758.96-1.05 756.34 0.35 752.39 0.35L752.39 0.35Q749.14 0.35 746.54-0.65 743.94-1.65 742.26-3.43 740.59-5.2 740.04-7.55L740.04-7.55ZM793.89-35L793.89-30.8 775.49-30.8 775.49-19.85 789.29-19.85 789.29-15.65 775.49-15.65 775.49-4.2 793.89-4.2 793.89 0 770.49 0 770.49-35 793.89-35ZM798.83-17.5L798.83-17.5Q798.83-21.45 800.18-24.73 801.53-28 803.93-30.38 806.33-32.75 809.51-34.05 812.68-35.35 816.38-35.35L816.38-35.35Q821.63-35.35 825.76-32.9 829.88-30.45 832.03-25.85L832.03-25.85 828.03-24.4Q826.83-26.75 824.98-28.2 823.13-29.65 820.93-30.35 818.73-31.05 816.48-31.05L816.48-31.05Q812.93-31.05 810.06-29.4 807.18-27.75 805.56-24.7 803.93-21.65 803.93-17.5L803.93-17.5Q803.93-13.4 805.56-10.35 807.18-7.3 810.06-5.63 812.93-3.95 816.48-3.95L816.48-3.95Q818.78-3.95 821.03-4.7 823.28-5.45 825.23-7.13 827.18-8.8 828.43-11.5L828.43-11.5 832.43-10.1Q830.18-4.8 825.98-2.23 821.78 0.35 816.38 0.35L816.38 0.35Q812.68 0.35 809.51-0.95 806.33-2.25 803.93-4.65 801.53-7.05 800.18-10.33 798.83-13.6 798.83-17.5ZM838.78-12.85L838.78-35 843.78-35 843.78-12.75Q843.78-9.75 844.93-7.78 846.08-5.8 848.08-4.88 850.08-3.95 852.58-3.95L852.58-3.95Q855.13-3.95 857.11-4.88 859.08-5.8 860.23-7.78 861.38-9.75 861.38-12.75L861.38-12.75 861.38-35 866.38-35 866.38-12.85Q866.38-9.45 865.26-6.98 864.13-4.5 862.16-2.88 860.18-1.25 857.71-0.45 855.23 0.35 852.53 0.35L852.53 0.35Q848.93 0.35 845.78-1.07 842.63-2.5 840.71-5.43 838.78-8.35 838.78-12.85L838.78-12.85ZM894.18-24.55L894.18-24.55Q894.18-27.4 892.48-29.1 890.78-30.8 887.08-30.8L887.08-30.8 879.08-30.8 879.08-18.35 887.13-18.35Q889.58-18.35 891.13-19.13 892.68-19.9 893.43-21.3 894.18-22.7 894.18-24.55ZM874.08-35L887.08-35Q891.23-35 893.9-33.58 896.58-32.15 897.9-29.8 899.23-27.45 899.23-24.55L899.23-24.55Q899.23-22.65 898.58-20.8 897.93-18.95 896.48-17.43 895.03-15.9 892.7-15.03 890.38-14.15 887.13-14.15L887.13-14.15 879.08-14.15 879.08 0 874.08 0 874.08-35ZM884.98-15.85L890.28-15.85 899.93 0 894.28 0 884.98-15.85ZM905.88 0L905.88-35 910.88-35 910.88 0 905.88 0ZM916.82-30.8L916.82-35 943.67-35 943.67-30.8 932.77-30.8 932.77 0 927.77 0 927.77-30.8 916.82-30.8ZM962.32-17.55L972.22-35 977.77-35 964.82-13 964.82 0 959.87 0 959.87-12.95 946.92-35 952.47-35 962.32-17.55ZM1020.47-35L1020.47-30.8 1002.07-30.8 1002.07-19.85 1015.87-19.85 1015.87-15.65 1002.07-15.65 1002.07-4.2 1020.47-4.2 1020.47 0 997.07 0 997.07-35 1020.47-35ZM1049.91-35L1054.91-35 1054.91 0 1049.81 0 1032.36-27.1 1032.36 0 1027.36 0 1027.36-35 1032.46-35 1049.91-8 1049.91-35ZM1094.11-25.9L1089.76-24.3Q1087.86-27.85 1084.94-29.45 1082.01-31.05 1078.56-31.05L1078.56-31.05Q1075.06-31.05 1072.16-29.35 1069.26-27.65 1067.59-24.63 1065.91-21.6 1065.91-17.5L1065.91-17.5Q1065.91-13.45 1067.56-10.4 1069.21-7.35 1072.09-5.65 1074.96-3.95 1078.51-3.95L1078.51-3.95Q1081.06-3.95 1083.31-4.85 1085.56-5.75 1087.24-7.35 1088.91-8.95 1089.86-11.15L1089.86-11.15 1089.86-14.95 1078.86-14.95 1078.86-19.05 1094.91-19.05 1094.91-10.9Q1093.71-7.7 1091.34-5.15 1088.96-2.6 1085.69-1.13 1082.41 0.35 1078.51 0.35L1078.51 0.35Q1074.81 0.35 1071.59-0.95 1068.36-2.25 1065.96-4.63 1063.56-7 1062.21-10.28 1060.86-13.55 1060.86-17.5L1060.86-17.5Q1060.86-21.4 1062.21-24.68 1063.56-27.95 1065.96-30.35 1068.36-32.75 1071.59-34.05 1074.81-35.35 1078.51-35.35L1078.51-35.35Q1081.86-35.35 1084.91-34.25 1087.96-33.15 1090.36-31.05 1092.76-28.95 1094.11-25.9L1094.11-25.9ZM1101.21 0L1101.21-35 1106.21-35 1106.21 0 1101.21 0ZM1136.66-35L1141.66-35 1141.66 0 1136.56 0 1119.11-27.1 1119.11 0 1114.11 0 1114.11-35 1119.21-35 1136.66-8 1136.66-35ZM1172.95-35L1172.95-30.8 1154.55-30.8 1154.55-19.85 1168.35-19.85 1168.35-15.65 1154.55-15.65 1154.55-4.2 1172.95-4.2 1172.95 0 1149.55 0 1149.55-35 1172.95-35ZM1203.25-35L1203.25-30.8 1184.85-30.8 1184.85-19.85 1198.65-19.85 1198.65-15.65 1184.85-15.65 1184.85-4.2 1203.25-4.2 1203.25 0 1179.85 0 1179.85-35 1203.25-35ZM1230.25-24.55L1230.25-24.55Q1230.25-27.4 1228.55-29.1 1226.85-30.8 1223.15-30.8L1223.15-30.8 1215.15-30.8 1215.15-18.35 1223.2-18.35Q1225.65-18.35 1227.2-19.13 1228.75-19.9 1229.5-21.3 1230.25-22.7 1230.25-24.55ZM1210.15-35L1223.15-35Q1227.3-35 1229.97-33.58 1232.65-32.15 1233.97-29.8 1235.3-27.45 1235.3-24.55L1235.3-24.55Q1235.3-22.65 1234.65-20.8 1234-18.95 1232.55-17.43 1231.1-15.9 1228.77-15.03 1226.45-14.15 1223.2-14.15L1223.2-14.15 1215.15-14.15 1215.15 0 1210.15 0 1210.15-35ZM1221.05-15.85L1226.35-15.85 1236 0 1230.35 0 1221.05-15.85Z" opacity="1" transform="matrix(1,0,0,1,0,0)" fill="#ffffff" class="wordmark-text-0" data-fill-palette-color="primary" id="text-0"></path></svg></g></svg></g><g transform="matrix(1,0,0,1,3.5,17.060045426582)"><svg viewBox="0 0 388.52 11.383017453343543" height="11.383017453343543" width="388.52"><g transform="matrix(1,0,0,1,0,0)"><svg width="388.52" viewBox="-0.4500000000000002 -40.25 1877.64 55.85" height="11.383017453343543" data-palette-color="#00cc66"><path d="M14.85 0L3.55 0 3.55-35 14.85-35Q20.95-35 24.93-32.85 28.9-30.7 30.83-26.78 32.75-22.85 32.75-17.45L32.75-17.45Q32.75-12.15 30.83-8.22 28.9-4.3 24.93-2.15 20.95 0 14.85 0L14.85 0ZM9.55-29.95L9.55-5.1 14.55-5.1Q19.1-5.1 21.73-6.58 24.35-8.05 25.48-10.83 26.6-13.6 26.6-17.45L26.6-17.45Q26.6-21.35 25.48-24.13 24.35-26.9 21.73-28.43 19.1-29.95 14.55-29.95L14.55-29.95 9.55-29.95ZM82.53 0.6L82.53 0.6Q78.78 0.6 75.93-1.03 73.08-2.65 71.48-5.6 69.88-8.55 69.88-12.4L69.88-12.4Q69.88-16.4 71.45-19.4 73.03-22.4 75.9-24.1 78.78-25.8 82.58-25.8L82.58-25.8Q86.28-25.8 89.03-24.15 91.78-22.5 93.28-19.73 94.78-16.95 94.78-13.5L94.78-13.5Q94.78-13 94.78-12.4 94.78-11.8 94.68-11.15L94.68-11.15 74.18-11.15 74.18-15 88.73-15Q88.63-17.75 86.88-19.33 85.13-20.9 82.53-20.9L82.53-20.9Q80.68-20.9 79.13-20.05 77.58-19.2 76.68-17.53 75.78-15.85 75.78-13.3L75.78-13.3 75.78-11.85Q75.78-9.5 76.65-7.8 77.53-6.1 79.05-5.23 80.58-4.35 82.48-4.35L82.48-4.35Q84.58-4.35 85.95-5.25 87.33-6.15 87.98-7.65L87.98-7.65 94.08-7.65Q93.38-5.3 91.78-3.43 90.18-1.55 87.83-0.48 85.48 0.6 82.53 0.6ZM139.91 0L133.91 0 133.91-27.95Q133.91-30.85 134.88-32.63 135.86-34.4 137.71-35.2 139.56-36 142.11-36L142.11-36 145.11-36 145.11-30.9 143.01-30.9Q141.36-30.9 140.63-30.23 139.91-29.55 139.91-27.9L139.91-27.9 139.91 0ZM145.61-20.15L130.31-20.15 130.31-25.2 145.61-25.2 145.61-20.15ZM193.88 0.6L193.88 0.6Q190.13 0.6 187.28-1.03 184.43-2.65 182.83-5.6 181.23-8.55 181.23-12.4L181.23-12.4Q181.23-16.4 182.81-19.4 184.38-22.4 187.26-24.1 190.13-25.8 193.93-25.8L193.93-25.8Q197.63-25.8 200.38-24.15 203.13-22.5 204.63-19.73 206.13-16.95 206.13-13.5L206.13-13.5Q206.13-13 206.13-12.4 206.13-11.8 206.03-11.15L206.03-11.15 185.53-11.15 185.53-15 200.08-15Q199.98-17.75 198.23-19.33 196.48-20.9 193.88-20.9L193.88-20.9Q192.03-20.9 190.48-20.05 188.93-19.2 188.03-17.53 187.13-15.85 187.13-13.3L187.13-13.3 187.13-11.85Q187.13-9.5 188.01-7.8 188.88-6.1 190.41-5.23 191.93-4.35 193.83-4.35L193.83-4.35Q195.93-4.35 197.31-5.25 198.68-6.15 199.33-7.65L199.33-7.65 205.43-7.65Q204.73-5.3 203.13-3.43 201.53-1.55 199.18-0.48 196.83 0.6 193.88 0.6ZM250.01 0L244.01 0 244.01-25.2 249.31-25.2 249.76-21 249.76-21Q250.91-23.2 253.06-24.5 255.21-25.8 258.16-25.8L258.16-25.8Q261.21-25.8 263.36-24.53 265.51-23.25 266.69-20.8 267.86-18.35 267.86-14.7L267.86-14.7 267.86 0 261.86 0 261.86-14.15Q261.86-17.3 260.46-19 259.06-20.7 256.31-20.7L256.31-20.7Q254.51-20.7 253.09-19.85 251.66-19 250.84-17.38 250.01-15.75 250.01-13.45L250.01-13.45 250.01 0ZM317.74 0.6L317.74 0.6Q314.24 0.6 311.49-1.1 308.74-2.8 307.21-5.8 305.69-8.8 305.69-12.6L305.69-12.6Q305.69-16.4 307.24-19.38 308.79-22.35 311.56-24.08 314.34-25.8 317.84-25.8L317.84-25.8Q320.69-25.8 322.81-24.73 324.94-23.65 326.19-21.7L326.19-21.7 326.19-36 332.19-36 332.19 0 326.79 0 326.19-3.65 326.19-3.65Q325.39-2.55 324.24-1.58 323.09-0.6 321.49 0 319.89 0.6 317.74 0.6ZM318.99-4.6L318.99-4.6Q321.14-4.6 322.79-5.63 324.44-6.65 325.34-8.45 326.24-10.25 326.24-12.6L326.24-12.6Q326.24-14.95 325.34-16.75 324.44-18.55 322.79-19.55 321.14-20.55 318.99-20.55L318.99-20.55Q316.94-20.55 315.29-19.55 313.64-18.55 312.71-16.75 311.79-14.95 311.79-12.6L311.79-12.6Q311.79-10.25 312.71-8.45 313.64-6.65 315.29-5.63 316.94-4.6 318.99-4.6ZM377.42 0L371.42 0 371.42-25.2 377.42-25.2 377.42 0ZM374.42-29.2L374.42-29.2Q372.77-29.2 371.69-30.23 370.62-31.25 370.62-32.75L370.62-32.75Q370.62-34.3 371.69-35.27 372.77-36.25 374.42-36.25L374.42-36.25Q376.07-36.25 377.14-35.27 378.22-34.3 378.22-32.75L378.22-32.75Q378.22-31.25 377.14-30.23 376.07-29.2 374.42-29.2ZM422.69 0L416.69 0 416.69-25.2 421.99-25.2 422.44-21 422.44-21Q423.59-23.2 425.74-24.5 427.89-25.8 430.84-25.8L430.84-25.8Q433.89-25.8 436.04-24.53 438.19-23.25 439.37-20.8 440.54-18.35 440.54-14.7L440.54-14.7 440.54 0 434.54 0 434.54-14.15Q434.54-17.3 433.14-19 431.74-20.7 428.99-20.7L428.99-20.7Q427.19-20.7 425.77-19.85 424.34-19 423.52-17.38 422.69-15.75 422.69-13.45L422.69-13.45 422.69 0ZM489.82 11.6L489.82 11.6Q486.27 11.6 483.6 10.73 480.92 9.85 479.45 8.08 477.97 6.3 477.97 3.65L477.97 3.65Q477.97 2.1 478.75 0.63 479.52-0.85 481.1-2.13 482.67-3.4 485.12-4.35L485.12-4.35 487.77-1.45Q485.37-0.6 484.42 0.6 483.47 1.8 483.47 3.05L483.47 3.05Q483.47 4.35 484.3 5.23 485.12 6.1 486.55 6.55 487.97 7 489.77 7L489.77 7Q491.52 7 492.82 6.53 494.12 6.05 494.85 5.2 495.57 4.35 495.57 3.15L495.57 3.15Q495.57 1.65 494.52 0.73 493.47-0.2 490.37-0.4L490.37-0.4Q487.72-0.6 485.72-0.98 483.72-1.35 482.3-1.85 480.87-2.35 479.87-2.98 478.87-3.6 478.22-4.25L478.22-4.25 478.22-5.4 483.47-10.9 487.92-9.45 482.02-3.7 483.57-6.6Q484.07-6.25 484.6-5.95 485.12-5.65 485.95-5.43 486.77-5.2 488.12-5 489.47-4.8 491.62-4.6L491.62-4.6Q494.97-4.35 497.07-3.4 499.17-2.45 500.17-0.85 501.17 0.75 501.17 3L501.17 3Q501.17 5.2 499.95 7.15 498.72 9.1 496.22 10.35 493.72 11.6 489.82 11.6ZM489.82-7.55L489.82-7.55Q486.67-7.55 484.4-8.78 482.12-10 480.92-12.08 479.72-14.15 479.72-16.65L479.72-16.65Q479.72-19.2 480.92-21.25 482.12-23.3 484.4-24.55 486.67-25.8 489.82-25.8L489.82-25.8Q492.97-25.8 495.22-24.55 497.47-23.3 498.67-21.25 499.87-19.2 499.87-16.65L499.87-16.65Q499.87-14.15 498.67-12.08 497.47-10 495.22-8.78 492.97-7.55 489.82-7.55ZM489.82-12.2L489.82-12.2Q491.97-12.2 493.27-13.35 494.57-14.5 494.57-16.65L494.57-16.65Q494.57-18.8 493.27-19.93 491.97-21.05 489.82-21.05L489.82-21.05Q487.67-21.05 486.32-19.93 484.97-18.8 484.97-16.65L484.97-16.65Q484.97-14.5 486.32-13.35 487.67-12.2 489.82-12.2ZM503.17-21.4L493.97-20.8 492.82-25.2 503.17-25.2 503.17-21.4ZM596.83 0L585.53 0 585.53-35 596.83-35Q602.93-35 606.9-32.85 610.88-30.7 612.8-26.78 614.73-22.85 614.73-17.45L614.73-17.45Q614.73-12.15 612.8-8.22 610.88-4.3 606.9-2.15 602.93 0 596.83 0L596.83 0ZM591.53-29.95L591.53-5.1 596.53-5.1Q601.08-5.1 603.7-6.58 606.33-8.05 607.45-10.83 608.58-13.6 608.58-17.45L608.58-17.45Q608.58-21.35 607.45-24.13 606.33-26.9 603.7-28.43 601.08-29.95 596.53-29.95L596.53-29.95 591.53-29.95ZM661.11 0.6L661.11 0.6Q658.01 0.6 655.96-0.45 653.91-1.5 652.91-3.25 651.91-5 651.91-7.05L651.91-7.05Q651.91-9.45 653.13-11.2 654.36-12.95 656.76-13.93 659.16-14.9 662.66-14.9L662.66-14.9 669.01-14.9Q669.01-16.9 668.46-18.23 667.91-19.55 666.76-20.2 665.61-20.85 663.81-20.85L663.81-20.85Q661.76-20.85 660.31-19.93 658.86-19 658.51-17.1L658.51-17.1 652.61-17.1Q652.91-19.8 654.41-21.73 655.91-23.65 658.38-24.73 660.86-25.8 663.81-25.8L663.81-25.8Q667.36-25.8 669.86-24.58 672.36-23.35 673.68-21.08 675.01-18.8 675.01-15.6L675.01-15.6 675.01 0 669.91 0 669.31-4.05 669.31-4.05Q668.81-3.05 668.03-2.2 667.26-1.35 666.26-0.73 665.26-0.1 663.98 0.25 662.71 0.6 661.11 0.6ZM662.46-4.15L662.46-4.15Q663.91-4.15 665.03-4.67 666.16-5.2 666.98-6.18 667.81-7.15 668.26-8.35 668.71-9.55 668.86-10.9L668.86-10.9 668.86-11 663.31-11Q661.56-11 660.41-10.55 659.26-10.1 658.76-9.33 658.26-8.55 658.26-7.5L658.26-7.5Q658.26-6.45 658.76-5.7 659.26-4.95 660.21-4.55 661.16-4.15 662.46-4.15ZM728.58 0L724.28 0Q721.73 0 719.86-0.8 717.98-1.6 716.93-3.45 715.88-5.3 715.88-8.45L715.88-8.45 715.88-20.15 711.58-20.15 711.58-25.2 715.88-25.2 716.58-31.85 721.88-31.85 721.88-25.2 728.73-25.2 728.73-20.15 721.88-20.15 721.88-8.45Q721.88-6.55 722.71-5.83 723.53-5.1 725.48-5.1L725.48-5.1 728.58-5.1 728.58 0ZM775.11 0.6L775.11 0.6Q772.01 0.6 769.96-0.45 767.91-1.5 766.91-3.25 765.91-5 765.91-7.05L765.91-7.05Q765.91-9.45 767.14-11.2 768.36-12.95 770.76-13.93 773.16-14.9 776.66-14.9L776.66-14.9 783.01-14.9Q783.01-16.9 782.46-18.23 781.91-19.55 780.76-20.2 779.61-20.85 777.81-20.85L777.81-20.85Q775.76-20.85 774.31-19.93 772.86-19 772.51-17.1L772.51-17.1 766.61-17.1Q766.91-19.8 768.41-21.73 769.91-23.65 772.39-24.73 774.86-25.8 777.81-25.8L777.81-25.8Q781.36-25.8 783.86-24.58 786.36-23.35 787.69-21.08 789.01-18.8 789.01-15.6L789.01-15.6 789.01 0 783.91 0 783.31-4.05 783.31-4.05Q782.81-3.05 782.04-2.2 781.26-1.35 780.26-0.73 779.26-0.1 777.99 0.25 776.71 0.6 775.11 0.6ZM776.46-4.15L776.46-4.15Q777.91-4.15 779.04-4.67 780.16-5.2 780.99-6.18 781.81-7.15 782.26-8.35 782.71-9.55 782.86-10.9L782.86-10.9 782.86-11 777.31-11Q775.56-11 774.41-10.55 773.26-10.1 772.76-9.33 772.26-8.55 772.26-7.5L772.26-7.5Q772.26-6.45 772.76-5.7 773.26-4.95 774.21-4.55 775.16-4.15 776.46-4.15ZM829.19 6.15L825.24 6.15 828.09-6.05 833.94-6.05 829.19 6.15ZM938.75 0L916.15 0 916.15-35 938.75-35 938.75-30.15 922.15-30.15 922.15-20.1 937.25-20.1 937.25-15.35 922.15-15.35 922.15-4.85 938.75-4.85 938.75 0ZM983.17 0L977.17 0 977.17-25.2 982.47-25.2 982.97-21.75 982.97-21.75Q984.17-23.65 986.15-24.73 988.12-25.8 990.67-25.8L990.67-25.8Q992.57-25.8 994.1-25.3 995.62-24.8 996.8-23.8 997.97-22.8 998.72-21.3L998.72-21.3 998.72-21.3Q1000.12-23.4 1002.37-24.6 1004.62-25.8 1007.27-25.8L1007.27-25.8Q1010.42-25.8 1012.62-24.53 1014.82-23.25 1015.97-20.78 1017.12-18.3 1017.12-14.7L1017.12-14.7 1017.12 0 1011.17 0 1011.17-14.1Q1011.17-17.3 1009.87-19 1008.57-20.7 1006.02-20.7L1006.02-20.7Q1004.27-20.7 1002.95-19.85 1001.62-19 1000.87-17.38 1000.12-15.75 1000.12-13.4L1000.12-13.4 1000.12 0 994.17 0 994.17-14.1Q994.17-17.3 992.87-19 991.57-20.7 988.97-20.7L988.97-20.7Q987.32-20.7 986-19.85 984.67-19 983.92-17.38 983.17-15.75 983.17-13.4L983.17-13.4 983.17 0ZM1061.8 11L1055.8 11 1055.8-25.2 1061.15-25.2 1061.8-21.55 1061.8-21.55Q1062.6-22.65 1063.73-23.63 1064.85-24.6 1066.48-25.2 1068.1-25.8 1070.2-25.8L1070.2-25.8Q1073.75-25.8 1076.48-24.05 1079.2-22.3 1080.75-19.33 1082.3-16.35 1082.3-12.55L1082.3-12.55Q1082.3-8.75 1080.73-5.78 1079.15-2.8 1076.43-1.1 1073.7 0.6 1070.2 0.6L1070.2 0.6Q1067.35 0.6 1065.23-0.48 1063.1-1.55 1061.8-3.55L1061.8-3.55 1061.8 11ZM1068.95-4.6L1068.95-4.6Q1071.05-4.6 1072.7-5.6 1074.35-6.6 1075.28-8.4 1076.2-10.2 1076.2-12.55L1076.2-12.55Q1076.2-14.95 1075.28-16.75 1074.35-18.55 1072.7-19.55 1071.05-20.55 1068.95-20.55L1068.95-20.55Q1066.8-20.55 1065.18-19.55 1063.55-18.55 1062.63-16.75 1061.7-14.95 1061.7-12.6L1061.7-12.6Q1061.7-10.2 1062.63-8.43 1063.55-6.65 1065.18-5.63 1066.8-4.6 1068.95-4.6ZM1132.18 0.6L1132.18 0.6Q1128.58 0.6 1125.7-1.07 1122.83-2.75 1121.2-5.73 1119.58-8.7 1119.58-12.55L1119.58-12.55Q1119.58-16.5 1121.23-19.48 1122.88-22.45 1125.75-24.13 1128.63-25.8 1132.23-25.8L1132.23-25.8Q1135.83-25.8 1138.7-24.13 1141.58-22.45 1143.2-19.5 1144.83-16.55 1144.83-12.6L1144.83-12.6Q1144.83-8.65 1143.18-5.7 1141.53-2.75 1138.65-1.07 1135.78 0.6 1132.18 0.6ZM1132.18-4.55L1132.18-4.55Q1133.98-4.55 1135.45-5.45 1136.93-6.35 1137.83-8.15 1138.73-9.95 1138.73-12.6L1138.73-12.6Q1138.73-15.25 1137.85-17.03 1136.98-18.8 1135.5-19.7 1134.03-20.6 1132.23-20.6L1132.23-20.6Q1130.48-20.6 1128.98-19.7 1127.48-18.8 1126.58-17.03 1125.68-15.25 1125.68-12.6L1125.68-12.6Q1125.68-9.95 1126.58-8.15 1127.48-6.35 1128.95-5.45 1130.43-4.55 1132.18-4.55ZM1193.31 0L1187.11 0 1179.71-25.2 1185.66-25.2 1190.81-4.5 1189.71-4.55 1195.46-25.2 1202.16-25.2 1207.96-4.55 1206.86-4.55 1212.01-25.2 1217.96-25.2 1210.56 0 1204.36 0 1198.21-21.35 1199.46-21.35 1193.31 0ZM1265.48 0.6L1265.48 0.6Q1261.73 0.6 1258.88-1.03 1256.03-2.65 1254.43-5.6 1252.83-8.55 1252.83-12.4L1252.83-12.4Q1252.83-16.4 1254.41-19.4 1255.98-22.4 1258.86-24.1 1261.73-25.8 1265.53-25.8L1265.53-25.8Q1269.23-25.8 1271.98-24.15 1274.73-22.5 1276.23-19.73 1277.73-16.95 1277.73-13.5L1277.73-13.5Q1277.73-13 1277.73-12.4 1277.73-11.8 1277.63-11.15L1277.63-11.15 1257.13-11.15 1257.13-15 1271.68-15Q1271.58-17.75 1269.83-19.33 1268.08-20.9 1265.48-20.9L1265.48-20.9Q1263.63-20.9 1262.08-20.05 1260.53-19.2 1259.63-17.53 1258.73-15.85 1258.73-13.3L1258.73-13.3 1258.73-11.85Q1258.73-9.5 1259.61-7.8 1260.48-6.1 1262.01-5.23 1263.53-4.35 1265.43-4.35L1265.43-4.35Q1267.53-4.35 1268.91-5.25 1270.28-6.15 1270.93-7.65L1270.93-7.65 1277.03-7.65Q1276.33-5.3 1274.73-3.43 1273.13-1.55 1270.78-0.48 1268.43 0.6 1265.48 0.6ZM1321.61 0L1315.61 0 1315.61-25.2 1320.96-25.2 1321.51-20.5 1321.51-20.5Q1322.41-22.15 1323.76-23.33 1325.11-24.5 1326.94-25.15 1328.76-25.8 1330.96-25.8L1330.96-25.8 1330.96-19.45 1328.86-19.45Q1327.36-19.45 1326.01-19.07 1324.66-18.7 1323.69-17.88 1322.71-17.05 1322.16-15.63 1321.61-14.2 1321.61-12.05L1321.61-12.05 1321.61 0ZM1374.04 0L1368.04 0 1368.04-25.2 1374.04-25.2 1374.04 0ZM1371.04-29.2L1371.04-29.2Q1369.39-29.2 1368.32-30.23 1367.24-31.25 1367.24-32.75L1367.24-32.75Q1367.24-34.3 1368.32-35.27 1369.39-36.25 1371.04-36.25L1371.04-36.25Q1372.69-36.25 1373.77-35.27 1374.84-34.3 1374.84-32.75L1374.84-32.75Q1374.84-31.25 1373.77-30.23 1372.69-29.2 1371.04-29.2ZM1419.32 0L1413.32 0 1413.32-25.2 1418.62-25.2 1419.07-21 1419.07-21Q1420.22-23.2 1422.37-24.5 1424.52-25.8 1427.47-25.8L1427.47-25.8Q1430.52-25.8 1432.67-24.53 1434.82-23.25 1435.99-20.8 1437.17-18.35 1437.17-14.7L1437.17-14.7 1437.17 0 1431.17 0 1431.17-14.15Q1431.17-17.3 1429.77-19 1428.37-20.7 1425.62-20.7L1425.62-20.7Q1423.82-20.7 1422.39-19.85 1420.97-19 1420.14-17.38 1419.32-15.75 1419.32-13.45L1419.32-13.45 1419.32 0ZM1486.45 11.6L1486.45 11.6Q1482.9 11.6 1480.22 10.73 1477.55 9.85 1476.07 8.08 1474.6 6.3 1474.6 3.65L1474.6 3.65Q1474.6 2.1 1475.37 0.63 1476.15-0.85 1477.72-2.13 1479.3-3.4 1481.75-4.35L1481.75-4.35 1484.4-1.45Q1482-0.6 1481.05 0.6 1480.1 1.8 1480.1 3.05L1480.1 3.05Q1480.1 4.35 1480.92 5.23 1481.75 6.1 1483.17 6.55 1484.6 7 1486.4 7L1486.4 7Q1488.15 7 1489.45 6.53 1490.75 6.05 1491.47 5.2 1492.2 4.35 1492.2 3.15L1492.2 3.15Q1492.2 1.65 1491.15 0.73 1490.1-0.2 1487-0.4L1487-0.4Q1484.35-0.6 1482.35-0.98 1480.35-1.35 1478.92-1.85 1477.5-2.35 1476.5-2.98 1475.5-3.6 1474.85-4.25L1474.85-4.25 1474.85-5.4 1480.1-10.9 1484.55-9.45 1478.65-3.7 1480.2-6.6Q1480.7-6.25 1481.22-5.95 1481.75-5.65 1482.57-5.43 1483.4-5.2 1484.75-5 1486.1-4.8 1488.25-4.6L1488.25-4.6Q1491.6-4.35 1493.7-3.4 1495.8-2.45 1496.8-0.85 1497.8 0.75 1497.8 3L1497.8 3Q1497.8 5.2 1496.57 7.15 1495.35 9.1 1492.85 10.35 1490.35 11.6 1486.45 11.6ZM1486.45-7.55L1486.45-7.55Q1483.3-7.55 1481.02-8.78 1478.75-10 1477.55-12.08 1476.35-14.15 1476.35-16.65L1476.35-16.65Q1476.35-19.2 1477.55-21.25 1478.75-23.3 1481.02-24.55 1483.3-25.8 1486.45-25.8L1486.45-25.8Q1489.6-25.8 1491.85-24.55 1494.1-23.3 1495.3-21.25 1496.5-19.2 1496.5-16.65L1496.5-16.65Q1496.5-14.15 1495.3-12.08 1494.1-10 1491.85-8.78 1489.6-7.55 1486.45-7.55ZM1486.45-12.2L1486.45-12.2Q1488.6-12.2 1489.9-13.35 1491.2-14.5 1491.2-16.65L1491.2-16.65Q1491.2-18.8 1489.9-19.93 1488.6-21.05 1486.45-21.05L1486.45-21.05Q1484.3-21.05 1482.95-19.93 1481.6-18.8 1481.6-16.65L1481.6-16.65Q1481.6-14.5 1482.95-13.35 1484.3-12.2 1486.45-12.2ZM1499.8-21.4L1490.6-20.8 1489.45-25.2 1499.8-25.2 1499.8-21.4ZM1596.25 0L1590.3 0 1590.3-30.15 1580-30.15 1580-35 1606.55-35 1606.55-30.15 1596.25-30.15 1596.25 0ZM1647.13 0L1641.13 0 1641.13-25.2 1646.48-25.2 1647.03-20.5 1647.03-20.5Q1647.93-22.15 1649.28-23.33 1650.63-24.5 1652.45-25.15 1654.28-25.8 1656.48-25.8L1656.48-25.8 1656.48-19.45 1654.38-19.45Q1652.88-19.45 1651.53-19.07 1650.18-18.7 1649.2-17.88 1648.23-17.05 1647.68-15.63 1647.13-14.2 1647.13-12.05L1647.13-12.05 1647.13 0ZM1702.66 0.6L1702.66 0.6Q1699.61 0.6 1697.43-0.63 1695.26-1.85 1694.11-4.33 1692.96-6.8 1692.96-10.45L1692.96-10.45 1692.96-25.2 1698.96-25.2 1698.96-11.05Q1698.96-7.8 1700.33-6.13 1701.71-4.45 1704.51-4.45L1704.51-4.45Q1706.31-4.45 1707.73-5.3 1709.16-6.15 1709.98-7.78 1710.81-9.4 1710.81-11.75L1710.81-11.75 1710.81-25.2 1716.81-25.2 1716.81 0 1711.51 0 1711.06-4.2 1711.06-4.2Q1709.91-2 1707.73-0.7 1705.56 0.6 1702.66 0.6ZM1765.89 0.6L1765.89 0.6Q1762.54 0.6 1760.06-0.48 1757.59-1.55 1756.16-3.48 1754.74-5.4 1754.49-7.9L1754.49-7.9 1760.49-7.9Q1760.74-6.85 1761.39-5.98 1762.04-5.1 1763.16-4.6 1764.29-4.1 1765.84-4.1L1765.84-4.1Q1767.34-4.1 1768.29-4.53 1769.24-4.95 1769.69-5.65 1770.14-6.35 1770.14-7.15L1770.14-7.15Q1770.14-8.35 1769.49-9 1768.84-9.65 1767.61-10.03 1766.39-10.4 1764.69-10.75L1764.69-10.75Q1762.89-11.1 1761.21-11.63 1759.54-12.15 1758.21-12.95 1756.89-13.75 1756.11-15 1755.34-16.25 1755.34-18.05L1755.34-18.05Q1755.34-20.25 1756.51-22 1757.69-23.75 1759.91-24.78 1762.14-25.8 1765.24-25.8L1765.24-25.8Q1769.64-25.8 1772.26-23.78 1774.89-21.75 1775.34-18.1L1775.34-18.1 1769.64-18.1Q1769.39-19.5 1768.24-20.28 1767.09-21.05 1765.19-21.05L1765.19-21.05Q1763.24-21.05 1762.21-20.33 1761.19-19.6 1761.19-18.4L1761.19-18.4Q1761.19-17.6 1761.81-17 1762.44-16.4 1763.64-15.98 1764.84-15.55 1766.59-15.15L1766.59-15.15Q1769.39-14.6 1771.54-13.85 1773.69-13.1 1774.94-11.65 1776.19-10.2 1776.19-7.55L1776.19-7.55Q1776.24-5.15 1774.96-3.3 1773.69-1.45 1771.39-0.43 1769.09 0.6 1765.89 0.6ZM1828.71 0L1824.41 0Q1821.86 0 1819.99-0.8 1818.11-1.6 1817.06-3.45 1816.01-5.3 1816.01-8.45L1816.01-8.45 1816.01-20.15 1811.71-20.15 1811.71-25.2 1816.01-25.2 1816.71-31.85 1822.01-31.85 1822.01-25.2 1828.86-25.2 1828.86-20.15 1822.01-20.15 1822.01-8.45Q1822.01-6.55 1822.84-5.83 1823.66-5.1 1825.61-5.1L1825.61-5.1 1828.71-5.1 1828.71 0ZM1869.44 0.25L1869.44 0.25Q1867.74 0.25 1866.69-0.8 1865.64-1.85 1865.64-3.3L1865.64-3.3Q1865.64-4.85 1866.69-5.9 1867.74-6.95 1869.44-6.95L1869.44-6.95Q1871.09-6.95 1872.14-5.9 1873.19-4.85 1873.19-3.3L1873.19-3.3Q1873.19-1.85 1872.14-0.8 1871.09 0.25 1869.44 0.25Z" opacity="1" transform="matrix(1,0,0,1,0,0)" fill="#00cc66" class="slogan-text-1" data-fill-palette-color="secondary" id="text-1"></path></svg></g></svg></g></svg></g></svg></g><g><svg viewBox="0 0 50.956772544616726 46.912281330376395" height="46.912281330376395" width="50.956772544616726"><g><svg xmlns="http://www.w3.org/2000/svg" xmlns:xlink="http://www.w3.org/1999/xlink" version="1.1" x="0" y="0" viewBox="9.398 12.34 80.1930005690853 73.828" enable-background="new 0 0 100 100" xml:space="preserve" height="46.912281330376395" width="50.956772544616726" class="icon-icon-0" data-fill-palette-color="accent" id="icon-0"><g fill="#00cc66" data-fill-palette-color="accent"><path d="M55.894 49.046V51.038C55.894 53.547 57.036 54.713 59.222 54.713H61.979C64.585 54.713 66.358 56.832 66.358 59.088V61.406C66.358 63.915 65.221 65.427 62.563 65.427H59.367C56.571 65.427 55.114 64.149 55.114 61.538V59.38C55.114 57.321 53.635 55.97 51.833 55.97H47.074C44.694 55.97 44.115 57.578 44.115 59.38V63.629C44.115 65.881 45.466 66.653 47.203 66.653H50.134C53.444 66.653 55.034 68.105 55.034 70.423V72.024C55.034 74.658 56.532 75.656 58.915 75.656H63.83C66.263 75.656 67.452 74.372 67.452 72.177V70.381C67.452 67.358 69.128 66.393 72.345 66.393H75.729C77.595 66.393 78.454 65.235 78.454 63.691V57.451C78.454 55.393 77.296 54.428 75.045 54.428H70.991C68.572 54.428 66.403 52.599 66.403 49.218V47.226C66.403 44.717 65.261 43.551 63.074 43.551H60.317C57.711 43.551 55.938 41.433 55.938 39.177V36.859C55.938 34.35 57.076 32.838 59.734 32.838H62.929C65.725 32.838 67.183 34.116 67.183 36.727V38.885C67.183 40.944 68.662 42.294 70.464 42.294H75.222C77.602 42.294 78.181 40.686 78.181 38.885V34.636C78.181 32.385 76.83 31.613 75.093 31.613H72.162C68.852 31.613 67.262 30.161 67.262 27.843V26.327C67.262 23.694 65.837 22.61 63.454 22.61H58.466C56.033 22.61 54.844 23.894 54.844 26.09V27.885C54.844 30.908 53.168 31.873 49.951 31.873H46.566C44.701 31.873 43.842 33.031 43.842 34.575V40.815C43.842 42.874 44.999 43.839 47.252 43.839H51.304C53.725 43.836 55.894 45.665 55.894 49.046" fill="#00cc66" data-fill-palette-color="accent"></path><path d="M86.07 54.482A3.52 3.52 0 0 0 89.591 50.961V48.273A3.52 3.52 0 0 0 86.07 44.751H83.382A3.52 3.52 0 0 0 79.861 48.273V50.961A3.52 3.52 0 0 0 83.382 54.482z" fill="#00cc66" data-fill-palette-color="accent"></path><path d="M36.547 31.871H39.555C41.806 31.871 42.964 30.906 42.964 28.848V26.874C43.077 23.68 45.188 22.216 47.542 22.216H50.55C52.803 22.216 53.96 21.251 53.96 19.193V15.042C53.96 13.498 53.102 12.34 51.236 12.34H45.541C43.695 12.34 42.91 13.195 42.91 15.122V17.556C42.91 19.751 41.229 21.809 38.739 21.92H34.545C32.7 21.92 31.914 22.775 31.914 24.702V27.21C31.914 29.466 30.143 31.585 27.535 31.585H24.778C22.59 31.585 21.449 32.75 21.449 35.259V38.33C21.449 41.711 19.281 43.54 16.861 43.54H12.807C10.556 43.54 9.398 44.505 9.398 46.563V53.329C9.398 55.388 10.556 56.352 12.807 56.352H16.861C19.281 56.352 21.449 57.401 21.449 60.783V63.195C21.449 65.704 22.591 66.869 24.778 66.869H27.535C30.142 66.869 31.914 68.988 31.914 71.244V73.783C31.914 75.71 32.7 76.565 34.545 76.565H38.758L38.737 76.589C41.228 76.699 42.908 78.758 42.908 80.953V83.386C42.908 85.313 43.693 86.168 45.539 86.168H51.233C53.099 86.168 53.958 85.01 53.958 83.466V79.315C53.958 77.256 52.8 76.291 50.549 76.291H47.54C45.192 76.291 43.087 74.834 42.964 71.658V69.605C42.964 67.546 41.806 66.582 39.555 66.582H36.547C34.126 66.582 31.957 64.754 31.957 61.373V59.74C31.957 57.231 33.1 56.066 35.287 56.066H38.043C40.65 56.066 42.423 53.947 42.423 51.691V48.2C42.423 45.944 40.651 43.825 38.043 43.825H35.287C33.099 43.825 31.957 42.659 31.957 40.151V36.791C31.957 33.411 34.126 31.871 36.547 31.871" fill="#00cc66" data-fill-palette-color="accent"></path></g></svg></g></svg></g></svg></g><defs></defs></svg><rect width="395.52" height="41.1284268337848" fill="none" stroke="none" visibility="hidden"></rect></g></svg></g></svg>