<svg xmlns="http://www.w3.org/2000/svg" version="1.1" xmlns:xlink="http://www.w3.org/1999/xlink" xmlns:svgjs="http://svgjs.dev/svgjs" width="2000" height="272" viewBox="0 0 2000 272"><g transform="matrix(1,0,0,1,-1.2121212121212466,-0.9861688626856164)"><svg viewBox="0 0 396 54" data-background-color="#ffffff" preserveAspectRatio="xMidYMid meet" height="272" width="2000" xmlns="http://www.w3.org/2000/svg" xmlns:xlink="http://www.w3.org/1999/xlink"><g id="tight-bounds" transform="matrix(1,0,0,1,0.2400000000000091,0.19578352420964507)"><svg viewBox="0 0 395.52 53.60843295158069" height="53.60843295158069" width="395.52"><g><svg viewBox="0 0 441.90116696186163 59.894895530694335" height="53.60843295158069" width="395.52"><g transform="matrix(1,0,0,1,46.38116696186165,23.09771382634652)"><svg viewBox="0 0 395.52 13.699467878001297" height="13.699467878001297" width="395.52"><g id="textblocktransform"><svg viewBox="0 0 395.52 13.699467878001297" height="13.699467878001297" width="395.52" id="textblock"><g><svg viewBox="0 0 395.52 13.699467878001297" height="13.699467878001297" width="395.52"><g transform="matrix(1,0,0,1,0,0)"><svg width="395.52" viewBox="-1.2000000000000002 -39.35 1233.7 43.7" height="13.699467878001297" data-palette-color="#000000"><path d="M17.35-9.15L17.35-35 21.35-35 21.35-9.15Q21.35-6.4 20.15-4.25 18.95-2.1 16.82-0.88 14.7 0.35 11.85 0.35L11.85 0.35Q8.25 0.35 5.95-1.48 3.65-3.3 2.8-6.5L2.8-6.5 6.25-7.75Q6.6-6.45 7.28-5.4 7.95-4.35 9.08-3.75 10.2-3.15 11.85-3.15L11.85-3.15Q13.8-3.15 15-4.05 16.2-4.95 16.78-6.33 17.35-7.7 17.35-9.15L17.35-9.15ZM45 0.35L45 0.35Q41.3 0.35 38.12-0.95 34.95-2.25 32.57-4.63 30.2-7 28.87-10.28 27.55-13.55 27.55-17.5L27.55-17.5Q27.55-21.45 28.87-24.73 30.2-28 32.57-30.38 34.95-32.75 38.12-34.05 41.3-35.35 45-35.35L45-35.35Q48.65-35.35 51.82-34.05 55-32.75 57.35-30.38 59.7-28 61.02-24.73 62.35-21.45 62.35-17.5L62.35-17.5Q62.35-13.55 61.02-10.28 59.7-7 57.35-4.63 55-2.25 51.82-0.95 48.65 0.35 45 0.35ZM45-3.15L45-3.15Q48.75-3.15 51.75-4.9 54.75-6.65 56.5-9.88 58.25-13.1 58.25-17.5L58.25-17.5Q58.25-21.95 56.5-25.18 54.75-28.4 51.75-30.13 48.75-31.85 45-31.85L45-31.85Q41.2-31.85 38.17-30.13 35.15-28.4 33.4-25.18 31.65-21.95 31.65-17.5L31.65-17.5Q31.65-13.1 33.4-9.88 35.15-6.65 38.17-4.9 41.2-3.15 45-3.15ZM91.65-35L91.65-31.5 72.7-31.5 72.7-19.55 86.95-19.55 86.95-16.05 72.7-16.05 72.7-3.5 91.65-3.5 91.65 0 68.7 0 68.7-35 91.65-35ZM117.14-27.1L117.14 0 113.14 0 113.14-35 117.54-35 130.54-5.5 143.49-35 147.84-35 147.84 0 143.84 0 143.84-27.1 131.94 0 129.09 0 117.14-27.1ZM179.29-35L179.29-31.5 160.34-31.5 160.34-19.55 174.59-19.55 174.59-16.05 160.34-16.05 160.34-3.5 179.29-3.5 179.29 0 156.34 0 156.34-35 179.29-35ZM209.54-35L213.54-35 213.54 0 209.49 0 190.79-28.6 190.79 0 186.79 0 186.79-35 190.84-35 209.54-6.45 209.54-35ZM222.03-35L233.58-35Q239.38-35 243.51-32.88 247.63-30.75 249.86-26.8 252.08-22.85 252.08-17.4L252.08-17.4Q252.08-12 249.86-8.1 247.63-4.2 243.51-2.1 239.38 0 233.58 0L233.58 0 222.03 0 222.03-35ZM226.03-3.5L233.58-3.5Q240.73-3.5 244.38-7.15 248.03-10.8 248.03-17.4L248.03-17.4Q248.03-24.05 244.38-27.78 240.73-31.5 233.58-31.5L233.58-31.5 226.03-31.5 226.03-3.5ZM281.43-35L281.43-31.5 262.48-31.5 262.48-19.55 276.73-19.55 276.73-16.05 262.48-16.05 262.48-3.5 281.43-3.5 281.43 0 258.48 0 258.48-35 281.43-35ZM311.48-35L311.48-31.85 292.18-3.5 311.68-3.5 311.68 0 287.53 0 287.53-3.15 306.78-31.5 287.73-31.5 287.73-35 311.48-35ZM317.68-12.2L317.68-15.6 337.38-15.6 337.38-12.2 317.68-12.2ZM344.77 0L344.77-35 348.77-35 348.77-19.55 367.52-19.55 367.52-35 371.52-35 371.52 0 367.52 0 367.52-16.05 348.77-16.05 348.77 0 344.77 0ZM379.82-12.95L379.82-35 383.82-35 383.82-12.9Q383.82-9.45 385.07-7.3 386.32-5.15 388.45-4.15 390.57-3.15 393.27-3.15L393.27-3.15Q395.92-3.15 398.02-4.15 400.12-5.15 401.37-7.3 402.62-9.45 402.62-12.9L402.62-12.9 402.62-35 406.62-35 406.62-12.95Q406.62-9.5 405.55-7 404.47-4.5 402.57-2.88 400.67-1.25 398.27-0.45 395.87 0.35 393.22 0.35L393.22 0.35Q389.62 0.35 386.57-1.07 383.52-2.5 381.67-5.45 379.82-8.4 379.82-12.95L379.82-12.95ZM445.77-25.8L442.27-24.5Q440.37-28.25 437.22-30.03 434.07-31.8 430.22-31.8L430.22-31.8Q426.42-31.8 423.37-30.05 420.32-28.3 418.57-25.1 416.82-21.9 416.82-17.5L416.82-17.5Q416.82-13.15 418.57-9.95 420.32-6.75 423.37-5 426.42-3.25 430.22-3.25L430.22-3.25Q433.07-3.25 435.52-4.23 437.97-5.2 439.77-7.03 441.57-8.85 442.52-11.4L442.52-11.4 442.52-15.45 430.52-15.45 430.52-18.7 446.57-18.7 446.57-11.2Q445.42-7.85 443.07-5.25 440.72-2.65 437.42-1.15 434.12 0.35 430.22 0.35L430.22 0.35Q426.52 0.35 423.34-0.95 420.17-2.25 417.79-4.63 415.42-7 414.09-10.28 412.77-13.55 412.77-17.5L412.77-17.5Q412.77-21.45 414.09-24.73 415.42-28 417.79-30.38 420.17-32.75 423.34-34.05 426.52-35.35 430.22-35.35L430.22-35.35Q433.67-35.35 436.69-34.23 439.72-33.1 442.07-30.98 444.42-28.85 445.77-25.8L445.77-25.8ZM453.37 0L453.37-35 457.37-35 457.37-19.55 476.12-19.55 476.12-35 480.12-35 480.12 0 476.12 0 476.12-16.05 457.37-16.05 457.37 0 453.37 0ZM511.56-35L511.56-31.5 492.61-31.5 492.61-19.55 506.86-19.55 506.86-16.05 492.61-16.05 492.61-3.5 511.56-3.5 511.56 0 488.61 0 488.61-35 511.56-35ZM517.36-7.45L521.01-8.9Q521.31-7.55 522.29-6.23 523.26-4.9 524.99-4.03 526.71-3.15 529.41-3.15L529.41-3.15Q533.26-3.15 535.11-4.95 536.96-6.75 536.96-9.2L536.96-9.2Q536.96-11.15 535.91-12.4 534.86-13.65 533.06-14.48 531.26-15.3 529.01-15.95L529.01-15.95Q527.01-16.5 525.04-17.18 523.06-17.85 521.46-18.88 519.86-19.9 518.91-21.55 517.96-23.2 517.96-25.65L517.96-25.65Q517.96-28.6 519.36-30.78 520.76-32.95 523.31-34.15 525.86-35.35 529.26-35.35L529.26-35.35Q532.21-35.35 534.41-34.5 536.61-33.65 538.09-32.13 539.56-30.6 540.26-28.6L540.26-28.6 536.71-27.25Q536.36-28.4 535.36-29.48 534.36-30.55 532.76-31.25 531.16-31.95 529.11-31.95L529.11-31.95Q527.11-31.95 525.49-31.25 523.86-30.55 522.91-29.25 521.96-27.95 521.96-26.1L521.96-26.1Q521.96-24.1 523.09-22.93 524.21-21.75 526.09-21.03 527.96-20.3 530.21-19.65L530.21-19.65Q532.26-19 534.19-18.25 536.11-17.5 537.64-16.4 539.16-15.3 540.06-13.65 540.96-12 540.96-9.6L540.96-9.6Q540.96-6.95 539.71-4.67 538.46-2.4 535.94-1.03 533.41 0.35 529.46 0.35L529.46 0.35Q526.16 0.35 523.66-0.68 521.16-1.7 519.56-3.45 517.96-5.2 517.36-7.45L517.36-7.45ZM549.61 0.25L549.61 0.25Q548.46 0.25 547.68-0.55 546.91-1.35 546.91-2.5L546.91-2.5Q546.91-3.65 547.68-4.45 548.46-5.25 549.61-5.25L549.61-5.25Q550.71-5.25 551.51-4.45 552.31-3.65 552.31-2.5L552.31-2.5Q552.31-1.35 551.51-0.55 550.71 0.25 549.61 0.25ZM549.61-21.35L549.61-21.35Q548.46-21.35 547.68-22.15 546.91-22.95 546.91-24.1L546.91-24.1Q546.91-25.25 547.68-26.05 548.46-26.85 549.61-26.85L549.61-26.85Q550.71-26.85 551.51-26.05 552.31-25.25 552.31-24.1L552.31-24.1Q552.31-22.95 551.51-22.15 550.71-21.35 549.61-21.35ZM571.85-17.5L571.85-17.5Q571.85-21.45 573.15-24.73 574.45-28 576.83-30.38 579.2-32.75 582.33-34.05 585.45-35.35 589.15-35.35L589.15-35.35Q594.55-35.35 598.63-32.85 602.7-30.35 604.8-25.75L604.8-25.75 601.55-24.55Q600.4-27 598.5-28.58 596.6-30.15 594.2-30.95 591.8-31.75 589.15-31.75L589.15-31.75Q585.4-31.75 582.4-30.05 579.4-28.35 577.68-25.15 575.95-21.95 575.95-17.5L575.95-17.5Q575.95-13.1 577.68-9.9 579.4-6.7 582.4-4.98 585.4-3.25 589.15-3.25L589.15-3.25Q591.85-3.25 594.3-4.1 596.75-4.95 598.73-6.75 600.7-8.55 601.9-11.25L601.9-11.25 605.15-10.05Q603-4.9 598.85-2.27 594.7 0.35 589.15 0.35L589.15 0.35Q585.45 0.35 582.33-0.95 579.2-2.25 576.83-4.65 574.45-7.05 573.15-10.33 571.85-13.6 571.85-17.5ZM622.65-17.25L633-35 637.45-35 624.65-13.45 624.65 0 620.65 0 620.65-13.4 607.85-35 612.3-35 622.65-17.25ZM664.3-25.5L664.3-25.5Q664.3-28.25 662.47-29.88 660.65-31.5 657.05-31.5L657.05-31.5 647.15-31.5 647.15-19.55 657.2-19.55Q660.6-19.55 662.45-21.15 664.3-22.75 664.3-25.5ZM657.8 0L643.15 0 643.15-35 657.4-35Q661.1-35 663.5-33.75 665.9-32.5 667.07-30.48 668.25-28.45 668.25-26L668.25-26Q668.25-23.6 667.37-21.98 666.5-20.35 665.02-19.4 663.55-18.45 661.8-18.1L661.8-18.1 661.8-17.75Q663.9-17.45 665.55-16.43 667.2-15.4 668.15-13.65 669.1-11.9 669.1-9.4L669.1-9.4Q669.1-6.8 667.8-4.65 666.5-2.5 663.97-1.25 661.45 0 657.8 0L657.8 0ZM647.15-16.05L647.15-3.5 657.5-3.5Q661.1-3.5 663.12-5.13 665.15-6.75 665.15-9.8L665.15-9.8Q665.15-12.85 663.02-14.45 660.9-16.05 657.35-16.05L657.35-16.05 647.15-16.05ZM699.09-35L699.09-31.5 680.14-31.5 680.14-19.55 694.39-19.55 694.39-16.05 680.14-16.05 680.14-3.5 699.09-3.5 699.09 0 676.14 0 676.14-35 699.09-35ZM726.79-24.65L726.79-24.65Q726.79-27.8 724.94-29.65 723.09-31.5 718.89-31.5L718.89-31.5 710.59-31.5 710.59-17.8 718.94-17.8Q721.69-17.8 723.42-18.65 725.14-19.5 725.97-21.05 726.79-22.6 726.79-24.65ZM706.59-35L718.89-35Q722.99-35 725.62-33.6 728.24-32.2 729.54-29.88 730.84-27.55 730.84-24.65L730.84-24.65Q730.84-22.6 730.17-20.75 729.49-18.9 728.04-17.45 726.59-16 724.34-15.15 722.09-14.3 718.94-14.3L718.94-14.3 710.59-14.3 710.59 0 706.59 0 706.59-35ZM717.49-15.8L721.79-15.8 731.49 0 726.94 0 717.49-15.8ZM736.14-7.45L739.79-8.9Q740.09-7.55 741.06-6.23 742.04-4.9 743.76-4.03 745.49-3.15 748.19-3.15L748.19-3.15Q752.04-3.15 753.89-4.95 755.74-6.75 755.74-9.2L755.74-9.2Q755.74-11.15 754.69-12.4 753.64-13.65 751.84-14.48 750.04-15.3 747.79-15.95L747.79-15.95Q745.79-16.5 743.81-17.18 741.84-17.85 740.24-18.88 738.64-19.9 737.69-21.55 736.74-23.2 736.74-25.65L736.74-25.65Q736.74-28.6 738.14-30.78 739.54-32.95 742.09-34.15 744.64-35.35 748.04-35.35L748.04-35.35Q750.99-35.35 753.19-34.5 755.39-33.65 756.86-32.13 758.34-30.6 759.04-28.6L759.04-28.6 755.49-27.25Q755.14-28.4 754.14-29.48 753.14-30.55 751.54-31.25 749.94-31.95 747.89-31.95L747.89-31.95Q745.89-31.95 744.26-31.25 742.64-30.55 741.69-29.25 740.74-27.95 740.74-26.1L740.74-26.1Q740.74-24.1 741.86-22.93 742.99-21.75 744.86-21.03 746.74-20.3 748.99-19.65L748.99-19.65Q751.04-19 752.96-18.25 754.89-17.5 756.41-16.4 757.94-15.3 758.84-13.65 759.74-12 759.74-9.6L759.74-9.6Q759.74-6.95 758.49-4.67 757.24-2.4 754.71-1.03 752.19 0.35 748.24 0.35L748.24 0.35Q744.94 0.35 742.44-0.68 739.94-1.7 738.34-3.45 736.74-5.2 736.14-7.45L736.14-7.45ZM789.49-35L789.49-31.5 770.54-31.5 770.54-19.55 784.79-19.55 784.79-16.05 770.54-16.05 770.54-3.5 789.49-3.5 789.49 0 766.54 0 766.54-35 789.49-35ZM794.88-17.5L794.88-17.5Q794.88-21.45 796.18-24.73 797.48-28 799.86-30.38 802.23-32.75 805.36-34.05 808.48-35.35 812.18-35.35L812.18-35.35Q817.58-35.35 821.66-32.85 825.73-30.35 827.83-25.75L827.83-25.75 824.58-24.55Q823.43-27 821.53-28.58 819.63-30.15 817.23-30.95 814.83-31.75 812.18-31.75L812.18-31.75Q808.43-31.75 805.43-30.05 802.43-28.35 800.71-25.15 798.98-21.95 798.98-17.5L798.98-17.5Q798.98-13.1 800.71-9.9 802.43-6.7 805.43-4.98 808.43-3.25 812.18-3.25L812.18-3.25Q814.88-3.25 817.33-4.1 819.78-4.95 821.76-6.75 823.73-8.55 824.93-11.25L824.93-11.25 828.18-10.05Q826.03-4.9 821.88-2.27 817.73 0.35 812.18 0.35L812.18 0.35Q808.48 0.35 805.36-0.95 802.23-2.25 799.86-4.65 797.48-7.05 796.18-10.33 794.88-13.6 794.88-17.5ZM835.03-12.95L835.03-35 839.03-35 839.03-12.9Q839.03-9.45 840.28-7.3 841.53-5.15 843.66-4.15 845.78-3.15 848.48-3.15L848.48-3.15Q851.13-3.15 853.23-4.15 855.33-5.15 856.58-7.3 857.83-9.45 857.83-12.9L857.83-12.9 857.83-35 861.83-35 861.83-12.95Q861.83-9.5 860.76-7 859.68-4.5 857.78-2.88 855.88-1.25 853.48-0.45 851.08 0.35 848.43 0.35L848.43 0.35Q844.83 0.35 841.78-1.07 838.73-2.5 836.88-5.45 835.03-8.4 835.03-12.95L835.03-12.95ZM890.28-24.65L890.28-24.65Q890.28-27.8 888.43-29.65 886.58-31.5 882.38-31.5L882.38-31.5 874.08-31.5 874.08-17.8 882.43-17.8Q885.18-17.8 886.9-18.65 888.63-19.5 889.45-21.05 890.28-22.6 890.28-24.65ZM870.08-35L882.38-35Q886.48-35 889.1-33.6 891.73-32.2 893.03-29.88 894.33-27.55 894.33-24.65L894.33-24.65Q894.33-22.6 893.65-20.75 892.98-18.9 891.53-17.45 890.08-16 887.83-15.15 885.58-14.3 882.43-14.3L882.43-14.3 874.08-14.3 874.08 0 870.08 0 870.08-35ZM880.98-15.8L885.28-15.8 894.98 0 890.43 0 880.98-15.8ZM901.33 0L901.33-35 905.33-35 905.33 0 901.33 0ZM911.72-31.5L911.72-35 937.97-35 937.97-31.5 926.87-31.5 926.87 0 922.87 0 922.87-31.5 911.72-31.5ZM956.27-17.25L966.62-35 971.07-35 958.27-13.45 958.27 0 954.27 0 954.27-13.4 941.47-35 945.92-35 956.27-17.25ZM1013.72-35L1013.72-31.5 994.77-31.5 994.77-19.55 1009.02-19.55 1009.02-16.05 994.77-16.05 994.77-3.5 1013.72-3.5 1013.72 0 990.77 0 990.77-35 1013.72-35ZM1043.96-35L1047.96-35 1047.96 0 1043.91 0 1025.21-28.6 1025.21 0 1021.21 0 1021.21-35 1025.26-35 1043.96-6.45 1043.96-35ZM1087.36-25.8L1083.86-24.5Q1081.96-28.25 1078.81-30.03 1075.66-31.8 1071.81-31.8L1071.81-31.8Q1068.01-31.8 1064.96-30.05 1061.91-28.3 1060.16-25.1 1058.41-21.9 1058.41-17.5L1058.41-17.5Q1058.41-13.15 1060.16-9.95 1061.91-6.75 1064.96-5 1068.01-3.25 1071.81-3.25L1071.81-3.25Q1074.66-3.25 1077.11-4.23 1079.56-5.2 1081.36-7.03 1083.16-8.85 1084.11-11.4L1084.11-11.4 1084.11-15.45 1072.11-15.45 1072.11-18.7 1088.16-18.7 1088.16-11.2Q1087.01-7.85 1084.66-5.25 1082.31-2.65 1079.01-1.15 1075.71 0.35 1071.81 0.35L1071.81 0.35Q1068.11 0.35 1064.94-0.95 1061.76-2.25 1059.39-4.63 1057.01-7 1055.69-10.28 1054.36-13.55 1054.36-17.5L1054.36-17.5Q1054.36-21.45 1055.69-24.73 1057.01-28 1059.39-30.38 1061.76-32.75 1064.94-34.05 1068.11-35.35 1071.81-35.35L1071.81-35.35Q1075.26-35.35 1078.29-34.23 1081.31-33.1 1083.66-30.98 1086.01-28.85 1087.36-25.8L1087.36-25.8ZM1094.96 0L1094.96-35 1098.96-35 1098.96 0 1094.96 0ZM1130.21-35L1134.21-35 1134.21 0 1130.16 0 1111.46-28.6 1111.46 0 1107.46 0 1107.46-35 1111.51-35 1130.21-6.45 1130.21-35ZM1165.65-35L1165.65-31.5 1146.7-31.5 1146.7-19.55 1160.95-19.55 1160.95-16.05 1146.7-16.05 1146.7-3.5 1165.65-3.5 1165.65 0 1142.7 0 1142.7-35 1165.65-35ZM1196.1-35L1196.1-31.5 1177.15-31.5 1177.15-19.55 1191.4-19.55 1191.4-16.05 1177.15-16.05 1177.15-3.5 1196.1-3.5 1196.1 0 1173.15 0 1173.15-35 1196.1-35ZM1223.8-24.65L1223.8-24.65Q1223.8-27.8 1221.95-29.65 1220.1-31.5 1215.9-31.5L1215.9-31.5 1207.6-31.5 1207.6-17.8 1215.95-17.8Q1218.7-17.8 1220.42-18.65 1222.15-19.5 1222.97-21.05 1223.8-22.6 1223.8-24.65ZM1203.6-35L1215.9-35Q1220-35 1222.62-33.6 1225.25-32.2 1226.55-29.88 1227.85-27.55 1227.85-24.65L1227.85-24.65Q1227.85-22.6 1227.17-20.75 1226.5-18.9 1225.05-17.45 1223.6-16 1221.35-15.15 1219.1-14.3 1215.95-14.3L1215.95-14.3 1207.6-14.3 1207.6 0 1203.6 0 1203.6-35ZM1214.5-15.8L1218.8-15.8 1228.5 0 1223.95 0 1214.5-15.8Z" opacity="1" transform="matrix(1,0,0,1,0,0)" fill="#000000" class="wordmark-text-0" data-fill-palette-color="primary" id="text-0"></path></svg></g></svg></g></svg></g></svg></g><g><svg viewBox="0 0 43.677234264859706 59.894895530694335" height="59.894895530694335" width="43.677234264859706"><g><svg xmlns="http://www.w3.org/2000/svg" xmlns:xlink="http://www.w3.org/1999/xlink" version="1.1" x="0" y="0" viewBox="12.929 1.021 64.14099999999999 87.957" enable-background="new 0 0 90 90" xml:space="preserve" height="59.894895530694335" width="43.677234264859706" class="icon-icon-0" data-fill-palette-color="accent" id="icon-0"><polygon points="42.225,52.752 46.708,49.581 46.708,38.363 42.225,41.534 " fill="#00cc66" data-fill-palette-color="accent"></polygon><polygon points="51.191,20.688 42.225,27.029 42.225,38.248 51.191,31.907 " fill="#00cc66" data-fill-palette-color="accent"></polygon><polygon points="56.829,31.207 47.861,37.548 47.861,48.768 56.829,42.425 " fill="#00cc66" data-fill-palette-color="accent"></polygon><path d="M51.191 49.698L42.224 56.038V59.048C42.804 59.902 43.4 60.836 44.003 61.868A34 34 0 0 1 45.574 64.889L51.191 60.916z" fill="#00cc66" data-fill-palette-color="accent"></path><polygon points="57.98,41.61 66.95,35.27 66.95,24.052 57.98,30.393 " fill="#00cc66" data-fill-palette-color="accent"></polygon><polygon points="76.409,1.021 63.177,1.021 28.22,24.912 41.452,24.912 " fill="#00cc66" data-fill-palette-color="accent"></polygon><path d="M46.708 67.738V67.372L46.605 67.443C46.641 67.542 46.676 67.641 46.708 67.738" fill="#00cc66" data-fill-palette-color="accent"></path><polygon points="62.466,52.943 71.436,46.604 71.436,35.386 62.466,41.727 " fill="#00cc66" data-fill-palette-color="accent"></polygon><polygon points="61.313,13.533 52.346,19.874 52.346,31.092 61.313,24.751 " fill="#00cc66" data-fill-palette-color="accent"></polygon><polygon points="72.587,45.788 77.07,42.618 77.07,31.4 72.587,34.57 " fill="#00cc66" data-fill-palette-color="accent"></polygon><polygon points="68.104,34.455 77.07,28.114 77.07,16.896 68.104,23.237 " fill="#00cc66" data-fill-palette-color="accent"></polygon><polygon points="72.587,5.562 72.587,16.78 77.07,13.61 77.07,2.392 " fill="#00cc66" data-fill-palette-color="accent"></polygon><polygon points="68.104,63.464 77.07,57.123 77.07,45.905 68.104,52.245 " fill="#00cc66" data-fill-palette-color="accent"></polygon><path d="M47.861 73.189A19 19 0 0 1 47.861 76.37V77.775L56.829 71.433V60.216L47.861 66.557z" fill="#00cc66" data-fill-palette-color="accent"></path><path d="M32.147 42.79A2.923 2.923 0 0 1 35.93 46.465C34.791 49.845 35.287 50.427 38.038 53.658 38.685 54.418 39.434 55.297 40.244 56.335V27.478H28.22V45.38C29.576 44.054 31.029 43.202 32.147 42.79" fill="#00cc66" data-fill-palette-color="accent"></path><polygon points="71.436,6.377 62.466,12.718 62.466,23.936 71.436,17.595 " fill="#00cc66" data-fill-palette-color="accent"></polygon><polygon points="61.313,42.542 52.346,48.883 52.346,60.102 61.313,53.76 " fill="#00cc66" data-fill-palette-color="accent"></polygon><polygon points="57.98,70.619 66.95,64.277 66.95,53.061 57.98,59.4 " fill="#00cc66" data-fill-palette-color="accent"></polygon><path d="M41.48 63.344C35.498 53.112 30.58 53.192 33.16 45.532 33.16 45.532 26.388 48.032 27.194 56.658 27.194 56.658 27.466 58.724 26.04 60.836 26.04 60.836 26.63 56.255 22.356 52.065 22.356 52.065 24.13 54.645 20.664 59.401 17.319 63.99 13.196 65.604 12.96 72.612L12.929 72.606C12.929 72.866 12.937 73.124 12.95 73.379L12.949 73.4 12.951 73.424 12.954 73.482C12.958 73.597 12.966 73.71 12.979 73.822 13.603 82.297 20.671 88.978 29.305 88.978 35.771 88.978 41.36 85.23 44.021 79.79L44.024 79.787S44.07 79.703 44.14 79.546C44.146 79.532 44.154 79.52 44.16 79.505H44.159C44.731 78.186 46.721 72.309 41.48 63.344M24.564 81.752C19.243 77.964 21.361 72.195 25.857 69.8 32.514 66.252 31.468 62.544 31.468 62.544S35.366 67.977 36.091 74.775C36.817 81.576 29.886 85.54 24.564 81.752" fill="#00cc66" data-fill-palette-color="accent"></path></svg></g></svg></g></svg></g><defs></defs></svg><rect width="395.52" height="53.60843295158069" fill="none" stroke="none" visibility="hidden"></rect></g></svg></g></svg>