<svg xmlns="http://www.w3.org/2000/svg" version="1.1" xmlns:xlink="http://www.w3.org/1999/xlink" xmlns:svgjs="http://svgjs.dev/svgjs" width="2000" height="446" viewBox="0 0 2000 446"><g transform="matrix(1,0,0,1,-2.446808510638334,-0.9253066428571515)"><svg viewBox="0 0 376 84" data-background-color="#121212" preserveAspectRatio="xMidYMid meet" height="446" width="2000" xmlns="http://www.w3.org/2000/svg" xmlns:xlink="http://www.w3.org/1999/xlink"><g id="tight-bounds" transform="matrix(1,0,0,1,0.46023999999999887,0.17427299999999946)"><svg viewBox="0 0 375.07953 83.651454" height="83.651454" width="375.07953"><g><svg></svg></g><g><svg viewBox="0 0 375.07953 83.651454" height="83.651454" width="375.07953"><g transform="matrix(1,0,0,1,-10.22024,-83.44492)"><path d="M10.22 163.755v-80.31h375.08v80.31h-26.979l0-0.784h26.194v-78.742h-373.51v78.742h47.633l0 0.784z" fill="#ffffff" fill-rule="nonzero" stroke="none" stroke-width="1" stroke-linecap="butt" stroke-linejoin="miter" stroke-miterlimit="10" stroke-dasharray="" stroke-dashoffset="0" font-family="none" font-weight="none" font-size="none" text-anchor="none" style="mix-blend-mode: normal" data-fill-palette-color="tertiary"></path><g><path transform="translate(60.50925,165.41449) scale(0.15573,0.15573)" d="M7.95-34.45h18.45l-1.05 3.8h-13.25l-1.6 11.25h11.5l-0.5 3.8h-11.5l-1.65 11.8h14.15l-0.55 3.8h-18.85zM63.52-26.95c1.933 0 3.46 0.59 4.58 1.77 1.113 1.187 1.67 2.813 1.67 4.88v0c0 0.533-0.05 1.133-0.15 1.8v0l-2.6 18.5h-4.55l2.6-18.4c0.067-0.733 0.1-1.217 0.1-1.45v0c0-1.167-0.25-2-0.75-2.5-0.5-0.5-1.217-0.75-2.15-0.75v0c-1.533 0-3.007 0.683-4.42 2.05-1.42 1.367-2.73 3.117-3.93 5.25v0l-2.2 15.8h-4.55l3.7-26.35h3.9l-0.4 5.15c1.3-1.833 2.7-3.25 4.2-4.25 1.5-1 3.15-1.5 4.95-1.5zM108.05-26.95c1.667 0 3.24 0.183 4.72 0.55 1.487 0.367 3.013 0.933 4.58 1.7v0l-3.65 24.1c-0.6 4.033-1.933 6.943-4 8.73-2.067 1.78-4.75 2.67-8.05 2.67v0c-1.567 0-3.16-0.233-4.78-0.7-1.613-0.467-3.053-1.083-4.32-1.85v0l1.75-3.5c0.967 0.567 2.073 1.06 3.32 1.48 1.253 0.413 2.513 0.62 3.78 0.62v0c2.1 0 3.833-0.517 5.2-1.55 1.367-1.033 2.25-3.017 2.65-5.95v0l0.45-3.35c-1.033 1.233-2.193 2.21-3.48 2.93-1.28 0.713-2.62 1.07-4.02 1.07v0c-2.633 0-4.7-0.893-6.2-2.68-1.5-1.78-2.25-4.187-2.25-7.22v0c0-2.833 0.5-5.55 1.5-8.15 1-2.6 2.567-4.733 4.7-6.4 2.133-1.667 4.833-2.5 8.1-2.5zM108.05-23.3c-2.1 0-3.86 0.65-5.28 1.95-1.413 1.3-2.453 2.977-3.12 5.03-0.667 2.047-1 4.203-1 6.47v0c0 2.1 0.4 3.657 1.2 4.67 0.8 1.02 1.9 1.53 3.3 1.53v0c1.333 0 2.573-0.433 3.72-1.3 1.153-0.867 2.313-2.083 3.48-3.65v0l2.15-13.85c-0.767-0.3-1.483-0.517-2.15-0.65-0.667-0.133-1.433-0.2-2.3-0.2zM144.62-26.35h4.55l-3.7 26.35h-4.55zM147.97-32.75c-0.9 0-1.617-0.277-2.15-0.83-0.533-0.547-0.8-1.22-0.8-2.02v0c0-0.967 0.333-1.773 1-2.42 0.667-0.653 1.483-0.98 2.45-0.98v0c0.9 0 1.617 0.267 2.15 0.8 0.533 0.533 0.8 1.217 0.8 2.05v0c0 0.967-0.333 1.773-1 2.42-0.667 0.653-1.483 0.98-2.45 0.98zM189.1-26.95c1.933 0 3.457 0.59 4.57 1.77 1.12 1.187 1.68 2.813 1.68 4.88v0c0 0.533-0.05 1.133-0.15 1.8v0l-2.6 18.5h-4.55l2.6-18.4c0.067-0.733 0.1-1.217 0.1-1.45v0c0-1.167-0.25-2-0.75-2.5-0.5-0.5-1.217-0.75-2.15-0.75v0c-1.533 0-3.01 0.683-4.43 2.05-1.413 1.367-2.72 3.117-3.92 5.25v0l-2.2 15.8h-4.55l3.7-26.35h3.9l-0.4 5.15c1.3-1.833 2.7-3.25 4.2-4.25 1.5-1 3.15-1.5 4.95-1.5zM241.27-20.25c0 3.367-1.5 5.8-4.5 7.3-3 1.5-7.2 2.55-12.6 3.15v0c0.1 4.367 2 6.55 5.7 6.55v0c1.233 0 2.417-0.2 3.55-0.6 1.133-0.4 2.3-1.017 3.5-1.85v0l1.95 3.1c-2.967 2.133-6.117 3.2-9.45 3.2v0c-3.2 0-5.677-0.943-7.43-2.83-1.747-1.88-2.62-4.503-2.62-7.87v0c0-2.633 0.457-5.243 1.37-7.83 0.92-2.58 2.397-4.73 4.43-6.45 2.033-1.713 4.617-2.57 7.75-2.57v0c2.667 0 4.723 0.65 6.17 1.95 1.453 1.3 2.18 2.883 2.18 4.75zM224.42-13.3c4.133-0.467 7.173-1.183 9.12-2.15 1.953-0.967 2.93-2.517 2.93-4.65v0c0-0.8-0.283-1.533-0.85-2.2-0.567-0.667-1.483-1-2.75-1v0c-2.533 0-4.483 0.967-5.85 2.9-1.367 1.933-2.233 4.3-2.6 7.1zM284.99-20.25c0 3.367-1.5 5.8-4.5 7.3-3 1.5-7.2 2.55-12.6 3.15v0c0.1 4.367 2 6.55 5.7 6.55v0c1.233 0 2.417-0.2 3.55-0.6 1.133-0.4 2.3-1.017 3.5-1.85v0l1.95 3.1c-2.967 2.133-6.117 3.2-9.45 3.2v0c-3.2 0-5.673-0.943-7.42-2.83-1.753-1.88-2.63-4.503-2.63-7.87v0c0-2.633 0.46-5.243 1.38-7.83 0.913-2.58 2.387-4.73 4.42-6.45 2.033-1.713 4.617-2.57 7.75-2.57v0c2.667 0 4.727 0.65 6.18 1.95 1.447 1.3 2.17 2.883 2.17 4.75zM268.14-13.3c4.133-0.467 7.177-1.183 9.13-2.15 1.947-0.967 2.92-2.517 2.92-4.65v0c0-0.8-0.283-1.533-0.85-2.2-0.567-0.667-1.483-1-2.75-1v0c-2.533 0-4.483 0.967-5.85 2.9-1.367 1.933-2.233 4.3-2.6 7.1zM322.02-26.95c0.833 0 1.717 0.117 2.65 0.35v0l-1.35 4.45c-0.633-0.167-1.35-0.25-2.15-0.25v0c-1.633 0-3.06 0.707-4.28 2.12-1.213 1.42-2.303 3.53-3.27 6.33v0l-2 13.95h-4.55l3.7-26.35h3.9l-0.3 5.4c0.967-2 2.107-3.5 3.42-4.5 1.32-1 2.73-1.5 4.23-1.5zM347.69-26.35h4.55l-3.7 26.35h-4.55zM351.04-32.75c-0.9 0-1.617-0.277-2.15-0.83-0.533-0.547-0.8-1.22-0.8-2.02v0c0-0.967 0.333-1.773 1-2.42 0.667-0.653 1.483-0.98 2.45-0.98v0c0.9 0 1.617 0.267 2.15 0.8 0.533 0.533 0.8 1.217 0.8 2.05v0c0 0.967-0.333 1.773-1 2.42-0.667 0.653-1.483 0.98-2.45 0.98zM392.16-26.95c1.933 0 3.46 0.59 4.58 1.77 1.113 1.187 1.67 2.813 1.67 4.88v0c0 0.533-0.05 1.133-0.15 1.8v0l-2.6 18.5h-4.55l2.6-18.4c0.067-0.733 0.1-1.217 0.1-1.45v0c0-1.167-0.25-2-0.75-2.5-0.5-0.5-1.217-0.75-2.15-0.75v0c-1.533 0-3.007 0.683-4.42 2.05-1.42 1.367-2.73 3.117-3.93 5.25v0l-2.2 15.8h-4.55l3.7-26.35h3.9l-0.4 5.15c1.3-1.833 2.7-3.25 4.2-4.25 1.5-1 3.15-1.5 4.95-1.5zM436.69-26.95c1.667 0 3.24 0.183 4.72 0.55 1.487 0.367 3.013 0.933 4.58 1.7v0l-3.65 24.1c-0.6 4.033-1.933 6.943-4 8.73-2.067 1.78-4.75 2.67-8.05 2.67v0c-1.567 0-3.16-0.233-4.78-0.7-1.613-0.467-3.053-1.083-4.32-1.85v0l1.75-3.5c0.967 0.567 2.073 1.06 3.32 1.48 1.253 0.413 2.513 0.62 3.78 0.62v0c2.1 0 3.833-0.517 5.2-1.55 1.367-1.033 2.25-3.017 2.65-5.95v0l0.45-3.35c-1.033 1.233-2.193 2.21-3.48 2.93-1.28 0.713-2.62 1.07-4.02 1.07v0c-2.633 0-4.7-0.893-6.2-2.68-1.5-1.78-2.25-4.187-2.25-7.22v0c0-2.833 0.5-5.55 1.5-8.15 1-2.6 2.567-4.733 4.7-6.4 2.133-1.667 4.833-2.5 8.1-2.5zM436.69-23.3c-2.1 0-3.86 0.65-5.28 1.95-1.413 1.3-2.453 2.977-3.12 5.03-0.667 2.047-1 4.203-1 6.47v0c0 2.1 0.4 3.657 1.2 4.67 0.8 1.02 1.9 1.53 3.3 1.53v0c1.333 0 2.573-0.433 3.72-1.3 1.153-0.867 2.313-2.083 3.48-3.65v0l2.15-13.85c-0.767-0.3-1.483-0.517-2.15-0.65-0.667-0.133-1.433-0.2-2.3-0.2zM508.39-22.8l-2.2 15.85c-0.067 0.667-0.1 1.1-0.1 1.3v0c0 0.833 0.19 1.44 0.57 1.82 0.387 0.387 0.98 0.58 1.78 0.58v0c0.6 0 1.19-0.093 1.77-0.28 0.587-0.18 1.263-0.453 2.03-0.82v0l1.5 3.2c-1.833 1.167-3.783 1.75-5.85 1.75v0c-2.033 0-3.6-0.527-4.7-1.58-1.1-1.047-1.65-2.537-1.65-4.47v0c0-0.7 0.033-1.233 0.1-1.6v0l2.2-15.75h-4.55l0.5-3.55h4.75l1.65-6.1 3.6-0.4-0.9 6.5h6.2l-1 3.55zM552.21-26.95c2 0 3.567 0.583 4.7 1.75 1.133 1.167 1.7 2.783 1.7 4.85v0c0 0.733-0.033 1.3-0.1 1.7v0l-2.65 18.65h-4.55l2.6-18.4c0.067-0.733 0.1-1.233 0.1-1.5v0c0-1.167-0.243-1.993-0.73-2.48-0.48-0.48-1.153-0.72-2.02-0.72v0c-1.6 0-3.127 0.683-4.58 2.05-1.447 1.367-2.77 3.117-3.97 5.25v0l-2.15 15.8h-4.55l5.2-36.9 4.6-0.5-2.3 16c2.467-3.7 5.367-5.55 8.7-5.55zM604.58-20.25c0 3.367-1.5 5.8-4.5 7.3-3 1.5-7.2 2.55-12.6 3.15v0c0.1 4.367 2 6.55 5.7 6.55v0c1.233 0 2.417-0.2 3.55-0.6 1.133-0.4 2.3-1.017 3.5-1.85v0l1.95 3.1c-2.967 2.133-6.117 3.2-9.45 3.2v0c-3.2 0-5.673-0.943-7.42-2.83-1.753-1.88-2.63-4.503-2.63-7.87v0c0-2.633 0.46-5.243 1.38-7.83 0.913-2.58 2.387-4.73 4.42-6.45 2.033-1.713 4.617-2.57 7.75-2.57v0c2.667 0 4.727 0.65 6.18 1.95 1.447 1.3 2.17 2.883 2.17 4.75zM587.73-13.3c4.133-0.467 7.177-1.183 9.13-2.15 1.947-0.967 2.92-2.517 2.92-4.65v0c0-0.8-0.283-1.533-0.85-2.2-0.567-0.667-1.483-1-2.75-1v0c-2.533 0-4.483 0.967-5.85 2.9-1.367 1.933-2.233 4.3-2.6 7.1zM671.43-34.45c3.833 0 6.793 0.757 8.88 2.27 2.08 1.52 3.12 3.797 3.12 6.83v0c0 2.3-0.49 4.4-1.47 6.3-0.987 1.9-2.587 3.44-4.8 4.62-2.22 1.187-5.063 1.78-8.53 1.78v0h-4.45l-1.75 12.65h-4.7l4.85-34.45zM668.73-16.4c3.567 0 6.077-0.843 7.53-2.53 1.447-1.68 2.17-3.82 2.17-6.42v0c0-1.933-0.623-3.317-1.87-4.15-1.253-0.833-3.08-1.25-5.48-1.25v0h-4.35l-2 14.35zM713.7-37.5l-4.55 32.35c-0.033 0.167-0.05 0.383-0.05 0.65v0c0 0.467 0.1 0.8 0.3 1 0.2 0.2 0.517 0.3 0.95 0.3v0c0.5 0 1.1-0.117 1.8-0.35v0l0.95 3.3c-1.267 0.567-2.483 0.85-3.65 0.85v0c-1.533 0-2.723-0.417-3.57-1.25-0.853-0.833-1.28-2.067-1.28-3.7v0c0-0.3 0.033-0.817 0.1-1.55v0l4.4-31.05zM750.08-26.95c1.633 0 3.19 0.183 4.67 0.55 1.487 0.367 3.013 0.933 4.58 1.7v0l-2.7 18.7c-0.067 0.533-0.1 0.9-0.1 1.1v0c0 0.6 0.123 1.083 0.37 1.45 0.253 0.367 0.697 0.667 1.33 0.9v0l-1.3 3.15c-1.4-0.167-2.483-0.6-3.25-1.3-0.767-0.7-1.233-1.733-1.4-3.1v0c-1.067 1.367-2.267 2.44-3.6 3.22-1.333 0.787-2.75 1.18-4.25 1.18v0c-2.667 0-4.733-0.917-6.2-2.75-1.467-1.833-2.2-4.283-2.2-7.35v0c0-2.667 0.49-5.333 1.47-8 0.987-2.667 2.53-4.91 4.63-6.73 2.1-1.813 4.75-2.72 7.95-2.72zM750.18-23.3c-2.1 0-3.843 0.707-5.23 2.12-1.38 1.42-2.397 3.187-3.05 5.3-0.647 2.12-0.97 4.263-0.97 6.43v0c0 2.167 0.383 3.773 1.15 4.82 0.767 1.053 1.867 1.58 3.3 1.58v0c1.367 0 2.59-0.417 3.67-1.25 1.087-0.833 2.213-2.033 3.38-3.6v0l2.05-14.55c-0.7-0.3-1.377-0.517-2.03-0.65-0.647-0.133-1.403-0.2-2.27-0.2zM790.7-22.8l-2.2 15.85c-0.067 0.667-0.1 1.1-0.1 1.3v0c0 0.833 0.193 1.44 0.58 1.82 0.38 0.387 0.97 0.58 1.77 0.58v0c0.6 0 1.193-0.093 1.78-0.28 0.58-0.18 1.253-0.453 2.02-0.82v0l1.5 3.2c-1.833 1.167-3.783 1.75-5.85 1.75v0c-2.033 0-3.6-0.527-4.7-1.58-1.1-1.047-1.65-2.537-1.65-4.47v0c0-0.7 0.033-1.233 0.1-1.6v0l2.2-15.75h-4.55l0.5-3.55h4.75l1.65-6.1 3.6-0.4-0.9 6.5h6.2l-1 3.55zM832.08-33.8c-1.433 0-2.517 0.323-3.25 0.97-0.733 0.653-1.183 1.647-1.35 2.98v0l-0.5 3.5h6.35l-1 3.55h-5.85l-3 21.35c-0.333 2.433-0.893 4.377-1.68 5.83-0.78 1.447-1.797 2.62-3.05 3.52-1.247 0.9-2.953 1.817-5.12 2.75v0l-1.3-3.45c1.4-0.633 2.507-1.25 3.32-1.85 0.82-0.6 1.503-1.433 2.05-2.5 0.553-1.067 0.963-2.5 1.23-4.3v0l3-21.35h-4.65l0.5-3.55h4.65l0.55-3.75c0.3-2.267 1.233-4.067 2.8-5.4 1.567-1.333 3.617-2 6.15-2v0c1.2 0 2.267 0.15 3.2 0.45 0.933 0.3 1.933 0.783 3 1.45v0l-1.75 3.05c-1.233-0.833-2.667-1.25-4.3-1.25zM862.5 0.6c-3.233 0-5.727-0.967-7.48-2.9-1.747-1.933-2.62-4.6-2.62-8v0c0-2.467 0.457-4.973 1.37-7.52 0.92-2.553 2.397-4.713 4.43-6.48 2.033-1.767 4.65-2.65 7.85-2.65v0c3.233 0 5.717 0.967 7.45 2.9 1.733 1.933 2.6 4.6 2.6 8v0c0 2.433-0.45 4.923-1.35 7.47-0.9 2.553-2.367 4.72-4.4 6.5-2.033 1.787-4.65 2.68-7.85 2.68zM862.65-3.1c2.1 0 3.8-0.727 5.1-2.18 1.3-1.447 2.217-3.197 2.75-5.25 0.533-2.047 0.8-4.053 0.8-6.02v0c0-4.467-1.8-6.7-5.4-6.7v0c-2.1 0-3.8 0.723-5.1 2.17-1.3 1.453-2.227 3.203-2.78 5.25-0.547 2.053-0.82 4.063-0.82 6.03v0c0 4.467 1.817 6.7 5.45 6.7zM914.37-26.95c0.833 0 1.717 0.117 2.65 0.35v0l-1.35 4.45c-0.633-0.167-1.35-0.25-2.15-0.25v0c-1.633 0-3.057 0.707-4.27 2.12-1.22 1.42-2.313 3.53-3.28 6.33v0l-2 13.95h-4.55l3.7-26.35h3.9l-0.3 5.4c0.967-2 2.11-3.5 3.43-4.5 1.313-1 2.72-1.5 4.22-1.5zM966.55-26.95c1.767 0 3.173 0.59 4.22 1.77 1.053 1.187 1.58 2.78 1.58 4.78v0c0 0.733-0.033 1.283-0.1 1.65v0l-2.65 18.75h-4.55l2.6-18.4c0.067-0.4 0.1-0.917 0.1-1.55v0c0-1.2-0.25-2.027-0.75-2.48-0.5-0.447-1.2-0.67-2.1-0.67v0c-1.267 0-2.517 0.657-3.75 1.97-1.233 1.32-2.467 3.063-3.7 5.23v0l-2.25 15.9h-4.55l2.6-18.4c0.067-0.4 0.1-0.917 0.1-1.55v0c0-1.2-0.25-2.027-0.75-2.48-0.5-0.447-1.2-0.67-2.1-0.67v0c-1.267 0-2.517 0.667-3.75 2-1.233 1.333-2.467 3.1-3.7 5.3v0l-2.15 15.8h-4.55l3.7-26.35h3.9l-0.4 5.05c1.3-1.833 2.64-3.233 4.02-4.2 1.387-0.967 2.913-1.45 4.58-1.45v0c1.467 0 2.733 0.467 3.8 1.4 1.067 0.933 1.717 2.25 1.95 3.95v0c1.333-1.767 2.707-3.1 4.12-4 1.42-0.9 2.93-1.35 4.53-1.35zM1006.92-26.95c3.333 0 6.217 1.083 8.65 3.25v0l-2.25 2.75c-1.967-1.567-4.117-2.35-6.45-2.35v0c-1.6 0-2.873 0.317-3.82 0.95-0.953 0.633-1.43 1.5-1.43 2.6v0c0 1 0.393 1.767 1.18 2.3 0.78 0.533 2.153 1.1 4.12 1.7v0c2.567 0.8 4.45 1.807 5.65 3.02 1.2 1.22 1.8 2.847 1.8 4.88v0c0 1.867-0.517 3.433-1.55 4.7-1.033 1.267-2.373 2.207-4.02 2.82-1.653 0.62-3.447 0.93-5.38 0.93v0c-3.9 0-7.15-1.267-9.75-3.8v0l2.6-2.65c2.167 1.833 4.617 2.75 7.35 2.75v0c2.1 0 3.617-0.44 4.55-1.32 0.933-0.887 1.4-1.88 1.4-2.98v0c0-0.9-0.167-1.617-0.5-2.15-0.333-0.533-0.89-1-1.67-1.4-0.787-0.4-1.913-0.833-3.38-1.3v0c-2.533-0.767-4.34-1.71-5.42-2.83-1.087-1.113-1.63-2.57-1.63-4.37v0c0-1.233 0.367-2.427 1.1-3.58 0.733-1.147 1.85-2.087 3.35-2.82 1.5-0.733 3.333-1.1 5.5-1.1zM1076.37-22.8l-2.2 15.85c-0.067 0.667-0.1 1.1-0.1 1.3v0c0 0.833 0.19 1.44 0.57 1.82 0.387 0.387 0.98 0.58 1.78 0.58v0c0.6 0 1.19-0.093 1.77-0.28 0.587-0.18 1.263-0.453 2.03-0.82v0l1.5 3.2c-1.833 1.167-3.783 1.75-5.85 1.75v0c-2.033 0-3.6-0.527-4.7-1.58-1.1-1.047-1.65-2.537-1.65-4.47v0c0-0.7 0.033-1.233 0.1-1.6v0l2.2-15.75h-4.55l0.5-3.55h4.75l1.65-6.1 3.6-0.4-0.9 6.5h6.2l-1 3.55zM1120.19-26.95c2 0 3.567 0.583 4.7 1.75 1.133 1.167 1.7 2.783 1.7 4.85v0c0 0.733-0.033 1.3-0.1 1.7v0l-2.65 18.65h-4.55l2.6-18.4c0.067-0.733 0.1-1.233 0.1-1.5v0c0-1.167-0.24-1.993-0.72-2.48-0.487-0.48-1.163-0.72-2.03-0.72v0c-1.6 0-3.123 0.683-4.57 2.05-1.453 1.367-2.78 3.117-3.98 5.25v0l-2.15 15.8h-4.55l5.2-36.9 4.6-0.5-2.3 16c2.467-3.7 5.367-5.55 8.7-5.55zM1164.62-26.95c1.633 0 3.19 0.183 4.67 0.55 1.487 0.367 3.013 0.933 4.58 1.7v0l-2.7 18.7c-0.067 0.533-0.1 0.9-0.1 1.1v0c0 0.6 0.123 1.083 0.37 1.45 0.253 0.367 0.697 0.667 1.33 0.9v0l-1.3 3.15c-1.4-0.167-2.483-0.6-3.25-1.3-0.767-0.7-1.233-1.733-1.4-3.1v0c-1.067 1.367-2.267 2.44-3.6 3.22-1.333 0.787-2.75 1.18-4.25 1.18v0c-2.667 0-4.733-0.917-6.2-2.75-1.467-1.833-2.2-4.283-2.2-7.35v0c0-2.667 0.49-5.333 1.47-8 0.987-2.667 2.53-4.91 4.63-6.73 2.1-1.813 4.75-2.72 7.95-2.72zM1164.72-23.3c-2.1 0-3.843 0.707-5.23 2.12-1.38 1.42-2.397 3.187-3.05 5.3-0.647 2.12-0.97 4.263-0.97 6.43v0c0 2.167 0.383 3.773 1.15 4.82 0.767 1.053 1.867 1.58 3.3 1.58v0c1.367 0 2.59-0.417 3.67-1.25 1.087-0.833 2.213-2.033 3.38-3.6v0l2.05-14.55c-0.7-0.3-1.377-0.517-2.03-0.65-0.647-0.133-1.403-0.2-2.27-0.2zM1205.24-22.8l-2.2 15.85c-0.067 0.667-0.1 1.1-0.1 1.3v0c0 0.833 0.19 1.44 0.57 1.82 0.387 0.387 0.98 0.58 1.78 0.58v0c0.6 0 1.19-0.093 1.77-0.28 0.587-0.18 1.263-0.453 2.03-0.82v0l1.5 3.2c-1.833 1.167-3.783 1.75-5.85 1.75v0c-2.033 0-3.6-0.527-4.7-1.58-1.1-1.047-1.65-2.537-1.65-4.47v0c0-0.7 0.033-1.233 0.1-1.6v0l2.2-15.75h-4.55l0.5-3.55h4.75l1.65-6.1 3.6-0.4-0.9 6.5h6.2l-1 3.55zM1275.84-34.45c4.567 0 8.217 0.94 10.95 2.82 2.733 1.887 4.1 5.297 4.1 10.23v0c0 3.9-0.633 7.467-1.9 10.7-1.267 3.233-3.293 5.823-6.08 7.77-2.78 1.953-6.337 2.93-10.67 2.93v0h-8.3l4.85-34.45zM1276.54-30.65h-3.6l-3.75 26.9h3.75c3.133 0 5.683-0.867 7.65-2.6 1.967-1.733 3.373-3.933 4.22-6.6 0.853-2.667 1.28-5.517 1.28-8.55v0c0-2.533-0.433-4.467-1.3-5.8-0.867-1.333-1.993-2.227-3.38-2.68-1.38-0.447-3.003-0.67-4.87-0.67zM1328.46-26.95c0.833 0 1.717 0.117 2.65 0.35v0l-1.35 4.45c-0.633-0.167-1.35-0.25-2.15-0.25v0c-1.633 0-3.057 0.707-4.27 2.12-1.22 1.42-2.313 3.53-3.28 6.33v0l-2 13.95h-4.55l3.7-26.35h3.9l-0.3 5.4c0.967-2 2.11-3.5 3.43-4.5 1.313-1 2.72-1.5 4.22-1.5zM1354.13-26.35h4.55l-3.7 26.35h-4.55zM1357.48-32.75c-0.9 0-1.617-0.277-2.15-0.83-0.533-0.547-0.8-1.22-0.8-2.02v0c0-0.967 0.333-1.773 1-2.42 0.667-0.653 1.483-0.98 2.45-0.98v0c0.9 0 1.617 0.267 2.15 0.8 0.533 0.533 0.8 1.217 0.8 2.05v0c0 0.967-0.333 1.773-1 2.42-0.667 0.653-1.483 0.98-2.45 0.98zM1400.11-26.35h5l-12.6 26.35h-5.45l-5.3-26.35h4.95l3.6 22.2zM1446.08-20.25c0 3.367-1.5 5.8-4.5 7.3-3 1.5-7.2 2.55-12.6 3.15v0c0.1 4.367 2 6.55 5.7 6.55v0c1.233 0 2.417-0.2 3.55-0.6 1.133-0.4 2.3-1.017 3.5-1.85v0l1.95 3.1c-2.967 2.133-6.117 3.2-9.45 3.2v0c-3.2 0-5.673-0.943-7.42-2.83-1.753-1.88-2.63-4.503-2.63-7.87v0c0-2.633 0.46-5.243 1.38-7.83 0.913-2.58 2.387-4.73 4.42-6.45 2.033-1.713 4.617-2.57 7.75-2.57v0c2.667 0 4.727 0.65 6.18 1.95 1.447 1.3 2.17 2.883 2.17 4.75zM1429.23-13.3c4.133-0.467 7.177-1.183 9.13-2.15 1.947-0.967 2.92-2.517 2.92-4.65v0c0-0.8-0.283-1.533-0.85-2.2-0.567-0.667-1.483-1-2.75-1v0c-2.533 0-4.483 0.967-5.85 2.9-1.367 1.933-2.233 4.3-2.6 7.1zM1504.08-34.45h4.7l-4.85 34.45h-4.7zM1547.8-26.95c1.933 0 3.46 0.59 4.58 1.77 1.113 1.187 1.67 2.813 1.67 4.88v0c0 0.533-0.05 1.133-0.15 1.8v0l-2.6 18.5h-4.55l2.6-18.4c0.067-0.733 0.1-1.217 0.1-1.45v0c0-1.167-0.25-2-0.75-2.5-0.5-0.5-1.217-0.75-2.15-0.75v0c-1.533 0-3.007 0.683-4.42 2.05-1.42 1.367-2.73 3.117-3.93 5.25v0l-2.2 15.8h-4.55l3.7-26.35h3.9l-0.4 5.15c1.3-1.833 2.7-3.25 4.2-4.25 1.5-1 3.15-1.5 4.95-1.5zM1594.68-26.95c1.933 0 3.457 0.59 4.57 1.77 1.12 1.187 1.68 2.813 1.68 4.88v0c0 0.533-0.05 1.133-0.15 1.8v0l-2.6 18.5h-4.55l2.6-18.4c0.067-0.733 0.1-1.217 0.1-1.45v0c0-1.167-0.25-2-0.75-2.5-0.5-0.5-1.217-0.75-2.15-0.75v0c-1.533 0-3.01 0.683-4.43 2.05-1.413 1.367-2.72 3.117-3.92 5.25v0l-2.2 15.8h-4.55l3.7-26.35h3.9l-0.4 5.15c1.3-1.833 2.7-3.25 4.2-4.25 1.5-1 3.15-1.5 4.95-1.5zM1635.05 0.6c-3.233 0-5.723-0.967-7.47-2.9-1.753-1.933-2.63-4.6-2.63-8v0c0-2.467 0.46-4.973 1.38-7.52 0.913-2.553 2.387-4.713 4.42-6.48 2.033-1.767 4.65-2.65 7.85-2.65v0c3.233 0 5.717 0.967 7.45 2.9 1.733 1.933 2.6 4.6 2.6 8v0c0 2.433-0.45 4.923-1.35 7.47-0.9 2.553-2.367 4.72-4.4 6.5-2.033 1.787-4.65 2.68-7.85 2.68zM1635.2-3.1c2.1 0 3.8-0.727 5.1-2.18 1.3-1.447 2.217-3.197 2.75-5.25 0.533-2.047 0.8-4.053 0.8-6.02v0c0-4.467-1.8-6.7-5.4-6.7v0c-2.1 0-3.8 0.723-5.1 2.17-1.3 1.453-2.223 3.203-2.77 5.25-0.553 2.053-0.83 4.063-0.83 6.03v0c0 4.467 1.817 6.7 5.45 6.7zM1689.83-26.35h5l-12.6 26.35h-5.45l-5.3-26.35h4.95l3.6 22.2zM1727.85-26.95c1.633 0 3.19 0.183 4.67 0.55 1.487 0.367 3.013 0.933 4.58 1.7v0l-2.7 18.7c-0.067 0.533-0.1 0.9-0.1 1.1v0c0 0.6 0.123 1.083 0.37 1.45 0.253 0.367 0.697 0.667 1.33 0.9v0l-1.3 3.15c-1.4-0.167-2.483-0.6-3.25-1.3-0.767-0.7-1.233-1.733-1.4-3.1v0c-1.067 1.367-2.267 2.44-3.6 3.22-1.333 0.787-2.75 1.18-4.25 1.18v0c-2.667 0-4.733-0.917-6.2-2.75-1.467-1.833-2.2-4.283-2.2-7.35v0c0-2.667 0.49-5.333 1.47-8 0.987-2.667 2.53-4.91 4.63-6.73 2.1-1.813 4.75-2.72 7.95-2.72zM1727.95-23.3c-2.1 0-3.843 0.707-5.23 2.12-1.38 1.42-2.397 3.187-3.05 5.3-0.647 2.12-0.97 4.263-0.97 6.43v0c0 2.167 0.383 3.773 1.15 4.82 0.767 1.053 1.867 1.58 3.3 1.58v0c1.367 0 2.59-0.417 3.67-1.25 1.087-0.833 2.213-2.033 3.38-3.6v0l2.05-14.55c-0.7-0.3-1.377-0.517-2.03-0.65-0.647-0.133-1.403-0.2-2.27-0.2zM1768.47-22.8l-2.2 15.85c-0.067 0.667-0.1 1.1-0.1 1.3v0c0 0.833 0.193 1.44 0.58 1.82 0.38 0.387 0.97 0.58 1.77 0.58v0c0.6 0 1.193-0.093 1.78-0.28 0.58-0.18 1.253-0.453 2.02-0.82v0l1.5 3.2c-1.833 1.167-3.783 1.75-5.85 1.75v0c-2.033 0-3.6-0.527-4.7-1.58-1.1-1.047-1.65-2.537-1.65-4.47v0c0-0.7 0.033-1.233 0.1-1.6v0l2.2-15.75h-4.55l0.5-3.55h4.75l1.65-6.1 3.6-0.4-0.9 6.5h6.2l-1 3.55zM1799.8-26.35h4.55l-3.7 26.35h-4.55zM1803.15-32.75c-0.9 0-1.617-0.277-2.15-0.83-0.533-0.547-0.8-1.22-0.8-2.02v0c0-0.967 0.333-1.773 1-2.42 0.667-0.653 1.483-0.98 2.45-0.98v0c0.9 0 1.617 0.267 2.15 0.8 0.533 0.533 0.8 1.217 0.8 2.05v0c0 0.967-0.333 1.773-1 2.42-0.667 0.653-1.483 0.98-2.45 0.98zM1837.77 0.6c-3.233 0-5.723-0.967-7.47-2.9-1.753-1.933-2.63-4.6-2.63-8v0c0-2.467 0.46-4.973 1.38-7.52 0.913-2.553 2.387-4.713 4.42-6.48 2.033-1.767 4.65-2.65 7.85-2.65v0c3.233 0 5.717 0.967 7.45 2.9 1.733 1.933 2.6 4.6 2.6 8v0c0 2.433-0.45 4.923-1.35 7.47-0.9 2.553-2.367 4.72-4.4 6.5-2.033 1.787-4.65 2.68-7.85 2.68zM1837.92-3.1c2.1 0 3.8-0.727 5.1-2.18 1.3-1.447 2.217-3.197 2.75-5.25 0.533-2.047 0.8-4.053 0.8-6.02v0c0-4.467-1.8-6.7-5.4-6.7v0c-2.1 0-3.8 0.723-5.1 2.17-1.3 1.453-2.223 3.203-2.77 5.25-0.553 2.053-0.83 4.063-0.83 6.03v0c0 4.467 1.817 6.7 5.45 6.7zM1891.04-26.95c1.933 0 3.46 0.59 4.58 1.77 1.113 1.187 1.67 2.813 1.67 4.88v0c0 0.533-0.05 1.133-0.15 1.8v0l-2.6 18.5h-4.55l2.6-18.4c0.067-0.733 0.1-1.217 0.1-1.45v0c0-1.167-0.25-2-0.75-2.5-0.5-0.5-1.217-0.75-2.15-0.75v0c-1.533 0-3.007 0.683-4.42 2.05-1.42 1.367-2.73 3.117-3.93 5.25v0l-2.2 15.8h-4.55l3.7-26.35h3.9l-0.4 5.15c1.3-1.833 2.7-3.25 4.2-4.25 1.5-1 3.15-1.5 4.95-1.5z" fill="#00add8" fill-rule="nonzero" stroke="none" stroke-width="1" stroke-linecap="butt" stroke-linejoin="miter" stroke-miterlimit="10" stroke-dasharray="" stroke-dashoffset="0" font-family="none" font-weight="none" font-size="none" text-anchor="none" style="mix-blend-mode: normal" data-fill-palette-color="secondary" id="text-1"></path></g></g><g transform="matrix(1,0,0,1,29.33176499999999,27.326949641438524)"><svg viewBox="0 0 316.416 28.997554717122952" height="28.997554717122952" width="316.416"><g><svg viewBox="0 0 316.416 28.997554717122952" height="28.997554717122952" width="316.416"><g><svg viewBox="0 0 350.84710624365647 32.152951053817375" height="28.997554717122952" width="316.416"><g transform="matrix(1,0,0,1,34.43110624365646,10.260095090255762)"><svg viewBox="0 0 316.416 11.632760873305852" height="11.632760873305852" width="316.416"><g id="textblocktransform"><svg viewBox="0 0 316.416 11.632760873305852" height="11.632760873305852" width="316.416" id="textblock"><g><svg viewBox="0 0 316.416 11.632760873305852" height="11.632760873305852" width="316.416"><g transform="matrix(1,0,0,1,0,0)"><svg width="316.416" viewBox="-1.907776955538 -37.5 1116.1177769555381 42" height="11.632760873305852" data-palette-color="#ffffff"><path d="M19.25-33L23.25-33 23.25-11.3Q23.25-5.75 20.28-2.63 17.3 0.5 12.05 0.5L12.05 0.5Q8.35 0.5 5.95-0.9 3.55-2.3 2.63-4.88 1.7-7.45 2.35-10.9L2.35-10.9 6.05-11.65Q5.5-7.4 6.83-5.33 8.15-3.25 11.9-3.25L11.9-3.25Q16.15-3.25 17.7-5.58 19.25-7.9 19.25-12.3L19.25-12.3 19.25-33ZM47-33.5L47-33.5Q51.7-33.5 55.12-31.43 58.55-29.35 60.42-25.55 62.3-21.75 62.3-16.5L62.3-16.5Q62.3-11.25 60.42-7.45 58.55-3.65 55.12-1.58 51.7 0.5 47 0.5L47 0.5Q42.3 0.5 38.87-1.58 35.45-3.65 33.57-7.45 31.7-11.25 31.7-16.5L31.7-16.5Q31.7-21.75 33.57-25.55 35.45-29.35 38.87-31.43 42.3-33.5 47-33.5ZM47-29.75L47-29.75Q43.6-29.75 41.1-28.18 38.6-26.6 37.25-23.63 35.9-20.65 35.9-16.5L35.9-16.5Q35.9-12.35 37.25-9.38 38.6-6.4 41.1-4.83 43.6-3.25 47-3.25L47-3.25Q50.45-3.25 52.92-4.83 55.4-6.4 56.75-9.38 58.1-12.35 58.1-16.5L58.1-16.5Q58.1-20.65 56.75-23.63 55.4-26.6 52.92-28.18 50.45-29.75 47-29.75ZM94.99 0L71.09 0 71.09-33 94.24-33 94.24-29.25 75.09-29.25 75.09-18.6 89.99-18.6 89.99-14.85 75.09-14.85 75.09-3.75 94.99-3.75 94.99 0ZM145.79-33L151.94-33 151.94 0 148.14 0 148.14-20.75 148.59-29.45 148.54-29.45 137.69 0 134.29 0 123.44-29.45 123.39-29.45 123.84-20.75 123.84 0 120.04 0 120.04-33 126.19-33 133.44-12.95 135.94-4.7 136.04-4.7 138.59-12.9 145.79-33ZM186.64 0L162.74 0 162.74-33 185.89-33 185.89-29.25 166.74-29.25 166.74-18.6 181.64-18.6 181.64-14.85 166.74-14.85 166.74-3.75 186.64-3.75 186.64 0ZM216.74-33L220.54-33 220.54 0 215.59 0 201.79-22.1 198.29-28.3 198.24-28.3 198.44-23.3 198.44 0 194.64 0 194.64-33 199.59-33 213.34-11 216.89-4.65 216.94-4.65 216.74-9.7 216.74-33ZM231.33-33L241.98-33Q249.73-33 254.16-28.73 258.58-24.45 258.58-16.5L258.58-16.5Q258.58-8.55 254.16-4.28 249.73 0 241.98 0L241.98 0 231.33 0 231.33-33ZM235.33-3.75L242.38-3.75Q248.03-3.75 251.21-7.13 254.38-10.5 254.38-16.5L254.38-16.5Q254.38-22.5 251.21-25.88 248.03-29.25 242.38-29.25L242.38-29.25 235.33-29.25 235.33-3.75ZM291.28 0L267.38 0 267.38-33 290.53-33 290.53-29.25 271.38-29.25 271.38-18.6 286.28-18.6 286.28-14.85 271.38-14.85 271.38-3.75 291.28-3.75 291.28 0ZM321.98-29.45L300.28-2.3 299.58-3.75 322.63-3.75 322.63 0 296.68 0 296.68-3.55 318.38-30.7 319.08-29.25 297.18-29.25 297.18-33 321.98-33 321.98-29.45ZM329.88-15.15L346.38-15.15 346.38-11 329.88-11 329.88-15.15ZM378.17-33L382.17-33 382.17 0 378.17 0 378.17-33ZM356.27-33L360.27-33 360.27 0 356.27 0 356.27-33ZM358.37-18.6L380.02-18.6 380.02-14.85 358.37-14.85 358.37-18.6ZM414.22-33L418.22-33 418.22-12.3Q418.22-5.95 414.87-2.73 411.52 0.5 405.27 0.5L405.27 0.5Q399.07 0.5 395.69-2.73 392.32-5.95 392.32-12.3L392.32-12.3 392.32-33 396.32-33 396.32-13.3Q396.32-8.15 398.5-5.7 400.67-3.25 405.27-3.25L405.27-3.25Q409.87-3.25 412.05-5.7 414.22-8.15 414.22-13.3L414.22-13.3 414.22-33ZM441.67 0.5L441.67 0.5Q436.97 0.5 433.54-1.58 430.12-3.65 428.24-7.45 426.37-11.25 426.37-16.5L426.37-16.5Q426.37-21.75 428.34-25.55 430.32-29.35 433.87-31.43 437.42-33.5 442.02-33.5L442.02-33.5Q446.92-33.5 449.99-31.65 453.07-29.8 454.97-25.95L454.97-25.95 451.32-23.95Q450.22-26.8 447.84-28.28 445.47-29.75 442.02-29.75L442.02-29.75Q438.67-29.75 436.09-28.18 433.52-26.6 432.04-23.63 430.57-20.65 430.57-16.5L430.57-16.5Q430.57-12.35 431.84-9.38 433.12-6.4 435.64-4.83 438.17-3.25 441.82-3.25L441.82-3.25Q443.87-3.25 445.64-3.78 447.42-4.3 448.74-5.35 450.07-6.4 450.82-8 451.57-9.6 451.57-11.75L451.57-11.75 451.57-12.9 441.07-12.9 441.07-16.65 455.22-16.65 455.22 0 452.07 0 451.87-6.15 452.72-6Q451.42-2.9 448.62-1.2 445.82 0.5 441.67 0.5ZM486.46-33L490.46-33 490.46 0 486.46 0 486.46-33ZM464.56-33L468.56-33 468.56 0 464.56 0 464.56-33ZM466.66-18.6L488.31-18.6 488.31-14.85 466.66-14.85 466.66-18.6ZM525.16 0L501.26 0 501.26-33 524.41-33 524.41-29.25 505.26-29.25 505.26-18.6 520.16-18.6 520.16-14.85 505.26-14.85 505.26-3.75 525.16-3.75 525.16 0ZM543.76-33.5L543.76-33.5Q548.11-33.5 551.26-31.73 554.41-29.95 556.51-26.5L556.51-26.5 553.16-23.9Q551.31-27.1 548.98-28.43 546.66-29.75 543.36-29.75L543.36-29.75Q540.71-29.75 538.98-29 537.26-28.25 536.46-27.03 535.66-25.8 535.66-24.25L535.66-24.25Q535.66-22.5 536.76-21.18 537.86-19.85 541.16-19.1L541.16-19.1 548.31-17.5Q553.06-16.45 554.93-14.33 556.81-12.2 556.81-9.05L556.81-9.05Q556.81-6.25 555.23-4.08 553.66-1.9 550.81-0.7 547.96 0.5 544.11 0.5L544.11 0.5Q540.51 0.5 537.78-0.48 535.06-1.45 533.11-3.1 531.16-4.75 529.91-6.8L529.91-6.8 533.41-9.65Q534.36-7.75 535.86-6.3 537.36-4.85 539.48-4.05 541.61-3.25 544.36-3.25L544.36-3.25Q546.91-3.25 548.78-3.88 550.66-4.5 551.66-5.73 552.66-6.95 552.66-8.7L552.66-8.7Q552.66-10.3 551.61-11.58 550.56-12.85 547.66-13.5L547.66-13.5 539.91-15.25Q536.86-15.95 534.98-17.18 533.11-18.4 532.28-20.08 531.46-21.75 531.46-23.7L531.46-23.7Q531.46-26.35 532.93-28.58 534.41-30.8 537.18-32.15 539.96-33.5 543.76-33.5ZM567.21-25.5L567.21-25.5Q568.66-25.5 569.56-24.6 570.46-23.7 570.46-22.25L570.46-22.25Q570.46-20.8 569.56-19.9 568.66-19 567.21-19L567.21-19Q565.76-19 564.86-19.9 563.96-20.8 563.96-22.25L563.96-22.25Q563.96-23.7 564.86-24.6 565.76-25.5 567.21-25.5ZM567.21-6L567.21-6Q568.66-6 569.56-5.1 570.46-4.2 570.46-2.75L570.46-2.75Q570.46-1.3 569.56-0.4 568.66 0.5 567.21 0.5L567.21 0.5Q565.76 0.5 564.86-0.4 563.96-1.3 563.96-2.75L563.96-2.75Q563.96-4.2 564.86-5.1 565.76-6 567.21-6ZM580-33L591.65-33Q595-33 597.48-31.78 599.95-30.55 601.35-28.3 602.75-26.05 602.75-22.95L602.75-22.95Q602.75-19.85 601.35-17.6 599.95-15.35 597.48-14.13 595-12.9 591.65-12.9L591.65-12.9 584-12.9 584 0 580 0 580-33ZM584-16.65L591.05-16.65Q594.95-16.65 596.75-18.28 598.55-19.9 598.55-22.95L598.55-22.95Q598.55-26.05 596.75-27.65 594.95-29.25 591.05-29.25L591.05-29.25 584-29.25 584-16.65ZM614.5-33L614.5-3.75 633.4-3.75 633.4 0 610.5 0 610.5-33 614.5-33ZM640.5 0L636.3 0 649.15-33 653.9-33 666.7 0 662.45 0 653.05-24.6 651.5-29.2 651.4-29.2 649.95-24.75 640.5 0ZM660.25-9.15L642.6-9.15 642.6-12.9 660.25-12.9 660.25-9.15ZM669.6-33L696.6-33 696.6-29.25 685.1-29.25 685.1 0 681.1 0 681.1-29.25 669.6-29.25 669.6-33ZM726.69-33L726.69-29.25 707.59-29.25 707.59-18.6 722.49-18.6 722.49-14.85 707.59-14.85 707.59 0 703.59 0 703.59-33 726.69-33ZM747.39-33.5L747.39-33.5Q752.09-33.5 755.52-31.43 758.94-29.35 760.82-25.55 762.69-21.75 762.69-16.5L762.69-16.5Q762.69-11.25 760.82-7.45 758.94-3.65 755.52-1.58 752.09 0.5 747.39 0.5L747.39 0.5Q742.69 0.5 739.27-1.58 735.84-3.65 733.97-7.45 732.09-11.25 732.09-16.5L732.09-16.5Q732.09-21.75 733.97-25.55 735.84-29.35 739.27-31.43 742.69-33.5 747.39-33.5ZM747.39-29.75L747.39-29.75Q743.99-29.75 741.49-28.18 738.99-26.6 737.64-23.63 736.29-20.65 736.29-16.5L736.29-16.5Q736.29-12.35 737.64-9.38 738.99-6.4 741.49-4.83 743.99-3.25 747.39-3.25L747.39-3.25Q750.84-3.25 753.32-4.83 755.79-6.4 757.14-9.38 758.49-12.35 758.49-16.5L758.49-16.5Q758.49-20.65 757.14-23.63 755.79-26.6 753.32-28.18 750.84-29.75 747.39-29.75ZM771.49-33L783.99-33Q789.04-33 792.09-30.4 795.14-27.8 795.14-23.35L795.14-23.35Q795.14-18.9 792.06-16.43 788.99-13.95 783.94-13.95L783.94-13.95 783.59-13.7 775.49-13.7 775.49 0 771.49 0 771.49-33ZM775.49-17.45L783.94-17.45Q787.49-17.45 789.21-18.93 790.94-20.4 790.94-23.35L790.94-23.35Q790.94-26.3 789.21-27.78 787.49-29.25 783.94-29.25L783.94-29.25 775.49-29.25 775.49-17.45ZM782.89-14.45L786.24-16.65 797.14 0 792.39 0 782.89-14.45ZM830.49-33L836.64-33 836.64 0 832.84 0 832.84-20.75 833.29-29.45 833.24-29.45 822.39 0 818.99 0 808.14-29.45 808.09-29.45 808.54-20.75 808.54 0 804.74 0 804.74-33 810.89-33 818.14-12.95 820.64-4.7 820.74-4.7 823.29-12.9 830.49-33ZM888.38 0L864.48 0 864.48-33 887.63-33 887.63-29.25 868.48-29.25 868.48-18.6 883.38-18.6 883.38-14.85 868.48-14.85 868.48-3.75 888.38-3.75 888.38 0ZM918.48-33L922.28-33 922.28 0 917.33 0 903.53-22.1 900.03-28.3 899.98-28.3 900.18-23.3 900.18 0 896.38 0 896.38-33 901.33-33 915.08-11 918.63-4.65 918.68-4.65 918.48-9.7 918.48-33ZM946.38 0.5L946.38 0.5Q941.68 0.5 938.25-1.58 934.83-3.65 932.95-7.45 931.08-11.25 931.08-16.5L931.08-16.5Q931.08-21.75 933.05-25.55 935.03-29.35 938.58-31.43 942.13-33.5 946.73-33.5L946.73-33.5Q951.63-33.5 954.7-31.65 957.78-29.8 959.68-25.95L959.68-25.95 956.03-23.95Q954.93-26.8 952.55-28.28 950.18-29.75 946.73-29.75L946.73-29.75Q943.38-29.75 940.8-28.18 938.23-26.6 936.75-23.63 935.28-20.65 935.28-16.5L935.28-16.5Q935.28-12.35 936.55-9.38 937.83-6.4 940.35-4.83 942.88-3.25 946.53-3.25L946.53-3.25Q948.58-3.25 950.35-3.78 952.13-4.3 953.45-5.35 954.78-6.4 955.53-8 956.28-9.6 956.28-11.75L956.28-11.75 956.28-12.9 945.78-12.9 945.78-16.65 959.93-16.65 959.93 0 956.78 0 956.58-6.15 957.43-6Q956.13-2.9 953.33-1.2 950.53 0.5 946.38 0.5ZM969.27-33L973.27-33 973.27 0 969.27 0 969.27-33ZM1006.17-33L1009.97-33 1009.97 0 1005.02 0 991.22-22.1 987.72-28.3 987.67-28.3 987.87-23.3 987.87 0 984.07 0 984.07-33 989.02-33 1002.77-11 1006.32-4.65 1006.37-4.65 1006.17-9.7 1006.17-33ZM1044.67 0L1020.77 0 1020.77-33 1043.92-33 1043.92-29.25 1024.77-29.25 1024.77-18.6 1039.67-18.6 1039.67-14.85 1024.77-14.85 1024.77-3.75 1044.67-3.75 1044.67 0ZM1076.57 0L1052.67 0 1052.67-33 1075.82-33 1075.82-29.25 1056.67-29.25 1056.67-18.6 1071.57-18.6 1071.57-14.85 1056.67-14.85 1056.67-3.75 1076.57-3.75 1076.57 0ZM1084.56-33L1097.06-33Q1102.11-33 1105.16-30.4 1108.21-27.8 1108.21-23.35L1108.21-23.35Q1108.21-18.9 1105.14-16.43 1102.06-13.95 1097.01-13.95L1097.01-13.95 1096.66-13.7 1088.56-13.7 1088.56 0 1084.56 0 1084.56-33ZM1088.56-17.45L1097.01-17.45Q1100.56-17.45 1102.29-18.93 1104.01-20.4 1104.01-23.35L1104.01-23.35Q1104.01-26.3 1102.29-27.78 1100.56-29.25 1097.01-29.25L1097.01-29.25 1088.56-29.25 1088.56-17.45ZM1095.96-14.45L1099.31-16.65 1110.21 0 1105.46 0 1095.96-14.45Z" opacity="1" transform="matrix(1,0,0,1,0,0)" fill="#ffffff" class="wordmark-text-0" data-fill-palette-color="primary" id="text-0"></path></svg></g></svg></g></svg></g></svg></g><g><svg viewBox="0 0 32.153756675327124 32.152951053817375" height="32.152951053817375" width="32.153756675327124"><g><svg xmlns="http://www.w3.org/2000/svg" xmlns:xlink="http://www.w3.org/1999/xlink" version="1.1" x="0" y="0" viewBox="7.279893330341158 7.28 85.44214077711491 85.44" enable-background="new 0 0 100 100" xml:space="preserve" height="32.152951053817375" width="32.153756675327124" class="icon-icon-0" data-fill-palette-color="accent" id="icon-0"><path d="M91.24 67.483L74.39 58.951 90.34 50.705C90.848 50.441 90.848 50.017 90.337 49.76L72.349 40.653 91.261 30.875C92.18 30.398 92.725 29.552 92.72 28.611 92.714 27.672 92.159 26.834 91.24 26.37L54.356 7.698C53.673 7.353 52.96 7.28 52.481 7.28 52.041 7.28 51.383 7.342 50.746 7.64L8.818 27.269C7.864 27.716 7.289 28.552 7.28 29.504 7.271 30.457 7.832 31.304 8.779 31.77L28.918 41.673 9.667 50.685C9.153 50.926 9.151 51.328 9.662 51.579L26.756 59.985 8.818 68.381C7.863 68.828 7.288 69.664 7.28 70.616 7.272 71.569 7.833 72.416 8.779 72.88L48.333 92.332C48.984 92.653 49.66 92.72 50.112 92.72 50.588 92.72 51.298 92.647 51.984 92.295L91.263 71.987C92.182 71.51 92.727 70.664 92.722 69.723 92.714 68.785 92.16 67.946 91.24 67.483M52.375 11.289A1 1 0 0 1 52.481 11.28C52.542 11.28 52.587 11.288 52.563 11.274L86.872 28.642 50.215 47.6C50.205 47.602 50.167 47.61 50.112 47.61L50.098 47.631 13.353 29.562zM50.22 88.71A0.5 0.5 0 0 1 50.111 88.72L50.099 88.743 13.355 70.673 30.73 62.539 48.331 71.194C48.983 71.515 49.659 71.583 50.111 71.583 50.588 71.583 51.299 71.509 51.981 71.157L70.615 61.524 86.87 69.754z" fill="#00add8" data-fill-palette-color="accent"></path></svg></g></svg></g></svg></g></svg></g></svg></g></svg></g><defs></defs></svg><rect width="375.07953" height="83.651454" fill="none" stroke="none" visibility="hidden"></rect></g></svg></g></svg>