<svg xmlns="http://www.w3.org/2000/svg" version="1.1" xmlns:xlink="http://www.w3.org/1999/xlink" xmlns:svgjs="http://svgjs.dev/svgjs" width="2000" height="232" viewBox="0 0 2000 232"><g transform="matrix(1,0,0,1,-1.2121212121212466,-0.9326416342415769)"><svg viewBox="0 0 396 46" data-background-color="#121212" preserveAspectRatio="xMidYMid meet" height="232" width="2000" xmlns="http://www.w3.org/2000/svg" xmlns:xlink="http://www.w3.org/1999/xlink"><g id="tight-bounds" transform="matrix(1,0,0,1,0.2400000000000091,0.1849203240306565)"><svg viewBox="0 0 395.52 45.630159351938715" height="45.630159351938715" width="395.52"><g><svg viewBox="0 0 457.7507897370926 52.80957089193803" height="45.630159351938715" width="395.52"><g transform="matrix(1,0,0,1,60.25318973709266,11.123177090082603)"><svg viewBox="0 0 397.4975999999999 30.563216711772824" height="30.563216711772824" width="397.4975999999999"><g id="textblocktransform"><svg viewBox="0 0 397.4975999999999 30.563216711772824" height="30.563216711772824" width="397.4975999999999" id="textblock"><g><rect width="397.4975999999999" height="1.10424710879532" x="0" y="15.913372597606086" fill="#ffffff" opacity="1" stroke-width="0" stroke="transparent" fill-opacity="1" class="rect-yte-0" data-fill-palette-color="primary" rx="1%" id="yte-0" data-palette-color="#ffffff"></rect></g><g transform="matrix(1,0,0,1,0.9887999999999693,0)"><svg viewBox="0 0 395.52 14.612557940648248" height="14.612557940648248" width="395.52"><g transform="matrix(1,0,0,1,0,0)"><svg width="395.52" viewBox="-2.65 -39.6 1170.2 44.2" height="14.612557940648248" data-palette-color="#ffffff"><path d="M11.5 0.6L11.5 0.6Q6.75 0.6 4.05-2.05 1.35-4.7 1.35-9.4L1.35-9.4 5.6-9.4Q5.6-6.75 6.9-4.95 8.2-3.15 11.45-3.15L11.45-3.15Q14.6-3.15 15.83-4.9 17.05-6.65 17.05-9.25L17.05-9.25 17.05-35 21.25-35 21.25-9.25Q21.25-4.6 18.68-2 16.1 0.6 11.5 0.6ZM44.55 0.6L44.55 0.6Q39.4 0.6 35.52-1.68 31.65-3.95 29.47-8.05 27.3-12.15 27.3-17.5L27.3-17.5Q27.3-22.85 29.47-26.93 31.65-31 35.52-33.3 39.4-35.6 44.55-35.6L44.55-35.6Q49.75-35.6 53.62-33.3 57.5-31 59.65-26.93 61.8-22.85 61.8-17.5L61.8-17.5Q61.8-12.15 59.65-8.05 57.5-3.95 53.62-1.68 49.75 0.6 44.55 0.6ZM44.55-3.1L44.55-3.1Q48.4-3.1 51.32-4.83 54.25-6.55 55.87-9.78 57.5-13 57.5-17.5L57.5-17.5Q57.5-22 55.87-25.2 54.25-28.4 51.32-30.13 48.4-31.85 44.55-31.85L44.55-31.85Q40.7-31.85 37.77-30.13 34.85-28.4 33.22-25.2 31.6-22 31.6-17.5L31.6-17.5Q31.6-13 33.22-9.78 34.85-6.55 37.77-4.83 40.7-3.1 44.55-3.1ZM89.5 0L67.85 0 67.85-35 89.5-35 89.5-31.55 72.05-31.55 72.05-19.35 88-19.35 88-15.95 72.05-15.95 72.05-3.45 89.5-3.45 89.5 0ZM113.49 0L109.29 0 109.29-35 114.19-35 126.79-10.6 139.29-35 144.24-35 144.24 0 140.04 0 140.04-27.5 128.34-5 125.19-5 113.49-27.45 113.49 0ZM173.29 0L151.64 0 151.64-35 173.29-35 173.29-31.55 155.84-31.55 155.84-19.35 171.79-19.35 171.79-15.95 155.84-15.95 155.84-3.45 173.29-3.45 173.29 0ZM184.04 0L179.84 0 179.84-35 184.04-35 202.69-6.95 202.69-35 206.89-35 206.89 0 202.69 0 184.04-28.05 184.04 0ZM225.03 0L214.28 0 214.28-35 225.03-35Q234.28-35 238.66-30.3 243.03-25.6 243.03-17.4L243.03-17.4Q243.03-9.35 238.66-4.67 234.28 0 225.03 0L225.03 0ZM218.48-31.5L218.48-3.5 224.93-3.5Q230.03-3.5 233.06-5.18 236.08-6.85 237.38-9.98 238.68-13.1 238.68-17.4L238.68-17.4Q238.68-21.8 237.38-24.95 236.08-28.1 233.06-29.8 230.03-31.5 224.93-31.5L224.93-31.5 218.48-31.5ZM270.73 0L249.08 0 249.08-35 270.73-35 270.73-31.55 253.28-31.55 253.28-19.35 269.23-19.35 269.23-15.95 253.28-15.95 253.28-3.45 270.73-3.45 270.73 0ZM298.13 0L275.78 0 275.78-3.3 293.03-31.35 276.03-31.35 276.03-35 297.93-35 297.93-31.7 280.63-3.65 298.13-3.65 298.13 0ZM323.08-12.75L303.28-12.75 303.28-16.3 323.08-16.3 323.08-12.75ZM333.87 0L329.67 0 329.67-35 333.87-35 333.87-19.55 352.02-19.55 352.02-35 356.22-35 356.22 0 352.02 0 352.02-16.1 333.87-16.1 333.87 0ZM376.27 0.6L376.27 0.6Q372.67 0.6 369.75-0.83 366.82-2.25 365.07-5.25 363.32-8.25 363.32-12.9L363.32-12.9 363.32-35 367.52-35 367.52-12.85Q367.52-7.75 369.97-5.45 372.42-3.15 376.37-3.15L376.37-3.15Q380.32-3.15 382.72-5.45 385.12-7.75 385.12-12.85L385.12-12.85 385.12-35 389.32-35 389.32-12.9Q389.32-8.25 387.57-5.25 385.82-2.25 382.87-0.83 379.92 0.6 376.27 0.6ZM411.47 0.6L411.47 0.6Q406.57 0.6 402.87-1.68 399.17-3.95 397.12-8.03 395.07-12.1 395.07-17.45L395.07-17.45Q395.07-22.8 397.14-26.9 399.22-31 403.04-33.3 406.87-35.6 412.07-35.6L412.07-35.6Q417.97-35.6 421.89-32.75 425.82-29.9 426.97-24.9L426.97-24.9 422.12-24.9Q421.42-28.05 418.79-29.9 416.17-31.75 412.07-31.75L412.07-31.75Q408.22-31.75 405.37-30.03 402.52-28.3 400.94-25.1 399.37-21.9 399.37-17.45L399.37-17.45Q399.37-13 400.92-9.8 402.47-6.6 405.22-4.88 407.97-3.15 411.62-3.15L411.62-3.15Q417.22-3.15 420.07-6.43 422.92-9.7 423.32-15.4L423.32-15.4 413.22-15.4 413.22-18.7 427.62-18.7 427.62 0 423.77 0 423.42-5.75Q421.52-2.7 418.77-1.05 416.02 0.6 411.47 0.6ZM438.47 0L434.27 0 434.27-35 438.47-35 438.47-19.55 456.62-19.55 456.62-35 460.82-35 460.82 0 456.62 0 456.62-16.1 438.47-16.1 438.47 0ZM489.86 0L468.21 0 468.21-35 489.86-35 489.86-31.55 472.41-31.55 472.41-19.35 488.36-19.35 488.36-15.95 472.41-15.95 472.41-3.45 489.86-3.45 489.86 0ZM507.56 0.6L507.56 0.6Q503.71 0.6 500.86-0.8 498.01-2.2 496.46-4.7 494.91-7.2 494.91-10.5L494.91-10.5 499.31-10.5Q499.31-8.45 500.26-6.73 501.21-5 503.04-3.98 504.86-2.95 507.56-2.95L507.56-2.95Q511.11-2.95 513.06-4.65 515.01-6.35 515.01-8.9L515.01-8.9Q515.01-11 514.11-12.28 513.21-13.55 511.69-14.35 510.16-15.15 508.19-15.75 506.21-16.35 504.06-17.1L504.06-17.1Q500.01-18.5 498.06-20.58 496.11-22.65 496.11-26L496.11-26Q496.06-28.8 497.41-30.98 498.76-33.15 501.24-34.38 503.71-35.6 507.11-35.6L507.11-35.6Q510.46-35.6 512.94-34.35 515.41-33.1 516.79-30.9 518.16-28.7 518.21-25.9L518.21-25.9 513.81-25.9Q513.81-27.35 513.06-28.78 512.31-30.2 510.79-31.1 509.26-32 506.96-32L506.96-32Q504.11-32.05 502.29-30.55 500.46-29.05 500.46-26.4L500.46-26.4Q500.46-24.15 501.74-22.95 503.01-21.75 505.31-20.98 507.61-20.2 510.61-19.2L510.61-19.2Q513.11-18.3 515.11-17.1 517.11-15.9 518.24-14 519.36-12.1 519.36-9.15L519.36-9.15Q519.36-6.65 518.06-4.42 516.76-2.2 514.13-0.8 511.51 0.6 507.56 0.6ZM526.51 0.25L526.51 0.25Q525.26 0.25 524.43-0.58 523.61-1.4 523.61-2.6L523.61-2.6Q523.61-3.8 524.43-4.63 525.26-5.45 526.51-5.45L526.51-5.45Q527.71-5.45 528.53-4.63 529.36-3.8 529.36-2.6L529.36-2.6Q529.36-1.4 528.53-0.58 527.71 0.25 526.51 0.25ZM526.51-19.7L526.51-19.7Q525.26-19.7 524.43-20.53 523.61-21.35 523.61-22.55L523.61-22.55Q523.61-23.75 524.43-24.58 525.26-25.4 526.51-25.4L526.51-25.4Q527.71-25.4 528.53-24.58 529.36-23.75 529.36-22.55L529.36-22.55Q529.36-21.35 528.53-20.53 527.71-19.7 526.51-19.7ZM563.85 0.6L563.85 0.6Q558.7 0.6 554.98-1.68 551.25-3.95 549.2-8.03 547.15-12.1 547.15-17.5L547.15-17.5Q547.15-22.85 549.2-26.93 551.25-31 554.98-33.3 558.7-35.6 563.85-35.6L563.85-35.6Q569.85-35.6 573.63-32.73 577.4-29.85 578.45-24.7L578.45-24.7 573.8-24.7Q573-27.95 570.53-29.93 568.05-31.9 563.85-31.9L563.85-31.9Q560.1-31.9 557.3-30.18 554.5-28.45 552.98-25.23 551.45-22 551.45-17.5L551.45-17.5Q551.45-13 552.98-9.78 554.5-6.55 557.3-4.83 560.1-3.1 563.85-3.1L563.85-3.1Q568.05-3.1 570.53-5.03 573-6.95 573.8-10.15L573.8-10.15 578.45-10.15Q577.4-5.1 573.63-2.25 569.85 0.6 563.85 0.6ZM595.85 0L591.65 0 591.65-13.3 580.25-35 585-35 593.75-17.3 602.5-35 607.2-35 595.85-13.3 595.85 0ZM624.6 0L611.9 0 611.9-35 624.2-35Q627.9-35 630.32-33.83 632.75-32.65 633.95-30.63 635.15-28.6 635.15-26.1L635.15-26.1Q635.15-22.7 633.32-20.75 631.5-18.8 628.95-18.05L628.95-18.05Q630.9-17.7 632.5-16.5 634.1-15.3 635.02-13.5 635.95-11.7 635.95-9.55L635.95-9.55Q635.95-6.9 634.65-4.73 633.35-2.55 630.8-1.28 628.25 0 624.6 0L624.6 0ZM616.1-31.5L616.1-19.7 623.9-19.7Q627.25-19.7 629.05-21.28 630.85-22.85 630.85-25.65L630.85-25.65Q630.85-28.3 629.07-29.9 627.3-31.5 623.75-31.5L623.75-31.5 616.1-31.5ZM616.1-16.35L616.1-3.5 624.15-3.5Q627.75-3.5 629.7-5.18 631.65-6.85 631.65-9.85L631.65-9.85Q631.65-12.8 629.6-14.58 627.55-16.35 624.05-16.35L624.05-16.35 616.1-16.35ZM663.64 0L641.99 0 641.99-35 663.64-35 663.64-31.55 646.19-31.55 646.19-19.35 662.14-19.35 662.14-15.95 646.19-15.95 646.19-3.45 663.64-3.45 663.64 0ZM674.39 0L670.19 0 670.19-35 681.49-35Q685.59-35 688.19-33.65 690.79-32.3 692.04-29.95 693.29-27.6 693.29-24.75L693.29-24.75Q693.29-21.45 691.52-18.8 689.74-16.15 685.99-15.05L685.99-15.05 693.64 0 688.69 0 681.59-14.45 681.29-14.45 674.39-14.45 674.39 0ZM674.39-31.45L674.39-17.75 681.19-17.75Q685.24-17.75 687.09-19.7 688.94-21.65 688.94-24.7L688.94-24.7Q688.94-27.8 687.12-29.63 685.29-31.45 681.14-31.45L681.14-31.45 674.39-31.45ZM710.99 0.6L710.99 0.6Q707.14 0.6 704.29-0.8 701.44-2.2 699.89-4.7 698.34-7.2 698.34-10.5L698.34-10.5 702.74-10.5Q702.74-8.45 703.69-6.73 704.64-5 706.46-3.98 708.29-2.95 710.99-2.95L710.99-2.95Q714.54-2.95 716.49-4.65 718.44-6.35 718.44-8.9L718.44-8.9Q718.44-11 717.54-12.28 716.64-13.55 715.11-14.35 713.59-15.15 711.61-15.75 709.64-16.35 707.49-17.1L707.49-17.1Q703.44-18.5 701.49-20.58 699.54-22.65 699.54-26L699.54-26Q699.49-28.8 700.84-30.98 702.19-33.15 704.66-34.38 707.14-35.6 710.54-35.6L710.54-35.6Q713.89-35.6 716.36-34.35 718.84-33.1 720.21-30.9 721.59-28.7 721.64-25.9L721.64-25.9 717.24-25.9Q717.24-27.35 716.49-28.78 715.74-30.2 714.21-31.1 712.69-32 710.39-32L710.39-32Q707.54-32.05 705.71-30.55 703.89-29.05 703.89-26.4L703.89-26.4Q703.89-24.15 705.16-22.95 706.44-21.75 708.74-20.98 711.04-20.2 714.04-19.2L714.04-19.2Q716.54-18.3 718.54-17.1 720.54-15.9 721.66-14 722.79-12.1 722.79-9.15L722.79-9.15Q722.79-6.65 721.49-4.42 720.19-2.2 717.56-0.8 714.94 0.6 710.99 0.6ZM750.39 0L728.74 0 728.74-35 750.39-35 750.39-31.55 732.94-31.55 732.94-19.35 748.89-19.35 748.89-15.95 732.94-15.95 732.94-3.45 750.39-3.45 750.39 0ZM772.28 0.6L772.28 0.6Q767.13 0.6 763.41-1.68 759.68-3.95 757.63-8.03 755.58-12.1 755.58-17.5L755.58-17.5Q755.58-22.85 757.63-26.93 759.68-31 763.41-33.3 767.13-35.6 772.28-35.6L772.28-35.6Q778.28-35.6 782.06-32.73 785.83-29.85 786.88-24.7L786.88-24.7 782.23-24.7Q781.43-27.95 778.96-29.93 776.48-31.9 772.28-31.9L772.28-31.9Q768.53-31.9 765.73-30.18 762.93-28.45 761.41-25.23 759.88-22 759.88-17.5L759.88-17.5Q759.88-13 761.41-9.78 762.93-6.55 765.73-4.83 768.53-3.1 772.28-3.1L772.28-3.1Q776.48-3.1 778.96-5.03 781.43-6.95 782.23-10.15L782.23-10.15 786.88-10.15Q785.83-5.1 782.06-2.25 778.28 0.6 772.28 0.6ZM805.58 0.6L805.58 0.6Q801.98 0.6 799.06-0.83 796.13-2.25 794.38-5.25 792.63-8.25 792.63-12.9L792.63-12.9 792.63-35 796.83-35 796.83-12.85Q796.83-7.75 799.28-5.45 801.73-3.15 805.68-3.15L805.68-3.15Q809.63-3.15 812.03-5.45 814.43-7.75 814.43-12.85L814.43-12.85 814.43-35 818.63-35 818.63-12.9Q818.63-8.25 816.88-5.25 815.13-2.25 812.18-0.83 809.23 0.6 805.58 0.6ZM829.93 0L825.73 0 825.73-35 837.03-35Q841.13-35 843.73-33.65 846.33-32.3 847.58-29.95 848.83-27.6 848.83-24.75L848.83-24.75Q848.83-21.45 847.05-18.8 845.28-16.15 841.53-15.05L841.53-15.05 849.18 0 844.23 0 837.13-14.45 836.83-14.45 829.93-14.45 829.93 0ZM829.93-31.45L829.93-17.75 836.73-17.75Q840.78-17.75 842.63-19.7 844.48-21.65 844.48-24.7L844.48-24.7Q844.48-27.8 842.65-29.63 840.83-31.45 836.68-31.45L836.68-31.45 829.93-31.45ZM859.58 0L855.38 0 855.38-35 859.58-35 859.58 0ZM879.37 0L875.17 0 875.17-31.55 864.72-31.55 864.72-35 889.82-35 889.82-31.55 879.37-31.55 879.37 0ZM907.87 0L903.67 0 903.67-13.3 892.27-35 897.02-35 905.77-17.3 914.52-35 919.22-35 907.87-13.3 907.87 0ZM958.82 0L937.17 0 937.17-35 958.82-35 958.82-31.55 941.37-31.55 941.37-19.35 957.32-19.35 957.32-15.95 941.37-15.95 941.37-3.45 958.82-3.45 958.82 0ZM969.56 0L965.36 0 965.36-35 969.56-35 988.21-6.95 988.21-35 992.41-35 992.41 0 988.21 0 969.56-28.05 969.56 0ZM1014.86 0.6L1014.86 0.6Q1009.96 0.6 1006.26-1.68 1002.56-3.95 1000.51-8.03 998.46-12.1 998.46-17.45L998.46-17.45Q998.46-22.8 1000.54-26.9 1002.61-31 1006.44-33.3 1010.26-35.6 1015.46-35.6L1015.46-35.6Q1021.36-35.6 1025.29-32.75 1029.21-29.9 1030.36-24.9L1030.36-24.9 1025.51-24.9Q1024.81-28.05 1022.19-29.9 1019.56-31.75 1015.46-31.75L1015.46-31.75Q1011.61-31.75 1008.76-30.03 1005.91-28.3 1004.34-25.1 1002.76-21.9 1002.76-17.45L1002.76-17.45Q1002.76-13 1004.31-9.8 1005.86-6.6 1008.61-4.88 1011.36-3.15 1015.01-3.15L1015.01-3.15Q1020.61-3.15 1023.46-6.43 1026.31-9.7 1026.71-15.4L1026.71-15.4 1016.61-15.4 1016.61-18.7 1031.01-18.7 1031.01 0 1027.16 0 1026.81-5.75Q1024.91-2.7 1022.16-1.05 1019.41 0.6 1014.86 0.6ZM1041.86 0L1037.66 0 1037.66-35 1041.86-35 1041.86 0ZM1053.46 0L1049.26 0 1049.26-35 1053.46-35 1072.11-6.95 1072.11-35 1076.31-35 1076.31 0 1072.11 0 1053.46-28.05 1053.46 0ZM1105.35 0L1083.7 0 1083.7-35 1105.35-35 1105.35-31.55 1087.9-31.55 1087.9-19.35 1103.85-19.35 1103.85-15.95 1087.9-15.95 1087.9-3.45 1105.35-3.45 1105.35 0ZM1133.55 0L1111.9 0 1111.9-35 1133.55-35 1133.55-31.55 1116.1-31.55 1116.1-19.35 1132.05-19.35 1132.05-15.95 1116.1-15.95 1116.1-3.45 1133.55-3.45 1133.55 0ZM1144.3 0L1140.1 0 1140.1-35 1151.4-35Q1155.5-35 1158.1-33.65 1160.7-32.3 1161.95-29.95 1163.2-27.6 1163.2-24.75L1163.2-24.75Q1163.2-21.45 1161.42-18.8 1159.65-16.15 1155.9-15.05L1155.9-15.05 1163.55 0 1158.6 0 1151.5-14.45 1151.2-14.45 1144.3-14.45 1144.3 0ZM1144.3-31.45L1144.3-17.75 1151.1-17.75Q1155.15-17.75 1157-19.7 1158.85-21.65 1158.85-24.7L1158.85-24.7Q1158.85-27.8 1157.02-29.63 1155.2-31.45 1151.05-31.45L1151.05-31.45 1144.3-31.45Z" opacity="1" transform="matrix(1,0,0,1,0,0)" fill="#ffffff" class="wordmark-text-0" data-fill-palette-color="primary" id="text-0"></path></svg></g></svg></g><g transform="matrix(1,0,0,1,3.5,18.31843436335924)"><svg viewBox="0 0 388.52 12.24478234841358" height="12.24478234841358" width="388.52"><g transform="matrix(1,0,0,1,0,0)"><svg width="388.52" viewBox="-0.3500000000000001 -40 1687.6999999999998 54" height="12.24478234841358" data-palette-color="#00cc66"><path d="M9.6-18.8L17.35-18.8Q19.55-18.8 20.93-19.48 22.3-20.15 23-21.43 23.7-22.7 23.7-24.45L23.7-24.45Q23.7-27.1 22.15-28.58 20.6-30.05 17.35-30.05L17.35-30.05 9.6-30.05 9.6-18.8ZM29.7-24.45L29.7-24.45Q29.7-22.55 29.05-20.7 28.4-18.85 26.95-17.28 25.5-15.7 23.13-14.78 20.75-13.85 17.35-13.85L17.35-13.85 9.6-13.85 9.6 0 3.65 0 3.65-35 17.35-35Q21.55-35 24.28-33.58 27-32.15 28.35-29.73 29.7-27.3 29.7-24.45ZM70.95 0L70.95-25 76.05-25 76.5-21.9Q77.5-23.15 78.85-23.98 80.2-24.8 81.77-25.1 83.35-25.4 84.95-25L84.95-25 84.95-19.8Q83.65-20.25 82.17-20.03 80.7-19.8 79.45-18.93 78.2-18.05 77.4-16.48 76.6-14.9 76.6-12.6L76.6-12.6 76.6 0 70.95 0ZM136.05 0.35L136.05 0.35Q132.45 0.35 129.6-1.23 126.75-2.8 125.15-5.68 123.55-8.55 123.55-12.45L123.55-12.45Q123.55-16.4 125.2-19.3 126.85-22.2 129.75-23.78 132.65-25.35 136.2-25.35L136.2-25.35Q139.8-25.35 142.67-23.78 145.55-22.2 147.25-19.33 148.95-16.45 148.95-12.55L148.95-12.55Q148.95-8.6 147.22-5.7 145.5-2.8 142.57-1.23 139.65 0.35 136.05 0.35ZM136-4.7L136-4.7Q137.75-4.7 139.32-5.55 140.9-6.4 141.9-8.13 142.9-9.85 142.9-12.55L142.9-12.55Q142.9-15.15 141.95-16.88 141-18.6 139.45-19.45 137.9-20.3 136.1-20.3L136.1-20.3Q134.35-20.3 132.87-19.45 131.4-18.6 130.5-16.88 129.6-15.15 129.6-12.45L129.6-12.45Q129.6-9.85 130.47-8.13 131.35-6.4 132.8-5.55 134.25-4.7 136-4.7ZM187.65-25L191.15-25 191.15-32 196.9-32 196.9-25 202.75-25 202.75-20.05 196.9-20.05 196.9-8.95Q196.9-6.7 197.75-5.83 198.6-4.95 199.97-4.88 201.35-4.8 202.75-5L202.75-5 202.75-0.2Q200.6 0.25 198.52 0.08 196.45-0.1 194.8-1.07 193.15-2.05 192.15-3.95 191.15-5.85 191.15-8.95L191.15-8.95 191.15-20.05 187.65-20.05 187.65-25ZM254.8 0.35L254.8 0.35Q251.05 0.35 248.22-1.3 245.4-2.95 243.82-5.9 242.25-8.85 242.25-12.7L242.25-12.7Q242.25-16.35 243.8-19.2 245.35-22.05 248.1-23.7 250.85-25.35 254.35-25.35L254.35-25.35Q257.9-25.35 260.6-23.8 263.3-22.25 264.82-19.48 266.35-16.7 266.35-13.05L266.35-13.05Q266.35-12.45 266.3-11.78 266.25-11.1 266.15-10.35L266.15-10.35 248.35-10.35Q248.6-8.6 249.47-7.33 250.35-6.05 251.7-5.35 253.05-4.65 254.8-4.65L254.8-4.65Q256.9-4.65 258.57-5.5 260.25-6.35 260.9-7.75L260.9-7.75 265.85-6.1Q264.35-3.1 261.4-1.38 258.45 0.35 254.8 0.35ZM248.45-14.95L260.2-14.95Q260.15-16.5 259.35-17.75 258.55-19 257.25-19.73 255.95-20.45 254.35-20.45L254.35-20.45Q252.95-20.45 251.7-19.75 250.45-19.05 249.57-17.82 248.7-16.6 248.45-14.95L248.45-14.95ZM318.5 0.35L318.5 0.35Q314.9 0.35 312.15-1.28 309.4-2.9 307.87-5.75 306.35-8.6 306.35-12.4L306.35-12.4Q306.35-16.25 307.9-19.15 309.45-22.05 312.22-23.7 315-25.35 318.65-25.35L318.65-25.35Q322.5-25.35 325.5-23.53 328.5-21.7 329.8-18.6L329.8-18.6 324.65-16.9Q324-18.45 322.42-19.38 320.85-20.3 318.85-20.3L318.85-20.3Q316.85-20.3 315.4-19.33 313.95-18.35 313.17-16.6 312.4-14.85 312.4-12.45L312.4-12.45Q312.4-8.85 314.15-6.78 315.9-4.7 318.95-4.7L318.95-4.7Q320.9-4.7 322.45-5.58 324-6.45 324.85-8.05L324.85-8.05 329.9-6.3Q328.45-3.25 325.37-1.45 322.3 0.35 318.5 0.35ZM368.6-25L372.1-25 372.1-32 377.85-32 377.85-25 383.7-25 383.7-20.05 377.85-20.05 377.85-8.95Q377.85-6.7 378.7-5.83 379.55-4.95 380.92-4.88 382.3-4.8 383.7-5L383.7-5 383.7-0.2Q381.55 0.25 379.47 0.08 377.4-0.1 375.75-1.07 374.1-2.05 373.1-3.95 372.1-5.85 372.1-8.95L372.1-8.95 372.1-20.05 368.6-20.05 368.6-25ZM425.35 0L425.35-25 431-25 431 0 425.35 0ZM428.2-28.8L428.2-28.8Q426.65-28.8 425.6-29.85 424.55-30.9 424.55-32.35L424.55-32.35Q424.55-33.9 425.6-34.95 426.65-36 428.2-36L428.2-36Q429.7-36 430.75-34.95 431.8-33.9 431.8-32.35L431.8-32.35Q431.8-30.9 430.75-29.85 429.7-28.8 428.2-28.8ZM474.45 0L474.45-25 479.55-25 479.95-22.55Q481.2-23.85 482.92-24.6 484.65-25.35 486.65-25.35L486.65-25.35Q489.6-25.35 491.72-24.13 493.85-22.9 495-20.53 496.15-18.15 496.15-14.6L496.15-14.6 496.15 0 490.5 0 490.5-13.85Q490.5-17 489.22-18.6 487.95-20.2 485.4-20.2L485.4-20.2Q482.8-20.2 481.45-18.57 480.1-16.95 480.1-13.8L480.1-13.8 480.1 0 474.45 0ZM556.3-21.9L556.7-25 561.8-25 561.8-3.75Q561.8 0.5 559.7 3.58 557.6 6.65 553.65 8.33 549.7 10 544.15 10L544.15 10 543.3 5.15Q549.6 5 552.87 2.75 556.15 0.5 556.15-3.7L556.15-3.7 556.15-3.75 556.8-3.75Q555.65-2.05 553.47-0.85 551.3 0.35 548.3 0.35L548.3 0.35Q545 0.35 542.45-1.25 539.9-2.85 538.47-5.75 537.05-8.65 537.05-12.5L537.05-12.5Q537.05-16.35 538.47-19.25 539.9-22.15 542.45-23.75 545-25.35 548.3-25.35L548.3-25.35Q550.15-25.35 551.67-24.88 553.2-24.4 554.37-23.63 555.55-22.85 556.3-21.9L556.3-21.9ZM543.1-12.5L543.1-12.5Q543.1-9.05 544.9-6.9 546.7-4.75 549.7-4.75L549.7-4.75Q551.45-4.75 552.9-5.68 554.35-6.6 555.25-8.35 556.15-10.1 556.15-12.5L556.15-12.5Q556.15-15 555.25-16.73 554.35-18.45 552.87-19.35 551.4-20.25 549.7-20.25L549.7-20.25Q546.7-20.25 544.9-18.13 543.1-16 543.1-12.5ZM668.3-18L677.7-35 684.35-35 671.25-12.6 671.25 0 665.35 0 665.35-12.55 652.3-35 658.9-35 668.3-18ZM731.7 0.35L731.7 0.35Q728.1 0.35 725.25-1.23 722.4-2.8 720.8-5.68 719.2-8.55 719.2-12.45L719.2-12.45Q719.2-16.4 720.85-19.3 722.5-22.2 725.4-23.78 728.3-25.35 731.85-25.35L731.85-25.35Q735.45-25.35 738.32-23.78 741.2-22.2 742.9-19.33 744.6-16.45 744.6-12.55L744.6-12.55Q744.6-8.6 742.87-5.7 741.15-2.8 738.22-1.23 735.3 0.35 731.7 0.35ZM731.65-4.7L731.65-4.7Q733.4-4.7 734.97-5.55 736.55-6.4 737.55-8.13 738.55-9.85 738.55-12.55L738.55-12.55Q738.55-15.15 737.6-16.88 736.65-18.6 735.1-19.45 733.55-20.3 731.75-20.3L731.75-20.3Q730-20.3 728.52-19.45 727.05-18.6 726.15-16.88 725.25-15.15 725.25-12.45L725.25-12.45Q725.25-9.85 726.12-8.13 727-6.4 728.45-5.55 729.9-4.7 731.65-4.7ZM807.3-25L807.3 0 802.1 0 801.75-2.5Q800.5-1.15 798.75-0.4 797 0.35 795.05 0.35L795.05 0.35Q792.1 0.35 789.97-0.88 787.85-2.1 786.7-4.48 785.55-6.85 785.55-10.35L785.55-10.35 785.55-25 791.2-25 791.2-11.1Q791.2-8 792.45-6.38 793.7-4.75 796.3-4.75L796.3-4.75Q798.8-4.75 800.22-6.38 801.65-8 801.65-11.2L801.65-11.2 801.65-25 807.3-25ZM849.9 0L849.9-25 855-25 855.45-21.9Q856.45-23.15 857.8-23.98 859.15-24.8 860.72-25.1 862.3-25.4 863.9-25L863.9-25 863.9-19.8Q862.6-20.25 861.12-20.03 859.65-19.8 858.4-18.93 857.15-18.05 856.35-16.48 855.55-14.9 855.55-12.6L855.55-12.6 855.55 0 849.9 0ZM954.65-35L967.15-35Q972.8-35 976.92-32.85 981.05-30.7 983.32-26.73 985.6-22.75 985.6-17.35L985.6-17.35Q985.6-12 983.32-8.1 981.05-4.2 976.92-2.1 972.8 0 967.15 0L967.15 0 954.65 0 954.65-35ZM960.6-4.95L967.15-4.95Q973.15-4.95 976.37-8.22 979.6-11.5 979.6-17.35L979.6-17.35Q979.6-23.25 976.37-26.65 973.15-30.05 967.15-30.05L967.15-30.05 960.6-30.05 960.6-4.95ZM1027.65 0L1027.65-25 1033.3-25 1033.3 0 1027.65 0ZM1030.5-28.8L1030.5-28.8Q1028.95-28.8 1027.9-29.85 1026.85-30.9 1026.85-32.35L1026.85-32.35Q1026.85-33.9 1027.9-34.95 1028.95-36 1030.5-36L1030.5-36Q1032-36 1033.05-34.95 1034.1-33.9 1034.1-32.35L1034.1-32.35Q1034.1-30.9 1033.05-29.85 1032-28.8 1030.5-28.8ZM1094.65-21.9L1095.05-25 1100.15-25 1100.15-3.75Q1100.15 0.5 1098.05 3.58 1095.95 6.65 1092 8.33 1088.05 10 1082.5 10L1082.5 10 1081.65 5.15Q1087.95 5 1091.22 2.75 1094.5 0.5 1094.5-3.7L1094.5-3.7 1094.5-3.75 1095.15-3.75Q1094-2.05 1091.82-0.85 1089.65 0.35 1086.65 0.35L1086.65 0.35Q1083.35 0.35 1080.8-1.25 1078.25-2.85 1076.82-5.75 1075.4-8.65 1075.4-12.5L1075.4-12.5Q1075.4-16.35 1076.82-19.25 1078.25-22.15 1080.8-23.75 1083.35-25.35 1086.65-25.35L1086.65-25.35Q1088.5-25.35 1090.02-24.88 1091.55-24.4 1092.72-23.63 1093.9-22.85 1094.65-21.9L1094.65-21.9ZM1081.45-12.5L1081.45-12.5Q1081.45-9.05 1083.25-6.9 1085.05-4.75 1088.05-4.75L1088.05-4.75Q1089.8-4.75 1091.25-5.68 1092.7-6.6 1093.6-8.35 1094.5-10.1 1094.5-12.5L1094.5-12.5Q1094.5-15 1093.6-16.73 1092.7-18.45 1091.22-19.35 1089.75-20.25 1088.05-20.25L1088.05-20.25Q1085.05-20.25 1083.25-18.13 1081.45-16 1081.45-12.5ZM1143.6 0L1143.6-25 1149.25-25 1149.25 0 1143.6 0ZM1146.45-28.8L1146.45-28.8Q1144.9-28.8 1143.85-29.85 1142.8-30.9 1142.8-32.35L1142.8-32.35Q1142.8-33.9 1143.85-34.95 1144.9-36 1146.45-36L1146.45-36Q1147.95-36 1149-34.95 1150.05-33.9 1150.05-32.35L1150.05-32.35Q1150.05-30.9 1149-29.85 1147.95-28.8 1146.45-28.8ZM1190.8-25L1194.3-25 1194.3-32 1200.05-32 1200.05-25 1205.9-25 1205.9-20.05 1200.05-20.05 1200.05-8.95Q1200.05-6.7 1200.9-5.83 1201.75-4.95 1203.12-4.88 1204.5-4.8 1205.9-5L1205.9-5 1205.9-0.2Q1203.75 0.25 1201.67 0.08 1199.6-0.1 1197.95-1.07 1196.3-2.05 1195.3-3.95 1194.3-5.85 1194.3-8.95L1194.3-8.95 1194.3-20.05 1190.8-20.05 1190.8-25ZM1266.85 0L1261.65 0 1261.15-3.05Q1259.95-1.45 1258.3-0.6 1256.65 0.25 1253.9 0.25L1253.9 0.25Q1251.3 0.25 1249.4-0.63 1247.5-1.5 1246.47-3.08 1245.45-4.65 1245.45-6.75L1245.45-6.75Q1245.45-9.9 1247.77-12.03 1250.1-14.15 1254.6-14.65L1254.6-14.65 1261.15-15.35 1261.15-17.3Q1261.15-18.5 1260.1-19.48 1259.05-20.45 1256.75-20.45L1256.75-20.45Q1254.75-20.45 1253.27-19.48 1251.8-18.5 1251.3-16.55L1251.3-16.55 1246.4-18.35Q1247.35-21.65 1250.17-23.5 1253-25.35 1257.05-25.35L1257.05-25.35Q1261.95-25.35 1264.4-22.9 1266.85-20.45 1266.85-16.65L1266.85-16.65 1266.85 0ZM1261.15-10.65L1261.15-11 1255.15-10.25Q1253.25-10 1252.3-9.18 1251.35-8.35 1251.35-7.1L1251.35-7.1Q1251.35-5.95 1252.27-5.13 1253.2-4.3 1254.8-4.3L1254.8-4.3Q1256.85-4.3 1258.27-5.05 1259.7-5.8 1260.42-7.2 1261.15-8.6 1261.15-10.65L1261.15-10.65ZM1309.1 0L1309.1-36 1314.75-36 1314.75 0 1309.1 0ZM1429.35-26.15L1421.95 0 1415.25 0 1405.2-35 1411.6-35 1418.6-6.8 1426.05-35 1432.7-35 1440.05-6.9 1447.15-35 1453.45-35 1443.5 0 1436.7 0 1429.35-26.15ZM1503.05 0.35L1503.05 0.35Q1499.45 0.35 1496.6-1.23 1493.75-2.8 1492.15-5.68 1490.55-8.55 1490.55-12.45L1490.55-12.45Q1490.55-16.4 1492.2-19.3 1493.85-22.2 1496.75-23.78 1499.65-25.35 1503.2-25.35L1503.2-25.35Q1506.8-25.35 1509.67-23.78 1512.55-22.2 1514.25-19.33 1515.95-16.45 1515.95-12.55L1515.95-12.55Q1515.95-8.6 1514.22-5.7 1512.5-2.8 1509.57-1.23 1506.65 0.35 1503.05 0.35ZM1503-4.7L1503-4.7Q1504.75-4.7 1506.32-5.55 1507.9-6.4 1508.9-8.13 1509.9-9.85 1509.9-12.55L1509.9-12.55Q1509.9-15.15 1508.95-16.88 1508-18.6 1506.45-19.45 1504.9-20.3 1503.1-20.3L1503.1-20.3Q1501.35-20.3 1499.87-19.45 1498.4-18.6 1497.5-16.88 1496.6-15.15 1496.6-12.45L1496.6-12.45Q1496.6-9.85 1497.47-8.13 1498.35-6.4 1499.8-5.55 1501.25-4.7 1503-4.7ZM1557.25 0L1557.25-25 1562.35-25 1562.8-21.9Q1563.8-23.15 1565.15-23.98 1566.5-24.8 1568.07-25.1 1569.65-25.4 1571.25-25L1571.25-25 1571.25-19.8Q1569.95-20.25 1568.47-20.03 1567-19.8 1565.75-18.93 1564.5-18.05 1563.7-16.48 1562.9-14.9 1562.9-12.6L1562.9-12.6 1562.9 0 1557.25 0ZM1611.7 0L1611.7-36 1617.35-36 1617.35 0 1611.7 0ZM1678.35-21.3L1678.35-21.3 1677.7-21.15 1677.7-36 1683.35-36 1683.35 0 1678.25 0 1677.85-3.1Q1676.55-1.65 1674.55-0.65 1672.55 0.35 1669.8 0.35L1669.8 0.35Q1666.45 0.35 1663.92-1.25 1661.4-2.85 1660-5.75 1658.6-8.65 1658.6-12.5L1658.6-12.5Q1658.6-16.35 1660-19.25 1661.4-22.15 1663.92-23.75 1666.45-25.35 1669.8-25.35L1669.8-25.35Q1672.75-25.35 1674.95-24.18 1677.15-23 1678.35-21.3ZM1664.65-12.5L1664.65-12.5Q1664.65-9.05 1666.45-6.9 1668.25-4.75 1671.15-4.75L1671.15-4.75Q1672.9-4.75 1674.37-5.65 1675.85-6.55 1676.77-8.28 1677.7-10 1677.7-12.5L1677.7-12.5Q1677.7-15 1676.77-16.73 1675.85-18.45 1674.37-19.35 1672.9-20.25 1671.15-20.25L1671.15-20.25Q1668.25-20.25 1666.45-18.1 1664.65-15.95 1664.65-12.5Z" opacity="1" transform="matrix(1,0,0,1,0,0)" fill="#00cc66" class="slogan-text-1" data-fill-palette-color="secondary" id="text-1"></path></svg></g></svg></g></svg></g></svg></g><g><svg viewBox="0 0 57.36249049940858 52.80957089193803" height="52.80957089193803" width="57.36249049940858"><g><svg xmlns="http://www.w3.org/2000/svg" xmlns:xlink="http://www.w3.org/1999/xlink" version="1.1" x="0" y="0" viewBox="9.398 12.34 80.1930005690853 73.828" enable-background="new 0 0 100 100" xml:space="preserve" height="52.80957089193803" width="57.36249049940858" class="icon-icon-0" data-fill-palette-color="accent" id="icon-0"><g fill="#00cc66" data-fill-palette-color="accent"><path d="M55.894 49.046V51.038C55.894 53.547 57.036 54.713 59.222 54.713H61.979C64.585 54.713 66.358 56.832 66.358 59.088V61.406C66.358 63.915 65.221 65.427 62.563 65.427H59.367C56.571 65.427 55.114 64.149 55.114 61.538V59.38C55.114 57.321 53.635 55.97 51.833 55.97H47.074C44.694 55.97 44.115 57.578 44.115 59.38V63.629C44.115 65.881 45.466 66.653 47.203 66.653H50.134C53.444 66.653 55.034 68.105 55.034 70.423V72.024C55.034 74.658 56.532 75.656 58.915 75.656H63.83C66.263 75.656 67.452 74.372 67.452 72.177V70.381C67.452 67.358 69.128 66.393 72.345 66.393H75.729C77.595 66.393 78.454 65.235 78.454 63.691V57.451C78.454 55.393 77.296 54.428 75.045 54.428H70.991C68.572 54.428 66.403 52.599 66.403 49.218V47.226C66.403 44.717 65.261 43.551 63.074 43.551H60.317C57.711 43.551 55.938 41.433 55.938 39.177V36.859C55.938 34.35 57.076 32.838 59.734 32.838H62.929C65.725 32.838 67.183 34.116 67.183 36.727V38.885C67.183 40.944 68.662 42.294 70.464 42.294H75.222C77.602 42.294 78.181 40.686 78.181 38.885V34.636C78.181 32.385 76.83 31.613 75.093 31.613H72.162C68.852 31.613 67.262 30.161 67.262 27.843V26.327C67.262 23.694 65.837 22.61 63.454 22.61H58.466C56.033 22.61 54.844 23.894 54.844 26.09V27.885C54.844 30.908 53.168 31.873 49.951 31.873H46.566C44.701 31.873 43.842 33.031 43.842 34.575V40.815C43.842 42.874 44.999 43.839 47.252 43.839H51.304C53.725 43.836 55.894 45.665 55.894 49.046" fill="#00cc66" data-fill-palette-color="accent"></path><path d="M86.07 54.482A3.52 3.52 0 0 0 89.591 50.961V48.273A3.52 3.52 0 0 0 86.07 44.751H83.382A3.52 3.52 0 0 0 79.861 48.273V50.961A3.52 3.52 0 0 0 83.382 54.482z" fill="#00cc66" data-fill-palette-color="accent"></path><path d="M36.547 31.871H39.555C41.806 31.871 42.964 30.906 42.964 28.848V26.874C43.077 23.68 45.188 22.216 47.542 22.216H50.55C52.803 22.216 53.96 21.251 53.96 19.193V15.042C53.96 13.498 53.102 12.34 51.236 12.34H45.541C43.695 12.34 42.91 13.195 42.91 15.122V17.556C42.91 19.751 41.229 21.809 38.739 21.92H34.545C32.7 21.92 31.914 22.775 31.914 24.702V27.21C31.914 29.466 30.143 31.585 27.535 31.585H24.778C22.59 31.585 21.449 32.75 21.449 35.259V38.33C21.449 41.711 19.281 43.54 16.861 43.54H12.807C10.556 43.54 9.398 44.505 9.398 46.563V53.329C9.398 55.388 10.556 56.352 12.807 56.352H16.861C19.281 56.352 21.449 57.401 21.449 60.783V63.195C21.449 65.704 22.591 66.869 24.778 66.869H27.535C30.142 66.869 31.914 68.988 31.914 71.244V73.783C31.914 75.71 32.7 76.565 34.545 76.565H38.758L38.737 76.589C41.228 76.699 42.908 78.758 42.908 80.953V83.386C42.908 85.313 43.693 86.168 45.539 86.168H51.233C53.099 86.168 53.958 85.01 53.958 83.466V79.315C53.958 77.256 52.8 76.291 50.549 76.291H47.54C45.192 76.291 43.087 74.834 42.964 71.658V69.605C42.964 67.546 41.806 66.582 39.555 66.582H36.547C34.126 66.582 31.957 64.754 31.957 61.373V59.74C31.957 57.231 33.1 56.066 35.287 56.066H38.043C40.65 56.066 42.423 53.947 42.423 51.691V48.2C42.423 45.944 40.651 43.825 38.043 43.825H35.287C33.099 43.825 31.957 42.659 31.957 40.151V36.791C31.957 33.411 34.126 31.871 36.547 31.871" fill="#00cc66" data-fill-palette-color="accent"></path></g></svg></g></svg></g></svg></g><defs></defs></svg><rect width="395.52" height="45.630159351938715" fill="none" stroke="none" visibility="hidden"></rect></g></svg></g></svg>