<svg xmlns="http://www.w3.org/2000/svg" version="1.1" xmlns:xlink="http://www.w3.org/1999/xlink" xmlns:svgjs="http://svgjs.dev/svgjs" width="2000" height="186" viewBox="0 0 2000 186"><g transform="matrix(1,0,0,1,-1.2121212121212466,-1.8928179495798645)"><svg viewBox="0 0 396 37" data-background-color="#121212" preserveAspectRatio="xMidYMid meet" height="186" width="2000" xmlns="http://www.w3.org/2000/svg" xmlns:xlink="http://www.w3.org/1999/xlink"><g id="tight-bounds" transform="matrix(1,0,0,1,0.2400000000000091,0.376528301798146)"><svg viewBox="0 0 395.52 36.246943396403694" height="36.246943396403694" width="395.52"><g><svg viewBox="0 0 438.55888280457054 40.191188817271716" height="36.246943396403694" width="395.52"><g transform="matrix(1,0,0,1,43.03888280457058,12.8251188628197)"><svg viewBox="0 0 395.52 14.540951091632314" height="14.540951091632314" width="395.52"><g id="textblocktransform"><svg viewBox="0 0 395.52 14.540951091632314" height="14.540951091632314" width="395.52" id="textblock"><g><svg viewBox="0 0 395.52 14.540951091632314" height="14.540951091632314" width="395.52"><g transform="matrix(1,0,0,1,0,0)"><svg width="395.52" viewBox="-1.907776955538 -37.5 1116.1177769555381 42" height="14.540951091632314" data-palette-color="#ffffff"><path d="M19.25-33L23.25-33 23.25-11.3Q23.25-5.75 20.28-2.63 17.3 0.5 12.05 0.5L12.05 0.5Q8.35 0.5 5.95-0.9 3.55-2.3 2.63-4.88 1.7-7.45 2.35-10.9L2.35-10.9 6.05-11.65Q5.5-7.4 6.83-5.33 8.15-3.25 11.9-3.25L11.9-3.25Q16.15-3.25 17.7-5.58 19.25-7.9 19.25-12.3L19.25-12.3 19.25-33ZM47-33.5L47-33.5Q51.7-33.5 55.12-31.43 58.55-29.35 60.42-25.55 62.3-21.75 62.3-16.5L62.3-16.5Q62.3-11.25 60.42-7.45 58.55-3.65 55.12-1.58 51.7 0.5 47 0.5L47 0.5Q42.3 0.5 38.87-1.58 35.45-3.65 33.57-7.45 31.7-11.25 31.7-16.5L31.7-16.5Q31.7-21.75 33.57-25.55 35.45-29.35 38.87-31.43 42.3-33.5 47-33.5ZM47-29.75L47-29.75Q43.6-29.75 41.1-28.18 38.6-26.6 37.25-23.63 35.9-20.65 35.9-16.5L35.9-16.5Q35.9-12.35 37.25-9.38 38.6-6.4 41.1-4.83 43.6-3.25 47-3.25L47-3.25Q50.45-3.25 52.92-4.83 55.4-6.4 56.75-9.38 58.1-12.35 58.1-16.5L58.1-16.5Q58.1-20.65 56.75-23.63 55.4-26.6 52.92-28.18 50.45-29.75 47-29.75ZM94.99 0L71.09 0 71.09-33 94.24-33 94.24-29.25 75.09-29.25 75.09-18.6 89.99-18.6 89.99-14.85 75.09-14.85 75.09-3.75 94.99-3.75 94.99 0ZM145.79-33L151.94-33 151.94 0 148.14 0 148.14-20.75 148.59-29.45 148.54-29.45 137.69 0 134.29 0 123.44-29.45 123.39-29.45 123.84-20.75 123.84 0 120.04 0 120.04-33 126.19-33 133.44-12.95 135.94-4.7 136.04-4.7 138.59-12.9 145.79-33ZM186.64 0L162.74 0 162.74-33 185.89-33 185.89-29.25 166.74-29.25 166.74-18.6 181.64-18.6 181.64-14.85 166.74-14.85 166.74-3.75 186.64-3.75 186.64 0ZM216.74-33L220.54-33 220.54 0 215.59 0 201.79-22.1 198.29-28.3 198.24-28.3 198.44-23.3 198.44 0 194.64 0 194.64-33 199.59-33 213.34-11 216.89-4.65 216.94-4.65 216.74-9.7 216.74-33ZM231.33-33L241.98-33Q249.73-33 254.16-28.73 258.58-24.45 258.58-16.5L258.58-16.5Q258.58-8.55 254.16-4.28 249.73 0 241.98 0L241.98 0 231.33 0 231.33-33ZM235.33-3.75L242.38-3.75Q248.03-3.75 251.21-7.13 254.38-10.5 254.38-16.5L254.38-16.5Q254.38-22.5 251.21-25.88 248.03-29.25 242.38-29.25L242.38-29.25 235.33-29.25 235.33-3.75ZM291.28 0L267.38 0 267.38-33 290.53-33 290.53-29.25 271.38-29.25 271.38-18.6 286.28-18.6 286.28-14.85 271.38-14.85 271.38-3.75 291.28-3.75 291.28 0ZM321.98-29.45L300.28-2.3 299.58-3.75 322.63-3.75 322.63 0 296.68 0 296.68-3.55 318.38-30.7 319.08-29.25 297.18-29.25 297.18-33 321.98-33 321.98-29.45ZM329.88-15.15L346.38-15.15 346.38-11 329.88-11 329.88-15.15ZM378.17-33L382.17-33 382.17 0 378.17 0 378.17-33ZM356.27-33L360.27-33 360.27 0 356.27 0 356.27-33ZM358.37-18.6L380.02-18.6 380.02-14.85 358.37-14.85 358.37-18.6ZM414.22-33L418.22-33 418.22-12.3Q418.22-5.95 414.87-2.73 411.52 0.5 405.27 0.5L405.27 0.5Q399.07 0.5 395.69-2.73 392.32-5.95 392.32-12.3L392.32-12.3 392.32-33 396.32-33 396.32-13.3Q396.32-8.15 398.5-5.7 400.67-3.25 405.27-3.25L405.27-3.25Q409.87-3.25 412.05-5.7 414.22-8.15 414.22-13.3L414.22-13.3 414.22-33ZM441.67 0.5L441.67 0.5Q436.97 0.5 433.54-1.58 430.12-3.65 428.24-7.45 426.37-11.25 426.37-16.5L426.37-16.5Q426.37-21.75 428.34-25.55 430.32-29.35 433.87-31.43 437.42-33.5 442.02-33.5L442.02-33.5Q446.92-33.5 449.99-31.65 453.07-29.8 454.97-25.95L454.97-25.95 451.32-23.95Q450.22-26.8 447.84-28.28 445.47-29.75 442.02-29.75L442.02-29.75Q438.67-29.75 436.09-28.18 433.52-26.6 432.04-23.63 430.57-20.65 430.57-16.5L430.57-16.5Q430.57-12.35 431.84-9.38 433.12-6.4 435.64-4.83 438.17-3.25 441.82-3.25L441.82-3.25Q443.87-3.25 445.64-3.78 447.42-4.3 448.74-5.35 450.07-6.4 450.82-8 451.57-9.6 451.57-11.75L451.57-11.75 451.57-12.9 441.07-12.9 441.07-16.65 455.22-16.65 455.22 0 452.07 0 451.87-6.15 452.72-6Q451.42-2.9 448.62-1.2 445.82 0.5 441.67 0.5ZM486.46-33L490.46-33 490.46 0 486.46 0 486.46-33ZM464.56-33L468.56-33 468.56 0 464.56 0 464.56-33ZM466.66-18.6L488.31-18.6 488.31-14.85 466.66-14.85 466.66-18.6ZM525.16 0L501.26 0 501.26-33 524.41-33 524.41-29.25 505.26-29.25 505.26-18.6 520.16-18.6 520.16-14.85 505.26-14.85 505.26-3.75 525.16-3.75 525.16 0ZM543.76-33.5L543.76-33.5Q548.11-33.5 551.26-31.73 554.41-29.95 556.51-26.5L556.51-26.5 553.16-23.9Q551.31-27.1 548.98-28.43 546.66-29.75 543.36-29.75L543.36-29.75Q540.71-29.75 538.98-29 537.26-28.25 536.46-27.03 535.66-25.8 535.66-24.25L535.66-24.25Q535.66-22.5 536.76-21.18 537.86-19.85 541.16-19.1L541.16-19.1 548.31-17.5Q553.06-16.45 554.93-14.33 556.81-12.2 556.81-9.05L556.81-9.05Q556.81-6.25 555.23-4.08 553.66-1.9 550.81-0.7 547.96 0.5 544.11 0.5L544.11 0.5Q540.51 0.5 537.78-0.48 535.06-1.45 533.11-3.1 531.16-4.75 529.91-6.8L529.91-6.8 533.41-9.65Q534.36-7.75 535.86-6.3 537.36-4.85 539.48-4.05 541.61-3.25 544.36-3.25L544.36-3.25Q546.91-3.25 548.78-3.88 550.66-4.5 551.66-5.73 552.66-6.95 552.66-8.7L552.66-8.7Q552.66-10.3 551.61-11.58 550.56-12.85 547.66-13.5L547.66-13.5 539.91-15.25Q536.86-15.95 534.98-17.18 533.11-18.4 532.28-20.08 531.46-21.75 531.46-23.7L531.46-23.7Q531.46-26.35 532.93-28.58 534.41-30.8 537.18-32.15 539.96-33.5 543.76-33.5ZM567.21-25.5L567.21-25.5Q568.66-25.5 569.56-24.6 570.46-23.7 570.46-22.25L570.46-22.25Q570.46-20.8 569.56-19.9 568.66-19 567.21-19L567.21-19Q565.76-19 564.86-19.9 563.96-20.8 563.96-22.25L563.96-22.25Q563.96-23.7 564.86-24.6 565.76-25.5 567.21-25.5ZM567.21-6L567.21-6Q568.66-6 569.56-5.1 570.46-4.2 570.46-2.75L570.46-2.75Q570.46-1.3 569.56-0.4 568.66 0.5 567.21 0.5L567.21 0.5Q565.76 0.5 564.86-0.4 563.96-1.3 563.96-2.75L563.96-2.75Q563.96-4.2 564.86-5.1 565.76-6 567.21-6ZM580-33L591.65-33Q595-33 597.48-31.78 599.95-30.55 601.35-28.3 602.75-26.05 602.75-22.95L602.75-22.95Q602.75-19.85 601.35-17.6 599.95-15.35 597.48-14.13 595-12.9 591.65-12.9L591.65-12.9 584-12.9 584 0 580 0 580-33ZM584-16.65L591.05-16.65Q594.95-16.65 596.75-18.28 598.55-19.9 598.55-22.95L598.55-22.95Q598.55-26.05 596.75-27.65 594.95-29.25 591.05-29.25L591.05-29.25 584-29.25 584-16.65ZM614.5-33L614.5-3.75 633.4-3.75 633.4 0 610.5 0 610.5-33 614.5-33ZM640.5 0L636.3 0 649.15-33 653.9-33 666.7 0 662.45 0 653.05-24.6 651.5-29.2 651.4-29.2 649.95-24.75 640.5 0ZM660.25-9.15L642.6-9.15 642.6-12.9 660.25-12.9 660.25-9.15ZM669.6-33L696.6-33 696.6-29.25 685.1-29.25 685.1 0 681.1 0 681.1-29.25 669.6-29.25 669.6-33ZM726.69-33L726.69-29.25 707.59-29.25 707.59-18.6 722.49-18.6 722.49-14.85 707.59-14.85 707.59 0 703.59 0 703.59-33 726.69-33ZM747.39-33.5L747.39-33.5Q752.09-33.5 755.52-31.43 758.94-29.35 760.82-25.55 762.69-21.75 762.69-16.5L762.69-16.5Q762.69-11.25 760.82-7.45 758.94-3.65 755.52-1.58 752.09 0.5 747.39 0.5L747.39 0.5Q742.69 0.5 739.27-1.58 735.84-3.65 733.97-7.45 732.09-11.25 732.09-16.5L732.09-16.5Q732.09-21.75 733.97-25.55 735.84-29.35 739.27-31.43 742.69-33.5 747.39-33.5ZM747.39-29.75L747.39-29.75Q743.99-29.75 741.49-28.18 738.99-26.6 737.64-23.63 736.29-20.65 736.29-16.5L736.29-16.5Q736.29-12.35 737.64-9.38 738.99-6.4 741.49-4.83 743.99-3.25 747.39-3.25L747.39-3.25Q750.84-3.25 753.32-4.83 755.79-6.4 757.14-9.38 758.49-12.35 758.49-16.5L758.49-16.5Q758.49-20.65 757.14-23.63 755.79-26.6 753.32-28.18 750.84-29.75 747.39-29.75ZM771.49-33L783.99-33Q789.04-33 792.09-30.4 795.14-27.8 795.14-23.35L795.14-23.35Q795.14-18.9 792.06-16.43 788.99-13.95 783.94-13.95L783.94-13.95 783.59-13.7 775.49-13.7 775.49 0 771.49 0 771.49-33ZM775.49-17.45L783.94-17.45Q787.49-17.45 789.21-18.93 790.94-20.4 790.94-23.35L790.94-23.35Q790.94-26.3 789.21-27.78 787.49-29.25 783.94-29.25L783.94-29.25 775.49-29.25 775.49-17.45ZM782.89-14.45L786.24-16.65 797.14 0 792.39 0 782.89-14.45ZM830.49-33L836.64-33 836.64 0 832.84 0 832.84-20.75 833.29-29.45 833.24-29.45 822.39 0 818.99 0 808.14-29.45 808.09-29.45 808.54-20.75 808.54 0 804.74 0 804.74-33 810.89-33 818.14-12.95 820.64-4.7 820.74-4.7 823.29-12.9 830.49-33ZM888.38 0L864.48 0 864.48-33 887.63-33 887.63-29.25 868.48-29.25 868.48-18.6 883.38-18.6 883.38-14.85 868.48-14.85 868.48-3.75 888.38-3.75 888.38 0ZM918.48-33L922.28-33 922.28 0 917.33 0 903.53-22.1 900.03-28.3 899.98-28.3 900.18-23.3 900.18 0 896.38 0 896.38-33 901.33-33 915.08-11 918.63-4.65 918.68-4.65 918.48-9.7 918.48-33ZM946.38 0.5L946.38 0.5Q941.68 0.5 938.25-1.58 934.83-3.65 932.95-7.45 931.08-11.25 931.08-16.5L931.08-16.5Q931.08-21.75 933.05-25.55 935.03-29.35 938.58-31.43 942.13-33.5 946.73-33.5L946.73-33.5Q951.63-33.5 954.7-31.65 957.78-29.8 959.68-25.95L959.68-25.95 956.03-23.95Q954.93-26.8 952.55-28.28 950.18-29.75 946.73-29.75L946.73-29.75Q943.38-29.75 940.8-28.18 938.23-26.6 936.75-23.63 935.28-20.65 935.28-16.5L935.28-16.5Q935.28-12.35 936.55-9.38 937.83-6.4 940.35-4.83 942.88-3.25 946.53-3.25L946.53-3.25Q948.58-3.25 950.35-3.78 952.13-4.3 953.45-5.35 954.78-6.4 955.53-8 956.28-9.6 956.28-11.75L956.28-11.75 956.28-12.9 945.78-12.9 945.78-16.65 959.93-16.65 959.93 0 956.78 0 956.58-6.15 957.43-6Q956.13-2.9 953.33-1.2 950.53 0.5 946.38 0.5ZM969.27-33L973.27-33 973.27 0 969.27 0 969.27-33ZM1006.17-33L1009.97-33 1009.97 0 1005.02 0 991.22-22.1 987.72-28.3 987.67-28.3 987.87-23.3 987.87 0 984.07 0 984.07-33 989.02-33 1002.77-11 1006.32-4.65 1006.37-4.65 1006.17-9.7 1006.17-33ZM1044.67 0L1020.77 0 1020.77-33 1043.92-33 1043.92-29.25 1024.77-29.25 1024.77-18.6 1039.67-18.6 1039.67-14.85 1024.77-14.85 1024.77-3.75 1044.67-3.75 1044.67 0ZM1076.57 0L1052.67 0 1052.67-33 1075.82-33 1075.82-29.25 1056.67-29.25 1056.67-18.6 1071.57-18.6 1071.57-14.85 1056.67-14.85 1056.67-3.75 1076.57-3.75 1076.57 0ZM1084.56-33L1097.06-33Q1102.11-33 1105.16-30.4 1108.21-27.8 1108.21-23.35L1108.21-23.35Q1108.21-18.9 1105.14-16.43 1102.06-13.95 1097.01-13.95L1097.01-13.95 1096.66-13.7 1088.56-13.7 1088.56 0 1084.56 0 1084.56-33ZM1088.56-17.45L1097.01-17.45Q1100.56-17.45 1102.29-18.93 1104.01-20.4 1104.01-23.35L1104.01-23.35Q1104.01-26.3 1102.29-27.78 1100.56-29.25 1097.01-29.25L1097.01-29.25 1088.56-29.25 1088.56-17.45ZM1095.96-14.45L1099.31-16.65 1110.21 0 1105.46 0 1095.96-14.45Z" opacity="1" transform="matrix(1,0,0,1,0,0)" fill="#ffffff" class="wordmark-text-0" data-fill-palette-color="primary" id="text-0"></path></svg></g></svg></g></svg></g></svg></g><g><svg viewBox="0 0 40.1921958441589 40.191188817271716" height="40.191188817271716" width="40.1921958441589"><g><svg xmlns="http://www.w3.org/2000/svg" xmlns:xlink="http://www.w3.org/1999/xlink" version="1.1" x="0" y="0" viewBox="7.279893330341158 7.28 85.44214077711491 85.44" enable-background="new 0 0 100 100" xml:space="preserve" height="40.191188817271716" width="40.1921958441589" class="icon-icon-0" data-fill-palette-color="accent" id="icon-0"><path d="M91.24 67.483L74.39 58.951 90.34 50.705C90.848 50.441 90.848 50.017 90.337 49.76L72.349 40.653 91.261 30.875C92.18 30.398 92.725 29.552 92.72 28.611 92.714 27.672 92.159 26.834 91.24 26.37L54.356 7.698C53.673 7.353 52.96 7.28 52.481 7.28 52.041 7.28 51.383 7.342 50.746 7.64L8.818 27.269C7.864 27.716 7.289 28.552 7.28 29.504 7.271 30.457 7.832 31.304 8.779 31.77L28.918 41.673 9.667 50.685C9.153 50.926 9.151 51.328 9.662 51.579L26.756 59.985 8.818 68.381C7.863 68.828 7.288 69.664 7.28 70.616 7.272 71.569 7.833 72.416 8.779 72.88L48.333 92.332C48.984 92.653 49.66 92.72 50.112 92.72 50.588 92.72 51.298 92.647 51.984 92.295L91.263 71.987C92.182 71.51 92.727 70.664 92.722 69.723 92.714 68.785 92.16 67.946 91.24 67.483M52.375 11.289A1 1 0 0 1 52.481 11.28C52.542 11.28 52.587 11.288 52.563 11.274L86.872 28.642 50.215 47.6C50.205 47.602 50.167 47.61 50.112 47.61L50.098 47.631 13.353 29.562zM50.22 88.71A0.5 0.5 0 0 1 50.111 88.72L50.099 88.743 13.355 70.673 30.73 62.539 48.331 71.194C48.983 71.515 49.659 71.583 50.111 71.583 50.588 71.583 51.299 71.509 51.981 71.157L70.615 61.524 86.87 69.754z" fill="#00add8" data-fill-palette-color="accent"></path></svg></g></svg></g></svg></g><defs></defs></svg><rect width="395.52" height="36.246943396403694" fill="none" stroke="none" visibility="hidden"></rect></g></svg></g></svg>