<svg xmlns="http://www.w3.org/2000/svg" version="1.1" xmlns:xlink="http://www.w3.org/1999/xlink" xmlns:svgjs="http://svgjs.dev/svgjs" width="2000" height="878" viewBox="0 0 2000 878"><g transform="matrix(1,0,0,1,-1.2121212121212466,-2.0812971175269013)"><svg viewBox="0 0 396 174" data-background-color="#121212" preserveAspectRatio="xMidYMid meet" height="878" width="2000" xmlns="http://www.w3.org/2000/svg" xmlns:xlink="http://www.w3.org/1999/xlink"><g id="tight-bounds" transform="matrix(1,0,0,1,0.2400000000000091,0.4124666269358528)"><svg viewBox="0 0 395.52 173.1750667461283" height="173.1750667461283" width="395.52"><g><svg viewBox="0 0 627.7526338515606 274.8561495431378" height="173.1750667461283" width="395.52"><g transform="matrix(1,0,0,1,232.23263385156068,56.74275685249377)"><svg viewBox="0 0 395.52 161.37063583815026" height="161.37063583815026" width="395.52"><g id="textblocktransform"><svg viewBox="0 0 395.52 161.37063583815026" height="161.37063583815026" width="395.52" id="textblock"><g><svg viewBox="0 0 395.52 161.37063583815026" height="161.37063583815026" width="395.52"><g transform="matrix(1,0,0,1,0,0)"><svg width="395.52" viewBox="-1.2000000000000002 -39 104.79 43.35" height="161.37063583815026" data-palette-color="#ffffff"><path d="M17.35-9.15L17.35-35 21.35-35 21.35-9.15Q21.35-6.4 20.15-4.25 18.95-2.1 16.82-0.88 14.7 0.35 11.85 0.35L11.85 0.35Q8.25 0.35 5.95-1.48 3.65-3.3 2.8-6.5L2.8-6.5 6.25-7.75Q6.6-6.45 7.28-5.4 7.95-4.35 9.08-3.75 10.2-3.15 11.85-3.15L11.85-3.15Q13.8-3.15 15-4.05 16.2-4.95 16.78-6.33 17.35-7.7 17.35-9.15L17.35-9.15ZM33.65-27.1L33.65 0 29.65 0 29.65-35 34.05-35 47.05-5.5 60-35 64.35-35 64.35 0 60.35 0 60.35-27.1 48.45 0 45.6 0 33.65-27.1ZM72.84 0L72.84-35 76.84-35 76.84-19.55 95.59-19.55 95.59-35 99.59-35 99.59 0 95.59 0 95.59-16.05 76.84-16.05 76.84 0 72.84 0Z" opacity="1" transform="matrix(1,0,0,1,0,0)" fill="#ffffff" class="wordmark-text-0" data-fill-palette-color="primary" id="text-0"></path></svg></g></svg></g></svg></g></svg></g><g><svg viewBox="0 0 200.4337152 274.8561495431378" height="274.8561495431378" width="200.4337152"><g><svg xmlns="http://www.w3.org/2000/svg" xmlns:xlink="http://www.w3.org/1999/xlink" version="1.1" x="0" y="0" viewBox="12.929 1.021 64.14099999999999 87.957" enable-background="new 0 0 90 90" xml:space="preserve" height="274.8561495431378" width="200.4337152" class="icon-icon-0" data-fill-palette-color="accent" id="icon-0"><polygon points="42.225,52.752 46.708,49.581 46.708,38.363 42.225,41.534 " fill="#00cc66" data-fill-palette-color="accent"></polygon><polygon points="51.191,20.688 42.225,27.029 42.225,38.248 51.191,31.907 " fill="#00cc66" data-fill-palette-color="accent"></polygon><polygon points="56.829,31.207 47.861,37.548 47.861,48.768 56.829,42.425 " fill="#00cc66" data-fill-palette-color="accent"></polygon><path d="M51.191 49.698L42.224 56.038V59.048C42.804 59.902 43.4 60.836 44.003 61.868A34 34 0 0 1 45.574 64.889L51.191 60.916z" fill="#00cc66" data-fill-palette-color="accent"></path><polygon points="57.98,41.61 66.95,35.27 66.95,24.052 57.98,30.393 " fill="#00cc66" data-fill-palette-color="accent"></polygon><polygon points="76.409,1.021 63.177,1.021 28.22,24.912 41.452,24.912 " fill="#00cc66" data-fill-palette-color="accent"></polygon><path d="M46.708 67.738V67.372L46.605 67.443C46.641 67.542 46.676 67.641 46.708 67.738" fill="#00cc66" data-fill-palette-color="accent"></path><polygon points="62.466,52.943 71.436,46.604 71.436,35.386 62.466,41.727 " fill="#00cc66" data-fill-palette-color="accent"></polygon><polygon points="61.313,13.533 52.346,19.874 52.346,31.092 61.313,24.751 " fill="#00cc66" data-fill-palette-color="accent"></polygon><polygon points="72.587,45.788 77.07,42.618 77.07,31.4 72.587,34.57 " fill="#00cc66" data-fill-palette-color="accent"></polygon><polygon points="68.104,34.455 77.07,28.114 77.07,16.896 68.104,23.237 " fill="#00cc66" data-fill-palette-color="accent"></polygon><polygon points="72.587,5.562 72.587,16.78 77.07,13.61 77.07,2.392 " fill="#00cc66" data-fill-palette-color="accent"></polygon><polygon points="68.104,63.464 77.07,57.123 77.07,45.905 68.104,52.245 " fill="#00cc66" data-fill-palette-color="accent"></polygon><path d="M47.861 73.189A19 19 0 0 1 47.861 76.37V77.775L56.829 71.433V60.216L47.861 66.557z" fill="#00cc66" data-fill-palette-color="accent"></path><path d="M32.147 42.79A2.923 2.923 0 0 1 35.93 46.465C34.791 49.845 35.287 50.427 38.038 53.658 38.685 54.418 39.434 55.297 40.244 56.335V27.478H28.22V45.38C29.576 44.054 31.029 43.202 32.147 42.79" fill="#00cc66" data-fill-palette-color="accent"></path><polygon points="71.436,6.377 62.466,12.718 62.466,23.936 71.436,17.595 " fill="#00cc66" data-fill-palette-color="accent"></polygon><polygon points="61.313,42.542 52.346,48.883 52.346,60.102 61.313,53.76 " fill="#00cc66" data-fill-palette-color="accent"></polygon><polygon points="57.98,70.619 66.95,64.277 66.95,53.061 57.98,59.4 " fill="#00cc66" data-fill-palette-color="accent"></polygon><path d="M41.48 63.344C35.498 53.112 30.58 53.192 33.16 45.532 33.16 45.532 26.388 48.032 27.194 56.658 27.194 56.658 27.466 58.724 26.04 60.836 26.04 60.836 26.63 56.255 22.356 52.065 22.356 52.065 24.13 54.645 20.664 59.401 17.319 63.99 13.196 65.604 12.96 72.612L12.929 72.606C12.929 72.866 12.937 73.124 12.95 73.379L12.949 73.4 12.951 73.424 12.954 73.482C12.958 73.597 12.966 73.71 12.979 73.822 13.603 82.297 20.671 88.978 29.305 88.978 35.771 88.978 41.36 85.23 44.021 79.79L44.024 79.787S44.07 79.703 44.14 79.546C44.146 79.532 44.154 79.52 44.16 79.505H44.159C44.731 78.186 46.721 72.309 41.48 63.344M24.564 81.752C19.243 77.964 21.361 72.195 25.857 69.8 32.514 66.252 31.468 62.544 31.468 62.544S35.366 67.977 36.091 74.775C36.817 81.576 29.886 85.54 24.564 81.752" fill="#00cc66" data-fill-palette-color="accent"></path></svg></g></svg></g></svg></g><defs></defs></svg><rect width="395.52" height="173.1750667461283" fill="none" stroke="none" visibility="hidden"></rect></g></svg></g></svg>