<svg xmlns="http://www.w3.org/2000/svg" version="1.1" xmlns:xlink="http://www.w3.org/1999/xlink" xmlns:svgjs="http://svgjs.dev/svgjs" width="2000" height="111" viewBox="0 0 2000 111"><g transform="matrix(1,0,0,1,-1.2121212121212466,-0.631628428152311)"><svg viewBox="0 0 396 22" data-background-color="#121212" preserveAspectRatio="xMidYMid meet" height="111" width="2000" xmlns="http://www.w3.org/2000/svg" xmlns:xlink="http://www.w3.org/1999/xlink"><g id="tight-bounds" transform="matrix(1,0,0,1,0.2400000000000091,0.12518761639054787)"><svg viewBox="0 0 395.52 21.749624767218926" height="21.749624767218926" width="395.52"><g><svg viewBox="0 0 414.8426092420599 22.812174070764637" height="21.749624767218926" width="395.52"><g transform="matrix(1,0,0,1,19.32260924205991,4.598596205441573)"><svg viewBox="0 0 395.52 13.614981659881492" height="13.614981659881492" width="395.52"><g id="textblocktransform"><svg viewBox="0 0 395.52 13.614981659881492" height="13.614981659881492" width="395.52" id="textblock"><g><svg viewBox="0 0 395.52 13.614981659881492" height="13.614981659881492" width="395.52"><g transform="matrix(1,0,0,1,0,0)"><svg width="395.52" viewBox="-1.35 -39.35 1241.35 43.7" height="13.614981659881492" data-palette-color="#ffffff"><path d="M17.05-9.45L17.05-35 22.05-35 22.05-9.65Q22.05-6.65 20.75-4.4 19.45-2.15 17.2-0.9 14.95 0.35 12 0.35L12 0.35Q8.35 0.35 5.95-1.43 3.55-3.2 2.65-6.4L2.65-6.4 6.9-7.85Q7.25-6.7 7.9-5.8 8.55-4.9 9.58-4.38 10.6-3.85 12-3.85L12-3.85Q13.7-3.85 14.8-4.65 15.9-5.45 16.48-6.73 17.05-8 17.05-9.45L17.05-9.45ZM45.45 0.35L45.45 0.35Q41.75 0.35 38.52-0.95 35.3-2.25 32.9-4.63 30.5-7 29.15-10.28 27.8-13.55 27.8-17.5L27.8-17.5Q27.8-21.45 29.15-24.7 30.5-27.95 32.9-30.35 35.3-32.75 38.52-34.05 41.75-35.35 45.45-35.35L45.45-35.35Q49.1-35.35 52.3-34.05 55.5-32.75 57.9-30.35 60.3-27.95 61.65-24.7 63-21.45 63-17.5L63-17.5Q63-13.55 61.65-10.28 60.3-7 57.9-4.63 55.5-2.25 52.3-0.95 49.1 0.35 45.45 0.35ZM45.45-3.95L45.45-3.95Q49-3.95 51.82-5.6 54.65-7.25 56.3-10.3 57.95-13.35 57.95-17.5L57.95-17.5Q57.95-21.7 56.3-24.73 54.65-27.75 51.82-29.4 49-31.05 45.45-31.05L45.45-31.05Q41.85-31.05 39-29.4 36.15-27.75 34.52-24.73 32.9-21.7 32.9-17.5L32.9-17.5Q32.9-13.35 34.52-10.3 36.15-7.25 39-5.6 41.85-3.95 45.45-3.95ZM92.3-35L92.3-30.8 73.9-30.8 73.9-19.85 87.7-19.85 87.7-15.65 73.9-15.65 73.9-4.2 92.3-4.2 92.3 0 68.9 0 68.9-35 92.3-35ZM118.19-25.3L118.19 0 113.19 0 113.19-35 118.69-35 131.14-6.65 143.54-35 148.99-35 148.99 0 144.04 0 144.04-25.3 132.94 0 129.29 0 118.19-25.3ZM180.29-35L180.29-30.8 161.89-30.8 161.89-19.85 175.69-19.85 175.69-15.65 161.89-15.65 161.89-4.2 180.29-4.2 180.29 0 156.89 0 156.89-35 180.29-35ZM209.74-35L214.74-35 214.74 0 209.64 0 192.19-27.1 192.19 0 187.19 0 187.19-35 192.29-35 209.74-8 209.74-35ZM222.63-35L234.63-35Q240.33-35 244.46-32.85 248.58-30.7 250.86-26.75 253.13-22.8 253.13-17.35L253.13-17.35Q253.13-11.95 250.86-8.08 248.58-4.2 244.46-2.1 240.33 0 234.63 0L234.63 0 222.63 0 222.63-35ZM227.63-4.2L234.63-4.2Q241.23-4.2 244.66-7.68 248.08-11.15 248.08-17.35L248.08-17.35Q248.08-23.65 244.66-27.23 241.23-30.8 234.63-30.8L234.63-30.8 227.63-30.8 227.63-4.2ZM282.48-35L282.48-30.8 264.08-30.8 264.08-19.85 277.88-19.85 277.88-15.65 264.08-15.65 264.08-4.2 282.48-4.2 282.48 0 259.08 0 259.08-35 282.48-35ZM312.58-35L312.58-31.2 293.93-4.2 312.68-4.2 312.68 0 288.08 0 288.08-3.8 306.68-30.8 288.18-30.8 288.18-35 312.58-35ZM318.23-11.8L318.23-16 338.43-16 338.43-11.8 318.23-11.8ZM345.37 0L345.37-35 350.37-35 350.37-19.85 367.97-19.85 367.97-35 372.92-35 372.92 0 367.97 0 367.97-15.65 350.37-15.65 350.37 0 345.37 0ZM380.67-12.85L380.67-35 385.67-35 385.67-12.75Q385.67-9.75 386.82-7.78 387.97-5.8 389.97-4.88 391.97-3.95 394.47-3.95L394.47-3.95Q397.02-3.95 399-4.88 400.97-5.8 402.12-7.78 403.27-9.75 403.27-12.75L403.27-12.75 403.27-35 408.27-35 408.27-12.85Q408.27-9.45 407.15-6.98 406.02-4.5 404.05-2.88 402.07-1.25 399.6-0.45 397.12 0.35 394.42 0.35L394.42 0.35Q390.82 0.35 387.67-1.07 384.52-2.5 382.6-5.43 380.67-8.35 380.67-12.85L380.67-12.85ZM447.27-25.9L442.92-24.3Q441.02-27.85 438.09-29.45 435.17-31.05 431.72-31.05L431.72-31.05Q428.22-31.05 425.32-29.35 422.42-27.65 420.74-24.63 419.07-21.6 419.07-17.5L419.07-17.5Q419.07-13.45 420.72-10.4 422.37-7.35 425.24-5.65 428.12-3.95 431.67-3.95L431.67-3.95Q434.22-3.95 436.47-4.85 438.72-5.75 440.39-7.35 442.07-8.95 443.02-11.15L443.02-11.15 443.02-14.95 432.02-14.95 432.02-19.05 448.07-19.05 448.07-10.9Q446.87-7.7 444.49-5.15 442.12-2.6 438.84-1.13 435.57 0.35 431.67 0.35L431.67 0.35Q427.97 0.35 424.74-0.95 421.52-2.25 419.12-4.63 416.72-7 415.37-10.28 414.02-13.55 414.02-17.5L414.02-17.5Q414.02-21.4 415.37-24.68 416.72-27.95 419.12-30.35 421.52-32.75 424.74-34.05 427.97-35.35 431.67-35.35L431.67-35.35Q435.02-35.35 438.07-34.25 441.12-33.15 443.52-31.05 445.92-28.95 447.27-25.9L447.27-25.9ZM454.37 0L454.37-35 459.37-35 459.37-19.85 476.97-19.85 476.97-35 481.92-35 481.92 0 476.97 0 476.97-15.65 459.37-15.65 459.37 0 454.37 0ZM513.26-35L513.26-30.8 494.86-30.8 494.86-19.85 508.66-19.85 508.66-15.65 494.86-15.65 494.86-4.2 513.26-4.2 513.26 0 489.86 0 489.86-35 513.26-35ZM518.61-7.55L523.16-9.25Q523.46-7.85 524.38-6.65 525.31-5.45 526.91-4.7 528.51-3.95 530.86-3.95L530.86-3.95Q534.36-3.95 536.03-5.58 537.71-7.2 537.71-9.4L537.71-9.4Q537.71-11.2 536.68-12.38 535.66-13.55 533.88-14.38 532.11-15.2 529.81-15.85L529.81-15.85Q527.81-16.45 525.88-17.13 523.96-17.8 522.41-18.82 520.86-19.85 519.96-21.48 519.06-23.1 519.06-25.55L519.06-25.55Q519.06-28.6 520.51-30.8 521.96-33 524.58-34.18 527.21-35.35 530.66-35.35L530.66-35.35Q533.56-35.35 535.86-34.52 538.16-33.7 539.73-32.18 541.31-30.65 542.06-28.5L542.06-28.5 537.51-26.85Q537.21-27.95 536.26-28.93 535.31-29.9 533.86-30.5 532.41-31.1 530.61-31.1L530.61-31.1Q528.76-31.15 527.28-30.53 525.81-29.9 524.93-28.75 524.06-27.6 524.06-26L524.06-26Q524.06-24.25 525.06-23.25 526.06-22.25 527.73-21.6 529.41-20.95 531.41-20.35L531.41-20.35Q533.51-19.7 535.51-18.95 537.51-18.2 539.13-17.05 540.76-15.9 541.76-14.18 542.76-12.45 542.76-9.85L542.76-9.85Q542.76-7.05 541.46-4.75 540.16-2.45 537.53-1.05 534.91 0.35 530.96 0.35L530.96 0.35Q527.71 0.35 525.11-0.65 522.51-1.65 520.83-3.43 519.16-5.2 518.61-7.55L518.61-7.55ZM551.51 0.3L551.51 0.3Q550.16 0.3 549.21-0.65 548.26-1.6 548.26-2.95L548.26-2.95Q548.26-4.35 549.21-5.3 550.16-6.25 551.51-6.25L551.51-6.25Q552.86-6.25 553.81-5.3 554.76-4.35 554.76-2.95L554.76-2.95Q554.76-1.6 553.81-0.65 552.86 0.3 551.51 0.3ZM551.51-20.95L551.51-20.95Q550.16-20.95 549.21-21.9 548.26-22.85 548.26-24.2L548.26-24.2Q548.26-25.6 549.21-26.55 550.16-27.5 551.51-27.5L551.51-27.5Q552.86-27.5 553.81-26.55 554.76-25.6 554.76-24.2L554.76-24.2Q554.76-22.85 553.81-21.9 552.86-20.95 551.51-20.95ZM573.9-17.5L573.9-17.5Q573.9-21.45 575.25-24.73 576.6-28 579-30.38 581.4-32.75 584.58-34.05 587.75-35.35 591.45-35.35L591.45-35.35Q596.7-35.35 600.83-32.9 604.95-30.45 607.1-25.85L607.1-25.85 603.1-24.4Q601.9-26.75 600.05-28.2 598.2-29.65 596-30.35 593.8-31.05 591.55-31.05L591.55-31.05Q588-31.05 585.13-29.4 582.25-27.75 580.63-24.7 579-21.65 579-17.5L579-17.5Q579-13.4 580.63-10.35 582.25-7.3 585.13-5.63 588-3.95 591.55-3.95L591.55-3.95Q593.85-3.95 596.1-4.7 598.35-5.45 600.3-7.13 602.25-8.8 603.5-11.5L603.5-11.5 607.5-10.1Q605.25-4.8 601.05-2.23 596.85 0.35 591.45 0.35L591.45 0.35Q587.75 0.35 584.58-0.95 581.4-2.25 579-4.65 576.6-7.05 575.25-10.33 573.9-13.6 573.9-17.5ZM625.45-17.55L635.35-35 640.9-35 627.95-13 627.95 0 623 0 623-12.95 610.05-35 615.6-35 625.45-17.55ZM667.1-25.3L667.1-25.3Q667.1-27.85 665.42-29.33 663.75-30.8 660.6-30.8L660.6-30.8 651.2-30.8 651.2-19.85 660.65-19.85Q663.7-19.85 665.4-21.3 667.1-22.75 667.1-25.3ZM661.6 0L646.2 0 646.2-35 661.05-35Q664.75-35 667.2-33.75 669.65-32.5 670.87-30.45 672.1-28.4 672.1-25.9L672.1-25.9Q672.1-23.55 671.22-21.95 670.35-20.35 668.92-19.4 667.5-18.45 665.7-18.05L665.7-18.05 665.7-17.7Q667.85-17.4 669.47-16.43 671.1-15.45 672.02-13.7 672.95-11.95 672.95-9.35L672.95-9.35Q672.95-6.75 671.6-4.6 670.25-2.45 667.72-1.23 665.2 0 661.6 0L661.6 0ZM651.2-15.65L651.2-4.2 661.15-4.2Q664.35-4.2 666.17-5.68 668-7.15 668-9.9L668-9.9Q668-12.7 666.07-14.18 664.15-15.65 661-15.65L661-15.65 651.2-15.65ZM702.89-35L702.89-30.8 684.49-30.8 684.49-19.85 698.29-19.85 698.29-15.65 684.49-15.65 684.49-4.2 702.89-4.2 702.89 0 679.49 0 679.49-35 702.89-35ZM729.89-24.55L729.89-24.55Q729.89-27.4 728.19-29.1 726.49-30.8 722.79-30.8L722.79-30.8 714.79-30.8 714.79-18.35 722.84-18.35Q725.29-18.35 726.84-19.13 728.39-19.9 729.14-21.3 729.89-22.7 729.89-24.55ZM709.79-35L722.79-35Q726.94-35 729.62-33.58 732.29-32.15 733.62-29.8 734.94-27.45 734.94-24.55L734.94-24.55Q734.94-22.65 734.29-20.8 733.64-18.95 732.19-17.43 730.74-15.9 728.42-15.03 726.09-14.15 722.84-14.15L722.84-14.15 714.79-14.15 714.79 0 709.79 0 709.79-35ZM720.69-15.85L725.99-15.85 735.64 0 729.99 0 720.69-15.85ZM740.04-7.55L744.59-9.25Q744.89-7.85 745.81-6.65 746.74-5.45 748.34-4.7 749.94-3.95 752.29-3.95L752.29-3.95Q755.79-3.95 757.46-5.58 759.14-7.2 759.14-9.4L759.14-9.4Q759.14-11.2 758.11-12.38 757.09-13.55 755.31-14.38 753.54-15.2 751.24-15.85L751.24-15.85Q749.24-16.45 747.31-17.13 745.39-17.8 743.84-18.82 742.29-19.85 741.39-21.48 740.49-23.1 740.49-25.55L740.49-25.55Q740.49-28.6 741.94-30.8 743.39-33 746.01-34.18 748.64-35.35 752.09-35.35L752.09-35.35Q754.99-35.35 757.29-34.52 759.59-33.7 761.16-32.18 762.74-30.65 763.49-28.5L763.49-28.5 758.94-26.85Q758.64-27.95 757.69-28.93 756.74-29.9 755.29-30.5 753.84-31.1 752.04-31.1L752.04-31.1Q750.19-31.15 748.71-30.53 747.24-29.9 746.36-28.75 745.49-27.6 745.49-26L745.49-26Q745.49-24.25 746.49-23.25 747.49-22.25 749.16-21.6 750.84-20.95 752.84-20.35L752.84-20.35Q754.94-19.7 756.94-18.95 758.94-18.2 760.56-17.05 762.19-15.9 763.19-14.18 764.19-12.45 764.19-9.85L764.19-9.85Q764.19-7.05 762.89-4.75 761.59-2.45 758.96-1.05 756.34 0.35 752.39 0.35L752.39 0.35Q749.14 0.35 746.54-0.65 743.94-1.65 742.26-3.43 740.59-5.2 740.04-7.55L740.04-7.55ZM793.89-35L793.89-30.8 775.49-30.8 775.49-19.85 789.29-19.85 789.29-15.65 775.49-15.65 775.49-4.2 793.89-4.2 793.89 0 770.49 0 770.49-35 793.89-35ZM798.83-17.5L798.83-17.5Q798.83-21.45 800.18-24.73 801.53-28 803.93-30.38 806.33-32.75 809.51-34.05 812.68-35.35 816.38-35.35L816.38-35.35Q821.63-35.35 825.76-32.9 829.88-30.45 832.03-25.85L832.03-25.85 828.03-24.4Q826.83-26.75 824.98-28.2 823.13-29.65 820.93-30.35 818.73-31.05 816.48-31.05L816.48-31.05Q812.93-31.05 810.06-29.4 807.18-27.75 805.56-24.7 803.93-21.65 803.93-17.5L803.93-17.5Q803.93-13.4 805.56-10.35 807.18-7.3 810.06-5.63 812.93-3.95 816.48-3.95L816.48-3.95Q818.78-3.95 821.03-4.7 823.28-5.45 825.23-7.13 827.18-8.8 828.43-11.5L828.43-11.5 832.43-10.1Q830.18-4.8 825.98-2.23 821.78 0.35 816.38 0.35L816.38 0.35Q812.68 0.35 809.51-0.95 806.33-2.25 803.93-4.65 801.53-7.05 800.18-10.33 798.83-13.6 798.83-17.5ZM838.78-12.85L838.78-35 843.78-35 843.78-12.75Q843.78-9.75 844.93-7.78 846.08-5.8 848.08-4.88 850.08-3.95 852.58-3.95L852.58-3.95Q855.13-3.95 857.11-4.88 859.08-5.8 860.23-7.78 861.38-9.75 861.38-12.75L861.38-12.75 861.38-35 866.38-35 866.38-12.85Q866.38-9.45 865.26-6.98 864.13-4.5 862.16-2.88 860.18-1.25 857.71-0.45 855.23 0.35 852.53 0.35L852.53 0.35Q848.93 0.35 845.78-1.07 842.63-2.5 840.71-5.43 838.78-8.35 838.78-12.85L838.78-12.85ZM894.18-24.55L894.18-24.55Q894.18-27.4 892.48-29.1 890.78-30.8 887.08-30.8L887.08-30.8 879.08-30.8 879.08-18.35 887.13-18.35Q889.58-18.35 891.13-19.13 892.68-19.9 893.43-21.3 894.18-22.7 894.18-24.55ZM874.08-35L887.08-35Q891.23-35 893.9-33.58 896.58-32.15 897.9-29.8 899.23-27.45 899.23-24.55L899.23-24.55Q899.23-22.65 898.58-20.8 897.93-18.95 896.48-17.43 895.03-15.9 892.7-15.03 890.38-14.15 887.13-14.15L887.13-14.15 879.08-14.15 879.08 0 874.08 0 874.08-35ZM884.98-15.85L890.28-15.85 899.93 0 894.28 0 884.98-15.85ZM905.88 0L905.88-35 910.88-35 910.88 0 905.88 0ZM916.82-30.8L916.82-35 943.67-35 943.67-30.8 932.77-30.8 932.77 0 927.77 0 927.77-30.8 916.82-30.8ZM962.32-17.55L972.22-35 977.77-35 964.82-13 964.82 0 959.87 0 959.87-12.95 946.92-35 952.47-35 962.32-17.55ZM1020.47-35L1020.47-30.8 1002.07-30.8 1002.07-19.85 1015.87-19.85 1015.87-15.65 1002.07-15.65 1002.07-4.2 1020.47-4.2 1020.47 0 997.07 0 997.07-35 1020.47-35ZM1049.91-35L1054.91-35 1054.91 0 1049.81 0 1032.36-27.1 1032.36 0 1027.36 0 1027.36-35 1032.46-35 1049.91-8 1049.91-35ZM1094.11-25.9L1089.76-24.3Q1087.86-27.85 1084.94-29.45 1082.01-31.05 1078.56-31.05L1078.56-31.05Q1075.06-31.05 1072.16-29.35 1069.26-27.65 1067.59-24.63 1065.91-21.6 1065.91-17.5L1065.91-17.5Q1065.91-13.45 1067.56-10.4 1069.21-7.35 1072.09-5.65 1074.96-3.95 1078.51-3.95L1078.51-3.95Q1081.06-3.95 1083.31-4.85 1085.56-5.75 1087.24-7.35 1088.91-8.95 1089.86-11.15L1089.86-11.15 1089.86-14.95 1078.86-14.95 1078.86-19.05 1094.91-19.05 1094.91-10.9Q1093.71-7.7 1091.34-5.15 1088.96-2.6 1085.69-1.13 1082.41 0.35 1078.51 0.35L1078.51 0.35Q1074.81 0.35 1071.59-0.95 1068.36-2.25 1065.96-4.63 1063.56-7 1062.21-10.28 1060.86-13.55 1060.86-17.5L1060.86-17.5Q1060.86-21.4 1062.21-24.68 1063.56-27.95 1065.96-30.35 1068.36-32.75 1071.59-34.05 1074.81-35.35 1078.51-35.35L1078.51-35.35Q1081.86-35.35 1084.91-34.25 1087.96-33.15 1090.36-31.05 1092.76-28.95 1094.11-25.9L1094.11-25.9ZM1101.21 0L1101.21-35 1106.21-35 1106.21 0 1101.21 0ZM1136.66-35L1141.66-35 1141.66 0 1136.56 0 1119.11-27.1 1119.11 0 1114.11 0 1114.11-35 1119.21-35 1136.66-8 1136.66-35ZM1172.95-35L1172.95-30.8 1154.55-30.8 1154.55-19.85 1168.35-19.85 1168.35-15.65 1154.55-15.65 1154.55-4.2 1172.95-4.2 1172.95 0 1149.55 0 1149.55-35 1172.95-35ZM1203.25-35L1203.25-30.8 1184.85-30.8 1184.85-19.85 1198.65-19.85 1198.65-15.65 1184.85-15.65 1184.85-4.2 1203.25-4.2 1203.25 0 1179.85 0 1179.85-35 1203.25-35ZM1230.25-24.55L1230.25-24.55Q1230.25-27.4 1228.55-29.1 1226.85-30.8 1223.15-30.8L1223.15-30.8 1215.15-30.8 1215.15-18.35 1223.2-18.35Q1225.65-18.35 1227.2-19.13 1228.75-19.9 1229.5-21.3 1230.25-22.7 1230.25-24.55ZM1210.15-35L1223.15-35Q1227.3-35 1229.97-33.58 1232.65-32.15 1233.97-29.8 1235.3-27.45 1235.3-24.55L1235.3-24.55Q1235.3-22.65 1234.65-20.8 1234-18.95 1232.55-17.43 1231.1-15.9 1228.77-15.03 1226.45-14.15 1223.2-14.15L1223.2-14.15 1215.15-14.15 1215.15 0 1210.15 0 1210.15-35ZM1221.05-15.85L1226.35-15.85 1236 0 1230.35 0 1221.05-15.85Z" opacity="1" transform="matrix(1,0,0,1,0,0)" fill="#ffffff" class="wordmark-text-0" data-fill-palette-color="primary" id="text-0"></path></svg></g></svg></g></svg></g></svg></g><g><svg viewBox="0 0 16.63535201374438 22.812174070764637" height="22.812174070764637" width="16.63535201374438"><g><svg xmlns="http://www.w3.org/2000/svg" xmlns:xlink="http://www.w3.org/1999/xlink" version="1.1" x="0" y="0" viewBox="12.929 1.021 64.14099999999999 87.957" enable-background="new 0 0 90 90" xml:space="preserve" height="22.812174070764637" width="16.63535201374438" class="icon-icon-0" data-fill-palette-color="accent" id="icon-0"><polygon points="42.225,52.752 46.708,49.581 46.708,38.363 42.225,41.534 " fill="#00cc66" data-fill-palette-color="accent"></polygon><polygon points="51.191,20.688 42.225,27.029 42.225,38.248 51.191,31.907 " fill="#00cc66" data-fill-palette-color="accent"></polygon><polygon points="56.829,31.207 47.861,37.548 47.861,48.768 56.829,42.425 " fill="#00cc66" data-fill-palette-color="accent"></polygon><path d="M51.191 49.698L42.224 56.038V59.048C42.804 59.902 43.4 60.836 44.003 61.868A34 34 0 0 1 45.574 64.889L51.191 60.916z" fill="#00cc66" data-fill-palette-color="accent"></path><polygon points="57.98,41.61 66.95,35.27 66.95,24.052 57.98,30.393 " fill="#00cc66" data-fill-palette-color="accent"></polygon><polygon points="76.409,1.021 63.177,1.021 28.22,24.912 41.452,24.912 " fill="#00cc66" data-fill-palette-color="accent"></polygon><path d="M46.708 67.738V67.372L46.605 67.443C46.641 67.542 46.676 67.641 46.708 67.738" fill="#00cc66" data-fill-palette-color="accent"></path><polygon points="62.466,52.943 71.436,46.604 71.436,35.386 62.466,41.727 " fill="#00cc66" data-fill-palette-color="accent"></polygon><polygon points="61.313,13.533 52.346,19.874 52.346,31.092 61.313,24.751 " fill="#00cc66" data-fill-palette-color="accent"></polygon><polygon points="72.587,45.788 77.07,42.618 77.07,31.4 72.587,34.57 " fill="#00cc66" data-fill-palette-color="accent"></polygon><polygon points="68.104,34.455 77.07,28.114 77.07,16.896 68.104,23.237 " fill="#00cc66" data-fill-palette-color="accent"></polygon><polygon points="72.587,5.562 72.587,16.78 77.07,13.61 77.07,2.392 " fill="#00cc66" data-fill-palette-color="accent"></polygon><polygon points="68.104,63.464 77.07,57.123 77.07,45.905 68.104,52.245 " fill="#00cc66" data-fill-palette-color="accent"></polygon><path d="M47.861 73.189A19 19 0 0 1 47.861 76.37V77.775L56.829 71.433V60.216L47.861 66.557z" fill="#00cc66" data-fill-palette-color="accent"></path><path d="M32.147 42.79A2.923 2.923 0 0 1 35.93 46.465C34.791 49.845 35.287 50.427 38.038 53.658 38.685 54.418 39.434 55.297 40.244 56.335V27.478H28.22V45.38C29.576 44.054 31.029 43.202 32.147 42.79" fill="#00cc66" data-fill-palette-color="accent"></path><polygon points="71.436,6.377 62.466,12.718 62.466,23.936 71.436,17.595 " fill="#00cc66" data-fill-palette-color="accent"></polygon><polygon points="61.313,42.542 52.346,48.883 52.346,60.102 61.313,53.76 " fill="#00cc66" data-fill-palette-color="accent"></polygon><polygon points="57.98,70.619 66.95,64.277 66.95,53.061 57.98,59.4 " fill="#00cc66" data-fill-palette-color="accent"></polygon><path d="M41.48 63.344C35.498 53.112 30.58 53.192 33.16 45.532 33.16 45.532 26.388 48.032 27.194 56.658 27.194 56.658 27.466 58.724 26.04 60.836 26.04 60.836 26.63 56.255 22.356 52.065 22.356 52.065 24.13 54.645 20.664 59.401 17.319 63.99 13.196 65.604 12.96 72.612L12.929 72.606C12.929 72.866 12.937 73.124 12.95 73.379L12.949 73.4 12.951 73.424 12.954 73.482C12.958 73.597 12.966 73.71 12.979 73.822 13.603 82.297 20.671 88.978 29.305 88.978 35.771 88.978 41.36 85.23 44.021 79.79L44.024 79.787S44.07 79.703 44.14 79.546C44.146 79.532 44.154 79.52 44.16 79.505H44.159C44.731 78.186 46.721 72.309 41.48 63.344M24.564 81.752C19.243 77.964 21.361 72.195 25.857 69.8 32.514 66.252 31.468 62.544 31.468 62.544S35.366 67.977 36.091 74.775C36.817 81.576 29.886 85.54 24.564 81.752" fill="#00cc66" data-fill-palette-color="accent"></path></svg></g></svg></g></svg></g><defs></defs></svg><rect width="395.52" height="21.749624767218926" fill="none" stroke="none" visibility="hidden"></rect></g></svg></g></svg>